<?xml version="1.0" encoding="UTF-8" standalone="no"?>
<!-- Created with Inkscape (http://www.inkscape.org/) -->

<svg
   version="1.1"
   id="svg2"
   width="11.249886"
   height="17.095398"
   viewBox="0 0 11.249886 17.095398"
   sodipodi:docname="E24136542_宋昱宣_預報2.svg"
   inkscape:version="1.2.1 (9c6d41e410, 2022-07-14)"
   xmlns:inkscape="http://www.inkscape.org/namespaces/inkscape"
   xmlns:sodipodi="http://sodipodi.sourceforge.net/DTD/sodipodi-0.dtd"
   xmlns="http://www.w3.org/2000/svg"
   xmlns:svg="http://www.w3.org/2000/svg">
  <defs
     id="defs6" />
  <sodipodi:namedview
     id="namedview4"
     pagecolor="#ffffff"
     bordercolor="#000000"
     borderopacity="0.25"
     inkscape:showpageshadow="2"
     inkscape:pageopacity="0.0"
     inkscape:pagecheckerboard="0"
     inkscape:deskcolor="#d1d1d1"
     showgrid="false"
     inkscape:zoom="2.3786081"
     inkscape:cx="203.48035"
     inkscape:cy="340.32508"
     inkscape:window-width="1600"
     inkscape:window-height="930"
     inkscape:window-x="-6"
     inkscape:window-y="-6"
     inkscape:window-maximized="1"
     inkscape:current-layer="g10" />
  <g
     id="g10"
     inkscape:groupmode="layer"
     inkscape:label="Page 1"
     transform="matrix(1.3333333,0,0,-1.3333333,-67.760948,1058.5253)">
    <g
       id="g448478">
      <g
         id="g1176"
         transform="matrix(0.5454546,0,0,-0.5454546,0,841.89)">
        <path
           d="m 94.91308,89.34554 c 0.0063,-0.1056 0.0097,-0.16145 0.01003,-0.16756 2.6e-4,-0.0043 -0.004,0.0081 -0.01284,0.03719 -0.0088,0.02911 -0.06816,0.22496 -0.17802,0.58755 -0.10985,0.36259 -0.26529,0.8522 -0.46629,1.46884 -0.20101,0.61664 -0.31687,0.99967 -0.34759,1.14907 -0.03072,0.14941 0.09518,0.182 0.37771,0.09779 0.28253,-0.08421 0.52722,-0.16872 0.73407,-0.25354 0.29871,-0.12249 0.69747,-0.50422 1.19629,-1.1452"
           style="fill:none;stroke:#000000;stroke-width:1.03937;stroke-linecap:round;stroke-linejoin:round;stroke-miterlimit:10;stroke-dasharray:none;stroke-opacity:1"
           id="path1178" />
      </g>
      <g
         id="g1180"
         transform="matrix(0.5454546,0,0,-0.5454546,0,841.89)">
        <path
           d="m 96.8876,89.22311 c 0.01404,-0.08721 -0.01946,-0.14224 -0.10048,-0.1651 -0.0569,-0.01605 -0.19134,0.30818 -0.4033,0.97269 -0.21196,0.66451 -0.41954,1.3346 -0.62274,2.01027 -0.2032,0.67568 -0.41131,1.32774 -0.62432,1.95617 -0.21301,0.62843 -0.40649,1.13477 -0.58044,1.519 -0.17394,0.38425 -0.32731,0.69393 -0.46008,0.92905 -0.13278,0.23512 -0.21536,0.38135 -0.24774,0.43868 -0.03237,0.05733 -0.03972,0.07761 -0.02204,0.06086 0.01769,-0.01676 0.06279,-0.05951 0.13531,-0.12825 0.07252,-0.06874 0.34885,-0.28751 0.82899,-0.65631 0.48015,-0.36879 0.8179,-0.6322 1.01327,-0.79022 0.30243,-0.2446 0.47738,-0.46119 0.52487,-0.64977"
           style="fill:none;stroke:#000000;stroke-width:1.03937;stroke-linecap:round;stroke-linejoin:round;stroke-miterlimit:10;stroke-dasharray:none;stroke-opacity:1"
           id="path1182" />
      </g>
      <g
         id="g1184"
         transform="matrix(0.5454546,0,0,-0.5454546,0,841.89)">
        <path
           d="m 96.43068,94.45313 c 0.0073,-0.36991 0.02058,-0.53845 0.03979,-0.50564 0.01365,0.02333 0.04777,0.08164 0.10238,0.17495 0.0546,0.09329 0.1125,0.22976 0.17369,0.40941 0.0612,0.17963 0.118,0.36126 0.17041,0.54487 0.05241,0.18362 0.10701,0.35051 0.16379,0.50066"
           style="fill:none;stroke:#000000;stroke-width:1.03937;stroke-linecap:round;stroke-linejoin:round;stroke-miterlimit:10;stroke-dasharray:none;stroke-opacity:1"
           id="path1186" />
      </g>
      <g
         id="g1188"
         transform="matrix(0.5454546,0,0,-0.5454546,0,841.89)">
        <path
           d="m 94.30061,98.271 c -0.09662,-0.05039 -0.20068,-0.07893 -0.3122,-0.08562 -0.07461,-0.0045 -0.13879,0.0012 -0.19255,0.01692 -0.05376,0.01576 -0.08676,0.05098 -0.09902,0.10568 -0.01226,0.05469 -0.0059,0.11628 0.01919,0.18477 0.03561,0.09734 0.29299,0.15606 0.77215,0.17616"
           style="fill:none;stroke:#000000;stroke-width:1.03937;stroke-linecap:round;stroke-linejoin:round;stroke-miterlimit:10;stroke-dasharray:none;stroke-opacity:1"
           id="path1190" />
      </g>
      <g
         id="g1192"
         transform="matrix(0.5454546,0,0,-0.5454546,0,841.89)">
        <path
           d="m 95.35786,97.63339 c 0.14322,-0.0457 0.24329,-0.05176 0.30019,-0.01816 0.0578,0.03412 0.13106,0.09101 0.21977,0.17066"
           style="fill:none;stroke:#000000;stroke-width:1.03937;stroke-linecap:round;stroke-linejoin:round;stroke-miterlimit:10;stroke-dasharray:none;stroke-opacity:1"
           id="path1194" />
      </g>
      <g
         id="g1196"
         transform="matrix(0.5454546,0,0,-0.5454546,0,841.89)">
        <path
           d="m 96.6481,96.97082 c 0.26403,0.25236 0.61053,0.36518 1.0395,0.33844"
           style="fill:none;stroke:#000000;stroke-width:1.03937;stroke-linecap:round;stroke-linejoin:round;stroke-miterlimit:10;stroke-dasharray:none;stroke-opacity:1"
           id="path1198" />
      </g>
      <g
         id="g1200"
         transform="matrix(0.5454546,0,0,-0.5454546,0,841.89)">
        <path
           d="m 101.0043,88.96873 c -0.0423,-0.30838 -0.0286,-0.46058 0.041,-0.4566 0.0494,0.0028 0.1166,0.06243 0.2016,0.17885 0.085,0.11642 0.163,0.27498 0.2341,0.47568 0.1029,0.2907 0.1112,0.78101 0.0248,1.47094"
           style="fill:none;stroke:#000000;stroke-width:1.03937;stroke-linecap:round;stroke-linejoin:round;stroke-miterlimit:10;stroke-dasharray:none;stroke-opacity:1"
           id="path1202" />
      </g>
      <g
         id="g1204"
         transform="matrix(0.5454546,0,0,-0.5454546,0,841.89)">
        <path
           d="m 98.85858,92.49648 c -0.4834,0 -0.73559,0 -0.75656,0 -0.01479,0 -0.01799,-4.8e-4 -0.0096,-0.0015 0.0084,-9.8e-4 0.08204,-0.0095 0.22094,-0.02567 0.1389,-0.01613 0.40997,-0.06467 0.8132,-0.1456 0.40324,-0.08093 0.84711,-0.17676 1.33164,-0.28748 0.4845,-0.11073 0.9483,-0.22654 1.3915,-0.34744 0.4433,-0.12091 0.8247,-0.22776 1.1443,-0.32055 l 0.4271,-0.12397 -0.007,0.0019 -0.0294,0.0085 0.0883,-0.02565"
           style="fill:none;stroke:#000000;stroke-width:1.03937;stroke-linecap:round;stroke-linejoin:round;stroke-miterlimit:10;stroke-dasharray:none;stroke-opacity:1"
           id="path1206" />
      </g>
      <g
         id="g1208"
         transform="matrix(0.5454546,0,0,-0.5454546,0,841.89)">
        <path
           d="m 99.48956,94.31227 c -0.15027,-0.03088 -0.23269,-0.06444 -0.24728,-0.1007 -0.01022,-0.02542 0.03889,-0.05785 0.14735,-0.0973 0.10846,-0.03945 0.63937,-0.15573 1.59277,-0.34882 l 1.3355,-0.27049 -0.007,0.0014 -0.0506,0.01026 0.1519,-0.03078"
           style="fill:none;stroke:#000000;stroke-width:1.03937;stroke-linecap:round;stroke-linejoin:round;stroke-miterlimit:10;stroke-dasharray:none;stroke-opacity:1"
           id="path1210" />
      </g>
      <g
         id="g1212"
         transform="matrix(0.5454546,0,0,-0.5454546,0,841.89)">
        <path
           d="m 99.98677,95.01422 c -0.19531,0 -0.29737,0 -0.30618,1e-5 -0.0062,0 -0.0065,-3.7e-4 -9.3e-4,-0.0011 0.0056,-7.4e-4 0.05291,-0.007 0.14198,-0.01889 0.08906,-0.01186 0.32416,-0.06479 0.70516,-0.15878 0.5806,-0.14319 1.0863,-0.18821 1.517,-0.13506"
           style="fill:none;stroke:#000000;stroke-width:1.03937;stroke-linecap:round;stroke-linejoin:round;stroke-miterlimit:10;stroke-dasharray:none;stroke-opacity:1"
           id="path1214" />
      </g>
      <g
         id="g1216"
         transform="matrix(0.5454546,0,0,-0.5454546,0,841.89)">
        <path
           d="m 99.20267,96.98282 c -0.12308,0.26941 -0.22192,0.66733 -0.29653,1.19376"
           style="fill:none;stroke:#000000;stroke-width:1.03937;stroke-linecap:round;stroke-linejoin:round;stroke-miterlimit:10;stroke-dasharray:none;stroke-opacity:1"
           id="path1218" />
      </g>
      <g
         id="g1220"
         transform="matrix(0.5454546,0,0,-0.5454546,0,841.89)">
        <path
           d="m 99.63884,96.75587 c 0.07662,-0.12228 0.16161,-0.2153 0.25494,-0.27905 0.06324,-0.04319 0.17902,-0.10025 0.34742,-0.17119 0.1683,-0.07094 0.3738,-0.13651 0.6165,-0.19672 0.2427,-0.06021 0.4625,-0.09647 0.6595,-0.1088 0.1969,-0.01232 0.3052,0.04392 0.3249,0.16873 0.0197,0.1248 -0.0442,0.29787 -0.1918,0.51921 -0.1475,0.22134 -0.31,0.43266 -0.4874,0.63395 -0.1774,0.20129 -0.3298,0.35341 -0.457,0.45637 -0.1272,0.10295 -0.2266,0.16193 -0.2981,0.17695 -0.0714,0.01502 -0.108,0.0043 -0.1095,-0.03227 -0.002,-0.03653 0.1018,-0.06571 0.3101,-0.08756 0.3003,-0.03148 0.7992,-0.2919 1.4969,-0.78125"
           style="fill:none;stroke:#000000;stroke-width:1.03937;stroke-linecap:round;stroke-linejoin:round;stroke-miterlimit:10;stroke-dasharray:none;stroke-opacity:1"
           id="path1222" />
      </g>
      <g
         id="g1224"
         transform="matrix(0.5454546,0,0,-0.5454546,0,841.89)">
        <path
           d="m 105.4588,90.04175 c -0.0644,0.10108 -0.1137,0.2135 -0.1479,0.33726 -0.0342,0.12377 -0.1249,0.38805 -0.2721,0.79283 -0.1471,0.40478 -0.2472,0.70308 -0.3003,0.89492 -0.053,0.19184 -0.0872,0.34191 -0.1025,0.45022 -0.0153,0.10831 0.0457,0.16248 0.1831,0.16251 0.1374,3e-5 0.4249,-0.10475 0.8624,-0.31433 0.4374,-0.20958 0.7715,-0.36545 1.002,-0.46762 0.3495,-0.15487 0.5562,-0.33339 0.6201,-0.53557"
           style="fill:none;stroke:#000000;stroke-width:1.03937;stroke-linecap:round;stroke-linejoin:round;stroke-miterlimit:10;stroke-dasharray:none;stroke-opacity:1"
           id="path1226" />
      </g>
      <g
         id="g1228"
         transform="matrix(0.5454546,0,0,-0.5454546,0,841.89)">
        <path
           d="m 107.9243,89.48135 c -0.1965,0.0332 -0.3515,0.07061 -0.4652,0.11223 -0.0776,0.02839 -0.17,0.10343 -0.2772,0.2251 -0.1073,0.12167 -0.2491,0.34119 -0.4257,0.65855 -0.1765,0.31735 -0.5002,0.9623 -0.9711,1.93484 -0.4709,0.97254 -0.8151,1.68028 -1.0327,2.12321 -0.2176,0.44294 -0.3744,0.77524 -0.4706,0.9969 -0.0962,0.22167 -0.0523,0.30839 0.1316,0.26016 0.184,-0.04822 0.54,-0.19167 1.0679,-0.43035 0.528,-0.23868 0.8792,-0.47737 1.0536,-0.71609"
           style="fill:none;stroke:#000000;stroke-width:1.03937;stroke-linecap:round;stroke-linejoin:round;stroke-miterlimit:10;stroke-dasharray:none;stroke-opacity:1"
           id="path1230" />
      </g>
      <g
         id="g1232"
         transform="matrix(0.5454546,0,0,-0.5454546,0,841.89)">
        <path
           d="m 106.7309,93.8979 c 0.1023,-0.12201 0.1862,-0.10138 0.2516,0.06191 0.0655,0.16329 0.1202,0.31864 0.1641,0.46606 0.044,0.14742 0.0766,0.30142 0.0979,0.46201 0.0305,0.23025 -0.1362,0.46186 -0.5001,0.69481"
           style="fill:none;stroke:#000000;stroke-width:1.03937;stroke-linecap:round;stroke-linejoin:round;stroke-miterlimit:10;stroke-dasharray:none;stroke-opacity:1"
           id="path1234" />
      </g>
      <g
         id="g1236"
         transform="matrix(0.5454546,0,0,-0.5454546,0,841.89)">
        <path
           d="m 103.6915,97.14995 c -0.2745,0.14918 -0.4513,0.25285 -0.5303,0.31102 -0.0549,0.04037 -0.0901,0.08598 -0.1056,0.13683 -0.0154,0.05085 7e-4,0.09998 0.0486,0.14738 0.0683,0.0676 0.3696,0.13302 0.9038,0.19626"
           style="fill:none;stroke:#000000;stroke-width:1.03937;stroke-linecap:round;stroke-linejoin:round;stroke-miterlimit:10;stroke-dasharray:none;stroke-opacity:1"
           id="path1238" />
      </g>
      <g
         id="g1240"
         transform="matrix(0.5454546,0,0,-0.5454546,0,841.89)">
        <path
           d="m 105.2292,96.68732 c -0.0195,0.15028 0.1409,0.35717 0.4813,0.62066"
           style="fill:none;stroke:#000000;stroke-width:1.03937;stroke-linecap:round;stroke-linejoin:round;stroke-miterlimit:10;stroke-dasharray:none;stroke-opacity:1"
           id="path1242" />
      </g>
      <g
         id="g1244"
         transform="matrix(0.5454546,0,0,-0.5454546,0,841.89)">
        <path
           d="m 106.2292,96.65699 c 0.1037,0.15808 0.2146,0.28122 0.3324,0.36942 0.1156,0.08651 0.2222,0.27063 0.3197,0.55237"
           style="fill:none;stroke:#000000;stroke-width:1.03937;stroke-linecap:round;stroke-linejoin:round;stroke-miterlimit:10;stroke-dasharray:none;stroke-opacity:1"
           id="path1246" />
      </g>
      <g
         id="g1248"
         transform="matrix(0.5454546,0,0,-0.5454546,0,841.89)">
        <path
           d="m 97.73044,100.241 c 0.0097,-0.1502 -0.01824,-0.28872 -0.0838,-0.41564 -0.04417,-0.0855 -0.10284,-0.09505 -0.17601,-0.02865 -0.07318,0.06641 -0.17196,0.27429 -0.29632,0.62369 -0.12437,0.3495 -0.27566,0.7654 -0.45388,1.2477 -0.17822,0.4824 -0.35257,0.935 -0.52304,1.3577 -0.17047,0.4228 -0.28738,0.7367 -0.35073,0.942 l -0.04174,0.1479 0.06663,-0.1728 c 0.07994,-0.2219 0.18629,-0.3992 0.31905,-0.5321"
           style="fill:none;stroke:#000000;stroke-width:1.03937;stroke-linecap:round;stroke-linejoin:round;stroke-miterlimit:10;stroke-dasharray:none;stroke-opacity:1"
           id="path1250" />
      </g>
      <g
         id="g1252"
         transform="matrix(0.5454546,0,0,-0.5454546,0,841.89)">
        <path
           d="m 97.58407,102.5936 c 0.11377,-0.2019 0.44694,-0.391 0.99952,-0.5671 0.35301,-0.1125 0.73189,-0.2387 1.13663,-0.3787 0.40478,-0.14 0.88948,-0.2931 1.45418,-0.4592 0.5648,-0.1662 1.089,-0.299 1.5728,-0.3984 0.7366,-0.1514 1.3456,-0.3681 1.827,-0.6502"
           style="fill:none;stroke:#000000;stroke-width:1.03937;stroke-linecap:round;stroke-linejoin:round;stroke-miterlimit:10;stroke-dasharray:none;stroke-opacity:1"
           id="path1254" />
      </g>
      <g
         id="g1256"
         transform="matrix(0.5454546,0,0,-0.5454546,0,841.89)">
        <path
           d="m 102.8806,101.4947 c -0.1256,-0.0135 -0.2383,0.0493 -0.338,0.1884 -0.0678,0.0944 -0.2855,0.4746 -0.653,1.1404 -0.3676,0.6658 -0.7657,1.3155 -1.1942,1.9492 -0.4286,0.6337 -0.91491,1.2622 -1.45888,1.8856 -0.54397,0.6233 -1.06525,1.1552 -1.56383,1.5956 -0.49858,0.4405 -0.917,0.7593 -1.25527,0.9563 -0.33826,0.1971 -0.69074,0.229 -1.05743,0.0955"
           style="fill:none;stroke:#000000;stroke-width:1.03937;stroke-linecap:round;stroke-linejoin:round;stroke-miterlimit:10;stroke-dasharray:none;stroke-opacity:1"
           id="path1258" />
      </g>
      <g
         id="g1260"
         transform="matrix(0.5454546,0,0,-0.5454546,0,841.89)">
        <path
           d="m 97.56567,105.0072 c 0.10623,-0.0588 0.52291,0.1197 1.25002,0.5356 0.72711,0.4159 1.59511,0.9338 2.60391,1.5538 1.0088,0.6199 1.9485,1.2143 2.8188,1.7832 0.8704,0.5688 1.5981,0.9848 2.1832,1.2478 0.585,0.2631 1.1512,0.5469 1.6986,0.8516"
           style="fill:none;stroke:#000000;stroke-width:1.03937;stroke-linecap:round;stroke-linejoin:round;stroke-miterlimit:10;stroke-dasharray:none;stroke-opacity:1"
           id="path1262" />
      </g>
    </g>
  </g>
</svg>
