<?xml version="1.0" encoding="UTF-8" standalone="no"?>
<!-- Created with Inkscape (http://www.inkscape.org/) -->

<svg
   version="1.1"
   id="svg2"
   width="14.486954"
   height="14.152985"
   viewBox="0 0 14.486954 14.152984"
   sodipodi:docname="E24136542_宋昱宣_預報2.svg"
   inkscape:version="1.2.1 (9c6d41e410, 2022-07-14)"
   xmlns:inkscape="http://www.inkscape.org/namespaces/inkscape"
   xmlns:sodipodi="http://sodipodi.sourceforge.net/DTD/sodipodi-0.dtd"
   xmlns="http://www.w3.org/2000/svg"
   xmlns:svg="http://www.w3.org/2000/svg">
  <defs
     id="defs6" />
  <sodipodi:namedview
     id="namedview4"
     pagecolor="#ffffff"
     bordercolor="#000000"
     borderopacity="0.25"
     inkscape:showpageshadow="2"
     inkscape:pageopacity="0.0"
     inkscape:pagecheckerboard="0"
     inkscape:deskcolor="#d1d1d1"
     showgrid="false"
     inkscape:zoom="2.3786081"
     inkscape:cx="203.48035"
     inkscape:cy="340.32508"
     inkscape:window-width="1600"
     inkscape:window-height="930"
     inkscape:window-x="-6"
     inkscape:window-y="-6"
     inkscape:window-maximized="1"
     inkscape:current-layer="g10" />
  <g
     id="g10"
     inkscape:groupmode="layer"
     inkscape:label="Page 1"
     transform="matrix(1.3333333,0,0,-1.3333333,-215.04025,1078.7332)">
    <g
       id="g224212">
      <g
         id="g832"
         transform="matrix(0.5454546,0,0,-0.5454546,0,841.89)">
        <path
           d="m 304.1207,62.39281 c -0.0992,-0.18452 -0.1527,-0.30691 -0.1606,-0.36718 -0.005,-0.04192 -0.008,-0.06412 -0.009,-0.0666 -3e-4,-0.0025 -4e-4,0.0038 -4e-4,0.01872 0,0.01495 -10e-5,0.14878 -10e-5,0.4015 -1e-4,0.25272 -0.008,0.74394 -0.0247,1.47366 -0.0164,0.72973 -0.0461,1.45168 -0.0891,2.16584 l -0.0593,0.9851 5e-4,-0.0075 0.003,-0.04684 -0.008,0.14054"
           style="fill:none;stroke:#000000;stroke-width:1.03937;stroke-linecap:round;stroke-linejoin:round;stroke-miterlimit:10;stroke-dasharray:none;stroke-opacity:1"
           id="path834" />
      </g>
      <g
         id="g836"
         transform="matrix(0.5454546,0,0,-0.5454546,0,841.89)">
        <path
           d="m 304.4682,63.05336 c -0.001,-0.17876 0.0198,-0.3423 0.0634,-0.49064 0.0294,-0.09985 0.0994,-0.19407 0.21,-0.28266 0.1106,-0.08859 0.2749,-0.15809 0.4927,-0.2085 0.2179,-0.05041 0.4719,-0.08655 0.7622,-0.10844 0.2902,-0.02188 0.607,-0.05413 0.9505,-0.09675 0.3435,-0.04261 0.694,-0.1076 1.0514,-0.19496 0.3574,-0.08736 0.6905,-0.19155 0.9994,-0.31258 0.3089,-0.12103 0.6216,-0.25428 0.9384,-0.39977 0.3166,-0.14548 0.5007,-0.22327 0.5521,-0.23337 0.0514,-0.01011 0.1012,0.0675 0.1495,0.23281 0.0483,0.1653 0.0866,0.39081 0.115,0.67652 0.0284,0.28571 0.0358,0.69101 0.0222,1.21592 -0.0135,0.52491 -0.0709,1.08424 -0.1722,1.67799 -0.1012,0.59375 -0.1982,1.08987 -0.2911,1.48837 -0.0928,0.39849 -0.1392,0.59774 -0.1392,0.59774"
           style="fill:none;stroke:#000000;stroke-width:1.03937;stroke-linecap:round;stroke-linejoin:round;stroke-miterlimit:10;stroke-dasharray:none;stroke-opacity:1"
           id="path838" />
      </g>
      <g
         id="g840"
         transform="matrix(0.5454546,0,0,-0.5454546,0,841.89)">
        <path
           d="m 308.9554,63.88065 c -0.0406,-0.11027 -0.1338,-0.20706 -0.2796,-0.29038 -0.1458,-0.08331 -0.2711,-0.13779 -0.3759,-0.16344 -0.1048,-0.02565 -0.1877,-0.03709 -0.2487,-0.03431 -0.0611,0.0028 -0.1774,0.12859 -0.3491,0.37746 -0.1716,0.24886 -0.2766,0.43376 -0.3148,0.5547 -0.0383,0.12095 -0.0275,0.28737 0.0322,0.49926 0.0597,0.2119 0.102,0.4431 0.127,0.6936 0.0368,0.36766 0.0173,0.83961 -0.0584,1.41586"
           style="fill:none;stroke:#000000;stroke-width:1.03937;stroke-linecap:round;stroke-linejoin:round;stroke-miterlimit:10;stroke-dasharray:none;stroke-opacity:1"
           id="path842" />
      </g>
      <g
         id="g844"
         transform="matrix(0.5454546,0,0,-0.5454546,0,841.89)">
        <path
           d="m 302.3927,68.48469 c 0.1396,-0.08415 0.1578,0.32003 0.0546,1.21254 -0.1033,0.89251 -0.2144,1.86003 -0.3333,2.90257 -0.119,1.04254 -0.2383,2.02917 -0.3578,2.95991 -0.1196,0.93073 -0.1956,1.62287 -0.2278,2.0764 l -0.046,0.64598 2e-4,-0.0018 0.001,-0.01806 -0.004,0.0542"
           style="fill:none;stroke:#000000;stroke-width:1.03937;stroke-linecap:round;stroke-linejoin:round;stroke-miterlimit:10;stroke-dasharray:none;stroke-opacity:1"
           id="path846" />
      </g>
      <g
         id="g848"
         transform="matrix(0.5454546,0,0,-0.5454546,0,841.89)">
        <path
           d="m 303.0782,69.8225 c 0.1336,-0.22833 0.2124,-0.3877 0.2363,-0.47812 0.0165,-0.06262 0.0833,-0.11953 0.2005,-0.1707 0.1171,-0.05118 0.6028,-0.17217 1.457,-0.36298 0.8543,-0.1908 1.6001,-0.35786 2.2374,-0.50119 0.6374,-0.14333 1.2692,-0.28841 1.8956,-0.43524 0.6264,-0.14684 1.1839,-0.27533 1.6726,-0.38547 0.4888,-0.11013 0.8816,-0.19148 1.1786,-0.24404 0.2971,-0.05256 0.5725,-0.0842 0.8264,-0.09493 0.2539,-0.01072 0.4304,0.03968 0.5296,0.15119 0.0991,0.11151 0.172,0.24337 0.2188,0.39557 0.0467,0.1522 0.083,0.38077 0.1087,0.6857 0.0257,0.30495 0.0356,0.75171 0.0296,1.34031 -0.006,0.58859 -0.0589,1.31376 -0.1586,2.17552 -0.0997,0.86176 -0.2084,1.63948 -0.326,2.33317 -0.1177,0.69368 -0.2238,1.23242 -0.3182,1.61621 -0.0945,0.38379 -0.1941,0.66113 -0.2988,0.83202 -0.1497,0.2446 -0.4317,0.31439 -0.8457,0.20937"
           style="fill:none;stroke:#000000;stroke-width:1.03937;stroke-linecap:round;stroke-linejoin:round;stroke-miterlimit:10;stroke-dasharray:none;stroke-opacity:1"
           id="path850" />
      </g>
      <g
         id="g852"
         transform="matrix(0.5454546,0,0,-0.5454546,0,841.89)">
        <path
           d="m 305.6659,72.055 c 0.012,-0.18404 -0.006,-0.32086 -0.0545,-0.41047 -0.0332,-0.0616 -0.0679,-0.09717 -0.104,-0.1067 -0.0361,-0.0095 -0.0665,0.03689 -0.0911,0.13925 -0.0247,0.10235 -0.0383,0.27206 -0.0408,0.50913 -0.002,0.23707 0.0126,0.47919 0.0451,0.72636 0.0496,0.37667 0.1422,0.68279 0.2779,0.91838"
           style="fill:none;stroke:#000000;stroke-width:1.03937;stroke-linecap:round;stroke-linejoin:round;stroke-miterlimit:10;stroke-dasharray:none;stroke-opacity:1"
           id="path854" />
      </g>
      <g
         id="g856"
         transform="matrix(0.5454546,0,0,-0.5454546,0,841.89)">
        <path
           d="m 305.9588,71.2522 c 0.2403,-0.2101 0.4538,-0.35199 0.6405,-0.42569 0.1274,-0.0503 0.2759,-0.08863 0.4455,-0.11499 0.1696,-0.02636 0.3436,-0.04087 0.5221,-0.04351 0.1785,-0.0026 0.3141,0.056 0.4069,0.17589 0.0927,0.11989 0.125,0.31609 0.0968,0.5886 -0.0281,0.27251 -0.1201,0.56108 -0.2759,0.86569 -0.1557,0.30461 -0.3323,0.56704 -0.5297,0.78728 -0.1974,0.22024 -0.3641,0.37225 -0.5001,0.45603 -0.136,0.08379 -0.2297,0.13378 -0.281,0.14997 -0.0512,0.0162 -0.0787,0.02488 -0.0824,0.02604 -0.004,0.0012 -0.003,8e-4 10e-4,-0.0011 0.004,-0.0019 0.0364,-0.01617 0.0962,-0.04277 0.0599,-0.0266 0.1842,-0.04922 0.373,-0.06786 0.1888,-0.01864 0.4046,-0.05583 0.6475,-0.11159 0.3518,-0.0808 0.7216,-0.39531 1.1093,-0.94355"
           style="fill:none;stroke:#000000;stroke-width:1.03937;stroke-linecap:round;stroke-linejoin:round;stroke-miterlimit:10;stroke-dasharray:none;stroke-opacity:1"
           id="path858" />
      </g>
      <g
         id="g860"
         transform="matrix(0.5454546,0,0,-0.5454546,0,841.89)">
        <path
           d="m 298.1996,64.65548 c 0.181,-0.10064 0.2577,0.0279 0.2303,0.38563 -0.0275,0.35772 -0.0426,0.74131 -0.0455,1.15076 -0.004,0.59811 0.1667,1.39011 0.5127,2.37601"
           style="fill:none;stroke:#000000;stroke-width:1.03937;stroke-linecap:round;stroke-linejoin:round;stroke-miterlimit:10;stroke-dasharray:none;stroke-opacity:1"
           id="path862" />
      </g>
      <g
         id="g864"
         transform="matrix(0.5454546,0,0,-0.5454546,0,841.89)">
        <path
           d="m 297.0551,71.52036 c 0.0992,0.11329 0.4704,0.17567 1.1137,0.18715 0.6434,0.01148 1.0259,0.05844 1.1475,0.14086 0.1216,0.08243 0.1736,0.22938 0.1562,0.44088 -0.0175,0.21149 -0.1181,0.44573 -0.3016,0.70269 -0.1836,0.25697 -0.3735,0.49318 -0.5698,0.70865 -0.1963,0.21548 -0.3726,0.39374 -0.5291,0.53478 -0.1564,0.14105 -10e-4,0.21042 0.466,0.20811 0.4671,-0.0023 0.7578,0.0072 0.8722,0.02853 0.1144,0.02133 0.2022,0.05552 0.2636,0.10257 0.0614,0.04705 0.1014,0.12065 0.12,0.2208 0.0186,0.10016 -0.0144,0.23161 -0.0992,0.39434 -0.1211,0.23257 -0.7349,0.68368 -1.8415,1.35334"
           style="fill:none;stroke:#000000;stroke-width:1.03937;stroke-linecap:round;stroke-linejoin:round;stroke-miterlimit:10;stroke-dasharray:none;stroke-opacity:1"
           id="path866" />
      </g>
      <g
         id="g868"
         transform="matrix(0.5454546,0,0,-0.5454546,0,841.89)">
        <path
           d="m 297.455,76.86837 c -0.7226,0.62229 -1.1139,0.95493 -1.1739,0.99793 -0.0422,0.03027 -0.0679,0.04867 -0.077,0.05519 -0.009,0.0065 -0.01,0.0097 -0.002,0.0096 0.008,-1.5e-4 0.0305,-5.8e-4 0.0676,-0.0013 0.0371,-7e-4 0.2107,0.04833 0.5208,0.14711 0.3101,0.09877 0.9068,0.2463 1.7899,0.44259 0.8832,0.19628 2.1075,0.34579 3.673,0.44851 1.5655,0.10273 3.1647,0.14239 4.7977,0.11897 1.633,-0.02342 3.0938,-0.05482 4.3823,-0.09422 1.2886,-0.0394 2.5041,0.0122 3.6468,0.15479"
           style="fill:none;stroke:#000000;stroke-width:1.03937;stroke-linecap:round;stroke-linejoin:round;stroke-miterlimit:10;stroke-dasharray:none;stroke-opacity:1"
           id="path870" />
      </g>
    </g>
  </g>
</svg>
