<svg xmlns="http://www.w3.org/2000/svg" width="14.487" height="14.153"><path d="M304.12 62.393q-.148-.277-.16-.367l-.009-.067v.42q0 .38-.025 1.474a58 58 0 0 1-.09 2.166l-.058.985v-.008l.003-.046-.008.14" style="fill:none;stroke:#000;stroke-width:1.03937;stroke-linecap:round;stroke-linejoin:round;stroke-miterlimit:10;stroke-dasharray:none;stroke-opacity:1" transform="matrix(.72727 0 0 .72727 -215.04 -43.787)"/><path d="M304.468 63.053q-.001-.267.064-.49.043-.15.21-.283.165-.133.492-.208t.763-.109.95-.097a9 9 0 0 0 1.051-.195q.536-.13 1-.312.463-.181.938-.4.475-.218.552-.233t.15.233q.072.247.115.676t.022 1.216a12 12 0 0 1-.172 1.678q-.151.891-.291 1.488l-.14.598" style="fill:none;stroke:#000;stroke-width:1.03937;stroke-linecap:round;stroke-linejoin:round;stroke-miterlimit:10;stroke-dasharray:none;stroke-opacity:1" transform="matrix(.72727 0 0 .72727 -215.04 -43.787)"/><path d="M308.955 63.88q-.06-.164-.28-.29a1.5 1.5 0 0 0-.375-.163 1 1 0 0 0-.249-.034q-.09.003-.349.377-.258.373-.315.555-.057.18.032.499.09.318.127.694.056.552-.058 1.415" style="fill:none;stroke:#000;stroke-width:1.03937;stroke-linecap:round;stroke-linejoin:round;stroke-miterlimit:10;stroke-dasharray:none;stroke-opacity:1" transform="matrix(.72727 0 0 .72727 -215.04 -43.787)"/><path d="M302.393 68.485q.21-.126.054 1.212l-.333 2.903a213 213 0 0 1-.358 2.96q-.18 1.396-.228 2.076l-.046.646v-.002l.002-.018-.004.054" style="fill:none;stroke:#000;stroke-width:1.03937;stroke-linecap:round;stroke-linejoin:round;stroke-miterlimit:10;stroke-dasharray:none;stroke-opacity:1" transform="matrix(.72727 0 0 .72727 -215.04 -43.787)"/><path d="M303.078 69.823q.201-.343.237-.479.024-.094.2-.17t1.457-.363l2.237-.501a215 215 0 0 0 1.896-.436q.94-.22 1.673-.385.732-.165 1.178-.244t.827-.095.53.151q.147.167.218.396.07.228.109.685t.03 1.34a21 21 0 0 1-.16 2.176q-.149 1.293-.325 2.333a24 24 0 0 1-.319 1.617q-.142.574-.298.832-.225.366-.846.209" style="fill:none;stroke:#000;stroke-width:1.03937;stroke-linecap:round;stroke-linejoin:round;stroke-miterlimit:10;stroke-dasharray:none;stroke-opacity:1" transform="matrix(.72727 0 0 .72727 -215.04 -43.787)"/><path d="M305.666 72.055q.018-.275-.055-.41-.049-.093-.104-.107-.054-.015-.09.14a2.6 2.6 0 0 0-.041.508q-.004.356.045.727.075.564.278.918" style="fill:none;stroke:#000;stroke-width:1.03937;stroke-linecap:round;stroke-linejoin:round;stroke-miterlimit:10;stroke-dasharray:none;stroke-opacity:1" transform="matrix(.72727 0 0 .72727 -215.04 -43.787)"/><path d="M305.959 71.252q.36-.315.64-.425.192-.076.446-.115t.522-.044q.267-.004.407.176t.097.588q-.043.41-.276.866a3.7 3.7 0 0 1-.53.787q-.296.33-.5.456t-.281.15l-.082.027q-.005 0 0-.002l.097-.042q.09-.04.373-.068.282-.028.647-.112.528-.12 1.11-.943" style="fill:none;stroke:#000;stroke-width:1.03937;stroke-linecap:round;stroke-linejoin:round;stroke-miterlimit:10;stroke-dasharray:none;stroke-opacity:1" transform="matrix(.72727 0 0 .72727 -215.04 -43.787)"/><path d="M298.2 64.655q.27-.15.23.386-.042.537-.046 1.15-.006.898.513 2.377" style="fill:none;stroke:#000;stroke-width:1.03937;stroke-linecap:round;stroke-linejoin:round;stroke-miterlimit:10;stroke-dasharray:none;stroke-opacity:1" transform="matrix(.72727 0 0 .72727 -215.04 -43.787)"/><path d="M297.055 71.52q.149.17 1.114.188t1.147.14.156.441-.301.703a8 8 0 0 1-.57.709 8 8 0 0 1-.529.534q-.234.211.466.208t.872.029a.6.6 0 0 1 .264.103q.091.07.12.22.027.15-.1.395-.18.348-1.84 1.353" style="fill:none;stroke:#000;stroke-width:1.03937;stroke-linecap:round;stroke-linejoin:round;stroke-miterlimit:10;stroke-dasharray:none;stroke-opacity:1" transform="matrix(.72727 0 0 .72727 -215.04 -43.787)"/><path d="M297.455 76.868q-1.084.934-1.174.998l-.077.055q-.014.01-.002.01l.068-.001q.055 0 .52.147.465.148 1.79.442 1.326.295 3.673.449 2.349.154 4.798.119 2.45-.035 4.382-.094 1.934-.06 3.647.155" style="fill:none;stroke:#000;stroke-width:1.03937;stroke-linecap:round;stroke-linejoin:round;stroke-miterlimit:10;stroke-dasharray:none;stroke-opacity:1" transform="matrix(.72727 0 0 .72727 -215.04 -43.787)"/></svg>