<?xml version="1.0" encoding="UTF-8" standalone="no"?>
<!-- Created with Inkscape (http://www.inkscape.org/) -->

<svg
   version="1.1"
   id="svg2"
   width="8.6034851"
   height="16.56221"
   viewBox="0 0 8.6034852 16.56221"
   sodipodi:docname="E24136542_宋昱宣_預報2.svg"
   inkscape:version="1.2.1 (9c6d41e410, 2022-07-14)"
   xmlns:inkscape="http://www.inkscape.org/namespaces/inkscape"
   xmlns:sodipodi="http://sodipodi.sourceforge.net/DTD/sodipodi-0.dtd"
   xmlns="http://www.w3.org/2000/svg"
   xmlns:svg="http://www.w3.org/2000/svg">
  <defs
     id="defs6" />
  <sodipodi:namedview
     id="namedview4"
     pagecolor="#ffffff"
     bordercolor="#000000"
     borderopacity="0.25"
     inkscape:showpageshadow="2"
     inkscape:pageopacity="0.0"
     inkscape:pagecheckerboard="0"
     inkscape:deskcolor="#d1d1d1"
     showgrid="false"
     inkscape:zoom="2.3786081"
     inkscape:cx="203.48035"
     inkscape:cy="340.32508"
     inkscape:window-width="1600"
     inkscape:window-height="930"
     inkscape:window-x="-6"
     inkscape:window-y="-6"
     inkscape:window-maximized="1"
     inkscape:current-layer="g10" />
  <g
     id="g10"
     inkscape:groupmode="layer"
     inkscape:label="Page 1"
     transform="matrix(1.3333333,0,0,-1.3333333,-261.95553,1078.9606)">
    <g
       id="g271406">
      <g
         id="g920"
         transform="matrix(0.5454546,0,0,-0.5454546,0,841.89)">
        <path
           d="m 361.0052,65.29285 c -0.1018,0.0412 -0.1671,0.17614 -0.1958,0.40481 -0.0192,0.15226 -0.0297,0.46564 -0.0316,0.94014 -0.002,0.47451 -0.007,1.08304 -0.016,1.82559 -0.0143,1.20865 -0.0181,2.03034 -0.0116,2.46506"
           style="fill:none;stroke:#000000;stroke-width:1.03937;stroke-linecap:round;stroke-linejoin:round;stroke-miterlimit:10;stroke-dasharray:none;stroke-opacity:1"
           id="path922" />
      </g>
      <g
         id="g924"
         transform="matrix(0.5454546,0,0,-0.5454546,0,841.89)">
        <path
           d="m 361.5302,66.73649 c -0.002,-0.15951 0.03,-0.28139 0.0968,-0.36564 0.0456,-0.05772 0.191,-0.14281 0.4359,-0.25526 0.2449,-0.11246 0.6816,-0.25291 1.3101,-0.42137 0.6284,-0.16846 1.369,-0.34589 2.2215,-0.53229 0.8526,-0.18642 1.6691,-0.35912 2.4497,-0.51813 0.7805,-0.15901 1.4267,-0.28577 1.9386,-0.38027 0.512,-0.09451 0.9017,-0.1519 1.1693,-0.17218 0.2675,-0.02028 0.3813,0.08784 0.3413,0.32435 -0.04,0.23652 -0.25,0.79845 -0.6301,1.6858 -0.38,0.88735 -0.6763,1.61743 -0.889,2.19023 -0.3184,0.85756 -0.7555,1.64202 -1.3113,2.35339"
           style="fill:none;stroke:#000000;stroke-width:1.03937;stroke-linecap:round;stroke-linejoin:round;stroke-miterlimit:10;stroke-dasharray:none;stroke-opacity:1"
           id="path926" />
      </g>
      <g
         id="g928"
         transform="matrix(0.5454546,0,0,-0.5454546,0,841.89)">
        <path
           d="m 361.8616,72.43153 c -0.8659,-0.0238 -1.2748,-0.03072 -1.2268,-0.02077 0.0341,0.0071 0.1194,0.02472 0.2558,0.05298 0.1364,0.02825 0.5162,-4.9e-4 1.1394,-0.08623 0.6232,-0.08574 1.4127,-0.26709 2.3686,-0.54404 0.9558,-0.27696 1.9282,-0.54494 2.9173,-0.80396 0.9891,-0.25902 1.9345,-0.44363 2.8362,-0.55383"
           style="fill:none;stroke:#000000;stroke-width:1.03937;stroke-linecap:round;stroke-linejoin:round;stroke-miterlimit:10;stroke-dasharray:none;stroke-opacity:1"
           id="path930" />
      </g>
      <g
         id="g932"
         transform="matrix(0.5454546,0,0,-0.5454546,0,841.89)">
        <path
           d="m 366.385,61.15192 c -0.008,-0.08984 -0.0657,-0.20774 -0.1738,-0.35373 -0.1081,-0.14598 -0.2151,-0.26726 -0.3212,-0.36383 -0.106,-0.09657 -0.1691,0.10833 -0.1893,0.61471 -0.0203,0.50637 -0.0286,1.33089 -0.0249,2.47354 0.004,1.14265 -0.0274,2.70595 -0.0933,4.6899 -0.066,1.98395 -0.1768,4.12563 -0.3324,6.42504 -0.2548,3.76383 -0.5153,6.26715 -0.7816,7.50994"
           style="fill:none;stroke:#000000;stroke-width:1.03937;stroke-linecap:round;stroke-linejoin:round;stroke-miterlimit:10;stroke-dasharray:none;stroke-opacity:1"
           id="path934" />
      </g>
    </g>
  </g>
</svg>
