<?xml version="1.0" encoding="UTF-8" standalone="no"?>
<!-- Created with Inkscape (http://www.inkscape.org/) -->

<svg
   version="1.1"
   id="svg2"
   width="9.9043274"
   height="18.48262"
   viewBox="0 0 9.9043275 18.48262"
   sodipodi:docname="E24136542_宋昱宣_預報2.svg"
   inkscape:version="1.2.1 (9c6d41e410, 2022-07-14)"
   xmlns:inkscape="http://www.inkscape.org/namespaces/inkscape"
   xmlns:sodipodi="http://sodipodi.sourceforge.net/DTD/sodipodi-0.dtd"
   xmlns="http://www.w3.org/2000/svg"
   xmlns:svg="http://www.w3.org/2000/svg">
  <defs
     id="defs6" />
  <sodipodi:namedview
     id="namedview4"
     pagecolor="#ffffff"
     bordercolor="#000000"
     borderopacity="0.25"
     inkscape:showpageshadow="2"
     inkscape:pageopacity="0.0"
     inkscape:pagecheckerboard="0"
     inkscape:deskcolor="#d1d1d1"
     showgrid="false"
     inkscape:zoom="2.3786081"
     inkscape:cx="203.48035"
     inkscape:cy="340.32508"
     inkscape:window-width="1600"
     inkscape:window-height="930"
     inkscape:window-x="-6"
     inkscape:window-y="-6"
     inkscape:window-maximized="1"
     inkscape:current-layer="g10" />
  <g
     id="g10"
     inkscape:groupmode="layer"
     inkscape:label="Page 1"
     transform="matrix(1.3333333,0,0,-1.3333333,-260.46795,1056.6742)">
    <g
       id="g637385">
      <g
         id="g1500"
         transform="matrix(0.5454546,0,0,-0.5454546,0,841.89)">
        <path
           d="m 359.5861,95.3484 c -0.1779,1.19578 -0.3227,2.31888 -0.4346,3.36929 -0.0752,0.70529 -0.1197,1.29531 -0.1334,1.77001 -0.0138,0.4748 -0.0321,0.9055 -0.0548,1.2921"
           style="fill:none;stroke:#000000;stroke-width:1.03937;stroke-linecap:round;stroke-linejoin:round;stroke-miterlimit:10;stroke-dasharray:none;stroke-opacity:1"
           id="path1502" />
      </g>
      <g
         id="g1504"
         transform="matrix(0.5454546,0,0,-0.5454546,0,841.89)">
        <path
           d="m 360.2834,96.21326 c -0.1179,-0.22374 -0.0671,-0.32963 0.1523,-0.31768 0.1593,0.0087 0.4359,0.01481 0.8297,0.01838 0.3938,0.0036 0.9373,-0.07234 1.6305,-0.22773 0.6931,-0.15539 1.4556,-0.36825 2.2876,-0.63856 0.8319,-0.27032 1.611,-0.52027 2.3374,-0.74986 0.7263,-0.22959 1.3582,-0.39548 1.8956,-0.49766 0.5375,-0.10219 0.9341,-0.16514 1.1899,-0.18886 0.2559,-0.02372 0.4232,-0.03497 0.5019,-0.03374 0.0788,0.0012 0.1227,0.05786 0.1316,0.1699 0.009,0.11204 -0.0182,0.26489 -0.0816,0.45857 -0.0634,0.19368 -0.1561,0.4546 -0.2782,0.78276 -0.1221,0.32816 -0.2724,0.71931 -0.4511,1.17345 -0.1786,0.45414 -0.3844,0.96409 -0.6175,1.52986 -0.3403,0.82601 -1.0724,1.75891 -2.1963,2.79871"
           style="fill:none;stroke:#000000;stroke-width:1.03937;stroke-linecap:round;stroke-linejoin:round;stroke-miterlimit:10;stroke-dasharray:none;stroke-opacity:1"
           id="path1506" />
      </g>
      <g
         id="g1508"
         transform="matrix(0.5454546,0,0,-0.5454546,0,841.89)">
        <path
           d="m 360.2195,101.9531 c -0.1964,0.005 -0.497,0.0768 -0.9017,0.216 -0.2558,0.088 -0.438,0.1648 -0.5468,0.2303 -0.1088,0.0655 -0.1356,0.0996 -0.0806,0.1025 0.055,0.003 0.1925,0.01 0.4124,0.0212 0.2201,0.0113 0.6851,-0.0307 1.3952,-0.126 0.71,-0.0953 1.5913,-0.2224 2.6439,-0.3814 1.0526,-0.159 2.1108,-0.3027 3.1744,-0.4311 1.9579,-0.2364 3.0306,-0.3502 3.2181,-0.3414"
           style="fill:none;stroke:#000000;stroke-width:1.03937;stroke-linecap:round;stroke-linejoin:round;stroke-miterlimit:10;stroke-dasharray:none;stroke-opacity:1"
           id="path1510" />
      </g>
      <g
         id="g1512"
         transform="matrix(0.5454546,0,0,-0.5454546,0,841.89)">
        <path
           d="m 365.219,91.61035 c 0.0261,-0.27124 0.0176,-0.44913 -0.0256,-0.53366 -0.03,-0.05873 -0.0606,0.01 -0.0918,0.20606 -0.0312,0.1961 -0.0856,0.69407 -0.1631,1.4939 -0.0775,0.79983 -0.2396,2.01532 -0.4864,3.64646 -0.2467,1.63115 -0.4637,3.64419 -0.6511,6.03899 -0.1873,2.3949 -0.2371,4.6286 -0.1495,6.701 0.1528,3.6153 0.12,5.7049 -0.0985,6.2687"
           style="fill:none;stroke:#000000;stroke-width:1.03937;stroke-linecap:round;stroke-linejoin:round;stroke-miterlimit:10;stroke-dasharray:none;stroke-opacity:1"
           id="path1514" />
      </g>
    </g>
  </g>
</svg>
