<?xml version="1.0" encoding="UTF-8" standalone="no"?>
<!-- Created with Inkscape (http://www.inkscape.org/) -->

<svg
   version="1.1"
   id="svg2"
   width="13.930618"
   height="15.500061"
   viewBox="0 0 13.930618 15.500061"
   sodipodi:docname="E24136542_宋昱宣_預報2.svg"
   inkscape:version="1.2.1 (9c6d41e410, 2022-07-14)"
   xmlns:inkscape="http://www.inkscape.org/namespaces/inkscape"
   xmlns:sodipodi="http://sodipodi.sourceforge.net/DTD/sodipodi-0.dtd"
   xmlns="http://www.w3.org/2000/svg"
   xmlns:svg="http://www.w3.org/2000/svg">
  <defs
     id="defs6" />
  <sodipodi:namedview
     id="namedview4"
     pagecolor="#ffffff"
     bordercolor="#000000"
     borderopacity="0.25"
     inkscape:showpageshadow="2"
     inkscape:pageopacity="0.0"
     inkscape:pagecheckerboard="0"
     inkscape:deskcolor="#d1d1d1"
     showgrid="false"
     inkscape:zoom="2.3786081"
     inkscape:cx="203.48035"
     inkscape:cy="340.32508"
     inkscape:window-width="1600"
     inkscape:window-height="930"
     inkscape:window-x="-6"
     inkscape:window-y="-6"
     inkscape:window-maximized="1"
     inkscape:current-layer="g10" />
  <g
     id="g10"
     inkscape:groupmode="layer"
     inkscape:label="Page 1"
     transform="matrix(1.3333333,0,0,-1.3333333,-130.82808,1055.6982)">
    <g
       id="g519279">
      <g
         id="g1284"
         transform="matrix(0.5454546,0,0,-0.5454546,0,841.89)">
        <path
           d="m 185.9845,94.5209 c -0.2956,-0.35119 -0.4352,-0.50503 -0.4186,-0.46151 0.0117,0.03096 0.0412,0.10835 0.0882,0.23217 0.0471,0.12382 0.1431,0.32794 0.2879,0.61236 0.1449,0.28442 0.3159,0.57004 0.5131,0.85686 0.2862,0.41634 0.8712,0.77033 1.755,1.06198"
           style="fill:none;stroke:#000000;stroke-width:1.03937;stroke-linecap:round;stroke-linejoin:round;stroke-miterlimit:10;stroke-dasharray:none;stroke-opacity:1"
           id="path1286" />
      </g>
      <g
         id="g1288"
         transform="matrix(0.5454546,0,0,-0.5454546,0,841.89)">
        <path
           d="m 191.8628,92.79514 c -0.0454,-0.19327 -0.096,-0.32406 -0.1516,-0.39237 -0.0385,-0.04715 -0.145,0.13803 -0.3195,0.55556 -0.1746,0.41752 -0.3783,0.87719 -0.6113,1.379 -0.3366,0.72509 -1.2087,1.90635 -2.6163,3.54377"
           style="fill:none;stroke:#000000;stroke-width:1.03937;stroke-linecap:round;stroke-linejoin:round;stroke-miterlimit:10;stroke-dasharray:none;stroke-opacity:1"
           id="path1290" />
      </g>
      <g
         id="g1292"
         transform="matrix(0.5454546,0,0,-0.5454546,0,841.89)">
        <path
           d="m 182.1079,102.1222 c -0.444,0.0255 -0.7963,0.0512 -1.0567,0.0769 -0.1778,0.0176 -0.2812,0.0323 -0.3102,0.044 -0.029,0.0117 -0.0479,0.0193 -0.0567,0.0229 -0.009,0.003 0.0336,-0.003 0.1273,-0.0196 0.0937,-0.0165 0.2949,-0.0522 0.6037,-0.1068 0.3088,-0.0547 0.8489,-0.182 1.6203,-0.3819 0.7713,-0.2 1.7595,-0.4837 2.9646,-0.8512 1.2052,-0.3675 2.5345,-0.7834 3.9882,-1.24778 1.4537,-0.46437 2.6893,-0.83097 3.7068,-1.09978 1.0174,-0.2688 2.0427,-0.42738 3.0758,-0.47574"
           style="fill:none;stroke:#000000;stroke-width:1.03937;stroke-linecap:round;stroke-linejoin:round;stroke-miterlimit:10;stroke-dasharray:none;stroke-opacity:1"
           id="path1294" />
      </g>
      <g
         id="g1296"
         transform="matrix(0.5454546,0,0,-0.5454546,0,841.89)">
        <path
           d="m 187.1689,101.539 c -0.1505,-0.0851 -0.2846,-0.1463 -0.4023,-0.1835 -0.0798,-0.0252 -0.121,0.3122 -0.1235,1.0123 -0.002,0.7001 -0.0187,1.4888 -0.0488,2.3662 -0.03,0.8774 -0.0713,1.7035 -0.1237,2.4781 -0.0524,0.7747 -0.0913,1.3745 -0.1165,1.7994 l -0.0358,0.6016 2e-4,-0.002 0.001,-0.019 -0.003,0.0571"
           style="fill:none;stroke:#000000;stroke-width:1.03937;stroke-linecap:round;stroke-linejoin:round;stroke-miterlimit:10;stroke-dasharray:none;stroke-opacity:1"
           id="path1298" />
      </g>
      <g
         id="g1300"
         transform="matrix(0.5454546,0,0,-0.5454546,0,841.89)">
        <path
           d="m 190.733,100.0812 c -0.0254,-0.1079 -0.1016,-0.18759 -0.2285,-0.23912 -0.086,-0.03491 -0.1323,0.01545 -0.139,0.15107 -0.007,0.13565 -2e-4,0.42895 0.0191,0.88005 0.0194,0.4511 0.0481,1.0526 0.0864,1.8044 0.0382,0.7518 0.0692,1.5497 0.0931,2.3937 0.0399,1.4139 -0.0152,2.2736 -0.1654,2.579"
           style="fill:none;stroke:#000000;stroke-width:1.03937;stroke-linecap:round;stroke-linejoin:round;stroke-miterlimit:10;stroke-dasharray:none;stroke-opacity:1"
           id="path1302" />
      </g>
      <g
         id="g1304"
         transform="matrix(0.5454546,0,0,-0.5454546,0,841.89)">
        <path
           d="m 182.3289,105.4051 c -0.4697,0.0101 -0.727,0.0204 -0.7718,0.0311 -0.0315,0.007 -0.0539,0.0127 -0.0672,0.0159 -0.0133,0.003 -0.006,0.0111 0.0223,0.024 0.0281,0.0128 0.0756,0.0345 0.1425,0.065 0.0669,0.0306 0.2658,0.0948 0.5969,0.1928 0.4787,0.1416 1.3842,0.3229 2.7167,0.5437"
           style="fill:none;stroke:#000000;stroke-width:1.03937;stroke-linecap:round;stroke-linejoin:round;stroke-miterlimit:10;stroke-dasharray:none;stroke-opacity:1"
           id="path1306" />
      </g>
      <g
         id="g1308"
         transform="matrix(0.5454546,0,0,-0.5454546,0,841.89)">
        <path
           d="m 194.8692,102.1167 c -0.0468,-0.0632 -0.1234,-0.1193 -0.2298,-0.1684 -0.0697,-0.0322 -0.1381,-0.0517 -0.2051,-0.0585 -0.0671,-0.007 -0.1668,0.074 -0.2993,0.2426 -0.1324,0.1686 -0.3263,0.4769 -0.5817,0.925 -0.3661,0.6425 -1.594,2.1487 -3.6835,4.5185"
           style="fill:none;stroke:#000000;stroke-width:1.03937;stroke-linecap:round;stroke-linejoin:round;stroke-miterlimit:10;stroke-dasharray:none;stroke-opacity:1"
           id="path1310" />
      </g>
      <g
         id="g1312"
         transform="matrix(0.5454546,0,0,-0.5454546,0,841.89)">
        <path
           d="m 182.0296,112.3197 c -0.7574,0.0942 -1.2424,0.1781 -1.4549,0.2519 -0.1477,0.0512 -0.1972,0.0781 -0.1485,0.0806 0.0487,0.003 0.1704,0.009 0.3652,0.0188 0.1948,0.0101 0.6497,-0.0627 1.3649,-0.2183 0.7152,-0.1557 1.7138,-0.4384 2.9959,-0.8483 1.2821,-0.4099 2.8046,-0.8559 4.5675,-1.338 1.7629,-0.4821 3.3328,-0.8634 4.7097,-1.1439 2.5666,-0.5229 3.9313,-0.8371 4.0941,-0.9426"
           style="fill:none;stroke:#000000;stroke-width:1.03937;stroke-linecap:round;stroke-linejoin:round;stroke-miterlimit:10;stroke-dasharray:none;stroke-opacity:1"
           id="path1314" />
      </g>
    </g>
  </g>
</svg>
