<?xml version="1.0" encoding="UTF-8" standalone="no"?>
<!-- Created with Inkscape (http://www.inkscape.org/) -->

<svg
   version="1.1"
   id="svg2"
   width="15.554062"
   height="16.01289"
   viewBox="0 0 15.554062 16.01289"
   sodipodi:docname="E24136542_宋昱宣_預報2.svg"
   inkscape:version="1.2.1 (9c6d41e410, 2022-07-14)"
   xmlns:inkscape="http://www.inkscape.org/namespaces/inkscape"
   xmlns:sodipodi="http://sodipodi.sourceforge.net/DTD/sodipodi-0.dtd"
   xmlns="http://www.w3.org/2000/svg"
   xmlns:svg="http://www.w3.org/2000/svg">
  <defs
     id="defs6" />
  <sodipodi:namedview
     id="namedview4"
     pagecolor="#ffffff"
     bordercolor="#000000"
     borderopacity="0.25"
     inkscape:showpageshadow="2"
     inkscape:pageopacity="0.0"
     inkscape:pagecheckerboard="0"
     inkscape:deskcolor="#d1d1d1"
     showgrid="false"
     inkscape:zoom="2.3786081"
     inkscape:cx="203.48035"
     inkscape:cy="340.32508"
     inkscape:window-width="1600"
     inkscape:window-height="930"
     inkscape:window-x="-6"
     inkscape:window-y="-6"
     inkscape:window-maximized="1"
     inkscape:current-layer="g10" />
  <g
     id="g10"
     inkscape:groupmode="layer"
     inkscape:label="Page 1"
     transform="matrix(1.3333333,0,0,-1.3333333,-172.77232,1079.0105)">
    <g
       id="g177022">
      <g
         id="g756"
         transform="matrix(0.5454546,0,0,-0.5454546,0,841.89)">
        <path
           d="m 241.673,60.97226 c 0.0179,-0.39995 0.0271,-0.60763 0.0279,-0.62304 4e-4,-0.01087 0.004,-0.0041 0.0106,0.02021 0.007,0.02434 0.0713,0.26293 0.1942,0.71579 0.1228,0.45286 0.2107,0.84567 0.2635,1.17845 0.0774,0.48755 0.0728,1.13334 -0.0139,1.93736"
           style="fill:none;stroke:#000000;stroke-width:1.03937;stroke-linecap:round;stroke-linejoin:round;stroke-miterlimit:10;stroke-dasharray:none;stroke-opacity:1"
           id="path758" />
      </g>
      <g
         id="g760"
         transform="matrix(0.5454546,0,0,-0.5454546,0,841.89)">
        <path
           d="m 238.5151,66.6244 -0.4385,1.9e-4 0.0135,1.4e-4 c 0.0431,2.4e-4 0.151,8.7e-4 0.3236,0.0019 0.1725,9.8e-4 0.6055,-0.10632 1.2988,-0.32192 0.6934,-0.21559 1.5172,-0.4852 2.4714,-0.80882 0.9543,-0.32363 1.7565,-0.56563 2.4068,-0.72601 0.6502,-0.16038 1.2675,-0.24426 1.8517,-0.25163"
           style="fill:none;stroke:#000000;stroke-width:1.03937;stroke-linecap:round;stroke-linejoin:round;stroke-miterlimit:10;stroke-dasharray:none;stroke-opacity:1"
           id="path762" />
      </g>
      <g
         id="g764"
         transform="matrix(0.5454546,0,0,-0.5454546,0,841.89)">
        <path
           d="m 240.9547,70.7969 c -0.135,0.01011 -0.2395,0.0042 -0.3134,-0.0178 -0.0506,-0.01506 -0.0789,-0.02348 -0.0849,-0.02527 -0.006,-0.0018 0.0215,-0.0028 0.0825,-0.003 0.0611,-1.9e-4 0.349,-0.0011 0.8638,-0.0028 0.5147,-0.0017 1.0127,-0.03114 1.4939,-0.08841 0.4812,-0.05728 0.905,-0.10731 1.2715,-0.15009 0.3665,-0.04278 0.6305,-0.06856 0.792,-0.07733 0.1615,-0.0088 0.2182,0.08781 0.17,0.28976 -0.0482,0.20196 -0.117,0.48449 -0.2066,0.84761 -0.0895,0.36311 -0.1801,0.84019 -0.2718,1.43123 -0.0916,0.59104 -0.192,1.27152 -0.301,2.04145 -0.1091,0.76992 -0.2413,1.57574 -0.3965,2.41745 -0.1553,0.84171 -0.3234,1.50959 -0.5044,2.00363 -0.1809,0.49404 -0.3612,0.81742 -0.5409,0.97014 -0.1796,0.15271 -0.3611,0.24063 -0.5445,0.26376 -0.1834,0.02313 -0.3834,-0.02366 -0.5999,-0.14038 -0.2166,-0.11671 -0.4102,-0.26793 -0.5809,-0.45366 -0.249,-0.27097 -0.4409,-0.70703 -0.5755,-1.30818"
           style="fill:none;stroke:#000000;stroke-width:1.03937;stroke-linecap:round;stroke-linejoin:round;stroke-miterlimit:10;stroke-dasharray:none;stroke-opacity:1"
           id="path766" />
      </g>
      <g
         id="g768"
         transform="matrix(0.5454546,0,0,-0.5454546,0,841.89)">
        <path
           d="m 242.981,65.75573 c 0.0158,-0.20622 0.0147,-0.29866 -0.003,-0.27731 -0.0127,0.0152 -0.0445,0.05318 -0.0955,0.11396 -0.0509,0.06079 -0.1675,0.36873 -0.3498,0.92385 -0.1822,0.55511 -0.469,1.35901 -0.8602,2.41169 -0.3912,1.05268 -0.8545,2.21052 -1.39,3.47354 -0.5354,1.26301 -0.9621,2.19349 -1.2802,2.79143 l -0.428,0.80453 0.006,-0.0106 0.0274,-0.05149 -0.0821,0.15446"
           style="fill:none;stroke:#000000;stroke-width:1.03937;stroke-linecap:round;stroke-linejoin:round;stroke-miterlimit:10;stroke-dasharray:none;stroke-opacity:1"
           id="path770" />
      </g>
      <g
         id="g772"
         transform="matrix(0.5454546,0,0,-0.5454546,0,841.89)">
        <path
           d="m 251.768,62.24115 c 0.0654,-0.3754 0.1002,-0.57532 0.1045,-0.59976 0.003,-0.01722 -0.001,-0.012 -0.0121,0.01568 -0.0111,0.02767 -0.078,0.19524 -0.2007,0.5027 -0.1228,0.30747 -0.3412,0.80961 -0.6553,1.50643 -0.3142,0.69682 -0.7327,1.5371 -1.2558,2.52086 -0.523,0.98375 -0.9991,1.86562 -1.4283,2.64561 -0.4292,0.78 -0.7273,1.33309 -0.8943,1.65926 l -0.2321,0.45331 10e-4,-0.0029 0.01,-0.01941 -0.0297,0.05822"
           style="fill:none;stroke:#000000;stroke-width:1.03937;stroke-linecap:round;stroke-linejoin:round;stroke-miterlimit:10;stroke-dasharray:none;stroke-opacity:1"
           id="path774" />
      </g>
      <g
         id="g776"
         transform="matrix(0.5454546,0,0,-0.5454546,0,841.89)">
        <path
           d="m 250.5403,66.30994 c 0.1654,-0.10725 0.4509,-0.21142 0.8564,-0.3125 0.4054,-0.10109 0.9925,-0.28471 1.7611,-0.55085 0.7686,-0.26613 1.5616,-0.56579 2.379,-0.89897 0.8174,-0.33317 1.4594,-0.59109 1.9258,-0.77376 0.4664,-0.18267 0.7601,-0.28314 0.8808,-0.30141 0.1678,-0.02537 0.0914,0.12546 -0.2291,0.4525"
           style="fill:none;stroke:#000000;stroke-width:1.03937;stroke-linecap:round;stroke-linejoin:round;stroke-miterlimit:10;stroke-dasharray:none;stroke-opacity:1"
           id="path778" />
      </g>
      <g
         id="g780"
         transform="matrix(0.5454546,0,0,-0.5454546,0,841.89)">
        <path
           d="m 256.4747,66.29234 c -0.3045,0.07078 -0.5993,0.22621 -0.8843,0.4663 -0.1894,0.15951 -0.4012,0.41063 -0.6356,0.75335 -0.2343,0.34273 -0.543,0.85182 -0.9262,1.52729 -0.3832,0.67547 -0.8982,1.53321 -1.5452,2.57322 -0.647,1.04001 -1.4164,2.15552 -2.3083,3.34651 -0.8919,1.19101 -1.7008,2.22225 -2.4267,3.09372 -0.726,0.87147 -1.4147,1.63446 -2.0662,2.28899 l -0.8633,0.86723 0.015,-0.01512 0.0646,-0.06482 -0.1936,0.1945"
           style="fill:none;stroke:#000000;stroke-width:1.03937;stroke-linecap:round;stroke-linejoin:round;stroke-miterlimit:10;stroke-dasharray:none;stroke-opacity:1"
           id="path782" />
      </g>
      <g
         id="g784"
         transform="matrix(0.5454546,0,0,-0.5454546,0,841.89)">
        <path
           d="m 249.4218,72.13798 c 0.0906,-0.4004 0.5009,-0.20909 1.2311,0.57393 0.7301,0.78302 1.5137,1.60905 2.3508,2.47807 0.837,0.86902 1.6782,1.76079 2.5236,2.6753 0.8453,0.91451 1.4756,1.614 1.891,2.09847 0.4154,0.48448 0.6725,0.86163 0.7712,1.13146"
           style="fill:none;stroke:#000000;stroke-width:1.03937;stroke-linecap:round;stroke-linejoin:round;stroke-miterlimit:10;stroke-dasharray:none;stroke-opacity:1"
           id="path786" />
      </g>
    </g>
  </g>
</svg>
