<svg xmlns="http://www.w3.org/2000/svg" width="15.554" height="16.013"><path d="m241.673 60.972.028-.623q0-.015.01.02l.195.716q.183.68.263 1.179.117.73-.014 1.937" style="fill:none;stroke:#000;stroke-width:1.03937;stroke-linecap:round;stroke-linejoin:round;stroke-miterlimit:10;stroke-dasharray:none;stroke-opacity:1" transform="matrix(.72727 0 0 .72727 -172.772 -43.51)"/><path d="M238.515 66.624h-.438.013l.324.003q.258 0 1.298-.322 1.041-.323 2.472-.81a31 31 0 0 1 2.407-.725 8.2 8.2 0 0 1 1.851-.252" style="fill:none;stroke:#000;stroke-width:1.03937;stroke-linecap:round;stroke-linejoin:round;stroke-miterlimit:10;stroke-dasharray:none;stroke-opacity:1" transform="matrix(.72727 0 0 .72727 -172.772 -43.51)"/><path d="M240.955 70.797a.9.9 0 0 1-.314-.018l-.085-.025a.4.4 0 0 1 .083-.003l.864-.003a13 13 0 0 0 1.494-.088q.721-.087 1.271-.15.55-.064.792-.078.243-.013.17.29-.072.302-.206.848-.135.545-.272 1.43-.138.887-.301 2.042a59 59 0 0 1-.397 2.418q-.233 1.263-.504 2.003-.271.742-.541.97a1.05 1.05 0 0 1-.545.264q-.275.035-.6-.14a2.2 2.2 0 0 1-.58-.454q-.374-.406-.576-1.308" style="fill:none;stroke:#000;stroke-width:1.03937;stroke-linecap:round;stroke-linejoin:round;stroke-miterlimit:10;stroke-dasharray:none;stroke-opacity:1" transform="matrix(.72727 0 0 .72727 -172.772 -43.51)"/><path d="M242.981 65.756q.024-.31-.003-.278l-.095.114q-.077.092-.35.924a83.383 83.383 0 0 1-2.25 5.885q-.804 1.895-1.28 2.792l-.429.804.006-.01.028-.052-.082.155" style="fill:none;stroke:#000;stroke-width:1.03937;stroke-linecap:round;stroke-linejoin:round;stroke-miterlimit:10;stroke-dasharray:none;stroke-opacity:1" transform="matrix(.72727 0 0 .72727 -172.772 -43.51)"/><path d="m251.768 62.241.105-.6q.005-.026-.013.016-.016.041-.2.503a43 43 0 0 1-1.911 4.027q-.785 1.476-1.429 2.646t-.894 1.659l-.232.453v-.003l.01-.02-.029.06" style="fill:none;stroke:#000;stroke-width:1.03937;stroke-linecap:round;stroke-linejoin:round;stroke-miterlimit:10;stroke-dasharray:none;stroke-opacity:1" transform="matrix(.72727 0 0 .72727 -172.772 -43.51)"/><path d="M250.54 66.31q.248-.16.857-.313.608-.15 1.76-.55a47 47 0 0 0 2.38-.9q1.226-.499 1.926-.773t.88-.302q.252-.038-.229.453" style="fill:none;stroke:#000;stroke-width:1.03937;stroke-linecap:round;stroke-linejoin:round;stroke-miterlimit:10;stroke-dasharray:none;stroke-opacity:1" transform="matrix(.72727 0 0 .72727 -172.772 -43.51)"/><path d="M256.475 66.292q-.457.107-.885.467-.283.24-.635.753-.352.514-.926 1.527a77 77 0 0 1-1.546 2.573 48 48 0 0 1-2.308 3.347 77 77 0 0 1-2.427 3.094 35 35 0 0 1-2.066 2.289l-.863.867.015-.015.064-.065-.193.195" style="fill:none;stroke:#000;stroke-width:1.03937;stroke-linecap:round;stroke-linejoin:round;stroke-miterlimit:10;stroke-dasharray:none;stroke-opacity:1" transform="matrix(.72727 0 0 .72727 -172.772 -43.51)"/><path d="M249.422 72.138q.135-.601 1.23.574 1.096 1.175 2.352 2.478t2.523 2.675a82 82 0 0 1 1.891 2.099q.624.726.771 1.131" style="fill:none;stroke:#000;stroke-width:1.03937;stroke-linecap:round;stroke-linejoin:round;stroke-miterlimit:10;stroke-dasharray:none;stroke-opacity:1" transform="matrix(.72727 0 0 .72727 -172.772 -43.51)"/></svg>