<?xml version="1.0" encoding="UTF-8" standalone="no"?>
<!-- Created with Inkscape (http://www.inkscape.org/) -->

<svg
   version="1.1"
   id="svg2"
   width="12.244507"
   height="17.972534"
   viewBox="0 0 12.244507 17.972534"
   sodipodi:docname="E24136542_宋昱宣_預報2.svg"
   inkscape:version="1.2.1 (9c6d41e410, 2022-07-14)"
   xmlns:inkscape="http://www.inkscape.org/namespaces/inkscape"
   xmlns:sodipodi="http://sodipodi.sourceforge.net/DTD/sodipodi-0.dtd"
   xmlns="http://www.w3.org/2000/svg"
   xmlns:svg="http://www.w3.org/2000/svg">
  <defs
     id="defs6" />
  <sodipodi:namedview
     id="namedview4"
     pagecolor="#ffffff"
     bordercolor="#000000"
     borderopacity="0.25"
     inkscape:showpageshadow="2"
     inkscape:pageopacity="0.0"
     inkscape:pagecheckerboard="0"
     inkscape:deskcolor="#d1d1d1"
     showgrid="false"
     inkscape:zoom="2.3786081"
     inkscape:cx="203.48035"
     inkscape:cy="340.32508"
     inkscape:window-width="1600"
     inkscape:window-height="930"
     inkscape:window-x="-6"
     inkscape:window-y="-6"
     inkscape:window-maximized="1"
     inkscape:current-layer="g10" />
  <g
     id="g10"
     inkscape:groupmode="layer"
     inkscape:label="Page 1"
     transform="matrix(1.3333333,0,0,-1.3333333,-299.49011,1057.0113)">
    <g
       id="g696425">
      <g
         id="g1544"
         transform="matrix(0.5454546,0,0,-0.5454546,0,841.89)">
        <path
           d="m 415.1993,92.86363 c -0.1561,-0.0896 -0.2453,-0.1704 -0.2676,-0.24239 -0.0155,-0.04997 0.1678,-0.14453 0.5499,-0.28367 0.3822,-0.13914 0.8043,-0.28951 1.2663,-0.4511 0.4621,-0.1616 1.003,-0.3468 1.6229,-0.55562 0.6199,-0.20882 1.1582,-0.37003 1.615,-0.48364 0.4567,-0.11361 0.8174,-0.1842 1.0821,-0.21177 0.2646,-0.02756 0.3969,-0.04135 0.3969,-0.04135"
           style="fill:none;stroke:#000000;stroke-width:1.03937;stroke-linecap:round;stroke-linejoin:round;stroke-miterlimit:10;stroke-dasharray:none;stroke-opacity:1"
           id="path1546" />
      </g>
      <g
         id="g1548"
         transform="matrix(0.5454546,0,0,-0.5454546,0,841.89)">
        <path
           d="m 416.0018,93.52145 c -0.2625,0.0016 -0.4462,0.02449 -0.5512,0.06858 -0.0724,0.03043 -0.1258,0.10028 -0.1599,0.20956 -0.0341,0.10928 -0.061,0.33503 -0.0807,0.67725 -0.0197,0.34223 -0.0621,0.84375 -0.1273,1.50456 -0.0651,0.66081 -0.1522,1.3524 -0.2613,2.07478 -0.1092,0.72237 -0.1842,1.26057 -0.2251,1.6146 l -0.0581,0.50152 3e-4,-0.002 0.002,-0.0156 -0.005,0.0469"
           style="fill:none;stroke:#000000;stroke-width:1.03937;stroke-linecap:round;stroke-linejoin:round;stroke-miterlimit:10;stroke-dasharray:none;stroke-opacity:1"
           id="path1550" />
      </g>
      <g
         id="g1552"
         transform="matrix(0.5454546,0,0,-0.5454546,0,841.89)">
        <path
           d="m 415.6984,96.15747 c -0.0535,-0.24527 -0.0126,-0.44202 0.1225,-0.59025 0.093,-0.10193 0.2552,-0.22101 0.4866,-0.35724 0.2313,-0.13624 0.5313,-0.2976 0.8997,-0.48407 0.3685,-0.18648 0.7651,-0.37006 1.1898,-0.55075 0.4248,-0.1807 0.7779,-0.30349 1.0593,-0.36837 0.2815,-0.06488 0.471,-0.06051 0.5686,0.01313 0.138,0.10415 0.0223,0.40405 -0.3469,0.89968"
           style="fill:none;stroke:#000000;stroke-width:1.03937;stroke-linecap:round;stroke-linejoin:round;stroke-miterlimit:10;stroke-dasharray:none;stroke-opacity:1"
           id="path1554" />
      </g>
      <g
         id="g1556"
         transform="matrix(0.5454546,0,0,-0.5454546,0,841.89)">
        <path
           d="m 416.667,97.27091 c -0.2592,0.07749 -0.3958,0.11833 -0.4098,0.12252 -0.01,0.003 -6e-4,-0.0029 0.0278,-0.01774 0.0284,-0.01478 0.232,-0.12059 0.6106,-0.31742 0.3785,-0.19684 0.7318,-0.36492 1.0597,-0.50424 0.3278,-0.13932 0.6755,-0.26411 1.043,-0.37437 0.3675,-0.11026 0.7043,-0.18992 1.0106,-0.23898"
           style="fill:none;stroke:#000000;stroke-width:1.03937;stroke-linecap:round;stroke-linejoin:round;stroke-miterlimit:10;stroke-dasharray:none;stroke-opacity:1"
           id="path1558" />
      </g>
      <g
         id="g1560"
         transform="matrix(0.5454546,0,0,-0.5454546,0,841.89)">
        <path
           d="m 412.9411,101.0316 c -0.3717,0.0642 -0.5785,0.1102 -0.6204,0.1378 -0.0293,0.0195 0.0424,0.0333 0.2153,0.0416 0.1728,0.008 0.5147,-0.0998 1.0256,-0.324 0.5109,-0.2243 1.1716,-0.5502 1.9822,-0.97771 0.8106,-0.42754 1.6462,-0.8414 2.5067,-1.24156 0.8606,-0.40016 1.5313,-0.65041 2.0121,-0.75074 0.4808,-0.10033 0.7862,-0.10022 0.9162,3.5e-4"
           style="fill:none;stroke:#000000;stroke-width:1.03937;stroke-linecap:round;stroke-linejoin:round;stroke-miterlimit:10;stroke-dasharray:none;stroke-opacity:1"
           id="path1562" />
      </g>
      <g
         id="g1564"
         transform="matrix(0.5454546,0,0,-0.5454546,0,841.89)">
        <path
           d="m 416.2872,100.5264 c -0.1275,-0.01 -0.278,0.07 -0.4515,0.2398 -0.1141,0.1117 -0.2498,0.3042 -0.407,0.5773 -0.1572,0.2731 -0.3315,0.5877 -0.5231,0.9436 -0.1915,0.3559 -0.3762,0.7074 -0.5543,1.0545 -0.178,0.3471 -0.3241,0.6374 -0.4383,0.8711 -0.1142,0.2337 -0.1804,0.3757 -0.1987,0.4261 -0.0183,0.0504 0.0505,0.0326 0.2062,-0.0532 0.1558,-0.0859 0.4622,-0.2891 0.9193,-0.6099 0.457,-0.3207 0.8102,-0.5661 1.0595,-0.7362 0.2493,-0.1701 0.6263,-0.4141 1.1311,-0.7319 0.5048,-0.3178 0.841,-0.5461 1.0084,-0.6849 0.1674,-0.1388 0.278,-0.2467 0.3316,-0.3236 0.0537,-0.0769 0.0667,-0.1285 0.039,-0.1548 -0.0276,-0.0263 -0.0171,0.0374 0.0316,0.1909 0.0486,0.1535 0.1556,0.3433 0.321,0.5695 0.1654,0.2263 0.3543,0.4353 0.5666,0.6272 0.3116,0.2815 0.6632,0.38 1.0549,0.2957"
           style="fill:none;stroke:#000000;stroke-width:1.03937;stroke-linecap:round;stroke-linejoin:round;stroke-miterlimit:10;stroke-dasharray:none;stroke-opacity:1"
           id="path1566" />
      </g>
      <g
         id="g1568"
         transform="matrix(0.5454546,0,0,-0.5454546,0,841.89)">
        <path
           d="m 425.1899,90.77097 c 0.0718,-0.09862 0.1144,-0.15716 0.1279,-0.17563 0.009,-0.01291 0.002,0.01026 -0.0223,0.06951 -0.0243,0.05925 -0.0855,0.20836 -0.1836,0.44735 -0.0981,0.23899 -0.2841,0.60688 -0.5582,1.10368 -0.274,0.4968 -0.6106,1.05317 -1.0096,1.66911 -0.399,0.61595 -0.7264,1.10417 -0.9821,1.46465 -0.2558,0.36048 -0.4011,0.60196 -0.4361,0.72444 -0.0484,0.16987 0.1024,0.12201 0.4527,-0.14359"
           style="fill:none;stroke:#000000;stroke-width:1.03937;stroke-linecap:round;stroke-linejoin:round;stroke-miterlimit:10;stroke-dasharray:none;stroke-opacity:1"
           id="path1570" />
      </g>
      <g
         id="g1572"
         transform="matrix(0.5454546,0,0,-0.5454546,0,841.89)">
        <path
           d="m 426.56,91.98633 c -0.0857,-0.10875 -0.1914,-0.01926 -0.3173,0.26846 -0.1259,0.28772 -0.3516,0.70648 -0.6771,1.2563 -0.3255,0.54981 -0.7366,1.1538 -1.2334,1.81196 -0.4967,0.65816 -0.921,1.23712 -1.2728,1.73686 -0.3519,0.49975 -0.5636,0.85743 -0.635,1.07306 -0.0985,0.2972 0.037,0.40407 0.4065,0.32063"
           style="fill:none;stroke:#000000;stroke-width:1.03937;stroke-linecap:round;stroke-linejoin:round;stroke-miterlimit:10;stroke-dasharray:none;stroke-opacity:1"
           id="path1574" />
      </g>
      <g
         id="g1576"
         transform="matrix(0.5454546,0,0,-0.5454546,0,841.89)">
        <path
           d="m 427.9344,94.17487 c 0.1258,-0.30983 0.1858,-0.44067 0.1799,-0.39252 -0.004,0.03434 -0.0146,0.12019 -0.0313,0.25755 -0.0167,0.13737 -0.1519,0.43743 -0.4054,0.90018 -0.2536,0.46275 -0.6552,1.08052 -1.2048,1.85332 -0.5496,0.77279 -1.099,1.49131 -1.6482,2.15557 -0.5492,0.66425 -0.9075,1.13533 -1.0751,1.41333 -0.1675,0.278 -0.2513,0.417 -0.2513,0.417"
           style="fill:none;stroke:#000000;stroke-width:1.03937;stroke-linecap:round;stroke-linejoin:round;stroke-miterlimit:10;stroke-dasharray:none;stroke-opacity:1"
           id="path1578" />
      </g>
      <g
         id="g1580"
         transform="matrix(0.5454546,0,0,-0.5454546,0,841.89)">
        <path
           d="m 415.5102,108.0314 c -0.1278,-0.163 -0.1978,-0.2798 -0.2101,-0.3505 -0.009,-0.049 0.048,-0.1107 0.1698,-0.1849 0.1218,-0.0742 0.343,-0.1763 0.6636,-0.3061 0.3206,-0.1299 0.739,-0.2877 1.2553,-0.4736 0.5163,-0.1858 1.0574,-0.3677 1.6233,-0.5456 0.8996,-0.2829 1.4694,-0.5636 1.7096,-0.8422"
           style="fill:none;stroke:#000000;stroke-width:1.03937;stroke-linecap:round;stroke-linejoin:round;stroke-miterlimit:10;stroke-dasharray:none;stroke-opacity:1"
           id="path1582" />
      </g>
      <g
         id="g1584"
         transform="matrix(0.5454546,0,0,-0.5454546,0,841.89)">
        <path
           d="m 418.9109,103.0266 c -0.2339,-0.1825 -0.3514,-0.0577 -0.3526,0.3745 -10e-4,0.4322 -0.0366,1.0719 -0.1061,1.9193 -0.0694,0.8473 -0.1524,1.8935 -0.2488,3.1387 -0.0964,1.2452 -0.1579,2.3527 -0.1844,3.3226 -0.0265,0.9698 -0.0446,1.6244 -0.0541,1.9635 -0.01,0.3392 0.0153,0.5122 0.0744,0.5191 0.0591,0.007 0.0659,-0.01 0.0204,-0.0504 -0.0645,-0.0575 -0.0283,-0.2096 0.1087,-0.4564"
           style="fill:none;stroke:#000000;stroke-width:1.03937;stroke-linecap:round;stroke-linejoin:round;stroke-miterlimit:10;stroke-dasharray:none;stroke-opacity:1"
           id="path1586" />
      </g>
      <g
         id="g1588"
         transform="matrix(0.5454546,0,0,-0.5454546,0,841.89)">
        <path
           d="m 417.9518,107.6851 c -0.0293,-0.1312 -0.1048,-0.2201 -0.2267,-0.2667 -0.0835,-0.0319 -0.1725,-0.0494 -0.2672,-0.0526 -0.0947,-0.003 -0.2046,0.0846 -0.3298,0.2634 -0.1253,0.1789 -0.272,0.4793 -0.4403,0.9014 -0.1683,0.4221 -0.3704,0.923 -0.6061,1.5027 -0.2358,0.5797 -0.48,1.1402 -0.7326,1.6816 -0.2525,0.5414 -0.4296,0.8959 -0.5312,1.0635 -0.1401,0.2313 -0.1015,0.0377 0.1159,-0.5808"
           style="fill:none;stroke:#000000;stroke-width:1.03937;stroke-linecap:round;stroke-linejoin:round;stroke-miterlimit:10;stroke-dasharray:none;stroke-opacity:1"
           id="path1590" />
      </g>
      <g
         id="g1592"
         transform="matrix(0.5454546,0,0,-0.5454546,0,841.89)">
        <path
           d="m 417.2405,109.5806 c 0.116,-0.0818 0.2599,-0.1367 0.4318,-0.1648 0.1719,-0.0282 0.3864,-0.0193 0.6438,0.0266 0.2573,0.0459 0.5599,0.1355 0.9078,0.2689 0.5232,0.2004 1.0106,0.4382 1.4622,0.7134"
           style="fill:none;stroke:#000000;stroke-width:1.03937;stroke-linecap:round;stroke-linejoin:round;stroke-miterlimit:10;stroke-dasharray:none;stroke-opacity:1"
           id="path1594" />
      </g>
      <g
         id="g1596"
         transform="matrix(0.5454546,0,0,-0.5454546,0,841.89)">
        <path
           d="m 423.3583,102.9324 c -0.0563,-0.0823 -0.124,-0.1379 -0.2032,-0.1669 -0.0537,-0.0196 -0.1083,-0.0106 -0.1637,0.027 -0.0555,0.0377 -0.1422,0.2344 -0.2604,0.5902 -0.1181,0.3557 -0.2842,0.8562 -0.4981,1.5012 -0.2138,0.6451 -0.4244,1.26 -0.6316,1.8449 -0.2072,0.5849 -0.2952,0.9493 -0.2641,1.0933"
           style="fill:none;stroke:#000000;stroke-width:1.03937;stroke-linecap:round;stroke-linejoin:round;stroke-miterlimit:10;stroke-dasharray:none;stroke-opacity:1"
           id="path1598" />
      </g>
      <g
         id="g1600"
         transform="matrix(0.5454546,0,0,-0.5454546,0,841.89)">
        <path
           d="m 424.2384,103.3814 c 0.009,-0.2873 0.0767,-0.4627 0.2035,-0.526 0.0884,-0.0441 0.2164,-0.072 0.3842,-0.0836 0.1677,-0.0116 0.3729,0.0387 0.6156,0.151 0.2426,0.1123 0.4986,0.3032 0.7681,0.5728 0.2695,0.2696 0.5256,0.557 0.7684,0.8622 0.3632,0.4564 0.6857,0.9511 0.9673,1.484"
           style="fill:none;stroke:#000000;stroke-width:1.03937;stroke-linecap:round;stroke-linejoin:round;stroke-miterlimit:10;stroke-dasharray:none;stroke-opacity:1"
           id="path1602" />
      </g>
      <g
         id="g1604"
         transform="matrix(0.5454546,0,0,-0.5454546,0,841.89)">
        <path
           d="m 423.7053,107.4944 c -0.0705,-0.0429 -0.1704,-0.0105 -0.2998,0.0973 -0.0879,0.0733 -0.1995,0.2279 -0.3347,0.4639 -0.1351,0.236 -0.2858,0.553 -0.452,0.9512 -0.1661,0.3981 -0.3238,0.8223 -0.4731,1.2726 -0.1492,0.4504 -0.2783,0.8659 -0.3873,1.2467 -0.109,0.3807 -0.1689,0.5898 -0.1796,0.6273 -0.0107,0.0374 -0.0132,0.0553 -0.008,0.0536 0.006,-0.002 0.0372,-0.0111 0.0947,-0.0283 0.0574,-0.0172 0.1774,-0.047 0.3598,-0.0895 0.1824,-0.0425 0.4269,-0.1203 0.7336,-0.2335 0.3066,-0.1132 0.6279,-0.2515 0.9639,-0.415 0.3359,-0.1634 0.6449,-0.3281 0.9269,-0.4939 0.2819,-0.1657 0.4511,-0.4048 0.5075,-0.717"
           style="fill:none;stroke:#000000;stroke-width:1.03937;stroke-linecap:round;stroke-linejoin:round;stroke-miterlimit:10;stroke-dasharray:none;stroke-opacity:1"
           id="path1606" />
      </g>
      <g
         id="g1608"
         transform="matrix(0.5454546,0,0,-0.5454546,0,841.89)">
        <path
           d="m 425.1944,109.3815 c 0.0265,-0.1516 0.0263,-0.2474 -6e-4,-0.2876 -0.0187,-0.028 -0.0305,-0.0458 -0.0355,-0.0532 -0.005,-0.008 -0.005,0.004 -6e-4,0.0359 0.005,0.0313 0.0154,0.1059 0.0326,0.2236 0.0172,0.1178 0.0963,0.3498 0.2373,0.696 0.1411,0.3462 0.31,0.7653 0.5068,1.2572 0.292,0.7299 0.7573,1.4074 1.3961,2.0326"
           style="fill:none;stroke:#000000;stroke-width:1.03937;stroke-linecap:round;stroke-linejoin:round;stroke-miterlimit:10;stroke-dasharray:none;stroke-opacity:1"
           id="path1610" />
      </g>
    </g>
  </g>
</svg>
