<?xml version="1.0" encoding="UTF-8" standalone="no"?>
<!-- Created with Inkscape (http://www.inkscape.org/) -->

<svg
   version="1.1"
   id="svg2"
   width="15.560028"
   height="13.062515"
   viewBox="0 0 15.560028 13.062515"
   sodipodi:docname="E24136542_宋昱宣_預報2.svg"
   inkscape:version="1.2.1 (9c6d41e410, 2022-07-14)"
   xmlns:inkscape="http://www.inkscape.org/namespaces/inkscape"
   xmlns:sodipodi="http://sodipodi.sourceforge.net/DTD/sodipodi-0.dtd"
   xmlns="http://www.w3.org/2000/svg"
   xmlns:svg="http://www.w3.org/2000/svg">
  <defs
     id="defs6" />
  <sodipodi:namedview
     id="namedview4"
     pagecolor="#ffffff"
     bordercolor="#000000"
     borderopacity="0.25"
     inkscape:showpageshadow="2"
     inkscape:pageopacity="0.0"
     inkscape:pagecheckerboard="0"
     inkscape:deskcolor="#d1d1d1"
     showgrid="false"
     inkscape:zoom="2.3786081"
     inkscape:cx="203.48035"
     inkscape:cy="340.32508"
     inkscape:window-width="1600"
     inkscape:window-height="930"
     inkscape:window-x="-6"
     inkscape:window-y="-6"
     inkscape:window-maximized="1"
     inkscape:current-layer="g10" />
  <g
     id="g10"
     inkscape:groupmode="layer"
     inkscape:label="Page 1"
     transform="matrix(1.3333333,0,0,-1.3333333,-236.61438,1055.7473)">
    <g
       id="g613767">
      <g
         id="g1452"
         transform="matrix(0.5454546,0,0,-0.5454546,0,841.89)">
        <path
           d="m 328.5094,93.58101 c -0.0285,-0.19469 -0.0741,-0.34144 -0.1368,-0.44023 -0.0429,-0.06762 -0.0709,-0.11176 -0.084,-0.13241 -0.0131,-0.02066 -0.0199,0.0313 -0.0203,0.15588 -4e-4,0.12456 -0.001,0.39074 -0.003,0.79851 -0.001,0.40778 0.005,1.0397 0.0184,1.89578 0.0138,0.85608 0.0608,1.37211 0.1411,1.54808"
           style="fill:none;stroke:#000000;stroke-width:1.03937;stroke-linecap:round;stroke-linejoin:round;stroke-miterlimit:10;stroke-dasharray:none;stroke-opacity:1"
           id="path1454" />
      </g>
      <g
         id="g1456"
         transform="matrix(0.5454546,0,0,-0.5454546,0,841.89)">
        <path
           d="m 328.9447,94.3139 c 0.0203,-0.12779 0.1469,-0.2805 0.3799,-0.45811 0.1502,-0.11453 0.3855,-0.26034 0.7058,-0.43744 0.3203,-0.1771 0.6823,-0.33933 1.0859,-0.48668 0.4037,-0.14735 0.7614,-0.2482 1.0733,-0.30254 0.3119,-0.05435 0.5282,-0.06128 0.6488,-0.02081 0.1207,0.04048 0.1939,0.14557 0.2197,0.31526 0.0259,0.16971 0.003,0.37918 -0.0671,0.62842 -0.0707,0.24924 -0.1808,0.51911 -0.3305,0.80961 -0.1497,0.2905 -0.33,0.59432 -0.5407,0.91146 -0.3094,0.46535 -0.7788,1.01305 -1.4083,1.64308"
           style="fill:none;stroke:#000000;stroke-width:1.03937;stroke-linecap:round;stroke-linejoin:round;stroke-miterlimit:10;stroke-dasharray:none;stroke-opacity:1"
           id="path1458" />
      </g>
      <g
         id="g1460"
         transform="matrix(0.5454546,0,0,-0.5454546,0,841.89)">
        <path
           d="m 329.8531,97.58265 c -0.149,-0.07561 -0.2699,-0.12742 -0.363,-0.15545 -0.0635,-0.01915 -0.0985,-0.0297 -0.1049,-0.03163 -0.006,-0.0019 -0.002,-0.0029 0.0144,-0.003 0.016,-5e-5 0.1034,-3.4e-4 0.2621,-8.6e-4 0.1588,-5.2e-4 0.3922,-0.01383 0.7001,-0.03994 0.4485,-0.03803 1.1062,-0.17817 1.9729,-0.42041"
           style="fill:none;stroke:#000000;stroke-width:1.03937;stroke-linecap:round;stroke-linejoin:round;stroke-miterlimit:10;stroke-dasharray:none;stroke-opacity:1"
           id="path1462" />
      </g>
      <g
         id="g1464"
         transform="matrix(0.5454546,0,0,-0.5454546,0,841.89)">
        <path
           d="m 330.4174,99.07144 c -0.0917,0.2575 -0.1883,0.55203 -0.2896,0.88359 -0.1014,0.33157 -0.2165,0.81547 -0.3455,1.45187 -0.129,0.6363 -0.2431,1.3527 -0.3424,2.1492 -0.0992,0.7964 -0.1654,1.5032 -0.1984,2.1203 -0.0331,0.6171 -0.0482,1.0128 -0.0452,1.187 0.003,0.1743 0.004,0.2614 0.004,0.2614"
           style="fill:none;stroke:#000000;stroke-width:1.03937;stroke-linecap:round;stroke-linejoin:round;stroke-miterlimit:10;stroke-dasharray:none;stroke-opacity:1"
           id="path1466" />
      </g>
      <g
         id="g1468"
         transform="matrix(0.5454546,0,0,-0.5454546,0,841.89)">
        <path
           d="m 329.6876,104.242 c 0.2727,-0.113 0.6396,-0.2715 1.1005,-0.4754 0.461,-0.2039 0.9435,-0.4255 1.4475,-0.6646 0.5041,-0.2392 0.8697,-0.4655 1.0969,-0.679"
           style="fill:none;stroke:#000000;stroke-width:1.03937;stroke-linecap:round;stroke-linejoin:round;stroke-miterlimit:10;stroke-dasharray:none;stroke-opacity:1"
           id="path1470" />
      </g>
      <g
         id="g1472"
         transform="matrix(0.5454546,0,0,-0.5454546,0,841.89)">
        <path
           d="m 326.5054,101.2141 c -0.0996,-0.0991 -0.1653,-0.1644 -0.197,-0.196 -0.022,-0.0219 -0.0257,0.0392 -0.0113,0.1833 0.0144,0.144 0.0395,0.3951 0.0753,0.7532 0.0358,0.3581 0.0571,0.8712 0.064,1.5394 0.007,0.6683 -0.0325,1.3986 -0.1182,2.191 -0.0856,0.7925 -0.174,1.484 -0.2652,2.0746 -0.0911,0.5906 -0.145,0.9834 -0.1617,1.1784 -0.0167,0.195 -0.0255,0.2978 -0.0264,0.3084 -9e-4,0.0106 0.002,0.0146 0.009,0.0121 0.007,-0.002 0.0719,-0.0264 0.1955,-0.0719 0.1236,-0.0454 0.3472,-0.1429 0.6708,-0.2923 0.3236,-0.1495 0.7737,-0.3726 1.3504,-0.6693 0.5766,-0.2967 1.2551,-0.6323 2.0353,-1.0068 1.1923,-0.5722 2.1805,-1.142 2.9645,-1.7093"
           style="fill:none;stroke:#000000;stroke-width:1.03937;stroke-linecap:round;stroke-linejoin:round;stroke-miterlimit:10;stroke-dasharray:none;stroke-opacity:1"
           id="path1474" />
      </g>
      <g
         id="g1476"
         transform="matrix(0.5454546,0,0,-0.5454546,0,841.89)">
        <path
           d="m 337.5612,92.73 c -0.0291,-0.10751 -0.074,-0.17268 -0.1348,-0.19552 -0.0421,-0.01581 -0.1431,0.11008 -0.3031,0.37768 -0.16,0.26759 -0.3806,0.6817 -0.6619,1.24232 -0.2812,0.56062 -0.5727,1.14091 -0.8745,1.74088 -0.3017,0.59996 -0.4776,0.9498 -0.5278,1.04953 -0.0501,0.09972 -0.0786,0.12608 -0.0853,0.07908 -0.007,-0.047 -0.005,-0.05517 0.005,-0.02452 0.014,0.04285 0.0371,-0.04038 0.0695,-0.2497"
           style="fill:none;stroke:#000000;stroke-width:1.03937;stroke-linecap:round;stroke-linejoin:round;stroke-miterlimit:10;stroke-dasharray:none;stroke-opacity:1"
           id="path1478" />
      </g>
      <g
         id="g1480"
         transform="matrix(0.5454546,0,0,-0.5454546,0,841.89)">
        <path
           d="m 336.5861,94.31657 c 0.1237,-0.17266 0.305,-0.35592 0.5439,-0.5498 0.156,-0.12654 0.3612,-0.23619 0.6158,-0.32897 0.2546,-0.09278 0.7556,-0.19955 1.5031,-0.32031 0.7474,-0.12076 1.3083,-0.22731 1.6827,-0.31966 0.3744,-0.09235 0.7145,-0.17961 1.0203,-0.26177 0.3058,-0.08215 0.5518,-0.14062 0.7379,-0.1754 0.1861,-0.03479 0.2523,0.0039 0.1986,0.11615 -0.0537,0.11221 -0.173,0.29862 -0.3579,0.55922 -0.185,0.26059 -0.4424,0.60738 -0.7725,1.04036 -0.33,0.43298 -0.7337,0.95335 -1.2109,1.56112 -0.4771,0.60776 -1.0796,1.34131 -1.8074,2.20062 -0.7277,0.85932 -1.4861,1.74291 -2.2753,2.65077 -0.7891,0.9079 -1.3888,1.6048 -1.7993,2.0908 -0.4105,0.4861 -0.6879,0.8128 -0.8322,0.9802 -0.199,0.2311 -0.3156,0.0786 -0.3497,-0.4573"
           style="fill:none;stroke:#000000;stroke-width:1.03937;stroke-linecap:round;stroke-linejoin:round;stroke-miterlimit:10;stroke-dasharray:none;stroke-opacity:1"
           id="path1482" />
      </g>
      <g
         id="g1484"
         transform="matrix(0.5454546,0,0,-0.5454546,0,841.89)">
        <path
           d="m 335.6038,96.03153 c 0.0746,0.24686 0.3091,0.51866 0.7034,0.81539 0.3943,0.29674 1.1452,0.70211 2.2526,1.21613 1.1073,0.51402 2.1771,0.96914 3.2094,1.36534 1.0322,0.39621 1.8621,0.77801 2.4896,1.14531 0.6274,0.3673 1.1152,0.6724 1.4632,0.9153 0.3481,0.2429 0.5137,0.4949 0.497,0.7559"
           style="fill:none;stroke:#000000;stroke-width:1.03937;stroke-linecap:round;stroke-linejoin:round;stroke-miterlimit:10;stroke-dasharray:none;stroke-opacity:1"
           id="path1486" />
      </g>
      <g
         id="g1488"
         transform="matrix(0.5454546,0,0,-0.5454546,0,841.89)">
        <path
           d="m 336.8863,102.2104 c -0.1257,0.3716 -0.2501,0.802 -0.3731,1.291 -0.123,0.4891 -0.2353,1.0151 -0.3371,1.5781 -0.1018,0.5629 -0.1627,0.977 -0.1829,1.2421 -0.0202,0.2652 -0.008,0.411 0.037,0.4375 0.0635,0.0375 0.1198,0.0143 0.1688,-0.0697"
           style="fill:none;stroke:#000000;stroke-width:1.03937;stroke-linecap:round;stroke-linejoin:round;stroke-miterlimit:10;stroke-dasharray:none;stroke-opacity:1"
           id="path1490" />
      </g>
      <g
         id="g1492"
         transform="matrix(0.5454546,0,0,-0.5454546,0,841.89)">
        <path
           d="m 337.0463,102.3646 c 0.0459,-0.2256 0.0992,-0.4037 0.1601,-0.5342 0.0415,-0.089 0.1225,-0.1794 0.243,-0.2711 0.1205,-0.0917 0.3029,-0.1867 0.547,-0.285 0.2442,-0.0983 0.5427,-0.1938 0.8955,-0.2865 0.3529,-0.0926 0.7062,-0.1701 1.0599,-0.2325 0.3537,-0.0624 0.6875,-0.1035 1.0013,-0.1232 0.3137,-0.0198 0.5792,-0.0189 0.7964,0.003 0.2172,0.0215 0.3632,0.0598 0.4381,0.1151 0.0749,0.0552 0.1192,0.1086 0.133,0.16 0.0137,0.0515 -0.0553,0.3552 -0.207,0.9112 -0.1516,0.5561 -0.2611,0.9992 -0.3284,1.3295 -0.0674,0.3302 -0.126,0.6631 -0.1759,0.9986 -0.0499,0.3355 -0.1089,0.6641 -0.177,0.9858 -0.0997,0.4702 -0.3431,0.759 -0.7302,0.8664"
           style="fill:none;stroke:#000000;stroke-width:1.03937;stroke-linecap:round;stroke-linejoin:round;stroke-miterlimit:10;stroke-dasharray:none;stroke-opacity:1"
           id="path1494" />
      </g>
      <g
         id="g1496"
         transform="matrix(0.5454546,0,0,-0.5454546,0,841.89)">
        <path
           d="m 336.5421,106.4439 c -0.1593,-0.005 -0.2104,-0.001 -0.1535,0.0134 0.0412,0.0104 0.144,0.0365 0.3086,0.0782 0.1646,0.0417 0.5964,0.0328 1.2954,-0.0268 1.0238,-0.0871 2.3721,-0.3515 4.0448,-0.7932"
           style="fill:none;stroke:#000000;stroke-width:1.03937;stroke-linecap:round;stroke-linejoin:round;stroke-miterlimit:10;stroke-dasharray:none;stroke-opacity:1"
           id="path1498" />
      </g>
    </g>
  </g>
</svg>
