<svg xmlns="http://www.w3.org/2000/svg" width="15.56" height="13.063"><path d="M328.51 93.581a1.2 1.2 0 0 0-.137-.44l-.084-.133q-.02-.03-.02.156l-.004.799q-.001.612.019 1.896t.14 1.548" style="fill:none;stroke:#000;stroke-width:1.03937;stroke-linecap:round;stroke-linejoin:round;stroke-miterlimit:10;stroke-dasharray:none;stroke-opacity:1" transform="matrix(.72727 0 0 .72727 -236.614 -66.773)"/><path d="M328.945 94.314q.03-.192.38-.458.225-.172.705-.438a8 8 0 0 1 1.086-.486 6.4 6.4 0 0 1 1.074-.303q.468-.081.648-.02.181.06.22.315.038.255-.067.628-.105.375-.33.81t-.541.911q-.465.698-1.408 1.643" style="fill:none;stroke:#000;stroke-width:1.03937;stroke-linecap:round;stroke-linejoin:round;stroke-miterlimit:10;stroke-dasharray:none;stroke-opacity:1" transform="matrix(.72727 0 0 .72727 -236.614 -66.773)"/><path d="M329.853 97.583a2.4 2.4 0 0 0-.363-.156q-.095-.029-.105-.031-.01-.003.015-.003l.262-.001q.238 0 .7-.04.672-.057 1.973-.42" style="fill:none;stroke:#000;stroke-width:1.03937;stroke-linecap:round;stroke-linejoin:round;stroke-miterlimit:10;stroke-dasharray:none;stroke-opacity:1" transform="matrix(.72727 0 0 .72727 -236.614 -66.773)"/><path d="M330.417 99.071a21 21 0 0 0-.29.884q-.15.497-.345 1.452a29 29 0 0 0-.342 2.15 31 31 0 0 0-.244 3.306l.004.262" style="fill:none;stroke:#000;stroke-width:1.03937;stroke-linecap:round;stroke-linejoin:round;stroke-miterlimit:10;stroke-dasharray:none;stroke-opacity:1" transform="matrix(.72727 0 0 .72727 -236.614 -66.773)"/><path d="M329.688 104.242q.409-.17 1.1-.475.692-.306 1.448-.665.757-.359 1.096-.679" style="fill:none;stroke:#000;stroke-width:1.03937;stroke-linecap:round;stroke-linejoin:round;stroke-miterlimit:10;stroke-dasharray:none;stroke-opacity:1" transform="matrix(.72727 0 0 .72727 -236.614 -66.773)"/><path d="m326.505 101.214-.197-.196q-.033-.032-.01.183.02.216.074.754.055.536.064 1.539t-.118 2.191a47 47 0 0 1-.265 2.075q-.137.885-.162 1.178l-.026.308q-.001.016.009.013l.195-.072q.186-.069.671-.293t1.35-.669a83 83 0 0 1 2.036-1.007q1.788-.858 2.964-1.71" style="fill:none;stroke:#000;stroke-width:1.03937;stroke-linecap:round;stroke-linejoin:round;stroke-miterlimit:10;stroke-dasharray:none;stroke-opacity:1" transform="matrix(.72727 0 0 .72727 -236.614 -66.773)"/><path d="M337.561 92.73q-.043-.162-.135-.196-.063-.023-.303.378-.24.402-.662 1.242-.42.841-.874 1.741l-.528 1.05q-.075.15-.085.079t.005-.025q.02.065.07-.25" style="fill:none;stroke:#000;stroke-width:1.03937;stroke-linecap:round;stroke-linejoin:round;stroke-miterlimit:10;stroke-dasharray:none;stroke-opacity:1" transform="matrix(.72727 0 0 .72727 -236.614 -66.773)"/><path d="M336.586 94.317q.186-.26.544-.55.234-.19.616-.33.381-.138 1.503-.32 1.12-.18 1.683-.32.561-.138 1.02-.26.459-.125.738-.176.279-.052.198.116a5 5 0 0 1-.357.559q-.278.39-.773 1.04t-1.21 1.562a79 79 0 0 1-1.808 2.2q-1.092 1.29-2.276 2.65-1.183 1.363-1.799 2.092t-.832.98q-.3.346-.35-.457" style="fill:none;stroke:#000;stroke-width:1.03937;stroke-linecap:round;stroke-linejoin:round;stroke-miterlimit:10;stroke-dasharray:none;stroke-opacity:1" transform="matrix(.72727 0 0 .72727 -236.614 -66.773)"/><path d="M335.604 96.032q.112.37.703.815t2.253 1.216q1.66.772 3.21 1.365 1.547.595 2.489 1.146.94.55 1.463.915.522.364.497.756" style="fill:none;stroke:#000;stroke-width:1.03937;stroke-linecap:round;stroke-linejoin:round;stroke-miterlimit:10;stroke-dasharray:none;stroke-opacity:1" transform="matrix(.72727 0 0 .72727 -236.614 -66.773)"/><path d="M336.886 102.21q-.188.558-.373 1.291-.184.734-.337 1.578t-.183 1.243.037.437q.096.056.169-.07" style="fill:none;stroke:#000;stroke-width:1.03937;stroke-linecap:round;stroke-linejoin:round;stroke-miterlimit:10;stroke-dasharray:none;stroke-opacity:1" transform="matrix(.72727 0 0 .72727 -236.614 -66.773)"/><path d="M337.046 102.365q.07-.339.16-.535a.8.8 0 0 1 .243-.27q.18-.138.547-.286t.896-.286q.53-.139 1.06-.233a9 9 0 0 1 1.001-.123q.471-.03.797.003.325.033.438.115.112.083.133.16.02.078-.207.911-.228.835-.329 1.33-.1.495-.176.998-.075.504-.177.986-.15.706-.73.867" style="fill:none;stroke:#000;stroke-width:1.03937;stroke-linecap:round;stroke-linejoin:round;stroke-miterlimit:10;stroke-dasharray:none;stroke-opacity:1" transform="matrix(.72727 0 0 .72727 -236.614 -66.773)"/><path d="M336.542 106.444q-.24-.008-.153.013l.308.079q.248.061 1.296-.027 1.535-.131 4.044-.793" style="fill:none;stroke:#000;stroke-width:1.03937;stroke-linecap:round;stroke-linejoin:round;stroke-miterlimit:10;stroke-dasharray:none;stroke-opacity:1" transform="matrix(.72727 0 0 .72727 -236.614 -66.773)"/></svg>