<?xml version="1.0" encoding="UTF-8" standalone="no"?>
<!-- Created with Inkscape (http://www.inkscape.org/) -->

<svg
   version="1.1"
   id="svg2"
   width="9.1911316"
   height="14.493748"
   viewBox="0 0 9.1911316 14.493747"
   xmlns="http://www.w3.org/2000/svg"
   xmlns:svg="http://www.w3.org/2000/svg">
  <defs
     id="defs6" />
  <g
     id="g10"
     transform="matrix(1.3333333,0,0,-1.3333333,-47.302425,1076.2525)">
    <g
       id="g564"
       transform="matrix(0.5454546,0,0,-0.5454546,0,841.89)">
      <path
         d="m 65.92619,66.99868 c -0.28965,0.007 -0.44043,0.01063 -0.45231,0.01092 -0.0084,2e-4 1.2e-4,-0.0029 0.02551,-0.0091 0.02539,-0.0063 0.26012,-0.06453 0.70418,-0.17468 0.44405,-0.11015 1.08095,-0.30092 1.91068,-0.57229 0.82973,-0.27138 1.77029,-0.55932 2.82167,-0.86383 1.05138,-0.3045 1.95231,-0.52139 2.7028,-0.65066 0.75049,-0.12927 1.34937,-0.22114 1.79664,-0.27561 0.44727,-0.05448 0.79042,-0.10521 1.02945,-0.15221 0.23904,-0.047 0.41038,-0.08645 0.51403,-0.11835 0.10366,-0.03191 0.16167,-0.04976 0.17405,-0.05357 0.01238,-0.0038 0.01283,-0.0016 0.0013,0.0068 -0.0115,0.0083 -0.06538,0.04726 -0.16163,0.11685 -0.09625,0.0696 -0.31118,0.29024 -0.64479,0.66194 -0.33361,0.37169 -0.72873,0.80745 -1.18535,1.30727 -0.45663,0.49982 -0.92705,1.0066 -1.41126,1.52036 -0.48422,0.51375 -0.94269,1.00545 -1.37541,1.47509 -0.43272,0.46964 -0.66056,0.71692 -0.68353,0.74185 -0.02297,0.02493 -0.03353,0.03658 -0.03167,0.03496 0.0019,-0.0016 0.02033,-0.01766 0.05541,-0.04812 0.03507,-0.03047 0.26833,-0.04628 0.69978,-0.04742 0.43145,-0.0011 0.69997,-3e-5 0.80556,0.0033 0.10558,0.0034 0.21126,0.01983 0.31702,0.04937 0.10575,0.02953 0.20528,0.09742 0.29858,0.20369 0.09329,0.10626 0.17972,0.30339 0.25928,0.59138 0.07956,0.28799 0.14399,0.74846 0.19331,1.38139 0.04931,0.63294 0.08463,1.39429 0.10594,2.28407 0.02132,0.88978 0.02486,1.81373 0.01061,2.77186 -0.01426,0.95813 -0.09038,1.79729 -0.22837,2.51745 -0.13798,0.72017 -0.30088,1.30828 -0.4887,1.76434 -0.18782,0.45606 -0.37579,0.81245 -0.5639,1.06916 -0.18812,0.25672 -0.35362,0.41027 -0.4965,0.46065 -0.14289,0.05037 -0.29171,0.02867 -0.44646,-0.06511 -0.15475,-0.09378 -0.33741,-0.26102 -0.54797,-0.50173 -0.30552,-0.34925 -0.86418,-0.88065 -1.67599,-1.5942"
         style="fill:none;stroke:#000000;stroke-width:1.03937;stroke-linecap:round;stroke-linejoin:round;stroke-miterlimit:10;stroke-dasharray:none;stroke-opacity:1"
         id="path566" />
    </g>
  </g>
</svg>
