<?xml version="1.0" encoding="UTF-8" standalone="no"?>
<!-- Created with Inkscape (http://www.inkscape.org/) -->

<svg
   version="1.1"
   id="svg2"
   width="13.62619"
   height="13.026619"
   viewBox="0 0 13.62619 13.026619"
   sodipodi:docname="E24136542_宋昱宣_預報2.svg"
   inkscape:version="1.2.1 (9c6d41e410, 2022-07-14)"
   xmlns:inkscape="http://www.inkscape.org/namespaces/inkscape"
   xmlns:sodipodi="http://sodipodi.sourceforge.net/DTD/sodipodi-0.dtd"
   xmlns="http://www.w3.org/2000/svg"
   xmlns:svg="http://www.w3.org/2000/svg">
  <defs
     id="defs6" />
  <sodipodi:namedview
     id="namedview4"
     pagecolor="#ffffff"
     bordercolor="#000000"
     borderopacity="0.25"
     inkscape:showpageshadow="2"
     inkscape:pageopacity="0.0"
     inkscape:pagecheckerboard="0"
     inkscape:deskcolor="#d1d1d1"
     showgrid="false"
     inkscape:zoom="2.3786081"
     inkscape:cx="203.48035"
     inkscape:cy="340.32508"
     inkscape:window-width="1600"
     inkscape:window-height="930"
     inkscape:window-x="-6"
     inkscape:window-y="-6"
     inkscape:window-maximized="1"
     inkscape:current-layer="g10" />
  <g
     id="g10"
     inkscape:groupmode="layer"
     inkscape:label="Page 1"
     transform="matrix(1.3333333,0,0,-1.3333333,-87.880332,1056.0562)">
    <g
       id="g472104">
      <g
         id="g1264"
         transform="matrix(0.5454546,0,0,-0.5454546,0,841.89)">
        <path
           d="m 127.7879,92.14236 c 0.138,-0.13889 0.2152,-0.21657 0.2315,-0.23304 0.0115,-0.01157 0.011,-0.0011 -0.002,0.03143 -0.0126,0.03252 -0.0579,0.14987 -0.1361,0.35204 -0.0782,0.20216 -0.2795,0.598 -0.6041,1.18753 -0.3245,0.58951 -0.7964,1.39809 -1.4157,2.42573 -0.6193,1.02765 -1.2583,2.06009 -1.9171,3.09733 -0.6587,1.03722 -1.1953,1.83502 -1.6096,2.39342 -0.4144,0.5583 -0.702,0.915 -0.8629,1.0698 l -0.1172,0.1042 0.1307,-0.1565 c 0.257,-0.287 0.3609,-0.5165 0.3117,-0.6887"
           style="fill:none;stroke:#000000;stroke-width:1.03937;stroke-linecap:round;stroke-linejoin:round;stroke-miterlimit:10;stroke-dasharray:none;stroke-opacity:1"
           id="path1266" />
      </g>
      <g
         id="g1268"
         transform="matrix(0.5454546,0,0,-0.5454546,0,841.89)">
        <path
           d="m 125.5565,97.31293 c 0.0597,-0.14264 0.0929,-0.222 0.0996,-0.23809 0.005,-0.01129 0.007,-0.003 0.007,0.02482 1e-4,0.02782 8e-4,0.13256 0.002,0.3142 0.001,0.18164 -0.007,0.55 -0.0237,1.10508 -0.0169,0.55508 -0.073,2.03066 -0.1683,4.42656 -0.0953,2.396 -0.1472,3.9093 -0.1557,4.5398 -0.008,0.6306 0.0296,1.062 0.1142,1.2943"
           style="fill:none;stroke:#000000;stroke-width:1.03937;stroke-linecap:round;stroke-linejoin:round;stroke-miterlimit:10;stroke-dasharray:none;stroke-opacity:1"
           id="path1270" />
      </g>
      <g
         id="g1272"
         transform="matrix(0.5454546,0,0,-0.5454546,0,841.89)">
        <path
           d="m 130.8617,92.98263 c 0.0344,-0.20631 0.0525,-0.31455 0.0542,-0.32473 0.001,-0.0072 0.002,0.0049 0.001,0.03624 -2e-4,0.03133 -0.002,0.27541 -0.005,0.73225 -0.003,0.45684 -0.0285,1.01466 -0.0752,1.67345 -0.0466,0.65879 -0.122,1.58154 -0.2262,2.76825 -0.1041,1.18671 -0.2127,2.42461 -0.3257,3.71361 -0.113,1.289 -0.1852,2.2915 -0.2165,3.0073 -0.0313,0.7159 -0.0285,1.2537 0.008,1.6134 0.0369,0.3596 0.1035,0.6587 0.1998,0.8973 0.0962,0.2385 0.2121,0.4377 0.3474,0.5975 0.1354,0.1597 0.2962,0.2908 0.4824,0.3933 0.1862,0.1024 0.4163,0.1785 0.6901,0.2283 0.2739,0.0499 0.5756,0.0791 0.9052,0.0877 0.3295,0.009 0.6947,-0.0119 1.0955,-0.0615 0.4008,-0.0495 0.8252,-0.133 1.2732,-0.2505 0.448,-0.1175 0.8752,-0.2632 1.2816,-0.437 0.4064,-0.1738 0.7741,-0.3823 1.1031,-0.6257 0.3291,-0.2433 0.6049,-0.4946 0.8273,-0.754 0.2225,-0.2593 0.3896,-0.4883 0.5013,-0.6871 0.1117,-0.1988 0.1863,-0.3675 0.2237,-0.5062 0.0375,-0.1387 0.0515,-0.2817 0.0421,-0.4288 -0.009,-0.1471 -0.0577,-0.3338 -0.145,-0.5601 -0.128,-0.3319 -0.3856,-0.6666 -0.7728,-1.004"
           style="fill:none;stroke:#000000;stroke-width:1.03937;stroke-linecap:round;stroke-linejoin:round;stroke-miterlimit:10;stroke-dasharray:none;stroke-opacity:1"
           id="path1274" />
      </g>
      <g
         id="g1276"
         transform="matrix(0.5454546,0,0,-0.5454546,0,841.89)">
        <path
           d="m 131.3268,99.31454 c -0.3443,-0.06581 -0.5384,-0.10292 -0.5823,-0.11132 -0.0309,-0.0059 1e-4,-0.01959 0.0928,-0.04106 0.0928,-0.02147 0.4077,-0.09438 0.9448,-0.21871 0.5371,-0.12433 1.1936,-0.30858 1.9695,-0.55273 1.2106,-0.38088 2.1118,-0.7562 2.7037,-1.12596"
           style="fill:none;stroke:#000000;stroke-width:1.03937;stroke-linecap:round;stroke-linejoin:round;stroke-miterlimit:10;stroke-dasharray:none;stroke-opacity:1"
           id="path1278" />
      </g>
    </g>
  </g>
</svg>
