<svg xmlns="http://www.w3.org/2000/svg" width="14.13" height="17.049"><path d="M210.022 94.508q.258-.497.309-.563.036-.045.04.802.006 1.25.284 3.017" style="fill:none;stroke:#000;stroke-width:1.03937;stroke-linecap:round;stroke-linejoin:round;stroke-miterlimit:10;stroke-dasharray:none;stroke-opacity:1" transform="matrix(.72727 0 0 .72727 -150.947 -65.882)"/><path d="M208.972 103.492q-.147-.01-.19.301-.041.312-.006.881.034.57.181 1.477.216 1.337.114 3.305" style="fill:none;stroke:#000;stroke-width:1.03937;stroke-linecap:round;stroke-linejoin:round;stroke-miterlimit:10;stroke-dasharray:none;stroke-opacity:1" transform="matrix(.72727 0 0 .72727 -150.947 -65.882)"/><path d="M208.545 112.713a2 2 0 0 0-.325.358.8.8 0 0 0-.14.271q-.032.124.07.16t.535-.281 1.182-1.291q1.095-1.419 2.65-4.357" style="fill:none;stroke:#000;stroke-width:1.03937;stroke-linecap:round;stroke-linejoin:round;stroke-miterlimit:10;stroke-dasharray:none;stroke-opacity:1" transform="matrix(.72727 0 0 .72727 -150.947 -65.882)"/><path d="M215.626 95.215q-.225-.16-.256.25-.03.412-.036 1.367a29 29 0 0 1-.12 2.284 40 40 0 0 1-.276 2.41q-.16 1.083-.276 1.495-.115.412-.177.489-.061.076-.014-.05.067-.18-.084-.508" style="fill:none;stroke:#000;stroke-width:1.03937;stroke-linecap:round;stroke-linejoin:round;stroke-miterlimit:10;stroke-dasharray:none;stroke-opacity:1" transform="matrix(.72727 0 0 .72727 -150.947 -65.882)"/><path d="M215.862 95.66q.155-.602.42-1.088.178-.326.484-.666t.665-.638q.36-.297.783-.576a9 9 0 0 1 .796-.47q.37-.194.572-.242a1.4 1.4 0 0 1 .265-.048q.065 0 .077.124t-.1 1.122a30 30 0 0 0-.16 2.016 74 74 0 0 0-.062 2.594q-.015 1.575-.02 3.035-.007 1.459-.038 2.213-.03.753-.296 1.26" style="fill:none;stroke:#000;stroke-width:1.03937;stroke-linecap:round;stroke-linejoin:round;stroke-miterlimit:10;stroke-dasharray:none;stroke-opacity:1" transform="matrix(.72727 0 0 .72727 -150.947 -65.882)"/><path d="M215.87 98.651q-.202-.204.098-.263t.862-.103a2.9 2.9 0 0 1 1.607.34" style="fill:none;stroke:#000;stroke-width:1.03937;stroke-linecap:round;stroke-linejoin:round;stroke-miterlimit:10;stroke-dasharray:none;stroke-opacity:1" transform="matrix(.72727 0 0 .72727 -150.947 -65.882)"/><path d="m215.593 101.028-.092.009h0l.023-.005.5-.095q.474-.09 1.042-.132.832-.064 1.38.544" style="fill:none;stroke:#000;stroke-width:1.03937;stroke-linecap:round;stroke-linejoin:round;stroke-miterlimit:10;stroke-dasharray:none;stroke-opacity:1" transform="matrix(.72727 0 0 .72727 -150.947 -65.882)"/><path d="M214.334 105.495q-.567.196-.65.236l-.062.03.018-.004.327-.092q.304-.084 1.132-.418a34 34 0 0 1 1.897-.69q1.802-.6 2.24-.558" style="fill:none;stroke:#000;stroke-width:1.03937;stroke-linecap:round;stroke-linejoin:round;stroke-miterlimit:10;stroke-dasharray:none;stroke-opacity:1" transform="matrix(.72727 0 0 .72727 -150.947 -65.882)"/><path d="M216.49 106.19a.6.6 0 0 0-.303.089q-.16.089-.395.367a4 4 0 0 0-.453.668q-.217.39-.598 1.25-.38.858-.632 1.417t-.34.744q-.123.255-.057-.324" style="fill:none;stroke:#000;stroke-width:1.03937;stroke-linecap:round;stroke-linejoin:round;stroke-miterlimit:10;stroke-dasharray:none;stroke-opacity:1" transform="matrix(.72727 0 0 .72727 -150.947 -65.882)"/><path d="M216.998 106.298q.072-.021.184.163.11.183.355.765.245.58.569 1.28t.995 1.037" style="fill:none;stroke:#000;stroke-width:1.03937;stroke-linecap:round;stroke-linejoin:round;stroke-miterlimit:10;stroke-dasharray:none;stroke-opacity:1" transform="matrix(.72727 0 0 .72727 -150.947 -65.882)"/><path d="M222.375 99.118a.7.7 0 0 0-.18-.373q-.019-.024-.015.215l.012.839q.01.6.01 1.46.002 1.354.31 1.85" style="fill:none;stroke:#000;stroke-width:1.03937;stroke-linecap:round;stroke-linejoin:round;stroke-miterlimit:10;stroke-dasharray:none;stroke-opacity:1" transform="matrix(.72727 0 0 .72727 -150.947 -65.882)"/><path d="M225.645 91.8q.01-.402.04-.568.02-.114.088-.124.07-.01.173.316.105.325.189 1.158.084.834.133 2.444.049 1.611.059 4.188t.01 4.684q0 2.109.021 3.235.02 1.126.062 1.726t.041.864q0 .264-.136.335-.135.07-.416.087-.282.017-.673.015a2.3 2.3 0 0 1-.779-.142q-.568-.205-.997-.847" style="fill:none;stroke:#000;stroke-width:1.03937;stroke-linecap:round;stroke-linejoin:round;stroke-miterlimit:10;stroke-dasharray:none;stroke-opacity:1" transform="matrix(.72727 0 0 .72727 -150.947 -65.882)"/></svg>