<?xml version="1.0" encoding="UTF-8" standalone="no"?>
<!-- Created with Inkscape (http://www.inkscape.org/) -->

<svg
   version="1.1"
   id="svg2"
   width="14.129898"
   height="17.048904"
   viewBox="0 0 14.129898 17.048904"
   sodipodi:docname="E24136542_宋昱宣_預報2.svg"
   inkscape:version="1.2.1 (9c6d41e410, 2022-07-14)"
   xmlns:inkscape="http://www.inkscape.org/namespaces/inkscape"
   xmlns:sodipodi="http://sodipodi.sourceforge.net/DTD/sodipodi-0.dtd"
   xmlns="http://www.w3.org/2000/svg"
   xmlns:svg="http://www.w3.org/2000/svg">
  <defs
     id="defs6" />
  <sodipodi:namedview
     id="namedview4"
     pagecolor="#ffffff"
     bordercolor="#000000"
     borderopacity="0.25"
     inkscape:showpageshadow="2"
     inkscape:pageopacity="0.0"
     inkscape:pagecheckerboard="0"
     inkscape:deskcolor="#d1d1d1"
     showgrid="false"
     inkscape:zoom="2.3786081"
     inkscape:cx="203.48035"
     inkscape:cy="340.32508"
     inkscape:window-width="1600"
     inkscape:window-height="930"
     inkscape:window-x="-6"
     inkscape:window-y="-6"
     inkscape:window-maximized="1"
     inkscape:current-layer="g10" />
  <g
     id="g10"
     inkscape:groupmode="layer"
     inkscape:label="Page 1"
     transform="matrix(1.3333333,0,0,-1.3333333,-150.94708,1056.6378)">
    <g
       id="g542897">
      <g
         id="g1316"
         transform="matrix(0.5454546,0,0,-0.5454546,0,841.89)">
        <path
           d="m 210.0221,94.50793 c 0.1717,-0.33128 0.2746,-0.51885 0.3089,-0.56269 0.024,-0.03073 0.0373,0.23655 0.04,0.80185 0.004,0.83314 0.0987,1.83888 0.2844,3.01724"
           style="fill:none;stroke:#000000;stroke-width:1.03937;stroke-linecap:round;stroke-linejoin:round;stroke-miterlimit:10;stroke-dasharray:none;stroke-opacity:1"
           id="path1318" />
      </g>
      <g
         id="g1320"
         transform="matrix(0.5454546,0,0,-0.5454546,0,841.89)">
        <path
           d="m 208.9715,103.4918 c -0.0979,-0.007 -0.1609,0.0932 -0.1888,0.3013 -0.0279,0.2081 -0.0304,0.5019 -0.007,0.8814 0.0229,0.3796 0.0834,0.8719 0.1814,1.477 0.1443,0.8908 0.1822,1.9925 0.1136,3.3049"
           style="fill:none;stroke:#000000;stroke-width:1.03937;stroke-linecap:round;stroke-linejoin:round;stroke-miterlimit:10;stroke-dasharray:none;stroke-opacity:1"
           id="path1322" />
      </g>
      <g
         id="g1324"
         transform="matrix(0.5454546,0,0,-0.5454546,0,841.89)">
        <path
           d="m 208.5445,112.7131 c -0.1068,0.0886 -0.2152,0.2078 -0.325,0.3575 -0.0721,0.0982 -0.1186,0.1887 -0.1396,0.2714 -0.021,0.0828 0.002,0.1364 0.0705,0.1609 0.068,0.0245 0.2461,-0.0697 0.5344,-0.2824 0.2883,-0.2127 0.6825,-0.643 1.1824,-1.2908 0.7299,-0.946 1.6132,-2.3981 2.6496,-4.3562"
           style="fill:none;stroke:#000000;stroke-width:1.03937;stroke-linecap:round;stroke-linejoin:round;stroke-miterlimit:10;stroke-dasharray:none;stroke-opacity:1"
           id="path1326" />
      </g>
      <g
         id="g1328"
         transform="matrix(0.5454546,0,0,-0.5454546,0,841.89)">
        <path
           d="m 215.6259,95.21529 c -0.1497,-0.10697 -0.235,-0.02347 -0.2559,0.2505 -0.0208,0.27396 -0.0329,0.72945 -0.0362,1.36647 -0.003,0.63701 -0.0433,1.39834 -0.1199,2.28399 -0.0767,0.88565 -0.1686,1.68915 -0.2757,2.41065 -0.1072,0.7215 -0.1992,1.2195 -0.2763,1.4942 -0.077,0.2748 -0.136,0.4375 -0.1768,0.4884 -0.0409,0.0509 -0.0457,0.0346 -0.0144,-0.0488 0.0452,-0.1207 0.0174,-0.2904 -0.0833,-0.5091"
           style="fill:none;stroke:#000000;stroke-width:1.03937;stroke-linecap:round;stroke-linejoin:round;stroke-miterlimit:10;stroke-dasharray:none;stroke-opacity:1"
           id="path1330" />
      </g>
      <g
         id="g1332"
         transform="matrix(0.5454546,0,0,-0.5454546,0,841.89)">
        <path
           d="m 215.8619,95.66026 c 0.1031,-0.40185 0.243,-0.76449 0.4199,-1.0879 0.1189,-0.2173 0.2803,-0.43944 0.4842,-0.66643 0.204,-0.227 0.4256,-0.43962 0.665,-0.63786 0.2393,-0.19826 0.5005,-0.39012 0.7834,-0.5756 0.283,-0.18547 0.5481,-0.3424 0.7953,-0.47078 0.2473,-0.12838 0.438,-0.20889 0.5722,-0.24153 0.1342,-0.03265 0.2227,-0.0488 0.2655,-0.04847 0.0429,3.4e-4 0.0683,0.04194 0.0763,0.1248 0.008,0.08286 -0.0254,0.45672 -0.1004,1.1216 -0.075,0.66486 -0.1281,1.33693 -0.1593,2.01622 -0.0311,0.67928 -0.0517,1.54398 -0.0617,2.5941 -0.01,1.05012 -0.0171,2.06162 -0.0212,3.03449 -0.004,0.9729 -0.0164,1.7105 -0.0368,2.2129 -0.0205,0.5024 -0.1191,0.9227 -0.2958,1.2609"
           style="fill:none;stroke:#000000;stroke-width:1.03937;stroke-linecap:round;stroke-linejoin:round;stroke-miterlimit:10;stroke-dasharray:none;stroke-opacity:1"
           id="path1334" />
      </g>
      <g
         id="g1336"
         transform="matrix(0.5454546,0,0,-0.5454546,0,841.89)">
        <path
           d="m 215.8699,98.65131 c -0.1344,-0.13634 -0.1017,-0.22411 0.0981,-0.26329 0.1998,-0.03919 0.4871,-0.0735 0.862,-0.10291 0.5565,-0.04365 1.092,0.06977 1.6066,0.34027"
           style="fill:none;stroke:#000000;stroke-width:1.03937;stroke-linecap:round;stroke-linejoin:round;stroke-miterlimit:10;stroke-dasharray:none;stroke-opacity:1"
           id="path1338" />
      </g>
      <g
         id="g1340"
         transform="matrix(0.5454546,0,0,-0.5454546,0,841.89)">
        <path
           d="m 215.5925,101.028 c -0.0588,0.006 -0.0894,0.009 -0.0917,0.009 h -2e-4 l 0.0236,-0.005 c 0.0172,-0.003 0.1838,-0.0348 0.4998,-0.0946 0.316,-0.0599 0.6632,-0.1042 1.0416,-0.1329 0.5555,-0.0422 1.0157,0.1395 1.3806,0.545"
           style="fill:none;stroke:#000000;stroke-width:1.03937;stroke-linecap:round;stroke-linejoin:round;stroke-miterlimit:10;stroke-dasharray:none;stroke-opacity:1"
           id="path1342" />
      </g>
      <g
         id="g1344"
         transform="matrix(0.5454546,0,0,-0.5454546,0,841.89)">
        <path
           d="m 214.3335,105.4946 c -0.3778,0.1308 -0.5943,0.2095 -0.6495,0.236 -0.0387,0.0186 -0.0596,0.0286 -0.0625,0.03 -0.003,0.001 0.003,0 0.0188,-0.004 0.0155,-0.004 0.1245,-0.0348 0.3269,-0.0915 0.2024,-0.0566 0.5797,-0.1961 1.1321,-0.4182 0.5523,-0.2222 1.1845,-0.452 1.8966,-0.6894 1.2015,-0.4005 1.9485,-0.5866 2.2409,-0.5583"
           style="fill:none;stroke:#000000;stroke-width:1.03937;stroke-linecap:round;stroke-linejoin:round;stroke-miterlimit:10;stroke-dasharray:none;stroke-opacity:1"
           id="path1346" />
      </g>
      <g
         id="g1348"
         transform="matrix(0.5454546,0,0,-0.5454546,0,841.89)">
        <path
           d="m 216.4893,106.1896 c -0.0946,0 -0.1954,0.0297 -0.3023,0.0891 -0.107,0.0594 -0.2387,0.1817 -0.3952,0.3668 -0.1564,0.1851 -0.3072,0.4079 -0.4524,0.6686 -0.1451,0.2607 -0.3444,0.6773 -0.5979,1.2498 -0.2535,0.5726 -0.4643,1.045 -0.6323,1.4174 -0.168,0.3723 -0.2816,0.6203 -0.341,0.744 -0.0816,0.1701 -0.1003,0.062 -0.0559,-0.3244"
           style="fill:none;stroke:#000000;stroke-width:1.03937;stroke-linecap:round;stroke-linejoin:round;stroke-miterlimit:10;stroke-dasharray:none;stroke-opacity:1"
           id="path1350" />
      </g>
      <g
         id="g1352"
         transform="matrix(0.5454546,0,0,-0.5454546,0,841.89)">
        <path
           d="m 216.9981,106.2976 c 0.0482,-0.0132 0.1094,0.0412 0.1834,0.1633 0.074,0.1221 0.1926,0.3769 0.3558,0.7646 0.1631,0.3876 0.3527,0.8146 0.5686,1.281 0.2159,0.4664 0.5475,0.8119 0.9948,1.0366"
           style="fill:none;stroke:#000000;stroke-width:1.03937;stroke-linecap:round;stroke-linejoin:round;stroke-miterlimit:10;stroke-dasharray:none;stroke-opacity:1"
           id="path1354" />
      </g>
      <g
         id="g1356"
         transform="matrix(0.5454546,0,0,-0.5454546,0,841.89)">
        <path
           d="m 222.3748,99.11769 c -0.0278,-0.13135 -0.0651,-0.22685 -0.112,-0.28649 -0.0322,-0.0409 -0.0547,-0.0695 -0.0675,-0.08579 -0.0128,-0.01629 -0.018,0.05518 -0.0156,0.21441 0.002,0.15923 0.007,0.4388 0.0124,0.83869 0.006,0.39989 0.009,0.88649 0.01,1.45979 0.001,0.9031 0.1045,1.52 0.3106,1.8509"
           style="fill:none;stroke:#000000;stroke-width:1.03937;stroke-linecap:round;stroke-linejoin:round;stroke-miterlimit:10;stroke-dasharray:none;stroke-opacity:1"
           id="path1358" />
      </g>
      <g
         id="g1360"
         transform="matrix(0.5454546,0,0,-0.5454546,0,841.89)">
        <path
           d="m 225.6448,91.80035 c 0.007,-0.26797 0.0206,-0.45736 0.0397,-0.56818 0.0132,-0.07642 0.0428,-0.11785 0.0887,-0.12428 0.0459,-0.0064 0.1036,0.09882 0.1731,0.31572 0.0694,0.21691 0.1324,0.60314 0.1887,1.1587 0.0564,0.55554 0.1009,1.37019 0.1334,2.44395 0.0325,1.07376 0.052,2.46962 0.0584,4.18758 0.006,1.71796 0.01,3.27956 0.0105,4.68466 6e-4,1.4052 0.008,2.4832 0.0208,3.2341 0.0132,0.7509 0.0339,1.3264 0.0621,1.7265 0.0282,0.4001 0.0419,0.6881 0.0409,0.864 -9e-4,0.176 -0.0461,0.2876 -0.1357,0.3349 -0.0896,0.0473 -0.2283,0.0765 -0.4162,0.0875 -0.1878,0.0111 -0.4122,0.0158 -0.6731,0.0142 -0.2609,-0.002 -0.5205,-0.0489 -0.7787,-0.1418 -0.3792,-0.1364 -0.7115,-0.4185 -0.997,-0.8465"
           style="fill:none;stroke:#000000;stroke-width:1.03937;stroke-linecap:round;stroke-linejoin:round;stroke-miterlimit:10;stroke-dasharray:none;stroke-opacity:1"
           id="path1362" />
      </g>
    </g>
  </g>
</svg>
