<?xml version="1.0" encoding="UTF-8" standalone="no"?>
<!-- Created with Inkscape (http://www.inkscape.org/) -->

<svg
   version="1.1"
   id="svg2"
   width="11.460724"
   height="15.551422"
   viewBox="0 0 11.460724 15.551422"
   sodipodi:docname="E24136542_宋昱宣_預報2.svg"
   inkscape:version="1.2.1 (9c6d41e410, 2022-07-14)"
   xmlns:inkscape="http://www.inkscape.org/namespaces/inkscape"
   xmlns:sodipodi="http://sodipodi.sourceforge.net/DTD/sodipodi-0.dtd"
   xmlns="http://www.w3.org/2000/svg"
   xmlns:svg="http://www.w3.org/2000/svg">
  <defs
     id="defs6" />
  <sodipodi:namedview
     id="namedview4"
     pagecolor="#ffffff"
     bordercolor="#000000"
     borderopacity="0.25"
     inkscape:showpageshadow="2"
     inkscape:pageopacity="0.0"
     inkscape:pagecheckerboard="0"
     inkscape:deskcolor="#d1d1d1"
     showgrid="false"
     inkscape:zoom="2.3786081"
     inkscape:cx="203.48035"
     inkscape:cy="340.32508"
     inkscape:window-width="1600"
     inkscape:window-height="930"
     inkscape:window-x="-6"
     inkscape:window-y="-6"
     inkscape:window-maximized="1"
     inkscape:current-layer="g10" />
  <g
     id="g10"
     inkscape:groupmode="layer"
     inkscape:label="Page 1"
     transform="matrix(1.3333333,0,0,-1.3333333,-152.69498,1078.8002)">
    <g
       id="g153444">
      <g
         id="g736"
         transform="matrix(0.5454546,0,0,-0.5454546,0,841.89)">
        <path
           d="m 211.1461,65.99655 c -0.1777,0.0481 -0.3457,0.07317 -0.5039,0.07523 -0.1064,0.0014 -0.1625,0.0021 -0.168,0.0022 l -0.002,5e-5 0.0243,6e-5 c 0.0206,0 0.2267,1e-5 0.6184,3e-5 0.3917,1e-5 0.9987,-0.03928 1.821,-0.11789 0.8222,-0.07861 1.9155,-0.25827 3.2798,-0.539 1.3644,-0.28074 2.7375,-0.61706 4.1194,-1.00897 1.3818,-0.3919 2.4314,-0.69672 3.1486,-0.91446 0.7172,-0.21774 1.16,-0.45169 1.3284,-0.70186"
           style="fill:none;stroke:#000000;stroke-width:1.03937;stroke-linecap:round;stroke-linejoin:round;stroke-miterlimit:10;stroke-dasharray:none;stroke-opacity:1"
           id="path738" />
      </g>
      <g
         id="g740"
         transform="matrix(0.5454546,0,0,-0.5454546,0,841.89)">
        <path
           d="m 217.7927,61.04311 c 0.0742,-0.30874 0.1032,-0.44258 0.0872,-0.40153 -0.0113,0.02927 -0.0398,0.10245 -0.0854,0.21953 -0.0456,0.11708 -0.1496,0.43264 -0.3118,0.94669 -0.1623,0.51405 -0.392,1.1797 -0.6892,1.99695 -0.2971,0.81725 -0.6654,1.77711 -1.1048,2.87958 -0.4394,1.10248 -0.8465,2.07099 -1.2213,2.90553 -0.3748,0.83454 -0.6512,1.43615 -0.8291,1.80482 -0.178,0.36869 -0.2926,0.65607 -0.344,0.86214 -0.0513,0.20608 0.016,0.30745 0.2018,0.30412 0.1858,-0.0033 0.3954,-0.05535 0.6288,-0.15603 0.2334,-0.10069 0.7081,-0.33994 1.4241,-0.71776 0.7159,-0.37783 1.3092,-0.66845 1.7799,-0.87187 0.4707,-0.20342 0.916,-0.38156 1.3361,-0.5344 0.4201,-0.15285 0.7834,-0.2925 1.0899,-0.41896 l 0.3556,-0.14669 -0.0305,0.0126 -0.0674,0.0278 0.2021,-0.0834"
           style="fill:none;stroke:#000000;stroke-width:1.03937;stroke-linecap:round;stroke-linejoin:round;stroke-miterlimit:10;stroke-dasharray:none;stroke-opacity:1"
           id="path742" />
      </g>
      <g
         id="g744"
         transform="matrix(0.5454546,0,0,-0.5454546,0,841.89)">
        <path
           d="m 220.6759,67.42538 c 0.009,0.38315 0.167,0.90285 0.475,1.5591 0.308,0.65625 0.5696,1.27662 0.7848,1.8611 0.2152,0.58448 0.3667,1.11089 0.4546,1.57921 0.126,0.67186 -0.0253,1.08447 -0.4539,1.23785"
           style="fill:none;stroke:#000000;stroke-width:1.03937;stroke-linecap:round;stroke-linejoin:round;stroke-miterlimit:10;stroke-dasharray:none;stroke-opacity:1"
           id="path746" />
      </g>
      <g
         id="g748"
         transform="matrix(0.5454546,0,0,-0.5454546,0,841.89)">
        <path
           d="m 215.6271,72.57967 c 0.1808,-0.02727 0.1067,0.27089 -0.2224,0.89447 -0.3291,0.62359 -0.8902,1.64286 -1.6834,3.05783 -0.7931,1.41495 -1.3871,2.41277 -1.7819,2.99343 -0.3949,0.58066 -0.7029,0.96796 -0.9242,1.1619 -0.2214,0.19395 -0.332,0.29092 -0.332,0.29092"
           style="fill:none;stroke:#000000;stroke-width:1.03937;stroke-linecap:round;stroke-linejoin:round;stroke-miterlimit:10;stroke-dasharray:none;stroke-opacity:1"
           id="path750" />
      </g>
      <g
         id="g752"
         transform="matrix(0.5454546,0,0,-0.5454546,0,841.89)">
        <path
           d="m 217.6005,72.4161 c 0.032,-0.41782 0.0843,-0.5743 0.1569,-0.46944 0.0521,0.07521 0.0964,0.2672 0.1331,0.57598 0.0366,0.30877 0.0529,0.73294 0.0488,1.27251 -0.004,0.53957 -0.0623,1.16311 -0.1743,1.87062 -0.112,0.70751 -0.2173,1.41948 -0.3158,2.13591 -0.0986,0.71644 -0.1548,1.28004 -0.1686,1.69081 -0.0137,0.41077 0.0138,0.68835 0.0827,0.83274 0.0688,0.14439 0.1605,0.24626 0.2751,0.30561 0.1146,0.05936 0.2708,0.10661 0.4688,0.14174 0.1979,0.03513 0.4598,0.05895 0.7855,0.07144 0.3257,0.0125 0.7159,0.01713 1.1706,0.01389 0.4547,-0.0032 0.9487,-0.05893 1.4819,-0.16705 0.5332,-0.10813 1.0332,-0.25632 1.5001,-0.44455 0.4669,-0.18824 0.8564,-0.37487 1.1684,-0.55989 0.312,-0.18501 0.5433,-0.36313 0.6939,-0.53435 0.1506,-0.17122 0.2397,-0.33951 0.2672,-0.50486 0.0276,-0.16535 0.0263,-0.32872 -0.004,-0.49012 -0.03,-0.16139 -0.0672,-0.29395 -0.1116,-0.39768 -0.0662,-0.15498 -0.1481,-0.3073 -0.2455,-0.45694"
           style="fill:none;stroke:#000000;stroke-width:1.03937;stroke-linecap:round;stroke-linejoin:round;stroke-miterlimit:10;stroke-dasharray:none;stroke-opacity:1"
           id="path754" />
      </g>
    </g>
  </g>
</svg>
