<svg xmlns="http://www.w3.org/2000/svg" width="17.271" height="15.985"><path d="m477.46 61.373.181-.038q.01-.002-.003.006l-.125.073q-.112.066-.359.334-.246.27-.588.705t-.655.87-.505.733a4 4 0 0 0-.255.439.36.36 0 0 0-.003.292q.06.15.048 1.599a40 40 0 0 1-.11 2.753q-.102 1.305-.198 2.298a37 37 0 0 0-.125 1.532l-.024.447.001-.018.003-.056-.009.166" style="fill:none;stroke:#000;stroke-width:1.03937;stroke-linecap:round;stroke-linejoin:round;stroke-miterlimit:10;stroke-dasharray:none;stroke-opacity:1" transform="matrix(.72727 0 0 .72727 -340.434 -44.191)"/><path d="M475.39 68.357q-.127-.413-.015-.477.08-.045.817-.12.738-.077 1.28-.126.543-.048.799.39" style="fill:none;stroke:#000;stroke-width:1.03937;stroke-linecap:round;stroke-linejoin:round;stroke-miterlimit:10;stroke-dasharray:none;stroke-opacity:1" transform="matrix(.72727 0 0 .72727 -340.434 -44.191)"/><path d="m475.805 70.857-.323.066.162-.039q.288-.066.228-.079-.087-.018 1.76-.64" style="fill:none;stroke:#000;stroke-width:1.03937;stroke-linecap:round;stroke-linejoin:round;stroke-miterlimit:10;stroke-dasharray:none;stroke-opacity:1" transform="matrix(.72727 0 0 .72727 -340.434 -44.191)"/><path d="m481.114 63.619.012-.508v-.007.006l-.019.248q-.017.236-.2.818-.182.582-.704 1.853-.523 1.272-.616 1.656-.094.385-.066.516.029.131.204.139.177.008.581-.195a4 4 0 0 1 .58-.256q.173-.051.334-.057a.56.56 0 0 1 .307.08q.147.086.248.355.102.27.118.755.015.486-.169 1.123-.184.639-.715 1.973-.53 1.333-.692 1.655l-.161.322" style="fill:none;stroke:#000;stroke-width:1.03937;stroke-linecap:round;stroke-linejoin:round;stroke-miterlimit:10;stroke-dasharray:none;stroke-opacity:1" transform="matrix(.72727 0 0 .72727 -340.434 -44.191)"/><path d="M480.156 69.427q-.015-.1-.184-.122a.7.7 0 0 0-.226.008q-.111.024-.252.274t-.398.79-.654 1.326-.686 1.316l-.288.532" style="fill:none;stroke:#000;stroke-width:1.03937;stroke-linecap:round;stroke-linejoin:round;stroke-miterlimit:10;stroke-dasharray:none;stroke-opacity:1" transform="matrix(.72727 0 0 .72727 -340.434 -44.191)"/><path d="M480.904 66.49a.5.5 0 0 1 .223-.24q.102-.055.379-.135a7 7 0 0 1 .726-.155q.662-.111 1.524-.48" style="fill:none;stroke:#000;stroke-width:1.03937;stroke-linecap:round;stroke-linejoin:round;stroke-miterlimit:10;stroke-dasharray:none;stroke-opacity:1" transform="matrix(.72727 0 0 .72727 -340.434 -44.191)"/><path d="M484.987 63.042q.225-.305.558-.54t.813-.526q.48-.29.852-.469.371-.177.526-.225t.167.42q.01.466-.12 1.406a95 95 0 0 0-.294 2.36 97 97 0 0 0-.283 2.872l-.196 2.333q-.075.884-.113 1.22l-.04.338" style="fill:none;stroke:#000;stroke-width:1.03937;stroke-linecap:round;stroke-linejoin:round;stroke-miterlimit:10;stroke-dasharray:none;stroke-opacity:1" transform="matrix(.72727 0 0 .72727 -340.434 -44.191)"/><path d="M484.506 67.452q-.015-.261.24-.366t.69-.203.813-.127l.378-.028" style="fill:none;stroke:#000;stroke-width:1.03937;stroke-linecap:round;stroke-linejoin:round;stroke-miterlimit:10;stroke-dasharray:none;stroke-opacity:1" transform="matrix(.72727 0 0 .72727 -340.434 -44.191)"/><path d="M484.23 69.438q-.536.153-.619.196-.057.03.01.077.068.048.479.1.411.054 1.542.06l1.132.006" style="fill:none;stroke:#000;stroke-width:1.03937;stroke-linecap:round;stroke-linejoin:round;stroke-miterlimit:10;stroke-dasharray:none;stroke-opacity:1" transform="matrix(.72727 0 0 .72727 -340.434 -44.191)"/><path d="M471.02 76.678q-1.935.606-2.19.72l-.211.094q-.034.015.105-.007l.86-.138q.72-.116 2.451-.533 1.73-.417 4.267-.93a66 66 0 0 1 5.484-.857q2.946-.342 4.892-.402 1.945-.06 2.89.071.947.13 1.352.224l.379.088h-.002l-.014-.003.04.01" style="fill:none;stroke:#000;stroke-width:1.03937;stroke-linecap:round;stroke-linejoin:round;stroke-miterlimit:10;stroke-dasharray:none;stroke-opacity:1" transform="matrix(.72727 0 0 .72727 -340.434 -44.191)"/><path d="M479.455 77.406q-.292-.205-.772.02-.324.15-.773.607-.447.457-1.002 1.136-.553.678-1.006 1.304-.452.625-.584.868l-.057.12.094-.128a.74.74 0 0 1 .463-.32" style="fill:none;stroke:#000;stroke-width:1.03937;stroke-linecap:round;stroke-linejoin:round;stroke-miterlimit:10;stroke-dasharray:none;stroke-opacity:1" transform="matrix(.72727 0 0 .72727 -340.434 -44.191)"/><path d="M481.507 77.834q.298-.235.936-.09.423.095.956.638.533.541 1.052 1.155l.999 1.177q.732.86 1.268 1.509" style="fill:none;stroke:#000;stroke-width:1.03937;stroke-linecap:round;stroke-linejoin:round;stroke-miterlimit:10;stroke-dasharray:none;stroke-opacity:1" transform="matrix(.72727 0 0 .72727 -340.434 -44.191)"/></svg>