<?xml version="1.0" encoding="UTF-8" standalone="no"?>
<!-- Created with Inkscape (http://www.inkscape.org/) -->

<svg
   version="1.1"
   id="svg2"
   width="17.270874"
   height="15.984856"
   viewBox="0 0 17.270874 15.984855"
   sodipodi:docname="E24136542_宋昱宣_預報2.svg"
   inkscape:version="1.2.1 (9c6d41e410, 2022-07-14)"
   xmlns:inkscape="http://www.inkscape.org/namespaces/inkscape"
   xmlns:sodipodi="http://sodipodi.sourceforge.net/DTD/sodipodi-0.dtd"
   xmlns="http://www.w3.org/2000/svg"
   xmlns:svg="http://www.w3.org/2000/svg">
  <defs
     id="defs6" />
  <sodipodi:namedview
     id="namedview4"
     pagecolor="#ffffff"
     bordercolor="#000000"
     borderopacity="0.25"
     inkscape:showpageshadow="2"
     inkscape:pageopacity="0.0"
     inkscape:pagecheckerboard="0"
     inkscape:deskcolor="#d1d1d1"
     showgrid="false"
     inkscape:zoom="2.3786081"
     inkscape:cx="203.48035"
     inkscape:cy="340.32508"
     inkscape:window-width="1600"
     inkscape:window-height="930"
     inkscape:window-x="-6"
     inkscape:window-y="-6"
     inkscape:window-maximized="1"
     inkscape:current-layer="g10" />
  <g
     id="g10"
     inkscape:groupmode="layer"
     inkscape:label="Page 1"
     transform="matrix(1.3333333,0,0,-1.3333333,-340.43356,1078.3285)">
    <g
       id="g377589">
      <g
         id="g1048"
         transform="matrix(0.5454546,0,0,-0.5454546,0,841.89)">
        <path
           d="m 477.4591,61.37276 c 0.1116,-0.02302 0.1723,-0.03554 0.182,-0.03755 0.007,-0.0014 0.006,5e-4 -0.003,0.0057 -0.009,0.0052 -0.0507,0.02969 -0.1252,0.07337 -0.0746,0.04369 -0.1941,0.15502 -0.3585,0.33401 -0.1643,0.17899 -0.3605,0.41388 -0.5884,0.70465 -0.2279,0.29077 -0.4461,0.58096 -0.6546,0.87056 -0.2085,0.2896 -0.3771,0.53366 -0.5056,0.73218 -0.1285,0.19852 -0.2136,0.34492 -0.2552,0.43919 -0.0416,0.09426 -0.0426,0.19151 -0.003,0.29173 0.0397,0.10023 0.056,0.63325 0.0489,1.59906 -0.007,0.96582 -0.0441,1.88371 -0.1113,2.75368 -0.0671,0.86997 -0.133,1.63592 -0.1974,2.29787 -0.0645,0.66193 -0.1062,1.17254 -0.1251,1.53183 l -0.0236,0.44732 10e-4,-0.01875 0.003,-0.05518 -0.009,0.16552"
           style="fill:none;stroke:#000000;stroke-width:1.03937;stroke-linecap:round;stroke-linejoin:round;stroke-miterlimit:10;stroke-dasharray:none;stroke-opacity:1"
           id="path1050" />
      </g>
      <g
         id="g1052"
         transform="matrix(0.5454546,0,0,-0.5454546,0,841.89)">
        <path
           d="m 475.39,68.35665 c -0.0852,-0.27521 -0.0903,-0.43394 -0.0152,-0.47619 0.0529,-0.02976 0.3253,-0.07014 0.8171,-0.12114 0.4918,-0.051 0.9186,-0.09265 1.2803,-0.12497 0.3617,-0.03231 0.6279,0.09765 0.7986,0.38989"
           style="fill:none;stroke:#000000;stroke-width:1.03937;stroke-linecap:round;stroke-linejoin:round;stroke-miterlimit:10;stroke-dasharray:none;stroke-opacity:1"
           id="path1054" />
      </g>
      <g
         id="g1056"
         transform="matrix(0.5454546,0,0,-0.5454546,0,841.89)">
        <path
           d="m 475.8046,70.85703 -0.3227,0.06623 0.1621,-0.03896 c 0.1924,-0.0442 0.2682,-0.07056 0.2275,-0.07908 -0.0575,-0.01201 0.5291,-0.22541 1.7598,-0.6402"
           style="fill:none;stroke:#000000;stroke-width:1.03937;stroke-linecap:round;stroke-linejoin:round;stroke-miterlimit:10;stroke-dasharray:none;stroke-opacity:1"
           id="path1058" />
      </g>
      <g
         id="g1060"
         transform="matrix(0.5454546,0,0,-0.5454546,0,841.89)">
        <path
           d="m 481.1136,63.61863 c 0.008,-0.32584 0.0124,-0.49507 0.0128,-0.50771 v -0.0069 l -7e-4,0.0062 c -6e-4,0.0085 -0.007,0.09114 -0.0187,0.24797 -0.0118,0.15682 -0.0785,0.42935 -0.1999,0.81757 -0.1214,0.38822 -0.3563,1.00609 -0.7045,1.8536 -0.3483,0.84752 -0.5536,1.39946 -0.6159,1.65585 -0.0624,0.25638 -0.0842,0.42827 -0.0655,0.51567 0.0188,0.0874 0.0868,0.13379 0.2042,0.13916 0.1174,0.0054 0.311,-0.05976 0.581,-0.19538 0.2699,-0.13562 0.4629,-0.22073 0.579,-0.25535 0.116,-0.03462 0.2274,-0.05366 0.3342,-0.05712 0.1068,-0.0035 0.2093,0.02327 0.3073,0.0802 0.0981,0.05692 0.1809,0.17526 0.2485,0.35501 0.0676,0.17975 0.1067,0.43133 0.1173,0.75474 0.0107,0.32341 -0.0455,0.6978 -0.1685,1.12317 -0.123,0.42536 -0.3613,1.08277 -0.7149,1.97221 -0.3536,0.88944 -0.5842,1.44142 -0.6919,1.65592 -0.1076,0.2145 -0.1615,0.32176 -0.1615,0.32176"
           style="fill:none;stroke:#000000;stroke-width:1.03937;stroke-linecap:round;stroke-linejoin:round;stroke-miterlimit:10;stroke-dasharray:none;stroke-opacity:1"
           id="path1062" />
      </g>
      <g
         id="g1064"
         transform="matrix(0.5454546,0,0,-0.5454546,0,841.89)">
        <path
           d="m 480.1558,69.42709 c -0.0101,-0.06634 -0.0712,-0.1071 -0.1833,-0.12227 -0.077,-0.01042 -0.1525,-0.0077 -0.2265,0.0081 -0.0741,0.0158 -0.1581,0.10703 -0.2521,0.27368 -0.094,0.16665 -0.2265,0.43012 -0.3975,0.7904 -0.1709,0.36028 -0.389,0.80211 -0.6542,1.3255 -0.2653,0.52338 -0.4939,0.96227 -0.6858,1.31669 -0.192,0.35441 -0.288,0.53161 -0.288,0.53161"
           style="fill:none;stroke:#000000;stroke-width:1.03937;stroke-linecap:round;stroke-linejoin:round;stroke-miterlimit:10;stroke-dasharray:none;stroke-opacity:1"
           id="path1066" />
      </g>
      <g
         id="g1068"
         transform="matrix(0.5454546,0,0,-0.5454546,0,841.89)">
        <path
           d="m 480.9036,66.49074 c 0.0478,-0.10696 0.1221,-0.18739 0.223,-0.2413 0.0682,-0.03642 0.1946,-0.08116 0.3794,-0.13421 0.1847,-0.05305 0.4267,-0.10468 0.7261,-0.1549 0.4414,-0.07405 0.9495,-0.23442 1.5244,-0.48111"
           style="fill:none;stroke:#000000;stroke-width:1.03937;stroke-linecap:round;stroke-linejoin:round;stroke-miterlimit:10;stroke-dasharray:none;stroke-opacity:1"
           id="path1070" />
      </g>
      <g
         id="g1072"
         transform="matrix(0.5454546,0,0,-0.5454546,0,841.89)">
        <path
           d="m 484.9868,63.04219 c 0.1498,-0.20325 0.3358,-0.38323 0.5579,-0.53994 0.2221,-0.1567 0.4933,-0.33216 0.8136,-0.52638 0.3203,-0.19421 0.6041,-0.35044 0.8515,-0.46868 0.2474,-0.11824 0.4229,-0.19338 0.5265,-0.22542 0.1035,-0.03204 0.159,0.10779 0.1665,0.41947 0.007,0.31169 -0.0326,0.78046 -0.1203,1.40632 -0.0877,0.62586 -0.1854,1.41252 -0.2933,2.35998 -0.1079,0.94746 -0.2023,1.90482 -0.2833,2.87209 -0.081,0.96726 -0.1463,1.74518 -0.1958,2.33376 -0.0494,0.58857 -0.0872,0.99538 -0.1132,1.22043 -0.026,0.22505 -0.039,0.33758 -0.039,0.33758"
           style="fill:none;stroke:#000000;stroke-width:1.03937;stroke-linecap:round;stroke-linejoin:round;stroke-miterlimit:10;stroke-dasharray:none;stroke-opacity:1"
           id="path1074" />
      </g>
      <g
         id="g1076"
         transform="matrix(0.5454546,0,0,-0.5454546,0,841.89)">
        <path
           d="m 484.5056,67.45159 c -0.01,-0.17344 0.0706,-0.29525 0.2403,-0.36543 0.1697,-0.07018 0.3996,-0.13798 0.6897,-0.20339 0.2901,-0.0654 0.5612,-0.10756 0.8134,-0.12645 0.2522,-0.01889 0.3783,-0.02834 0.3783,-0.02834"
           style="fill:none;stroke:#000000;stroke-width:1.03937;stroke-linecap:round;stroke-linejoin:round;stroke-miterlimit:10;stroke-dasharray:none;stroke-opacity:1"
           id="path1078" />
      </g>
      <g
         id="g1080"
         transform="matrix(0.5454546,0,0,-0.5454546,0,841.89)">
        <path
           d="m 484.2306,69.43766 c -0.3578,0.102 -0.5643,0.16748 -0.6194,0.19643 -0.0385,0.02027 -0.0351,0.04602 0.0102,0.07724 0.0453,0.03123 0.2048,0.06469 0.4786,0.10038 0.2737,0.03568 0.7878,0.05549 1.5422,0.05941 0.7545,0.0039 1.1317,0.0059 1.1317,0.0059"
           style="fill:none;stroke:#000000;stroke-width:1.03937;stroke-linecap:round;stroke-linejoin:round;stroke-miterlimit:10;stroke-dasharray:none;stroke-opacity:1"
           id="path1082" />
      </g>
      <g
         id="g1084"
         transform="matrix(0.5454546,0,0,-0.5454546,0,841.89)">
        <path
           d="m 471.0197,76.67833 c -1.2903,0.40384 -2.02,0.64343 -2.1889,0.71876 -0.1184,0.05284 -0.1891,0.08438 -0.2121,0.09461 -0.0229,0.01023 0.0121,0.0079 0.1052,-0.007 0.093,-0.01491 0.3798,-0.06085 0.8603,-0.13783 0.4804,-0.07697 1.2975,-0.25455 2.4511,-0.53276 1.1537,-0.2782 2.576,-0.58842 4.2669,-0.93066 1.6909,-0.34224 3.5186,-0.62761 5.4833,-0.8561 1.9647,-0.22849 3.5954,-0.36259 4.8921,-0.40228 1.2968,-0.0397 2.2605,-0.01605 2.8912,0.07094 0.6306,0.08699 1.0809,0.16178 1.3507,0.22438 l 0.3792,0.08797 -0.002,-3.9e-4 -0.0136,-0.0032 0.0408,0.0095"
           style="fill:none;stroke:#000000;stroke-width:1.03937;stroke-linecap:round;stroke-linejoin:round;stroke-miterlimit:10;stroke-dasharray:none;stroke-opacity:1"
           id="path1086" />
      </g>
      <g
         id="g1088"
         transform="matrix(0.5454546,0,0,-0.5454546,0,841.89)">
        <path
           d="m 479.4552,77.40628 c -0.1952,-0.13688 -0.4526,-0.13062 -0.7723,0.01879 -0.2164,0.1011 -0.4739,0.30381 -0.7725,0.60813 -0.2987,0.30432 -0.6327,0.6828 -1.002,1.13546 -0.3693,0.45265 -0.7047,0.88746 -1.0062,1.30442 -0.3014,0.41696 -0.4961,0.70636 -0.584,0.86821 l -0.0575,0.11918 0.0943,-0.12775 c 0.1124,-0.16757 0.2667,-0.27422 0.4628,-0.31996"
           style="fill:none;stroke:#000000;stroke-width:1.03937;stroke-linecap:round;stroke-linejoin:round;stroke-miterlimit:10;stroke-dasharray:none;stroke-opacity:1"
           id="path1090" />
      </g>
      <g
         id="g1092"
         transform="matrix(0.5454546,0,0,-0.5454546,0,841.89)">
        <path
           d="m 481.5074,77.83408 c 0.1983,-0.15654 0.5102,-0.1866 0.9356,-0.09018 0.2823,0.06398 0.601,0.2766 0.9562,0.63784 0.3552,0.36125 0.7058,0.74634 1.0519,1.15529 0.3462,0.40894 0.6789,0.80117 0.9984,1.1767 0.488,0.57376 0.911,1.07678 1.2689,1.50906"
           style="fill:none;stroke:#000000;stroke-width:1.03937;stroke-linecap:round;stroke-linejoin:round;stroke-miterlimit:10;stroke-dasharray:none;stroke-opacity:1"
           id="path1094" />
      </g>
    </g>
  </g>
</svg>
