<?xml version="1.0" encoding="UTF-8" standalone="no"?>
<!-- Created with Inkscape (http://www.inkscape.org/) -->

<svg
   version="1.1"
   id="svg2"
   width="11.397125"
   height="14.909447"
   viewBox="0 0 11.397125 14.909446"
   sodipodi:docname="E24136542_宋昱宣_預報2.svg"
   inkscape:version="1.2.1 (9c6d41e410, 2022-07-14)"
   xmlns:inkscape="http://www.inkscape.org/namespaces/inkscape"
   xmlns:sodipodi="http://sodipodi.sourceforge.net/DTD/sodipodi-0.dtd"
   xmlns="http://www.w3.org/2000/svg"
   xmlns:svg="http://www.w3.org/2000/svg">
  <defs
     id="defs6" />
  <sodipodi:namedview
     id="namedview4"
     pagecolor="#ffffff"
     bordercolor="#000000"
     borderopacity="0.25"
     inkscape:showpageshadow="2"
     inkscape:pageopacity="0.0"
     inkscape:pagecheckerboard="0"
     inkscape:deskcolor="#d1d1d1"
     showgrid="false"
     inkscape:zoom="2.3786081"
     inkscape:cx="203.48035"
     inkscape:cy="340.32508"
     inkscape:window-width="1600"
     inkscape:window-height="930"
     inkscape:window-x="-6"
     inkscape:window-y="-6"
     inkscape:window-maximized="1"
     inkscape:current-layer="g10" />
  <g
     id="g10"
     inkscape:groupmode="layer"
     inkscape:label="Page 1"
     transform="matrix(1.3333333,0,0,-1.3333333,-364.75815,1057.0477)">
    <g
       id="g767329">
      <g
         id="g1676"
         transform="matrix(0.5454546,0,0,-0.5454546,0,841.89)">
        <path
           d="m 502.6562,95.33531 c 0.011,-0.36583 0.0178,-0.59167 0.0204,-0.67752 0.002,-0.05985 0.007,-0.08265 0.0167,-0.06839 0.009,0.01426 0.0294,0.04473 0.0601,0.09142 0.0306,0.04668 0.0811,0.27383 0.1514,0.68144 0.0704,0.40762 0.1172,1.08779 0.1405,2.04053 0.0233,0.95273 -0.0171,2.25726 -0.1211,3.91361 -0.1041,1.6563 -0.2157,3.1475 -0.335,4.4736 -0.1192,1.3261 -0.2179,2.2994 -0.2962,2.92 -0.0782,0.6205 -0.1552,1.0523 -0.2309,1.2952"
           style="fill:none;stroke:#000000;stroke-width:1.03937;stroke-linecap:round;stroke-linejoin:round;stroke-miterlimit:10;stroke-dasharray:none;stroke-opacity:1"
           id="path1678" />
      </g>
      <g
         id="g1680"
         transform="matrix(0.5454546,0,0,-0.5454546,0,841.89)">
        <path
           d="m 503.6108,94.94545 c -0.0515,-0.45368 -0.0215,-0.81307 0.0901,-1.07817 0.0763,-0.18136 0.1761,-0.32252 0.2995,-0.42348 0.1234,-0.10096 0.261,-0.16819 0.4128,-0.20169 0.1519,-0.0335 0.4449,-0.0521 0.879,-0.05578 0.4342,-0.0037 0.7469,-0.0123 0.9381,-0.02584 0.1913,-0.01354 0.3497,-0.04259 0.4751,-0.08716 0.1255,-0.04456 0.213,-0.08019 0.2626,-0.10688 0.0496,-0.02669 0.1011,0.11835 0.1544,0.43512 0.0533,0.31677 0.0912,0.63093 0.1138,0.94247 0.0225,0.31154 0.0368,0.6904 0.0428,1.13658 0.006,0.44618 -0.0239,0.9351 -0.0896,1.46676 -0.0657,0.53166 -0.1469,0.99828 -0.2435,1.39985 -0.0967,0.40157 -0.145,0.60235 -0.145,0.60235"
           style="fill:none;stroke:#000000;stroke-width:1.03937;stroke-linecap:round;stroke-linejoin:round;stroke-miterlimit:10;stroke-dasharray:none;stroke-opacity:1"
           id="path1682" />
      </g>
      <g
         id="g1684"
         transform="matrix(0.5454546,0,0,-0.5454546,0,841.89)">
        <path
           d="m 504.7354,96.14258 c -0.1298,-0.06618 -0.2032,-0.1036 -0.2202,-0.11225 -0.0119,-0.0061 0.2075,-0.0025 0.6582,0.01085 l 0.4002,0.0056 -0.1904,-0.01716 c -0.4329,-0.02928 0.2042,-0.08053 1.9114,-0.15376"
           style="fill:none;stroke:#000000;stroke-width:1.03937;stroke-linecap:round;stroke-linejoin:round;stroke-miterlimit:10;stroke-dasharray:none;stroke-opacity:1"
           id="path1686" />
      </g>
      <g
         id="g1688"
         transform="matrix(0.5454546,0,0,-0.5454546,0,841.89)">
        <path
           d="m 504.3059,99.19769 c -0.4993,0.17738 -0.7857,0.29856 -0.859,0.36354 -0.0513,0.04548 -0.0264,0.08085 0.0749,0.10611 0.1012,0.02525 0.3261,0.01258 0.6747,-0.03801 0.5005,-0.07264 1.6006,-0.53644 3.3003,-1.39139"
           style="fill:none;stroke:#000000;stroke-width:1.03937;stroke-linecap:round;stroke-linejoin:round;stroke-miterlimit:10;stroke-dasharray:none;stroke-opacity:1"
           id="path1690" />
      </g>
      <g
         id="g1692"
         transform="matrix(0.5454546,0,0,-0.5454546,0,841.89)">
        <path
           d="m 511.1583,93.45676 c 0.0713,-0.14259 0.113,-0.22603 0.1252,-0.25031 0.008,-0.01699 0.0132,-0.01934 0.0141,-0.007 9e-4,0.0123 0.003,0.04556 0.007,0.0998 0.004,0.05424 -0.0319,0.24223 -0.1077,0.56398 -0.0759,0.32175 -0.1754,0.69407 -0.2987,1.11697 -0.1234,0.42289 -0.2212,0.83643 -0.2936,1.24063 -0.0724,0.40419 -0.0956,0.70257 -0.0697,0.89514 0.0357,0.26532 0.1437,0.13626 0.324,-0.38718"
           style="fill:none;stroke:#000000;stroke-width:1.03937;stroke-linecap:round;stroke-linejoin:round;stroke-miterlimit:10;stroke-dasharray:none;stroke-opacity:1"
           id="path1694" />
      </g>
      <g
         id="g1696"
         transform="matrix(0.5454546,0,0,-0.5454546,0,841.89)">
        <path
           d="m 511.7767,93.06318 c 0.0295,-0.25533 0.1169,-0.45683 0.2619,-0.6045 0.0988,-0.10051 0.2661,-0.22196 0.5018,-0.36435 0.2358,-0.14239 0.5312,-0.29858 0.8864,-0.46857 0.3551,-0.16998 0.7178,-0.33504 1.088,-0.49518 0.3702,-0.16014 0.6915,-0.28963 0.9637,-0.38847 0.2723,-0.09884 0.5124,-0.16112 0.7204,-0.18685 0.208,-0.02573 0.3329,-0.0024 0.3748,0.06986 0.0418,0.07231 0.0719,0.16718 0.0901,0.28463 0.0181,0.11745 0.0281,0.31798 0.0299,0.60161 0.002,0.28363 -0.0534,0.78757 -0.1659,1.51185 -0.1124,0.72427 -0.2687,1.81087 -0.4688,3.25981 -0.2002,1.44893 -0.362,2.99667 -0.4852,4.64318 -0.1233,1.6466 -0.1942,2.9681 -0.2127,3.9646 -0.0186,0.9965 -0.0338,1.7638 -0.0457,2.3019 -0.0119,0.5381 -0.0484,0.9483 -0.1097,1.2308 -0.0612,0.2825 -0.1412,0.4379 -0.2399,0.4661 -0.0987,0.0282 -0.2375,-0.0872 -0.4163,-0.3464 -0.257,-0.3725 -0.7971,-1.2818 -1.6202,-2.7277"
           style="fill:none;stroke:#000000;stroke-width:1.03937;stroke-linecap:round;stroke-linejoin:round;stroke-miterlimit:10;stroke-dasharray:none;stroke-opacity:1"
           id="path1698" />
      </g>
      <g
         id="g1700"
         transform="matrix(0.5454546,0,0,-0.5454546,0,841.89)">
        <path
           d="m 510.6642,95.62324 c -10e-4,-0.23656 0.0979,-0.39475 0.2972,-0.47458 0.1381,-0.05532 0.393,-0.11725 0.7647,-0.1858 0.3716,-0.06855 0.805,-0.13101 1.3001,-0.18739 0.4952,-0.05637 0.9198,-0.09547 1.274,-0.11731 l 0.4297,-0.02651 -0.024,0.0015 -0.0629,0.0039 0.1885,-0.01163"
           style="fill:none;stroke:#000000;stroke-width:1.03937;stroke-linecap:round;stroke-linejoin:round;stroke-miterlimit:10;stroke-dasharray:none;stroke-opacity:1"
           id="path1702" />
      </g>
      <g
         id="g1704"
         transform="matrix(0.5454546,0,0,-0.5454546,0,841.89)">
        <path
           d="m 510.6922,97.62543 c -0.1722,-0.01538 -0.3739,0.0055 -0.6051,0.06279 -0.1516,0.03755 -0.2462,0.06547 -0.2838,0.08378 -0.0375,0.01832 -0.0617,0.0301 -0.0724,0.03534 -0.0108,0.0053 0.002,0.0088 0.0376,0.01077 0.0358,0.0019 0.1163,0.0063 0.2414,0.01299 0.1251,0.0067 0.4263,-0.02593 0.9034,-0.09799 0.4772,-0.07206 1.0149,-0.16481 1.6132,-0.27825 0.5983,-0.11343 1.0867,-0.2076 1.4653,-0.2825"
           style="fill:none;stroke:#000000;stroke-width:1.03937;stroke-linecap:round;stroke-linejoin:round;stroke-miterlimit:10;stroke-dasharray:none;stroke-opacity:1"
           id="path1706" />
      </g>
      <g
         id="g1708"
         transform="matrix(0.5454546,0,0,-0.5454546,0,841.89)">
        <path
           d="m 506.8243,101.5809 c -0.1286,-0.0901 -0.235,-0.029 -0.3194,0.1834 -0.0609,0.1533 -0.1225,0.4113 -0.1849,0.7742 -0.0624,0.3628 -0.1183,0.7847 -0.1677,1.2658 -0.0494,0.481 -0.0781,0.8797 -0.0862,1.1961 l -0.0114,0.445 10e-5,-0.002 4e-4,-0.0158 -0.001,0.0472"
           style="fill:none;stroke:#000000;stroke-width:1.03937;stroke-linecap:round;stroke-linejoin:round;stroke-miterlimit:10;stroke-dasharray:none;stroke-opacity:1"
           id="path1710" />
      </g>
      <g
         id="g1712"
         transform="matrix(0.5454546,0,0,-0.5454546,0,841.89)">
        <path
           d="m 506.8985,101.8377 c 0.1084,-0.312 0.2102,-0.5403 0.3053,-0.6849 0.0652,-0.0991 0.1555,-0.1933 0.2709,-0.2824 0.1154,-0.0892 0.2817,-0.1864 0.4991,-0.2916 0.2174,-0.1053 0.8206,-0.3237 1.8097,-0.6552 0.9892,-0.33155 1.5553,-0.51409 1.6984,-0.54762 0.1432,-0.03352 0.2236,-0.01234 0.2414,0.06355 0.0177,0.0759 -0.002,0.1955 -0.0604,0.35881 -0.0579,0.16331 -0.118,0.39086 -0.1801,0.68266 -0.0621,0.2918 -0.1128,0.6247 -0.1522,0.9987 -0.0393,0.374 -0.0676,0.7706 -0.0846,1.1897 -0.0171,0.4191 -0.0365,0.8333 -0.0583,1.2425 -0.0346,0.6515 -0.1284,1.0632 -0.2815,1.2353"
           style="fill:none;stroke:#000000;stroke-width:1.03937;stroke-linecap:round;stroke-linejoin:round;stroke-miterlimit:10;stroke-dasharray:none;stroke-opacity:1"
           id="path1714" />
      </g>
      <g
         id="g1716"
         transform="matrix(0.5454546,0,0,-0.5454546,0,841.89)">
        <path
           d="m 507.1335,103.0596 c -0.086,-0.0303 -0.1329,-0.0468 -0.1407,-0.0496 -0.005,-0.002 0.011,-0.004 0.0494,-0.006 0.0383,-0.002 0.2128,-0.0102 0.5233,-0.0251 0.3105,-0.0148 0.7078,-0.0546 1.1917,-0.1193 0.7144,-0.0954 1.1601,0.0168 1.3372,0.3365"
           style="fill:none;stroke:#000000;stroke-width:1.03937;stroke-linecap:round;stroke-linejoin:round;stroke-miterlimit:10;stroke-dasharray:none;stroke-opacity:1"
           id="path1718" />
      </g>
      <g
         id="g1720"
         transform="matrix(0.5454546,0,0,-0.5454546,0,841.89)">
        <path
           d="m 506.7495,105.9165 c -0.4629,0.0507 -0.4891,0.0941 -0.0787,0.1299 0.3055,0.0267 0.4301,0.0155 0.3738,-0.0335 -0.0795,-0.0691 0.8894,-0.1784 2.9067,-0.3278"
           style="fill:none;stroke:#000000;stroke-width:1.03937;stroke-linecap:round;stroke-linejoin:round;stroke-miterlimit:10;stroke-dasharray:none;stroke-opacity:1"
           id="path1722" />
      </g>
    </g>
  </g>
</svg>
