<?xml version="1.0" encoding="UTF-8" standalone="no"?>
<!-- Created with Inkscape (http://www.inkscape.org/) -->

<svg
   version="1.1"
   id="svg2"
   width="2.4896088"
   height="4.9938126"
   viewBox="0 0 2.4896088 4.9938125"
   sodipodi:docname="E24136542_宋昱宣_預報2.svg"
   inkscape:version="1.2.1 (9c6d41e410, 2022-07-14)"
   xmlns:inkscape="http://www.inkscape.org/namespaces/inkscape"
   xmlns:sodipodi="http://sodipodi.sourceforge.net/DTD/sodipodi-0.dtd"
   xmlns="http://www.w3.org/2000/svg"
   xmlns:svg="http://www.w3.org/2000/svg">
  <defs
     id="defs6" />
  <sodipodi:namedview
     id="namedview4"
     pagecolor="#ffffff"
     bordercolor="#000000"
     borderopacity="0.25"
     inkscape:showpageshadow="2"
     inkscape:pageopacity="0.0"
     inkscape:pagecheckerboard="0"
     inkscape:deskcolor="#d1d1d1"
     showgrid="false"
     inkscape:zoom="2.3786081"
     inkscape:cx="203.48035"
     inkscape:cy="340.32508"
     inkscape:window-width="1600"
     inkscape:window-height="930"
     inkscape:window-x="-6"
     inkscape:window-y="-6"
     inkscape:window-maximized="1"
     inkscape:current-layer="g10" />
  <g
     id="g10"
     inkscape:groupmode="layer"
     inkscape:label="Page 1"
     transform="matrix(1.3333333,0,0,-1.3333333,-113.43028,1051.5699)">
    <g
       id="g1280"
       transform="matrix(0.5454546,0,0,-0.5454546,0,841.89)">
      <path
         d="m 157.5573,99.47056 c -0.0928,0 -0.1454,-0.06865 -0.158,-0.20594 -0.0126,-0.13729 -0.006,-0.27694 0.0213,-0.41896 0.0268,-0.14202 0.0696,-0.27639 0.1286,-0.40312 0.059,-0.12674 0.118,-0.21806 0.1771,-0.27395 0.0591,-0.05588 0.1113,-0.08661 0.1566,-0.0922 0.0453,-0.0056 0.0918,0.0557 0.1395,0.18388 0.0477,0.12818 0.0797,0.30659 0.096,0.53522 0.0162,0.22864 0.0179,0.37116 0.005,0.42759 -0.013,0.05642 -0.0723,0.09665 -0.1778,0.12068 -0.1055,0.02403 -0.1797,0.0096 -0.2224,-0.0433 -0.0427,-0.0529 -0.0677,-0.1234 -0.0751,-0.21152 -0.007,-0.08811 1e-4,-0.17618 0.0225,-0.26422 0.0224,-0.08804 0.0613,-0.15806 0.1167,-0.21008 0.0555,-0.05201 0.111,-0.08422 0.1666,-0.09663 0.0555,-0.0124 0.1093,-0.0089 0.1611,0.01059 0.0519,0.01947 0.0935,0.07654 0.125,0.17121 0.0314,0.09468 0.0522,0.19987 0.0622,0.31556 0.0101,0.1157 0.009,0.21895 -0.003,0.30974 -0.0122,0.0908 -0.0439,0.15739 -0.0951,0.19978 -0.0513,0.04239 -0.1111,0.06705 -0.1794,0.07399 -0.0683,0.0069 -0.1306,-0.0122 -0.1869,-0.05742 -0.0562,-0.04522 -0.0937,-0.1034 -0.1125,-0.17455 -0.0187,-0.07114 -0.0209,-0.14493 -0.006,-0.22136 0.0144,-0.07643 0.0554,-0.15313 0.1232,-0.2301 0.0677,-0.07696 0.14,-0.13955 0.2169,-0.18776 0.0768,-0.04821 0.1554,-0.07787 0.2356,-0.08899 0.0803,-0.01112 0.161,0.01427 0.2422,0.07617 0.0813,0.06191 0.1525,0.19229 0.2138,0.39113 0.0613,0.19885 0.1,0.46396 0.1162,0.79534 0.0161,0.33136 -0.0366,0.73916 -0.1583,1.22336 -0.1216,0.4841 -0.3277,0.9823 -0.6182,1.4943 -0.4319,0.7611 -0.9667,1.1891 -1.6044,1.2842"
         style="fill:none;stroke:#000000;stroke-width:1.03937;stroke-linecap:round;stroke-linejoin:round;stroke-miterlimit:10;stroke-dasharray:none;stroke-opacity:1"
         id="path1282" />
    </g>
  </g>
</svg>
