<?xml version="1.0" encoding="UTF-8" standalone="no"?>
<!-- Created with Inkscape (http://www.inkscape.org/) -->

<svg
   version="1.1"
   id="svg2"
   width="1.9253235"
   height="4.3702087"
   viewBox="0 0 1.9253235 4.3702087"
   sodipodi:docname="E24136542_宋昱宣_預報2.svg"
   inkscape:version="1.2.1 (9c6d41e410, 2022-07-14)"
   xmlns:inkscape="http://www.inkscape.org/namespaces/inkscape"
   xmlns:sodipodi="http://sodipodi.sourceforge.net/DTD/sodipodi-0.dtd"
   xmlns="http://www.w3.org/2000/svg"
   xmlns:svg="http://www.w3.org/2000/svg">
  <defs
     id="defs6" />
  <sodipodi:namedview
     id="namedview4"
     pagecolor="#ffffff"
     bordercolor="#000000"
     borderopacity="0.25"
     inkscape:showpageshadow="2"
     inkscape:pageopacity="0.0"
     inkscape:pagecheckerboard="0"
     inkscape:deskcolor="#d1d1d1"
     showgrid="false"
     inkscape:zoom="2.3786081"
     inkscape:cx="203.48035"
     inkscape:cy="340.32508"
     inkscape:window-width="1600"
     inkscape:window-height="930"
     inkscape:window-x="-6"
     inkscape:window-y="-6"
     inkscape:window-maximized="1"
     inkscape:current-layer="g10" />
  <g
     id="g10"
     inkscape:groupmode="layer"
     inkscape:label="Page 1"
     transform="matrix(1.3333333,0,0,-1.3333333,-285.84765,1008.1128)">
    <g
       id="g2756"
       transform="matrix(0.5454546,0,0,-0.5454546,0,841.89)">
      <path
         d="m 393.8886,158.7136 c -0.2396,0.0239 -0.3491,-0.0121 -0.3285,-0.1081 0.0146,-0.0684 0.0682,-0.1458 0.1607,-0.2321 0.0925,-0.0862 0.187,-0.1632 0.2835,-0.2309 0.0966,-0.0677 0.1754,-0.113 0.2365,-0.1358 0.0612,-0.0229 0.0877,0.0266 0.0796,0.1485 -0.008,0.122 -0.0532,0.2396 -0.1353,0.3531 -0.0821,0.1135 -0.1608,0.2038 -0.2362,0.271 -0.0753,0.0671 -0.1403,0.11 -0.1948,0.1285 -0.0546,0.0185 -0.0774,-0.0487 -0.0686,-0.2017 0.009,-0.153 0.042,-0.2725 0.0995,-0.3584 0.0574,-0.0859 0.1167,-0.1552 0.1776,-0.2078 0.061,-0.0526 0.139,-0.0883 0.2341,-0.1071 0.095,-0.0188 0.1534,0.0398 0.1752,0.1758 0.0217,0.1359 0.0167,0.2457 -0.0152,0.3293 -0.0319,0.0837 -0.073,0.1554 -0.1231,0.2153 -0.0502,0.0599 -0.1284,0.1038 -0.2346,0.1317 -0.1062,0.0278 -0.1562,-0.0254 -0.1501,-0.1598 0.006,-0.1344 0.0457,-0.2516 0.1188,-0.3516 0.0731,-0.1 0.1588,-0.1926 0.2572,-0.2777 0.0983,-0.0852 0.1979,-0.1497 0.2988,-0.1937 0.1009,-0.0439 0.1959,-0.0681 0.2851,-0.0725 0.0891,-0.004 0.1658,0.0388 0.2299,0.1297 0.0642,0.0908 0.1054,0.2749 0.1237,0.5524 0.0184,0.2776 -0.0111,0.6772 -0.0883,1.1988 -0.0773,0.5217 -0.2324,1.1012 -0.4655,1.7385 -0.233,0.6374 -0.4758,1.0874 -0.7284,1.3502"
         style="fill:none;stroke:#000000;stroke-width:1.03937;stroke-linecap:round;stroke-linejoin:round;stroke-miterlimit:10;stroke-dasharray:none;stroke-opacity:1"
         id="path2758" />
    </g>
  </g>
</svg>
