<svg xmlns="http://www.w3.org/2000/svg" width="1.925" height="4.37"><path d="M393.889 158.714q-.36.036-.329-.108.022-.103.16-.233.14-.13.284-.23.145-.102.237-.136.091-.035.08.148a.67.67 0 0 1-.136.353q-.123.17-.236.271a.6.6 0 0 1-.195.129q-.081.027-.068-.202a.7.7 0 0 1 .099-.358q.086-.129.178-.208a.5.5 0 0 1 .234-.107q.142-.028.175.176a.65.65 0 0 1-.015.329.8.8 0 0 1-.123.215.44.44 0 0 1-.235.132q-.159.042-.15-.16a.63.63 0 0 1 .119-.351q.11-.15.257-.278a1.2 1.2 0 0 1 .299-.194.8.8 0 0 1 .285-.072q.134-.007.23.13.096.135.123.552.029.416-.088 1.199a9 9 0 0 1-.465 1.738q-.35.956-.729 1.35" style="fill:none;stroke:#000;stroke-width:1.03937;stroke-linecap:round;stroke-linejoin:round;stroke-miterlimit:10;stroke-dasharray:none;stroke-opacity:1" transform="matrix(.72727 0 0 .72727 -285.848 -114.407)"/></svg>