<?xml version="1.0" encoding="UTF-8" standalone="no"?>
<!-- Created with Inkscape (http://www.inkscape.org/) -->

<svg
   version="1.1"
   id="svg2"
   width="12.181381"
   height="15.474655"
   viewBox="0 0 12.181381 15.474655"
   sodipodi:docname="E24136542_宋昱宣_預報2.svg"
   inkscape:version="1.2.1 (9c6d41e410, 2022-07-14)"
   xmlns:inkscape="http://www.inkscape.org/namespaces/inkscape"
   xmlns:sodipodi="http://sodipodi.sourceforge.net/DTD/sodipodi-0.dtd"
   xmlns="http://www.w3.org/2000/svg"
   xmlns:svg="http://www.w3.org/2000/svg">
  <defs
     id="defs6" />
  <sodipodi:namedview
     id="namedview4"
     pagecolor="#ffffff"
     bordercolor="#000000"
     borderopacity="0.25"
     inkscape:showpageshadow="2"
     inkscape:pageopacity="0.0"
     inkscape:pagecheckerboard="0"
     inkscape:deskcolor="#d1d1d1"
     showgrid="false"
     inkscape:zoom="2.3786081"
     inkscape:cx="203.48035"
     inkscape:cy="340.32508"
     inkscape:window-width="1600"
     inkscape:window-height="930"
     inkscape:window-x="-6"
     inkscape:window-y="-6"
     inkscape:window-maximized="1"
     inkscape:current-layer="g10" />
  <g
     id="g10"
     inkscape:groupmode="layer"
     inkscape:label="Page 1"
     transform="matrix(1.3333333,0,0,-1.3333333,-110.90485,1078.7501)">
    <g
       id="g106288">
      <g
         id="g668"
         transform="matrix(0.5454546,0,0,-0.5454546,0,841.89)">
        <path
           d="m 158.3676,61.24202 c -0.0914,-0.52102 -0.003,-0.66445 0.2662,-0.43029 0.1961,0.17087 0.3714,0.36827 0.5257,0.59219 0.223,0.32364 0.327,0.92941 0.3121,1.81729"
           style="fill:none;stroke:#000000;stroke-width:1.03937;stroke-linecap:round;stroke-linejoin:round;stroke-miterlimit:10;stroke-dasharray:none;stroke-opacity:1"
           id="path670" />
      </g>
      <g
         id="g672"
         transform="matrix(0.5454546,0,0,-0.5454546,0,841.89)">
        <path
           d="m 155.4258,65.28392 c -0.2831,-0.04302 -0.5659,0.02618 -0.8484,0.20762 -0.1897,0.12177 -0.3892,0.34202 -0.5986,0.66076 -0.2093,0.31874 -0.3967,0.73772 -0.562,1.25696 -0.1653,0.51922 -0.2788,1.04904 -0.3406,1.58944 -0.0965,0.84414 -0.0395,1.38672 0.171,1.62773"
           style="fill:none;stroke:#000000;stroke-width:1.03937;stroke-linecap:round;stroke-linejoin:round;stroke-miterlimit:10;stroke-dasharray:none;stroke-opacity:1"
           id="path674" />
      </g>
      <g
         id="g676"
         transform="matrix(0.5454546,0,0,-0.5454546,0,841.89)">
        <path
           d="m 155.0843,67.07217 c 0.0547,-0.10568 0.1619,-0.21999 0.3214,-0.34292 0.1034,-0.07967 0.3132,-0.18525 0.6295,-0.31674 0.3162,-0.13149 0.7738,-0.29084 1.3727,-0.47805 0.599,-0.1872 1.2635,-0.3873 1.9937,-0.60028 0.7302,-0.21299 1.4315,-0.39021 2.1038,-0.53167 0.6724,-0.14145 1.2864,-0.25631 1.8421,-0.34456 0.5558,-0.08827 1.0889,-0.18453 1.5994,-0.28881 0.5105,-0.10427 1.0843,-0.22783 1.7214,-0.37069 0.6372,-0.14285 1.0379,-0.22932 1.2022,-0.25941 0.1644,-0.03009 0.2961,-0.04495 0.3953,-0.04459 0.0991,3.6e-4 0.1786,0.02358 0.2385,0.06965 0.0599,0.04608 0.1092,0.13319 0.1479,0.26132 0.0388,0.12812 0.062,0.28338 0.0698,0.46576 0.008,0.18237 -0.0105,0.39441 -0.055,0.63611 -0.0445,0.24171 -0.1353,0.51557 -0.2724,0.8216 -0.1371,0.30603 -0.3159,0.65008 -0.5364,1.03216 -0.3251,0.56325 -0.7533,1.22871 -1.2847,1.99637"
           style="fill:none;stroke:#000000;stroke-width:1.03937;stroke-linecap:round;stroke-linejoin:round;stroke-miterlimit:10;stroke-dasharray:none;stroke-opacity:1"
           id="path678" />
      </g>
      <g
         id="g680"
         transform="matrix(0.5454546,0,0,-0.5454546,0,841.89)">
        <path
           d="m 158.075,68.98473 c -0.0386,-0.30408 -0.1048,-0.44487 -0.1986,-0.42236 -0.0666,0.01595 -0.3066,0.32619 -0.72,0.93071 -0.4135,0.60452 -0.7532,1.08272 -1.019,1.43459 -0.2659,0.35187 -0.4762,0.62625 -0.6307,0.82314 l -0.2026,0.25804 0.004,-0.0054 0.0168,-0.02134 -0.0503,0.06402"
           style="fill:none;stroke:#000000;stroke-width:1.03937;stroke-linecap:round;stroke-linejoin:round;stroke-miterlimit:10;stroke-dasharray:none;stroke-opacity:1"
           id="path682" />
      </g>
      <g
         id="g684"
         transform="matrix(0.5454546,0,0,-0.5454546,0,841.89)">
        <path
           d="m 161.2135,68.18936 c 0.2298,-0.14311 0.4062,-0.22195 0.529,-0.2365 0.0848,-0.01004 0.2347,-9.7e-4 0.45,0.02723 0.2153,0.02819 0.5155,0.12623 0.9007,0.29412 0.3851,0.16789 0.7956,0.38039 1.2313,0.63749 0.4357,0.25709 0.8287,0.5164 1.1789,0.77793 0.3503,0.26152 0.5905,0.49183 0.7207,0.69092 0.1791,0.27377 0.0592,0.3983 -0.3596,0.37358"
           style="fill:none;stroke:#000000;stroke-width:1.03937;stroke-linecap:round;stroke-linejoin:round;stroke-miterlimit:10;stroke-dasharray:none;stroke-opacity:1"
           id="path686" />
      </g>
      <g
         id="g688"
         transform="matrix(0.5454546,0,0,-0.5454546,0,841.89)">
        <path
           d="m 160.6238,70.9371 c -0.1136,-0.08697 -0.2827,-0.10591 -0.5071,-0.05681 -0.1493,0.03267 -0.3637,0.18707 -0.6432,0.46321 -0.2794,0.27614 -0.6712,0.73794 -1.1751,1.38541 -0.504,0.64748 -1.1038,1.36967 -1.7996,2.16657 -0.6957,0.7969 -1.3058,1.47495 -1.8303,2.03413 -0.5246,0.55918 -0.8482,0.93299 -0.9709,1.12142 -0.1226,0.18842 -0.184,0.28263 -0.184,0.28263"
           style="fill:none;stroke:#000000;stroke-width:1.03937;stroke-linecap:round;stroke-linejoin:round;stroke-miterlimit:10;stroke-dasharray:none;stroke-opacity:1"
           id="path690" />
      </g>
      <g
         id="g692"
         transform="matrix(0.5454546,0,0,-0.5454546,0,841.89)">
        <path
           d="m 159.5518,72.31433 c 0.2028,-0.14833 0.3648,-0.28158 0.4861,-0.39975 0.0823,-0.08028 0.1811,-0.13679 0.2963,-0.16952 0.1151,-0.03273 0.3068,-0.03613 0.5751,-0.01021 0.2682,0.02592 0.6143,0.13283 1.0384,0.32071 0.424,0.18787 1.1079,0.57535 2.0518,1.16243 0.9439,0.58707 1.5894,0.98347 1.9364,1.18921 0.347,0.20573 0.6288,0.39973 0.8453,0.582 0.2166,0.18227 0.3544,0.35103 0.4135,0.50625 0.0591,0.15523 0.1031,0.29328 0.1321,0.41416"
           style="fill:none;stroke:#000000;stroke-width:1.03937;stroke-linecap:round;stroke-linejoin:round;stroke-miterlimit:10;stroke-dasharray:none;stroke-opacity:1"
           id="path694" />
      </g>
      <g
         id="g696"
         transform="matrix(0.5454546,0,0,-0.5454546,0,841.89)">
        <path
           d="m 158.0631,76.94769 c -0.08,-0.09925 -0.1783,-0.14154 -0.2948,-0.12685 -0.08,0.01008 -0.1674,0.11894 -0.262,0.32658 -0.0946,0.20763 -0.1736,0.51834 -0.2369,0.93212 -0.0633,0.41379 -0.0919,0.82161 -0.0857,1.22345 0.006,0.40184 0.0634,0.71774 0.1717,0.9477 0.1083,0.22996 0.2232,0.38815 0.3447,0.47457"
           style="fill:none;stroke:#000000;stroke-width:1.03937;stroke-linecap:round;stroke-linejoin:round;stroke-miterlimit:10;stroke-dasharray:none;stroke-opacity:1"
           id="path698" />
      </g>
      <g
         id="g700"
         transform="matrix(0.5454546,0,0,-0.5454546,0,841.89)">
        <path
           d="m 158.8029,76.87306 c -0.094,-0.26697 -0.0996,-0.47354 -0.0168,-0.61972 0.0572,-0.10096 0.2334,-0.23902 0.5286,-0.41418 0.2952,-0.17517 0.673,-0.35012 1.1333,-0.52485 0.4602,-0.17473 0.9057,-0.3062 1.3365,-0.39442 0.4307,-0.08822 0.773,-0.13674 1.0267,-0.14557 0.2538,-0.0088 0.4922,0.03751 0.7154,0.13898 0.2231,0.10147 0.3734,0.19885 0.4509,0.29214 0.0775,0.0933 0.1226,0.35534 0.1353,0.78614 0.0127,0.43079 -0.0101,0.87069 -0.0685,1.3197 -0.0585,0.449 -0.1358,0.88854 -0.2322,1.3186 -0.0964,0.43007 -0.2032,0.81315 -0.3205,1.14925 -0.1693,0.48495 -0.5772,0.75906 -1.2236,0.82231"
           style="fill:none;stroke:#000000;stroke-width:1.03937;stroke-linecap:round;stroke-linejoin:round;stroke-miterlimit:10;stroke-dasharray:none;stroke-opacity:1"
           id="path702" />
      </g>
      <g
         id="g704"
         transform="matrix(0.5454546,0,0,-0.5454546,0,841.89)">
        <path
           d="m 158.5892,80.8108 c -0.0709,0.05218 -0.1172,0.08622 -0.1388,0.10212 -0.015,0.01104 -8e-4,0.01738 0.0425,0.01904 0.0433,0.0017 0.121,0.0046 0.2329,0.0089 0.112,0.0043 0.4551,-0.041 1.0294,-0.13585 0.5742,-0.09486 1.2541,-0.24641 2.0396,-0.45466 0.7855,-0.20824 1.5299,-0.44436 2.2332,-0.70835"
           style="fill:none;stroke:#000000;stroke-width:1.03937;stroke-linecap:round;stroke-linejoin:round;stroke-miterlimit:10;stroke-dasharray:none;stroke-opacity:1"
           id="path706" />
      </g>
    </g>
  </g>
</svg>
