<?xml version="1.0" encoding="UTF-8" standalone="no"?>
<!-- Created with Inkscape (http://www.inkscape.org/) -->

<svg
   version="1.1"
   id="svg2"
   width="14.087173"
   height="14.091423"
   viewBox="0 0 14.087174 14.091423"
   sodipodi:docname="E24136542_宋昱宣_預報2.svg"
   inkscape:version="1.2.1 (9c6d41e410, 2022-07-14)"
   xmlns:inkscape="http://www.inkscape.org/namespaces/inkscape"
   xmlns:sodipodi="http://sodipodi.sourceforge.net/DTD/sodipodi-0.dtd"
   xmlns="http://www.w3.org/2000/svg"
   xmlns:svg="http://www.w3.org/2000/svg">
  <defs
     id="defs6" />
  <sodipodi:namedview
     id="namedview4"
     pagecolor="#ffffff"
     bordercolor="#000000"
     borderopacity="0.25"
     inkscape:showpageshadow="2"
     inkscape:pageopacity="0.0"
     inkscape:pagecheckerboard="0"
     inkscape:deskcolor="#d1d1d1"
     showgrid="false"
     inkscape:zoom="2.3786081"
     inkscape:cx="203.48035"
     inkscape:cy="340.32508"
     inkscape:window-width="1600"
     inkscape:window-height="930"
     inkscape:window-x="-6"
     inkscape:window-y="-6"
     inkscape:window-maximized="1"
     inkscape:current-layer="g10" />
  <g
     id="g10"
     inkscape:groupmode="layer"
     inkscape:label="Page 1"
     transform="matrix(1.3333333,0,0,-1.3333333,-173.06752,1056.3373)">
    <g
       id="g566517">
      <g
         id="g1364"
         transform="matrix(0.5454546,0,0,-0.5454546,0,841.89)">
        <path
           d="m 246.0627,91.59921 c 0.0811,-0.13096 0.1551,-0.1071 0.2218,0.07157 0.0667,0.17866 0.1547,0.48579 0.264,0.92138 0.1092,0.4356 0.2438,0.89709 0.4036,1.38448 0.1598,0.48739 0.3189,0.86985 0.4772,1.14738"
           style="fill:none;stroke:#000000;stroke-width:1.03937;stroke-linecap:round;stroke-linejoin:round;stroke-miterlimit:10;stroke-dasharray:none;stroke-opacity:1"
           id="path1366" />
      </g>
      <g
         id="g1368"
         transform="matrix(0.5454546,0,0,-0.5454546,0,841.89)">
        <path
           d="m 240.6943,96.13102 c -0.2323,-0.17015 -0.4323,-0.2749 -0.6001,-0.31423 -0.1148,-0.02691 -0.2211,0.01276 -0.3189,0.119 -0.0978,0.10624 -0.2145,0.38343 -0.35,0.83159 -0.1356,0.44816 -0.2814,0.97328 -0.4376,1.57536 -0.1562,0.60208 -0.2587,1.11913 -0.3075,1.55115 -0.0487,0.43201 0.005,0.78031 0.16,1.04501"
           style="fill:none;stroke:#000000;stroke-width:1.03937;stroke-linecap:round;stroke-linejoin:round;stroke-miterlimit:10;stroke-dasharray:none;stroke-opacity:1"
           id="path1370" />
      </g>
      <g
         id="g1372"
         transform="matrix(0.5454546,0,0,-0.5454546,0,841.89)">
        <path
           d="m 240.0849,97.85115 c 0.0782,-0.26443 0.2163,-0.47451 0.4144,-0.63022 0.134,-0.10532 0.372,-0.23483 0.7138,-0.3885 0.3419,-0.15368 0.8383,-0.34083 1.4893,-0.56146 0.6511,-0.22063 1.4486,-0.47611 2.3927,-0.76645 0.9441,-0.29035 1.9244,-0.57967 2.941,-0.86798 1.0165,-0.28831 1.9322,-0.49325 2.7471,-0.61481 0.8148,-0.12156 1.5167,-0.17492 2.1055,-0.16007 0.5889,0.01486 1.0601,0.06444 1.4137,0.14875 0.3535,0.08431 0.5946,0.15543 0.7231,0.21338 0.1286,0.05794 0.2041,0.11239 0.2264,0.16333 0.0223,0.05093 -0.0662,0.25779 -0.2656,0.62057 -0.1994,0.36278 -0.3888,0.73225 -0.5682,1.10843 -0.1794,0.37617 -0.3509,0.76222 -0.5146,1.15814 -0.2447,0.59176 -0.584,0.96652 -1.018,1.12428"
           style="fill:none;stroke:#000000;stroke-width:1.03937;stroke-linecap:round;stroke-linejoin:round;stroke-miterlimit:10;stroke-dasharray:none;stroke-opacity:1"
           id="path1374" />
      </g>
      <g
         id="g1376"
         transform="matrix(0.5454546,0,0,-0.5454546,0,841.89)">
        <path
           d="m 242.9242,100.7069 c -0.3734,0.008 -0.5671,0.0115 -0.5813,0.0117 l -0.0118,3e-4 h 8e-4 c 0.003,0 0.0289,0 0.0788,0 0.0498,0 0.2964,-0.0432 0.7395,-0.1296 0.4432,-0.0864 0.9622,-0.2204 1.5571,-0.4019 0.5948,-0.1815 1.3233,-0.38888 2.1855,-0.6222 1.329,-0.35964 2.327,-0.40244 2.994,-0.12839"
           style="fill:none;stroke:#000000;stroke-width:1.03937;stroke-linecap:round;stroke-linejoin:round;stroke-miterlimit:10;stroke-dasharray:none;stroke-opacity:1"
           id="path1378" />
      </g>
      <g
         id="g1380"
         transform="matrix(0.5454546,0,0,-0.5454546,0,841.89)">
        <path
           d="m 246.9533,101.5834 c -0.0464,-0.0853 -0.1091,-0.1579 -0.1882,-0.2179 -0.0529,-0.0401 -0.0817,0.1231 -0.0864,0.4896 -0.005,0.3666 -0.017,0.8371 -0.037,1.4116 -0.0201,0.5745 -0.0608,1.1773 -0.1223,1.8082 -0.0614,0.6309 -0.1152,1.104 -0.1614,1.4191 l -0.06,0.4097 0.001,-0.01 0.005,-0.0364 -0.016,0.1093"
           style="fill:none;stroke:#000000;stroke-width:1.03937;stroke-linecap:round;stroke-linejoin:round;stroke-miterlimit:10;stroke-dasharray:none;stroke-opacity:1"
           id="path1382" />
      </g>
      <g
         id="g1384"
         transform="matrix(0.5454546,0,0,-0.5454546,0,841.89)">
        <path
           d="m 247.0672,104.7024 c -0.1361,-0.0798 -0.137,-0.1406 -0.003,-0.1823 0.0984,-0.0306 0.365,-0.1253 0.7996,-0.2841 0.4347,-0.1588 0.9906,-0.3586 1.6678,-0.5996 1.0496,-0.3735 1.809,-0.4626 2.2782,-0.2676"
           style="fill:none;stroke:#000000;stroke-width:1.03937;stroke-linecap:round;stroke-linejoin:round;stroke-miterlimit:10;stroke-dasharray:none;stroke-opacity:1"
           id="path1386" />
      </g>
      <g
         id="g1388"
         transform="matrix(0.5454546,0,0,-0.5454546,0,841.89)">
        <path
           d="m 243.2099,103.3357 c 0.1083,-0.035 0.1003,0.0879 -0.024,0.3685 -0.1243,0.2807 -0.3257,0.6559 -0.6041,1.1258 -0.2785,0.4699 -0.6205,0.9952 -1.0263,1.5761 -0.4057,0.5808 -0.8062,1.1222 -1.2015,1.6241 -0.3953,0.5019 -0.7256,0.8761 -0.991,1.1226 -0.2653,0.2464 -0.5572,0.4069 -0.8755,0.4814"
           style="fill:none;stroke:#000000;stroke-width:1.03937;stroke-linecap:round;stroke-linejoin:round;stroke-miterlimit:10;stroke-dasharray:none;stroke-opacity:1"
           id="path1390" />
      </g>
      <g
         id="g1392"
         transform="matrix(0.5454546,0,0,-0.5454546,0,841.89)">
        <path
           d="m 241.0042,107.534 c 0.2929,-0.1549 0.4848,-0.2241 0.5756,-0.2074 0.0633,0.0116 0.2142,0.0846 0.4527,0.219 0.2384,0.1344 0.6583,0.3227 1.2596,0.5648 0.6012,0.2421 1.4574,0.4878 2.5686,0.7371 1.1112,0.2493 2.3391,0.4314 3.684,0.5463 1.3448,0.115 2.5655,0.1782 3.6622,0.1897 1.7761,0.0186 2.9798,0.1099 3.6111,0.2737"
           style="fill:none;stroke:#000000;stroke-width:1.03937;stroke-linecap:round;stroke-linejoin:round;stroke-miterlimit:10;stroke-dasharray:none;stroke-opacity:1"
           id="path1394" />
      </g>
    </g>
  </g>
</svg>
