<svg xmlns="http://www.w3.org/2000/svg" width="14.087" height="14.091"><path d="M246.063 91.6q.12-.198.222.07.099.27.264.922.163.654.403 1.385t.477 1.147" style="fill:none;stroke:#000;stroke-width:1.03937;stroke-linecap:round;stroke-linejoin:round;stroke-miterlimit:10;stroke-dasharray:none;stroke-opacity:1" transform="matrix(.72727 0 0 .72727 -173.068 -66.183)"/><path d="M240.694 96.131q-.348-.255-.6-.314-.172-.04-.319.119t-.35.831-.437 1.576-.308 1.55.16 1.046" style="fill:none;stroke:#000;stroke-width:1.03937;stroke-linecap:round;stroke-linejoin:round;stroke-miterlimit:10;stroke-dasharray:none;stroke-opacity:1" transform="matrix(.72727 0 0 .72727 -173.068 -66.183)"/><path d="M240.085 97.851q.117-.396.414-.63.201-.158.714-.389.512-.23 1.49-.561.976-.33 2.392-.766a139 139 0 0 1 2.941-.868 22 22 0 0 1 2.747-.615q1.222-.183 2.106-.16t1.413.148q.53.127.724.214.192.087.226.163t-.266.62q-.299.544-.568 1.11-.269.563-.514 1.157-.367.888-1.018 1.125" style="fill:none;stroke:#000;stroke-width:1.03937;stroke-linecap:round;stroke-linejoin:round;stroke-miterlimit:10;stroke-dasharray:none;stroke-opacity:1" transform="matrix(.72727 0 0 .72727 -173.068 -66.183)"/><path d="m242.924 100.707-.581.012h-.012.08q.075 0 .74-.13.663-.129 1.556-.402a73 73 0 0 1 2.186-.622q1.994-.54 2.994-.128" style="fill:none;stroke:#000;stroke-width:1.03937;stroke-linecap:round;stroke-linejoin:round;stroke-miterlimit:10;stroke-dasharray:none;stroke-opacity:1" transform="matrix(.72727 0 0 .72727 -173.068 -66.183)"/><path d="M246.953 101.583a.7.7 0 0 0-.188-.218q-.08-.06-.086.49-.007.55-.037 1.412t-.123 1.808a32 32 0 0 1-.161 1.419l-.06.41.001-.01.005-.037-.016.11" style="fill:none;stroke:#000;stroke-width:1.03937;stroke-linecap:round;stroke-linejoin:round;stroke-miterlimit:10;stroke-dasharray:none;stroke-opacity:1" transform="matrix(.72727 0 0 .72727 -173.068 -66.183)"/><path d="M247.067 104.702q-.204-.12-.003-.182.148-.045.8-.284t1.668-.6q1.575-.56 2.278-.267" style="fill:none;stroke:#000;stroke-width:1.03937;stroke-linecap:round;stroke-linejoin:round;stroke-miterlimit:10;stroke-dasharray:none;stroke-opacity:1" transform="matrix(.72727 0 0 .72727 -173.068 -66.183)"/><path d="M243.21 103.336q.162-.052-.024.368-.187.42-.604 1.126-.418.705-1.026 1.576-.61.87-1.202 1.624-.593.753-.991 1.123a1.9 1.9 0 0 1-.875.481" style="fill:none;stroke:#000;stroke-width:1.03937;stroke-linecap:round;stroke-linejoin:round;stroke-miterlimit:10;stroke-dasharray:none;stroke-opacity:1" transform="matrix(.72727 0 0 .72727 -173.068 -66.183)"/><path d="M241.004 107.534q.44-.233.576-.207.095.017.452.219.358.201 1.26.564t2.569.737q1.666.375 3.684.547a49 49 0 0 0 3.662.19q2.664.028 3.611.273" style="fill:none;stroke:#000;stroke-width:1.03937;stroke-linecap:round;stroke-linejoin:round;stroke-miterlimit:10;stroke-dasharray:none;stroke-opacity:1" transform="matrix(.72727 0 0 .72727 -173.068 -66.183)"/></svg>