<?xml version="1.0" encoding="UTF-8" standalone="no"?>
<!-- Created with Inkscape (http://www.inkscape.org/) -->

<svg
   version="1.1"
   id="svg2"
   width="13.676147"
   height="13.331772"
   viewBox="0 0 13.676148 13.331772"
   sodipodi:docname="E24136542_宋昱宣_預報2.svg"
   inkscape:version="1.2.1 (9c6d41e410, 2022-07-14)"
   xmlns:inkscape="http://www.inkscape.org/namespaces/inkscape"
   xmlns:sodipodi="http://sodipodi.sourceforge.net/DTD/sodipodi-0.dtd"
   xmlns="http://www.w3.org/2000/svg"
   xmlns:svg="http://www.w3.org/2000/svg">
  <defs
     id="defs6" />
  <sodipodi:namedview
     id="namedview4"
     pagecolor="#ffffff"
     bordercolor="#000000"
     borderopacity="0.25"
     inkscape:showpageshadow="2"
     inkscape:pageopacity="0.0"
     inkscape:pagecheckerboard="0"
     inkscape:deskcolor="#d1d1d1"
     showgrid="false"
     inkscape:zoom="2.3786081"
     inkscape:cx="203.48035"
     inkscape:cy="340.32508"
     inkscape:window-width="1600"
     inkscape:window-height="930"
     inkscape:window-x="-6"
     inkscape:window-y="-6"
     inkscape:window-maximized="1"
     inkscape:current-layer="g10" />
  <g
     id="g10"
     inkscape:groupmode="layer"
     inkscape:label="Page 1"
     transform="matrix(1.3333333,0,0,-1.3333333,-279.56201,1077.5752)">
    <g
       id="g294990">
      <g
         id="g936"
         transform="matrix(0.5454546,0,0,-0.5454546,0,841.89)">
        <path
           d="m 389.2491,62.80637 c 0.0734,-0.29707 0.1129,-0.45693 0.1185,-0.47956 0.004,-0.01594 -10e-4,-0.01325 -0.0155,0.0081 -0.0144,0.02131 -0.0897,0.13357 -0.226,0.33678 -0.1363,0.20321 -0.3395,0.52354 -0.6096,0.96098 -0.2701,0.43745 -0.7082,1.16664 -1.3144,2.18756 -0.6061,1.02092 -0.9706,1.65811 -1.0935,1.91158 -0.1229,0.25347 -0.1674,0.49371 -0.1333,0.72073 0.0342,0.22701 0.0648,0.4453 0.0921,0.65487 0.0272,0.20957 0.0508,0.5191 0.0707,0.92859 0.0199,0.40949 0.0308,1.01146 0.0328,1.8059 0.002,0.79443 -0.0383,1.68617 -0.1208,2.67519 -0.0825,0.98902 -0.1798,1.86594 -0.2918,2.63074 -0.112,0.7648 -0.1991,1.31588 -0.2612,1.65323 l -0.0851,0.46214 8e-4,-0.0042 0.004,-0.02402 -0.0133,0.07207"
           style="fill:none;stroke:#000000;stroke-width:1.03937;stroke-linecap:round;stroke-linejoin:round;stroke-miterlimit:10;stroke-dasharray:none;stroke-opacity:1"
           id="path938" />
      </g>
      <g
         id="g940"
         transform="matrix(0.5454546,0,0,-0.5454546,0,841.89)">
        <path
           d="m 386.5832,69.54899 c -0.178,-0.34881 -0.0251,-0.57077 0.4587,-0.66589 0.3494,-0.06867 0.7165,-0.1636 1.1012,-0.28479 0.3848,-0.12118 0.9883,-0.33684 1.8105,-0.64696 0.8222,-0.31012 1.3472,-0.50234 1.5751,-0.57666 0.2279,-0.07431 0.3484,-0.11359 0.3614,-0.11784 0.013,-0.0042 0.0183,-0.0055 0.0157,-0.0038 -0.002,0.0017 -0.0259,0.01742 -0.0701,0.04716 -0.0442,0.02974 -0.1106,0.33364 -0.1992,0.91171 -0.0885,0.57806 -0.1772,1.21645 -0.266,1.91517 -0.0888,0.69872 -0.2128,1.88368 -0.3721,3.55488 -0.1592,1.6712 -0.2462,2.67458 -0.2607,3.01012 -0.0146,0.33553 -0.1061,0.61546 -0.2744,0.83978"
           style="fill:none;stroke:#000000;stroke-width:1.03937;stroke-linecap:round;stroke-linejoin:round;stroke-miterlimit:10;stroke-dasharray:none;stroke-opacity:1"
           id="path942" />
      </g>
      <g
         id="g944"
         transform="matrix(0.5454546,0,0,-0.5454546,0,841.89)">
        <path
           d="m 386.7806,73.9721 c -0.3172,0.04188 -0.4831,0.06378 -0.4976,0.0657 -0.0102,0.0013 -0.0117,0.002 -0.004,0.0021 0.007,6e-5 0.0677,5.7e-4 0.1816,0.0015 0.1139,9.6e-4 0.363,-0.02546 0.7473,-0.07926 0.3843,-0.0538 0.8002,-0.09574 1.2475,-0.12582 0.6584,-0.04428 1.114,0.13295 1.3669,0.5317"
           style="fill:none;stroke:#000000;stroke-width:1.03937;stroke-linecap:round;stroke-linejoin:round;stroke-miterlimit:10;stroke-dasharray:none;stroke-opacity:1"
           id="path946" />
      </g>
      <g
         id="g948"
         transform="matrix(0.5454546,0,0,-0.5454546,0,841.89)">
        <path
           d="m 386.141,78.43924 c -0.465,0.29518 -0.7975,0.55774 -0.9976,0.78769 -0.137,0.15749 -0.2147,0.25815 -0.2331,0.30197 -0.0184,0.04382 0.0484,0.07017 0.2002,0.07904 0.1519,0.0089 0.4462,-0.01319 0.8827,-0.06621 0.4366,-0.05301 0.9561,-0.18154 1.5584,-0.3856 0.885,-0.29978 1.9352,-0.82911 3.1505,-1.58799"
           style="fill:none;stroke:#000000;stroke-width:1.03937;stroke-linecap:round;stroke-linejoin:round;stroke-miterlimit:10;stroke-dasharray:none;stroke-opacity:1"
           id="path950" />
      </g>
      <g
         id="g952"
         transform="matrix(0.5454546,0,0,-0.5454546,0,841.89)">
        <path
           d="m 396.6767,65.52446 c -0.0465,-0.3018 -0.0842,-0.47589 -0.1132,-0.52226 -0.0203,-0.03247 -0.0342,-0.05473 -0.0418,-0.06678 -0.007,-0.01203 -0.0178,0.0281 -0.0309,0.12042 -0.0131,0.09232 -0.0372,0.26291 -0.0725,0.51179 -0.0353,0.24887 -0.1379,0.71782 -0.3079,1.40683 -0.1699,0.68901 -0.3957,1.45257 -0.6772,2.29068 -0.2816,0.83811 -0.5503,1.57812 -0.8064,2.22004 -0.256,0.64191 -0.43,1.10276 -0.5219,1.38256 l -0.1308,0.39805 4e-4,-0.0012 0.004,-0.01141 -0.0112,0.03423"
           style="fill:none;stroke:#000000;stroke-width:1.03937;stroke-linecap:round;stroke-linejoin:round;stroke-miterlimit:10;stroke-dasharray:none;stroke-opacity:1"
           id="path954" />
      </g>
      <g
         id="g956"
         transform="matrix(0.5454546,0,0,-0.5454546,0,841.89)">
        <path
           d="m 395.6557,69.81012 c 0.008,-0.16717 0.0417,-0.35459 0.1007,-0.56229 0.0387,-0.13654 0.1428,-0.3026 0.3121,-0.49817 0.1693,-0.19557 0.438,-0.43564 0.8061,-0.72021 0.3681,-0.28457 0.8003,-0.55057 1.2967,-0.798 0.4965,-0.24744 0.9619,-0.43125 1.3962,-0.55144 0.4344,-0.12019 0.7973,-0.21324 1.0889,-0.27916 0.2916,-0.06592 0.6045,-0.15725 0.9388,-0.27399 0.3342,-0.11674 0.5515,-0.17977 0.6521,-0.1891 0.1006,-0.0093 0.1829,0.02091 0.2468,0.09073 0.0639,0.06981 0.1092,0.22611 0.1358,0.46891 0.0267,0.2428 0.0438,0.63068 0.0511,1.16365 0.007,0.53297 -0.007,1.23148 -0.0441,2.09554 -0.0367,0.86406 -0.094,1.81654 -0.1718,2.85744 -0.0778,1.0409 -0.1642,1.97554 -0.2594,2.80392 -0.0952,0.82838 -0.1846,1.50128 -0.2683,2.0187 -0.0836,0.51742 -0.1671,0.89688 -0.2504,1.1384 -0.0832,0.24152 -0.1848,0.40355 -0.3047,0.48609 -0.1717,0.11819 -0.4528,0.067 -0.8431,-0.15357"
           style="fill:none;stroke:#000000;stroke-width:1.03937;stroke-linecap:round;stroke-linejoin:round;stroke-miterlimit:10;stroke-dasharray:none;stroke-opacity:1"
           id="path958" />
      </g>
      <g
         id="g960"
         transform="matrix(0.5454546,0,0,-0.5454546,0,841.89)">
        <path
           d="m 398.0463,72.5647 c 0,-0.07958 -10e-5,-0.12776 -10e-5,-0.14453 0,-0.0117 0.005,-0.0091 0.0162,0.0077 0.0109,0.01686 0.0358,0.05577 0.075,0.11673 0.0391,0.06096 0.1583,0.19471 0.3576,0.40125 0.291,0.30157 0.7609,0.65637 1.4098,1.06438"
           style="fill:none;stroke:#000000;stroke-width:1.03937;stroke-linecap:round;stroke-linejoin:round;stroke-miterlimit:10;stroke-dasharray:none;stroke-opacity:1"
           id="path962" />
      </g>
    </g>
  </g>
</svg>
