<svg xmlns="http://www.w3.org/2000/svg" width="13.676" height="13.332"><path d="m389.25 62.806.118-.48q.006-.023-.016.009l-.226.337q-.204.305-.61.96-.405.657-1.314 2.188t-1.093 1.912q-.185.38-.134.72.051.342.092.655.041.315.071.929t.033 1.806q.003 1.191-.12 2.675-.124 1.484-.293 2.63-.168 1.149-.26 1.654l-.086.462v-.004l.005-.024-.013.072" style="fill:none;stroke:#000;stroke-width:1.03937;stroke-linecap:round;stroke-linejoin:round;stroke-miterlimit:10;stroke-dasharray:none;stroke-opacity:1" transform="matrix(.72727 0 0 .72727 -279.562 -44.945)"/><path d="M386.583 69.549q-.267-.523.459-.666.524-.103 1.101-.285.577-.181 1.81-.647 1.234-.465 1.576-.576l.361-.118q.02-.007.016-.004l-.07.047q-.066.045-.2.912a76 76 0 0 0-.266 1.915q-.132 1.049-.372 3.555-.239 2.507-.26 3.01-.022.504-.275.84" style="fill:none;stroke:#000;stroke-width:1.03937;stroke-linecap:round;stroke-linejoin:round;stroke-miterlimit:10;stroke-dasharray:none;stroke-opacity:1" transform="matrix(.72727 0 0 .72727 -279.562 -44.945)"/><path d="m386.78 73.972-.497.066q-.015.002-.004.002l.182.001q.17.002.747-.079.576-.081 1.247-.126.988-.066 1.367.532" style="fill:none;stroke:#000;stroke-width:1.03937;stroke-linecap:round;stroke-linejoin:round;stroke-miterlimit:10;stroke-dasharray:none;stroke-opacity:1" transform="matrix(.72727 0 0 .72727 -279.562 -44.945)"/><path d="M386.141 78.44q-.697.441-.998.787-.205.236-.233.302-.027.066.2.079.228.013.883-.066.655-.08 1.559-.386 1.327-.45 3.15-1.588" style="fill:none;stroke:#000;stroke-width:1.03937;stroke-linecap:round;stroke-linejoin:round;stroke-miterlimit:10;stroke-dasharray:none;stroke-opacity:1" transform="matrix(.72727 0 0 .72727 -279.562 -44.945)"/><path d="M396.677 65.524q-.07-.451-.114-.522l-.041-.067q-.011-.017-.031.12l-.073.513q-.053.373-.308 1.406-.255 1.034-.677 2.291t-.806 2.22-.522 1.383l-.13.398v-.001l.003-.012-.01.034" style="fill:none;stroke:#000;stroke-width:1.03937;stroke-linecap:round;stroke-linejoin:round;stroke-miterlimit:10;stroke-dasharray:none;stroke-opacity:1" transform="matrix(.72727 0 0 .72727 -279.562 -44.945)"/><path d="M395.656 69.81q.012-.25.1-.562.059-.206.313-.498.254-.294.806-.72.552-.427 1.296-.799a8 8 0 0 1 1.397-.551q.651-.18 1.088-.28a9 9 0 0 0 .94-.273q.5-.175.651-.19.15-.013.247.091.097.105.136.47.04.363.051 1.163t-.044 2.096a90 90 0 0 1-.431 5.66 46 46 0 0 1-.269 2.02q-.125.776-.25 1.138-.125.363-.305.486-.256.177-.843-.153" style="fill:none;stroke:#000;stroke-width:1.03937;stroke-linecap:round;stroke-linejoin:round;stroke-miterlimit:10;stroke-dasharray:none;stroke-opacity:1" transform="matrix(.72727 0 0 .72727 -279.562 -44.945)"/><path d="M398.046 72.565v-.145q0-.018.016.008l.075.117q.06.09.358.4.436.453 1.41 1.065" style="fill:none;stroke:#000;stroke-width:1.03937;stroke-linecap:round;stroke-linejoin:round;stroke-miterlimit:10;stroke-dasharray:none;stroke-opacity:1" transform="matrix(.72727 0 0 .72727 -279.562 -44.945)"/></svg>