<svg xmlns="http://www.w3.org/2000/svg" width="13.683" height="14.395"><path d="m184.546 61.332.038-.253q.003-.022-.093.118l-.605.886q-.51.746-1.063 1.598a48 48 0 0 0-.918 1.465q-.365.612-.434.81-.068.198-.053.186l.073-.06q.06-.05.099.069.04.118.08.72.042.6-.017 2.11a65 65 0 0 1-.233 3.387 96 96 0 0 0-.22 2.672q-.049.795-.042 1.092.008.297-.289.282" style="fill:none;stroke:#000;stroke-width:1.03937;stroke-linecap:round;stroke-linejoin:round;stroke-miterlimit:10;stroke-dasharray:none;stroke-opacity:1" transform="matrix(.72727 0 0 .72727 -131.164 -44.046)"/><path d="M181.727 67.782q.21-.478.22-.651a.6.6 0 0 1 .081-.25q.075-.13.3-.273.225-.142 1.074-.445a28 28 0 0 1 1.428-.471 42 42 0 0 0 .816-.246q.237-.075.321.418.084.495.096 1.557.012 1.064-.136 2.714-.15 1.65-.25 2.822-.102 1.17-.105 1.554l-.003.383" style="fill:none;stroke:#000;stroke-width:1.03937;stroke-linecap:round;stroke-linejoin:round;stroke-miterlimit:10;stroke-dasharray:none;stroke-opacity:1" transform="matrix(.72727 0 0 .72727 -131.164 -44.046)"/><path d="m182.369 72.374-.331.025h-.004l.007-.001.226-.037q.216-.035.828-.194a13 13 0 0 1 1.275-.26q.663-.102 1.081.073" style="fill:none;stroke:#000;stroke-width:1.03937;stroke-linecap:round;stroke-linejoin:round;stroke-miterlimit:10;stroke-dasharray:none;stroke-opacity:1" transform="matrix(.72727 0 0 .72727 -131.164 -44.046)"/><path d="M182.514 75.867q-.706.255-.904.51-.137.176-.032.286t.71.091q.873-.027 3.123-1.346" style="fill:none;stroke:#000;stroke-width:1.03937;stroke-linecap:round;stroke-linejoin:round;stroke-miterlimit:10;stroke-dasharray:none;stroke-opacity:1" transform="matrix(.72727 0 0 .72727 -131.164 -44.046)"/><path d="M192.344 62.832q.016-.264-.048-.387l-.054-.106q-.01-.02-.011.04l-.002.313q-.001.251-.12 1.207-.12.956-.452 2.242a48 48 0 0 1-.666 2.34 43 43 0 0 1-.489 1.487l-.139.384.002-.007.01-.028-.03.085" style="fill:none;stroke:#000;stroke-width:1.03937;stroke-linecap:round;stroke-linejoin:round;stroke-miterlimit:10;stroke-dasharray:none;stroke-opacity:1" transform="matrix(.72727 0 0 .72727 -131.164 -44.046)"/><path d="M191.853 66.61q.408-.84.87-1.214.316-.257.856-.493.541-.236 1.229-.44.687-.204 1.282-.349.596-.145.984-.245.39-.1.735-.14.346-.039.465.035.117.074.217.336.1.261.14 1.02t-.042 2.223a70 70 0 0 1-.308 3.54 351 351 0 0 1-.435 3.816q-.21 1.74-.322 2.77-.114 1.032-.187 1.507t-.186.646a.45.45 0 0 1-.298.206q-.186.035-.447-.11-.375-.207-.969-1.365" style="fill:none;stroke:#000;stroke-width:1.03937;stroke-linecap:round;stroke-linejoin:round;stroke-miterlimit:10;stroke-dasharray:none;stroke-opacity:1" transform="matrix(.72727 0 0 .72727 -131.164 -44.046)"/><path d="M193.44 71.893q-.177.342.212.732.266.27.908.556a7.4 7.4 0 0 0 2.052.573" style="fill:none;stroke:#000;stroke-width:1.03937;stroke-linecap:round;stroke-linejoin:round;stroke-miterlimit:10;stroke-dasharray:none;stroke-opacity:1" transform="matrix(.72727 0 0 .72727 -131.164 -44.046)"/></svg>