<?xml version="1.0" encoding="UTF-8" standalone="no"?>
<!-- Created with Inkscape (http://www.inkscape.org/) -->

<svg
   version="1.1"
   id="svg2"
   width="13.683319"
   height="14.394661"
   viewBox="0 0 13.683319 14.394661"
   sodipodi:docname="E24136542_宋昱宣_預報2.svg"
   inkscape:version="1.2.1 (9c6d41e410, 2022-07-14)"
   xmlns:inkscape="http://www.inkscape.org/namespaces/inkscape"
   xmlns:sodipodi="http://sodipodi.sourceforge.net/DTD/sodipodi-0.dtd"
   xmlns="http://www.w3.org/2000/svg"
   xmlns:svg="http://www.w3.org/2000/svg">
  <defs
     id="defs6" />
  <sodipodi:namedview
     id="namedview4"
     pagecolor="#ffffff"
     bordercolor="#000000"
     borderopacity="0.25"
     inkscape:showpageshadow="2"
     inkscape:pageopacity="0.0"
     inkscape:pagecheckerboard="0"
     inkscape:deskcolor="#d1d1d1"
     showgrid="false"
     inkscape:zoom="2.3786081"
     inkscape:cx="203.48035"
     inkscape:cy="340.32508"
     inkscape:window-width="1600"
     inkscape:window-height="930"
     inkscape:window-x="-6"
     inkscape:window-y="-6"
     inkscape:window-maximized="1"
     inkscape:current-layer="g10" />
  <g
     id="g10"
     inkscape:groupmode="layer"
     inkscape:label="Page 1"
     transform="matrix(1.3333333,0,0,-1.3333333,-131.16351,1078.4744)">
    <g
       id="g129870">
      <g
         id="g708"
         transform="matrix(0.5454546,0,0,-0.5454546,0,841.89)">
        <path
           d="m 184.5459,61.33159 c 0.0224,-0.14795 0.0352,-0.2323 0.0383,-0.25303 0.002,-0.01453 -0.0287,0.02504 -0.0928,0.11872 -0.064,0.09369 -0.2659,0.38891 -0.6055,0.88566 -0.3396,0.49675 -0.6937,1.02935 -1.0624,1.59779 -0.3686,0.56843 -0.6748,1.05681 -0.9185,1.46513 -0.2436,0.40832 -0.3882,0.67837 -0.4336,0.81016 -0.0454,0.13179 -0.0632,0.19367 -0.0534,0.18563 0.01,-0.008 0.0343,-0.02813 0.0735,-0.06028 0.0393,-0.03215 0.072,-0.009 0.0982,0.06959 0.0263,0.07855 0.0532,0.31826 0.0808,0.71914 0.0276,0.40089 0.0217,1.10479 -0.0177,2.11173 -0.0394,1.00693 -0.1169,2.13569 -0.2324,3.38627 -0.1155,1.25058 -0.1892,2.14109 -0.221,2.67153 -0.0319,0.53045 -0.0455,0.89462 -0.0409,1.09252 0.005,0.1979 -0.0917,0.29194 -0.289,0.28211"
           style="fill:none;stroke:#000000;stroke-width:1.03937;stroke-linecap:round;stroke-linejoin:round;stroke-miterlimit:10;stroke-dasharray:none;stroke-opacity:1"
           id="path710" />
      </g>
      <g
         id="g712"
         transform="matrix(0.5454546,0,0,-0.5454546,0,841.89)">
        <path
           d="m 181.7274,67.78179 c 0.1401,-0.3184 0.2134,-0.53541 0.2197,-0.65102 0.004,-0.08022 0.0314,-0.16365 0.081,-0.25028 0.0496,-0.08662 0.1494,-0.1775 0.2995,-0.27263 0.1502,-0.09513 0.5083,-0.24327 1.0744,-0.44441 0.5661,-0.20113 1.042,-0.35829 1.4277,-0.47147 0.3857,-0.11318 0.6577,-0.19506 0.8161,-0.24563 0.1584,-0.05058 0.2655,0.0888 0.3213,0.41814 0.0558,0.32933 0.0878,0.84829 0.0959,1.5569 0.008,0.7086 -0.0373,1.61321 -0.1363,2.7138 -0.0991,1.10059 -0.1825,2.04112 -0.2501,2.82157 -0.0677,0.78045 -0.1025,1.29842 -0.1046,1.55388 -0.002,0.25547 -0.003,0.3832 -0.003,0.3832"
           style="fill:none;stroke:#000000;stroke-width:1.03937;stroke-linecap:round;stroke-linejoin:round;stroke-miterlimit:10;stroke-dasharray:none;stroke-opacity:1"
           id="path714" />
      </g>
      <g
         id="g716"
         transform="matrix(0.5454546,0,0,-0.5454546,0,841.89)">
        <path
           d="m 182.3688,72.37382 c -0.2122,0.01624 -0.3225,0.02469 -0.3312,0.02536 l -0.004,1e-4 0.007,-0.0014 c 0.008,-0.0013 0.0837,-0.01366 0.2268,-0.037 0.1431,-0.02335 0.4189,-0.08791 0.8273,-0.19369 0.4084,-0.10578 0.8336,-0.19259 1.2756,-0.26044 0.4419,-0.06784 0.8023,-0.04342 1.0811,0.07327"
           style="fill:none;stroke:#000000;stroke-width:1.03937;stroke-linecap:round;stroke-linejoin:round;stroke-miterlimit:10;stroke-dasharray:none;stroke-opacity:1"
           id="path718" />
      </g>
      <g
         id="g720"
         transform="matrix(0.5454546,0,0,-0.5454546,0,841.89)">
        <path
           d="m 182.5135,75.86653 c -0.4702,0.17023 -0.7713,0.34031 -0.9033,0.51025 -0.0914,0.11755 -0.1022,0.21308 -0.0325,0.2866 0.0697,0.07351 0.3066,0.10384 0.7108,0.09098 0.5818,-0.01852 1.6228,-0.46722 3.123,-1.3461"
           style="fill:none;stroke:#000000;stroke-width:1.03937;stroke-linecap:round;stroke-linejoin:round;stroke-miterlimit:10;stroke-dasharray:none;stroke-opacity:1"
           id="path722" />
      </g>
      <g
         id="g724"
         transform="matrix(0.5454546,0,0,-0.5454546,0,841.89)">
        <path
           d="m 192.3436,62.83205 c 0.011,-0.17561 -0.005,-0.30465 -0.0473,-0.38711 -0.0293,-0.05675 -0.0476,-0.09206 -0.0547,-0.10595 -0.007,-0.01388 -0.0109,-3.6e-4 -0.0111,0.04058 -2e-4,0.04093 -8e-4,0.14505 -0.002,0.31234 -9e-4,0.16729 -0.0408,0.56959 -0.1197,1.2069 -0.0789,0.63732 -0.2297,1.38479 -0.4521,2.24244 -0.2225,0.85765 -0.4444,1.6376 -0.6656,2.33986 -0.2213,0.70225 -0.3843,1.19798 -0.4891,1.48718 l -0.139,0.38338 0.002,-0.0066 0.0103,-0.02853 -0.0311,0.08558"
           style="fill:none;stroke:#000000;stroke-width:1.03937;stroke-linecap:round;stroke-linejoin:round;stroke-miterlimit:10;stroke-dasharray:none;stroke-opacity:1"
           id="path726" />
      </g>
      <g
         id="g728"
         transform="matrix(0.5454546,0,0,-0.5454546,0,841.89)">
        <path
           d="m 191.8527,66.6109 c 0.2724,-0.55996 0.5626,-0.96507 0.8706,-1.21533 0.2103,-0.17094 0.4957,-0.33513 0.8562,-0.49259 0.3605,-0.15746 0.7698,-0.30414 1.2281,-0.44004 0.4582,-0.1359 0.8858,-0.25219 1.2827,-0.34888 0.397,-0.09669 0.725,-0.1785 0.984,-0.24544 0.259,-0.06694 0.5039,-0.11335 0.7348,-0.13925 0.2309,-0.02589 0.3857,-0.01425 0.4644,0.03493 0.0787,0.04917 0.1513,0.161 0.2177,0.33548 0.0664,0.17448 0.1131,0.51469 0.14,1.02061 0.0269,0.50593 0.0129,1.24684 -0.0422,2.22273 -0.055,0.97589 -0.1579,2.15607 -0.3085,3.54055 -0.1507,1.38447 -0.2956,2.6563 -0.4347,3.8155 -0.1392,1.1592 -0.2465,2.08254 -0.3221,2.77004 -0.0755,0.68749 -0.1378,1.18969 -0.1867,1.50661 -0.0489,0.31692 -0.1109,0.53222 -0.1861,0.64588 -0.0751,0.11367 -0.1745,0.18236 -0.2983,0.20607 -0.1238,0.02373 -0.2727,-0.01264 -0.4466,-0.10908 -0.25,-0.13868 -0.573,-0.5939 -0.9689,-1.36567"
           style="fill:none;stroke:#000000;stroke-width:1.03937;stroke-linecap:round;stroke-linejoin:round;stroke-miterlimit:10;stroke-dasharray:none;stroke-opacity:1"
           id="path730" />
      </g>
      <g
         id="g732"
         transform="matrix(0.5454546,0,0,-0.5454546,0,841.89)">
        <path
           d="m 193.4393,71.89275 c -0.117,0.22822 -0.0462,0.47246 0.2122,0.73272 0.1779,0.17918 0.4806,0.3642 0.9081,0.55505 0.638,0.28483 1.322,0.47592 2.052,0.57326"
           style="fill:none;stroke:#000000;stroke-width:1.03937;stroke-linecap:round;stroke-linejoin:round;stroke-miterlimit:10;stroke-dasharray:none;stroke-opacity:1"
           id="path734" />
      </g>
    </g>
  </g>
</svg>
