<?xml version="1.0" encoding="UTF-8" standalone="no"?>
<!-- Created with Inkscape (http://www.inkscape.org/) -->

<svg
   version="1.1"
   id="svg2"
   width="12.934235"
   height="14.245811"
   viewBox="0 0 12.934235 14.245811"
   sodipodi:docname="E24136542_宋昱宣_預報2.svg"
   inkscape:version="1.2.1 (9c6d41e410, 2022-07-14)"
   xmlns:inkscape="http://www.inkscape.org/namespaces/inkscape"
   xmlns:sodipodi="http://sodipodi.sourceforge.net/DTD/sodipodi-0.dtd"
   xmlns="http://www.w3.org/2000/svg"
   xmlns:svg="http://www.w3.org/2000/svg">
  <defs
     id="defs6" />
  <sodipodi:namedview
     id="namedview4"
     pagecolor="#ffffff"
     bordercolor="#000000"
     borderopacity="0.25"
     inkscape:showpageshadow="2"
     inkscape:pageopacity="0.0"
     inkscape:pagecheckerboard="0"
     inkscape:deskcolor="#d1d1d1"
     showgrid="false"
     inkscape:zoom="2.3786081"
     inkscape:cx="203.48035"
     inkscape:cy="340.32508"
     inkscape:window-width="1600"
     inkscape:window-height="930"
     inkscape:window-x="-6"
     inkscape:window-y="-6"
     inkscape:window-maximized="1"
     inkscape:current-layer="g10" />
  <g
     id="g10"
     inkscape:groupmode="layer"
     inkscape:label="Page 1"
     transform="matrix(1.3333333,0,0,-1.3333333,-279.68484,1056.7355)">
    <g
       id="g660995">
      <g
         id="g1516"
         transform="matrix(0.5454546,0,0,-0.5454546,0,841.89)">
        <path
           d="m 388.8648,91.20309 c 0.0805,-0.13435 0.1248,-0.20829 0.1329,-0.2218 0.006,-0.0095 0.004,-0.01059 -0.006,-0.0033 -0.01,0.0073 -0.0489,0.03766 -0.1184,0.09102 -0.0694,0.05336 -0.2074,0.21913 -0.414,0.49731 -0.2066,0.27818 -0.4563,0.65174 -0.7491,1.12069 -0.2928,0.46895 -0.5799,0.96724 -0.8613,1.49488 -0.2814,0.52764 -0.5025,0.93533 -0.6632,1.22306 -0.1608,0.28774 -0.2755,0.48373 -0.344,0.58799 -0.0685,0.10426 -0.1134,0.17271 -0.1349,0.20534 -0.0214,0.03263 -0.0319,0.14563 -0.0315,0.339 5e-4,0.19338 0.001,0.59896 0.003,1.21675 0.001,0.61779 -0.0126,1.45613 -0.042,2.51503 -0.0294,1.0589 -0.0655,2.127 -0.1085,3.2042 -0.043,1.0773 -0.1082,1.9133 -0.1957,2.5081 -0.0875,0.5948 -0.1504,0.9602 -0.1885,1.0962 -0.0382,0.136 -0.0573,0.204 -0.0573,0.204"
           style="fill:none;stroke:#000000;stroke-width:1.03937;stroke-linecap:round;stroke-linejoin:round;stroke-miterlimit:10;stroke-dasharray:none;stroke-opacity:1"
           id="path1518" />
      </g>
      <g
         id="g1520"
         transform="matrix(0.5454546,0,0,-0.5454546,0,841.89)">
        <path
           d="m 385.8965,97.88867 c 0.0168,-0.19805 0.0172,-0.37864 10e-4,-0.54177 -0.0106,-0.10992 0.1043,-0.22102 0.3447,-0.3333 0.2405,-0.11228 0.5291,-0.23915 0.866,-0.38061 0.3369,-0.14147 0.7111,-0.29039 1.1227,-0.44678 0.4115,-0.15639 0.8221,-0.29867 1.2318,-0.42684 0.4096,-0.12817 0.7591,-0.22343 1.0484,-0.28576 0.2893,-0.06233 0.5007,-0.09558 0.634,-0.09973 0.1334,-0.0042 0.1928,0.16592 0.1783,0.51022 -0.0146,0.34431 -0.0574,0.78295 -0.1285,1.31594 -0.0711,0.53298 -0.165,1.2704 -0.2816,2.21227 -0.1166,0.94189 -0.2304,1.97709 -0.3416,3.10569 -0.1111,1.1286 -0.212,2.0676 -0.3025,2.8169 -0.0906,0.7494 -0.2113,1.3475 -0.362,1.7945"
           style="fill:none;stroke:#000000;stroke-width:1.03937;stroke-linecap:round;stroke-linejoin:round;stroke-miterlimit:10;stroke-dasharray:none;stroke-opacity:1"
           id="path1522" />
      </g>
      <g
         id="g1524"
         transform="matrix(0.5454546,0,0,-0.5454546,0,841.89)">
        <path
           d="m 386.2122,102.6965 c -0.0517,0.0234 -0.0808,0.0365 -0.0872,0.0394 -0.005,0.002 0.0208,-0.003 0.0759,-0.0141 0.0552,-0.0114 0.2466,-0.051 0.5744,-0.1189 0.3278,-0.0678 0.7946,-0.149 1.4003,-0.2434 0.8725,-0.136 1.4786,0.1608 1.8184,0.8904"
           style="fill:none;stroke:#000000;stroke-width:1.03937;stroke-linecap:round;stroke-linejoin:round;stroke-miterlimit:10;stroke-dasharray:none;stroke-opacity:1"
           id="path1526" />
      </g>
      <g
         id="g1528"
         transform="matrix(0.5454546,0,0,-0.5454546,0,841.89)">
        <path
           d="m 386.279,107.1949 c -0.0739,0.099 -0.2643,0.2694 -0.5714,0.5112 -0.307,0.2417 -0.4699,0.3841 -0.4888,0.4272 -0.0189,0.043 0.0983,0.0631 0.3517,0.0602 0.2534,-0.003 0.6548,-0.0972 1.2044,-0.283 0.8008,-0.2706 1.9492,-0.7929 3.4452,-1.5668"
           style="fill:none;stroke:#000000;stroke-width:1.03937;stroke-linecap:round;stroke-linejoin:round;stroke-miterlimit:10;stroke-dasharray:none;stroke-opacity:1"
           id="path1530" />
      </g>
      <g
         id="g1532"
         transform="matrix(0.5454546,0,0,-0.5454546,0,841.89)">
        <path
           d="m 395.9175,92.68253 c 0,-0.04579 10e-5,-0.07386 0,-0.08423 0,-0.0072 -0.0141,0.03534 -0.0424,0.12768 -0.0282,0.09235 -0.0902,0.2948 -0.1859,0.60735 -0.0957,0.31254 -0.2682,0.84329 -0.5176,1.59222 -0.2495,0.74894 -0.4896,1.4476 -0.7203,2.09596 -0.2308,0.64837 -0.4275,1.12426 -0.5901,1.42766 -0.1626,0.30341 -0.3565,0.43864 -0.5817,0.4057"
           style="fill:none;stroke:#000000;stroke-width:1.03937;stroke-linecap:round;stroke-linejoin:round;stroke-miterlimit:10;stroke-dasharray:none;stroke-opacity:1"
           id="path1534" />
      </g>
      <g
         id="g1536"
         transform="matrix(0.5454546,0,0,-0.5454546,0,841.89)">
        <path
           d="m 394.9035,96.73452 c 0.1523,-0.31454 0.3254,-0.56819 0.5192,-0.76095 0.1311,-0.13043 0.3362,-0.28004 0.6152,-0.44883 0.279,-0.16879 0.633,-0.34309 1.0619,-0.52292 0.4289,-0.17983 0.8803,-0.34986 1.3542,-0.51009 0.474,-0.16022 0.9139,-0.31451 1.3197,-0.46288 0.4059,-0.14836 0.7268,-0.26327 0.9625,-0.34472 0.2358,-0.08146 0.4221,-0.13409 0.5589,-0.15791 0.1368,-0.02381 0.222,-0.0043 0.2557,0.05848 0.0338,0.0628 0.0705,0.19502 0.1101,0.39666 0.0397,0.20164 0.0715,0.51645 0.0955,0.94444 0.024,0.42799 0.0422,1.03339 0.0546,1.8162 0.0124,0.78283 0.0192,1.70222 0.0205,2.7582 10e-4,1.056 -0.0232,2.1008 -0.0731,3.1346 -0.0499,1.0338 -0.1487,1.9422 -0.2963,2.7253 -0.1476,0.7831 -0.3102,1.4163 -0.4876,1.8998 -0.1774,0.4834 -0.3545,0.8983 -0.5311,1.2446 -0.1767,0.3463 -0.3501,0.6048 -0.5205,0.7754 -0.1703,0.1705 -0.3221,0.2508 -0.4555,0.2409 -0.1903,-0.0142 -0.3731,-0.2685 -0.5483,-0.763"
           style="fill:none;stroke:#000000;stroke-width:1.03937;stroke-linecap:round;stroke-linejoin:round;stroke-miterlimit:10;stroke-dasharray:none;stroke-opacity:1"
           id="path1538" />
      </g>
      <g
         id="g1540"
         transform="matrix(0.5454546,0,0,-0.5454546,0,841.89)">
        <path
           d="m 396.0844,101.037 c 0.1105,0.027 0.3053,0.1637 0.5843,0.4101 0.4099,0.3619 0.9887,0.7108 1.7365,1.0467"
           style="fill:none;stroke:#000000;stroke-width:1.03937;stroke-linecap:round;stroke-linejoin:round;stroke-miterlimit:10;stroke-dasharray:none;stroke-opacity:1"
           id="path1542" />
      </g>
    </g>
  </g>
</svg>
