<svg xmlns="http://www.w3.org/2000/svg" width="12.934" height="14.246"><path d="m388.865 91.203.133-.222q.009-.014-.006-.003l-.119.091q-.104.08-.414.497-.31.418-.749 1.121-.44.703-.861 1.495a77 77 0 0 1-.663 1.223q-.242.432-.344.588l-.135.205q-.032.05-.032.34l.003 1.216q.002.927-.042 2.515t-.108 3.204-.196 2.508q-.13.892-.188 1.097l-.058.204" style="fill:none;stroke:#000;stroke-width:1.03937;stroke-linecap:round;stroke-linejoin:round;stroke-miterlimit:10;stroke-dasharray:none;stroke-opacity:1" transform="matrix(.72727 0 0 .72727 -279.685 -65.784)"/><path d="M385.897 97.889a3 3 0 0 0 0-.542q-.015-.165.345-.333.361-.17.866-.381.505-.212 1.123-.447a22 22 0 0 1 1.232-.427q.615-.192 1.048-.285.434-.094.634-.1t.178.51a15 15 0 0 1-.128 1.316q-.107.8-.282 2.212-.174 1.413-.341 3.106a132 132 0 0 1-.303 2.817q-.135 1.124-.362 1.794" style="fill:none;stroke:#000;stroke-width:1.03937;stroke-linecap:round;stroke-linejoin:round;stroke-miterlimit:10;stroke-dasharray:none;stroke-opacity:1" transform="matrix(.72727 0 0 .72727 -279.685 -65.784)"/><path d="m386.212 102.697-.087.039a30.814 30.814 0 0 1 2.05-.376q1.31-.204 1.819.89" style="fill:none;stroke:#000;stroke-width:1.03937;stroke-linecap:round;stroke-linejoin:round;stroke-miterlimit:10;stroke-dasharray:none;stroke-opacity:1" transform="matrix(.72727 0 0 .72727 -279.685 -65.784)"/><path d="M386.279 107.195q-.11.149-.571.511-.46.363-.49.427-.026.064.352.06.38-.004 1.205-.282 1.201-.406 3.445-1.567" style="fill:none;stroke:#000;stroke-width:1.03937;stroke-linecap:round;stroke-linejoin:round;stroke-miterlimit:10;stroke-dasharray:none;stroke-opacity:1" transform="matrix(.72727 0 0 .72727 -279.685 -65.784)"/><path d="M395.918 92.683v-.085a1 1 0 0 0-.043.128l-.186.607q-.143.47-.517 1.593-.375 1.122-.72 2.096-.347.972-.59 1.427-.244.456-.583.406" style="fill:none;stroke:#000;stroke-width:1.03937;stroke-linecap:round;stroke-linejoin:round;stroke-miterlimit:10;stroke-dasharray:none;stroke-opacity:1" transform="matrix(.72727 0 0 .72727 -279.685 -65.784)"/><path d="M394.904 96.735q.228-.473.519-.761.196-.195.615-.45a8 8 0 0 1 1.062-.522q.643-.27 1.354-.51t1.32-.463q.61-.223.962-.345.353-.122.56-.158.204-.036.255.059.05.095.11.396.06.303.095.945t.055 1.816.02 2.758-.073 3.135a20 20 0 0 1-.296 2.725q-.221 1.174-.487 1.9-.267.724-.532 1.245-.265.519-.52.775-.255.255-.456.24-.285-.02-.548-.762" style="fill:none;stroke:#000;stroke-width:1.03937;stroke-linecap:round;stroke-linejoin:round;stroke-miterlimit:10;stroke-dasharray:none;stroke-opacity:1" transform="matrix(.72727 0 0 .72727 -279.685 -65.784)"/><path d="M396.084 101.037q.166.04.585.41.615.542 1.736 1.047" style="fill:none;stroke:#000;stroke-width:1.03937;stroke-linecap:round;stroke-linejoin:round;stroke-miterlimit:10;stroke-dasharray:none;stroke-opacity:1" transform="matrix(.72727 0 0 .72727 -279.685 -65.784)"/></svg>