<svg xmlns="http://www.w3.org/2000/svg" width="14.161" height="14.847"><path d="M65.322 91.512q-.005-.465.031-.511.026-.034.128.126t.28.664q.18.504.397 1.225.325 1.082.336 2.17" style="fill:none;stroke:#000;stroke-width:1.03937;stroke-linecap:round;stroke-linejoin:round;stroke-miterlimit:10;stroke-dasharray:none;stroke-opacity:1" transform="matrix(.72727 0 0 .72727 -45.03 -65.2)"/><path d="m64.19 97.403.02-.266.001.013-.006.25q-.005.202.13.887.135.687.263 1.765.192 1.62-.044 3.148" style="fill:none;stroke:#000;stroke-width:1.03937;stroke-linecap:round;stroke-linejoin:round;stroke-miterlimit:10;stroke-dasharray:none;stroke-opacity:1" transform="matrix(.72727 0 0 .72727 -45.03 -65.2)"/><path d="M62.887 107.36q-.365.41-.413.478l-.04.055q-.005.007.01-.002l.111-.07q.096-.058.699-.648.865-.844 4.5-4.708" style="fill:none;stroke:#000;stroke-width:1.03937;stroke-linecap:round;stroke-linejoin:round;stroke-miterlimit:10;stroke-dasharray:none;stroke-opacity:1" transform="matrix(.72727 0 0 .72727 -45.03 -65.2)"/><path d="M69.253 95.812q-.345.02-.36.02l.012-.002.393-.065q.372-.06 1.22-.316a37 37 0 0 0 2.075-.709q1.23-.453 2.352-.892a28 28 0 0 1 1.763-.636q.64-.197.698-.467" style="fill:none;stroke:#000;stroke-width:1.03937;stroke-linecap:round;stroke-linejoin:round;stroke-miterlimit:10;stroke-dasharray:none;stroke-opacity:1" transform="matrix(.72727 0 0 .72727 -45.03 -65.2)"/><path d="M74.22 90.4q-.087-.181-.197-.235-.076-.037-.133.019t-.435 1.328-.77 2.55a46 46 0 0 1-.85 2.509q-.458 1.23-.787 2.036a76 76 0 0 0-.613 1.537q-.018.047.011.041l.24-.049q.212-.043.64-.15a7.4 7.4 0 0 0 .99-.337 18 18 0 0 0 1.248-.575 25 25 0 0 0 2.014-1.13" style="fill:none;stroke:#000;stroke-width:1.03937;stroke-linecap:round;stroke-linejoin:round;stroke-miterlimit:10;stroke-dasharray:none;stroke-opacity:1" transform="matrix(.72727 0 0 .72727 -45.03 -65.2)"/><path d="M76.027 96.41q-.31-.066-.338.04-.02.075.054.426.072.35.23.932.156.582.325 1.232.248.947-.243 2.503" style="fill:none;stroke:#000;stroke-width:1.03937;stroke-linecap:round;stroke-linejoin:round;stroke-miterlimit:10;stroke-dasharray:none;stroke-opacity:1" transform="matrix(.72727 0 0 .72727 -45.03 -65.2)"/><path d="M69.628 103.702q-.024-.25-.038-.227l-.048.083q-.04.066-.142.553t-.36 1.278a19 19 0 0 1-.689 1.759 17 17 0 0 1-.75 1.529 2.4 2.4 0 0 1-.824.87" style="fill:none;stroke:#000;stroke-width:1.03937;stroke-linecap:round;stroke-linejoin:round;stroke-miterlimit:10;stroke-dasharray:none;stroke-opacity:1" transform="matrix(.72727 0 0 .72727 -45.03 -65.2)"/><path d="m72.26 102.763-.01-.308v-.002l-.001.02-.026.455q-.026.43-.117 1.127-.09.696-.22 1.468-.127.772-.234 1.245" style="fill:none;stroke:#000;stroke-width:1.03937;stroke-linecap:round;stroke-linejoin:round;stroke-miterlimit:10;stroke-dasharray:none;stroke-opacity:1" transform="matrix(.72727 0 0 .72727 -45.03 -65.2)"/><path d="m74.604 102.84.022-.244h0l-.004.037-.098.856a22 22 0 0 0-.124 1.488q-.03.675-.01 1.17.021.494.162.747a.8.8 0 0 0 .365.359q.223.105.554.126.33.02.842-.086.51-.108 1.189-.342.677-.235 1.397-.522.718-.287 1.218-.51.501-.224.75-.594" style="fill:none;stroke:#000;stroke-width:1.03937;stroke-linecap:round;stroke-linejoin:round;stroke-miterlimit:10;stroke-dasharray:none;stroke-opacity:1" transform="matrix(.72727 0 0 .72727 -45.03 -65.2)"/></svg>