<?xml version="1.0" encoding="UTF-8" standalone="no"?>
<!-- Created with Inkscape (http://www.inkscape.org/) -->

<svg
   version="1.1"
   id="svg2"
   width="14.161491"
   height="14.847031"
   viewBox="0 0 14.161491 14.84703"
   sodipodi:docname="E24136542_宋昱宣_預報2.svg"
   inkscape:version="1.2.1 (9c6d41e410, 2022-07-14)"
   xmlns:inkscape="http://www.inkscape.org/namespaces/inkscape"
   xmlns:sodipodi="http://sodipodi.sourceforge.net/DTD/sodipodi-0.dtd"
   xmlns="http://www.w3.org/2000/svg"
   xmlns:svg="http://www.w3.org/2000/svg">
  <defs
     id="defs6" />
  <sodipodi:namedview
     id="namedview4"
     pagecolor="#ffffff"
     bordercolor="#000000"
     borderopacity="0.25"
     inkscape:showpageshadow="2"
     inkscape:pageopacity="0.0"
     inkscape:pagecheckerboard="0"
     inkscape:deskcolor="#d1d1d1"
     showgrid="false"
     inkscape:zoom="2.3786081"
     inkscape:cx="203.48035"
     inkscape:cy="340.32508"
     inkscape:window-width="1600"
     inkscape:window-height="930"
     inkscape:window-x="-6"
     inkscape:window-y="-6"
     inkscape:window-maximized="1"
     inkscape:current-layer="g10" />
  <g
     id="g10"
     inkscape:groupmode="layer"
     inkscape:label="Page 1"
     transform="matrix(1.3333333,0,0,-1.3333333,-45.02914,1057.3191)">
    <g
       id="g424790">
      <g
         id="g1140"
         transform="matrix(0.5454546,0,0,-0.5454546,0,841.89)">
        <path
           d="m 65.32195,91.51214 c -0.0031,-0.30954 0.0073,-0.48005 0.03135,-0.51154 0.01689,-0.02214 0.05934,0.02016 0.12734,0.12687 0.06801,0.10672 0.16171,0.32792 0.28112,0.66359 0.11941,0.33567 0.25141,0.744 0.39598,1.22501 0.21682,0.72137 0.32882,1.44491 0.33599,2.17062"
           style="fill:none;stroke:#000000;stroke-width:1.03937;stroke-linecap:round;stroke-linejoin:round;stroke-miterlimit:10;stroke-dasharray:none;stroke-opacity:1"
           id="path1142" />
      </g>
      <g
         id="g1144"
         transform="matrix(0.5454546,0,0,-0.5454546,0,841.89)">
        <path
           d="m 64.18978,97.40298 0.02115,-0.26559 2.1e-4,0.01248 c -7.7e-4,0.03346 -0.0027,0.11713 -0.0057,0.25099 -0.003,0.13387 0.04032,0.42937 0.13008,0.88651 0.08977,0.45714 0.17731,1.04526 0.26261,1.76433 0.12806,1.0797 0.1132,2.1289 -0.04457,3.1479"
           style="fill:none;stroke:#000000;stroke-width:1.03937;stroke-linecap:round;stroke-linejoin:round;stroke-miterlimit:10;stroke-dasharray:none;stroke-opacity:1"
           id="path1146" />
      </g>
      <g
         id="g1148"
         transform="matrix(0.5454546,0,0,-0.5454546,0,841.89)">
        <path
           d="m 62.88678,107.3606 c -0.24317,0.2736 -0.38079,0.4328 -0.41288,0.4776 -0.02248,0.0314 -0.03548,0.0495 -0.03899,0.0544 -0.0035,0.005 -2.9e-4,0.004 0.0097,-0.002 0.01,-0.006 0.04683,-0.0292 0.11058,-0.0689 0.06375,-0.0396 0.29669,-0.2558 0.69882,-0.6484 0.5766,-0.5629 2.07637,-2.1323 4.4993,-4.7081"
           style="fill:none;stroke:#000000;stroke-width:1.03937;stroke-linecap:round;stroke-linejoin:round;stroke-miterlimit:10;stroke-dasharray:none;stroke-opacity:1"
           id="path1150" />
      </g>
      <g
         id="g1152"
         transform="matrix(0.5454546,0,0,-0.5454546,0,841.89)">
        <path
           d="m 69.25262,95.81245 c -0.23017,0.01313 -0.34976,0.01996 -0.35875,0.02047 -0.0064,3.6e-4 -0.0028,-5.8e-4 0.01079,-0.0028 0.01355,-0.0022 0.1446,-0.02384 0.39316,-0.06481 0.24857,-0.04098 0.65517,-0.14645 1.2198,-0.31642 0.56464,-0.16997 1.2565,-0.40615 2.07558,-0.70853 0.81908,-0.30238 1.60303,-0.59968 2.35184,-0.8919 0.7488,-0.29222 1.33644,-0.50425 1.76292,-0.6361 0.42648,-0.13185 0.65921,-0.28749 0.69821,-0.4669"
           style="fill:none;stroke:#000000;stroke-width:1.03937;stroke-linecap:round;stroke-linejoin:round;stroke-miterlimit:10;stroke-dasharray:none;stroke-opacity:1"
           id="path1154" />
      </g>
      <g
         id="g1156"
         transform="matrix(0.5454546,0,0,-0.5454546,0,841.89)">
        <path
           d="m 74.22026,90.39973 c -0.0579,-0.12063 -0.12369,-0.19888 -0.19737,-0.23477 -0.05061,-0.02465 -0.09502,-0.0184 -0.13324,0.01875 -0.03822,0.03714 -0.18308,0.47985 -0.43459,1.32812 -0.25151,0.84827 -0.50811,1.69828 -0.7698,2.55003 -0.26168,0.85175 -0.54512,1.68798 -0.85031,2.50867 -0.3052,0.8207 -0.56752,1.4994 -0.78697,2.03611 -0.21945,0.5367 -0.37342,0.91937 -0.46192,1.14799 -0.0885,0.22862 -0.13876,0.35847 -0.15079,0.38957 -0.01203,0.0311 -0.0085,0.0447 0.01071,0.0408 0.01917,-0.004 0.09928,-0.0202 0.24031,-0.0489 0.14103,-0.0287 0.35452,-0.0788 0.64046,-0.15034 0.28595,-0.0715 0.61558,-0.18375 0.98889,-0.33674 0.3733,-0.153 0.78945,-0.34473 1.24845,-0.57519 0.6883,-0.34561 1.3595,-0.72219 2.01362,-1.12975"
           style="fill:none;stroke:#000000;stroke-width:1.03937;stroke-linecap:round;stroke-linejoin:round;stroke-miterlimit:10;stroke-dasharray:none;stroke-opacity:1"
           id="path1158" />
      </g>
      <g
         id="g1160"
         transform="matrix(0.5454546,0,0,-0.5454546,0,841.89)">
        <path
           d="m 76.02726,96.41064 c -0.20674,-0.04458 -0.31941,-0.03147 -0.33802,0.03934 -0.01315,0.05003 0.0046,0.19187 0.05337,0.42554 0.04874,0.23367 0.12528,0.5445 0.22963,0.93247 0.10434,0.38798 0.21303,0.79852 0.32606,1.23164 0.16482,0.63155 0.08382,1.46597 -0.24299,2.50337"
           style="fill:none;stroke:#000000;stroke-width:1.03937;stroke-linecap:round;stroke-linejoin:round;stroke-miterlimit:10;stroke-dasharray:none;stroke-opacity:1"
           id="path1162" />
      </g>
      <g
         id="g1164"
         transform="matrix(0.5454546,0,0,-0.5454546,0,841.89)">
        <path
           d="m 69.62814,103.702 c -0.01609,-0.1666 -0.02871,-0.2421 -0.03785,-0.2266 -0.0065,0.011 -0.02275,0.0385 -0.04876,0.0826 -0.026,0.044 -0.07305,0.2285 -0.14114,0.5534 -0.06808,0.325 -0.18843,0.7508 -0.36102,1.2775 -0.1726,0.5268 -0.40204,1.1131 -0.68831,1.7591 -0.28627,0.6459 -0.53631,1.1556 -0.75012,1.529 -0.21381,0.3734 -0.48849,0.6631 -0.82403,0.8692"
           style="fill:none;stroke:#000000;stroke-width:1.03937;stroke-linecap:round;stroke-linejoin:round;stroke-miterlimit:10;stroke-dasharray:none;stroke-opacity:1"
           id="path1166" />
      </g>
      <g
         id="g1168"
         transform="matrix(0.5454546,0,0,-0.5454546,0,841.89)">
        <path
           d="m 72.2597,102.7625 c -0.0058,-0.1964 -0.0088,-0.2988 -0.0091,-0.3073 l -2.2e-4,-0.002 -0.0015,0.0192 c -0.001,0.0172 -0.0098,0.1692 -0.02633,0.4559 -0.01656,0.2868 -0.05526,0.6622 -0.1161,1.1263 -0.06085,0.4641 -0.13404,0.9535 -0.21957,1.468 -0.08554,0.5146 -0.16376,0.9295 -0.23467,1.2449"
           style="fill:none;stroke:#000000;stroke-width:1.03937;stroke-linecap:round;stroke-linejoin:round;stroke-miterlimit:10;stroke-dasharray:none;stroke-opacity:1"
           id="path1170" />
      </g>
      <g
         id="g1172"
         transform="matrix(0.5454546,0,0,-0.5454546,0,841.89)">
        <path
           d="m 74.60367,102.8406 c 0.01436,-0.157 0.02181,-0.2385 0.02235,-0.2444 l 6e-5,-8e-4 -0.0044,0.0374 c -0.0033,0.0287 -0.03586,0.3139 -0.09778,0.8558 -0.06191,0.5418 -0.10326,1.0379 -0.12404,1.4882 -0.02078,0.4504 -0.02407,0.8403 -0.0099,1.1698 0.01419,0.3295 0.06829,0.5787 0.1623,0.7476 0.09401,0.1689 0.21547,0.2884 0.36438,0.3584 0.14891,0.07 0.33373,0.1121 0.55445,0.1263 0.22072,0.0142 0.50133,-0.0145 0.84183,-0.086 0.34051,-0.0715 0.73674,-0.1855 1.1887,-0.3421 0.45196,-0.1566 0.91763,-0.3305 1.397,-0.5217 0.47936,-0.1912 0.88565,-0.3612 1.21887,-0.51 0.33321,-0.1487 0.58319,-0.3469 0.74994,-0.5945"
           style="fill:none;stroke:#000000;stroke-width:1.03937;stroke-linecap:round;stroke-linejoin:round;stroke-miterlimit:10;stroke-dasharray:none;stroke-opacity:1"
           id="path1174" />
      </g>
    </g>
  </g>
</svg>
