<svg xmlns="http://www.w3.org/2000/svg" width="9.618" height="13.882"><path d="M474.775 98.054q-.167.02-.177.318-.009.3-.01 1.305 0 1.005-.03 2.408t-.092 2.32q-.062.918-.027 1.19" style="fill:none;stroke:#000;stroke-width:1.03937;stroke-linecap:round;stroke-linejoin:round;stroke-miterlimit:10;stroke-dasharray:none;stroke-opacity:1" transform="matrix(.72727 0 0 .72727 -344.59 -67.508)"/><path d="M475.122 98.585a2 2 0 0 1 0-.426q.014-.069.206-.154.19-.085.558-.203.367-.118.856-.255.49-.138.886-.235.397-.097.627-.137.229-.039.306-.043.077-.005.077.792 0 .796-.072 1.888-.072 1.093-.123 2.615a92 92 0 0 0-.056 2.654q-.005 1.133.072 1.46" style="fill:none;stroke:#000;stroke-width:1.03937;stroke-linecap:round;stroke-linejoin:round;stroke-miterlimit:10;stroke-dasharray:none;stroke-opacity:1" transform="matrix(.72727 0 0 .72727 -344.59 -67.508)"/><path d="M475.51 102.767q-.419-.287-.296-.29.087-.004.437-.013.35-.01.868-.01.774 0 1.595.132" style="fill:none;stroke:#000;stroke-width:1.03937;stroke-linecap:round;stroke-linejoin:round;stroke-miterlimit:10;stroke-dasharray:none;stroke-opacity:1" transform="matrix(.72727 0 0 .72727 -344.59 -67.508)"/><path d="M475.03 106.284a2 2 0 0 0-.462.163.8.8 0 0 0-.221.141q-.056.062.058.107.113.046.542.016t1.099-.265q.977-.345 2.366-1.593" style="fill:none;stroke:#000;stroke-width:1.03937;stroke-linecap:round;stroke-linejoin:round;stroke-miterlimit:10;stroke-dasharray:none;stroke-opacity:1" transform="matrix(.72727 0 0 .72727 -344.59 -67.508)"/><path d="m480.58 99.15-.398-.123q-.02-.007.027-.008l.493-.018q.445-.016 1.285-.222.839-.205 1.848-.613a41 41 0 0 0 1.652-.703l.644-.295" style="fill:none;stroke:#000;stroke-width:1.03937;stroke-linecap:round;stroke-linejoin:round;stroke-miterlimit:10;stroke-dasharray:none;stroke-opacity:1" transform="matrix(.72727 0 0 .72727 -344.59 -67.508)"/><path d="M484.37 93.492a2 2 0 0 0-.351-.15q-.065-.015-.095.194-.03.207-.035 1.997a663 663 0 0 1-.009 2.765q-.006.976-.1 1.417-.135.633-1.645 1.514" style="fill:none;stroke:#000;stroke-width:1.03937;stroke-linecap:round;stroke-linejoin:round;stroke-miterlimit:10;stroke-dasharray:none;stroke-opacity:1" transform="matrix(.72727 0 0 .72727 -344.59 -67.508)"/><path d="M479.996 102.01a1.2 1.2 0 0 0-.49.133 1 1 0 0 0-.178.12q-.051.048.043.067t.65-.069q.556-.088 1.468-.39a71 71 0 0 0 1.938-.675q1.026-.373 1.848-.318" style="fill:none;stroke:#000;stroke-width:1.03937;stroke-linecap:round;stroke-linejoin:round;stroke-miterlimit:10;stroke-dasharray:none;stroke-opacity:1" transform="matrix(.72727 0 0 .72727 -344.59 -67.508)"/><path d="M479.165 105.695q-.333.068-.229.074l.378.023q.303.019 1.407-.298 1.105-.318 2.64-.946 2.586-1.06 3.155-1.46" style="fill:none;stroke:#000;stroke-width:1.03937;stroke-linecap:round;stroke-linejoin:round;stroke-miterlimit:10;stroke-dasharray:none;stroke-opacity:1" transform="matrix(.72727 0 0 .72727 -344.59 -67.508)"/><path d="M484.083 101.581a8 8 0 0 0-.43-.512l-.087-.085q-.02-.02-.01.033l.05.223q.036.168.16.872.126.704.178 1.989.052 1.284-.092 2.888-.144 1.605-.358 2.562-.213.957-.344 1.306-.132.348-.214.428a.4.4 0 0 1-.255.099q-.173.017-.493-.01-.465-.042-1.182-.595" style="fill:none;stroke:#000;stroke-width:1.03937;stroke-linecap:round;stroke-linejoin:round;stroke-miterlimit:10;stroke-dasharray:none;stroke-opacity:1" transform="matrix(.72727 0 0 .72727 -344.59 -67.508)"/><path d="M480.24 108.672q.03-.108-.04-.15l-.053-.031.123.042q.126.045.067-.011-.084-.079 2.126-.414" style="fill:none;stroke:#000;stroke-width:1.03937;stroke-linecap:round;stroke-linejoin:round;stroke-miterlimit:10;stroke-dasharray:none;stroke-opacity:1" transform="matrix(.72727 0 0 .72727 -344.59 -67.508)"/></svg>