<?xml version="1.0" encoding="UTF-8" standalone="no"?>
<!-- Created with Inkscape (http://www.inkscape.org/) -->

<svg
   version="1.1"
   id="svg2"
   width="9.6178589"
   height="13.881523"
   viewBox="0 0 9.6178589 13.881523"
   sodipodi:docname="E24136542_宋昱宣_預報2.svg"
   inkscape:version="1.2.1 (9c6d41e410, 2022-07-14)"
   xmlns:inkscape="http://www.inkscape.org/namespaces/inkscape"
   xmlns:sodipodi="http://sodipodi.sourceforge.net/DTD/sodipodi-0.dtd"
   xmlns="http://www.w3.org/2000/svg"
   xmlns:svg="http://www.w3.org/2000/svg">
  <defs
     id="defs6" />
  <sodipodi:namedview
     id="namedview4"
     pagecolor="#ffffff"
     bordercolor="#000000"
     borderopacity="0.25"
     inkscape:showpageshadow="2"
     inkscape:pageopacity="0.0"
     inkscape:pagecheckerboard="0"
     inkscape:deskcolor="#d1d1d1"
     showgrid="false"
     inkscape:zoom="2.3786081"
     inkscape:cx="203.48035"
     inkscape:cy="340.32508"
     inkscape:window-width="1600"
     inkscape:window-height="930"
     inkscape:window-x="-6"
     inkscape:window-y="-6"
     inkscape:window-maximized="1"
     inkscape:current-layer="g10" />
  <g
     id="g10"
     inkscape:groupmode="layer"
     inkscape:label="Page 1"
     transform="matrix(1.3333333,0,0,-1.3333333,-344.58993,1055.0118)">
    <g
       id="g743689">
      <g
         id="g1636"
         transform="matrix(0.5454546,0,0,-0.5454546,0,841.89)">
        <path
           d="m 474.7749,98.05414 c -0.1118,0.0126 -0.1707,0.1187 -0.1767,0.31829 -0.006,0.19959 -0.009,0.63436 -0.01,1.30431 -5e-4,0.66996 -0.0106,1.47276 -0.03,2.40856 -0.0195,0.9358 -0.0502,1.7092 -0.0922,2.3205 -0.0419,0.6112 -0.0509,1.0077 -0.0268,1.1893"
           style="fill:none;stroke:#000000;stroke-width:1.03937;stroke-linecap:round;stroke-linejoin:round;stroke-miterlimit:10;stroke-dasharray:none;stroke-opacity:1"
           id="path1638" />
      </g>
      <g
         id="g1640"
         transform="matrix(0.5454546,0,0,-0.5454546,0,841.89)">
        <path
           d="m 475.1223,98.5851 c -0.014,-0.21854 -0.014,-0.36065 -10e-5,-0.42633 0.01,-0.04562 0.0782,-0.09681 0.2055,-0.15358 0.1273,-0.05678 0.3134,-0.12447 0.5582,-0.20307 0.2449,-0.0786 0.5303,-0.16369 0.8563,-0.25528 0.3261,-0.09158 0.6214,-0.16987 0.8861,-0.23484 0.2647,-0.06498 0.4735,-0.11061 0.6263,-0.13692 0.1529,-0.0263 0.2551,-0.04077 0.3067,-0.0434 0.0516,-0.0026 0.0771,0.26132 0.0765,0.79184 -5e-4,0.53053 -0.0245,1.1601 -0.0721,1.88873 -0.0475,0.72865 -0.0884,1.60025 -0.1225,2.61475 -0.0342,1.0145 -0.053,1.8993 -0.0564,2.6544 -0.003,0.755 0.0208,1.2414 0.0727,1.459"
           style="fill:none;stroke:#000000;stroke-width:1.03937;stroke-linecap:round;stroke-linejoin:round;stroke-miterlimit:10;stroke-dasharray:none;stroke-opacity:1"
           id="path1642" />
      </g>
      <g
         id="g1644"
         transform="matrix(0.5454546,0,0,-0.5454546,0,841.89)">
        <path
           d="m 475.5098,102.7673 c -0.2788,-0.1916 -0.3775,-0.2885 -0.2961,-0.2908 0.0583,-0.002 0.2039,-0.006 0.437,-0.0127 0.233,-0.007 0.5224,-0.0101 0.868,-0.0102 0.516,-10e-5 1.0479,0.044 1.5957,0.1323"
           style="fill:none;stroke:#000000;stroke-width:1.03937;stroke-linecap:round;stroke-linejoin:round;stroke-miterlimit:10;stroke-dasharray:none;stroke-opacity:1"
           id="path1646" />
      </g>
      <g
         id="g1648"
         transform="matrix(0.5454546,0,0,-0.5454546,0,841.89)">
        <path
           d="m 475.0308,106.2838 c -0.1409,0.0284 -0.2952,0.0827 -0.4627,0.163 -0.1101,0.0529 -0.1838,0.0999 -0.2211,0.1412 -0.0373,0.0413 -0.0181,0.0771 0.0576,0.1073 0.0758,0.0302 0.2566,0.0356 0.5426,0.0161 0.2859,-0.0195 0.6522,-0.108 1.0987,-0.2657 0.6512,-0.23 1.44,-0.761 2.3663,-1.593"
           style="fill:none;stroke:#000000;stroke-width:1.03937;stroke-linecap:round;stroke-linejoin:round;stroke-miterlimit:10;stroke-dasharray:none;stroke-opacity:1"
           id="path1650" />
      </g>
      <g
         id="g1652"
         transform="matrix(0.5454546,0,0,-0.5454546,0,841.89)">
        <path
           d="m 480.5806,99.14948 c -0.2469,-0.07602 -0.3799,-0.11699 -0.3991,-0.12291 -0.0136,-0.0042 -0.004,-0.0068 0.0274,-0.008 0.0318,-0.0011 0.1961,-0.007 0.4931,-0.01764 0.2969,-0.01062 0.7251,-0.08445 1.2845,-0.22148 0.5594,-0.13703 1.1755,-0.34158 1.8483,-0.61367 0.6728,-0.27208 1.2237,-0.50635 1.6526,-0.7028 0.4288,-0.19646 0.6433,-0.2947 0.6433,-0.2947"
           style="fill:none;stroke:#000000;stroke-width:1.03937;stroke-linecap:round;stroke-linejoin:round;stroke-miterlimit:10;stroke-dasharray:none;stroke-opacity:1"
           id="path1654" />
      </g>
      <g
         id="g1656"
         transform="matrix(0.5454546,0,0,-0.5454546,0,841.89)">
        <path
           d="m 484.3704,93.49239 c -0.1722,-0.0876 -0.2893,-0.13794 -0.3514,-0.15102 -0.043,-0.0091 -0.0748,0.0557 -0.0954,0.19434 -0.0205,0.13863 -0.0319,0.8043 -0.0342,1.997 -0.002,1.19272 -0.005,2.11454 -0.009,2.76548 -0.004,0.65093 -0.0371,1.12328 -0.1,1.41704 -0.0904,0.42177 -0.6389,0.92637 -1.6455,1.51397"
           style="fill:none;stroke:#000000;stroke-width:1.03937;stroke-linecap:round;stroke-linejoin:round;stroke-miterlimit:10;stroke-dasharray:none;stroke-opacity:1"
           id="path1658" />
      </g>
      <g
         id="g1660"
         transform="matrix(0.5454546,0,0,-0.5454546,0,841.89)">
        <path
           d="m 479.9955,102.0107 c -0.2038,0.0173 -0.3671,0.0614 -0.4899,0.1322 -0.0836,0.0483 -0.1427,0.0883 -0.1774,0.1201 -0.0346,0.0319 -0.0205,0.0543 0.0423,0.0674 0.0629,0.0131 0.2798,-0.01 0.6509,-0.0689 0.371,-0.059 0.8603,-0.1891 1.468,-0.3904 0.6076,-0.2012 1.2534,-0.4262 1.9373,-0.675 0.6839,-0.2488 1.3,-0.3549 1.8484,-0.3182"
           style="fill:none;stroke:#000000;stroke-width:1.03937;stroke-linecap:round;stroke-linejoin:round;stroke-miterlimit:10;stroke-dasharray:none;stroke-opacity:1"
           id="path1662" />
      </g>
      <g
         id="g1664"
         transform="matrix(0.5454546,0,0,-0.5454546,0,841.89)">
        <path
           d="m 479.1654,105.6947 c -0.2227,0.0454 -0.2991,0.0703 -0.2291,0.0745 0.0504,0.003 0.1764,0.0109 0.378,0.0232 0.2017,0.0124 0.6707,-0.0871 1.4072,-0.2985 0.7364,-0.2115 1.616,-0.5267 2.6387,-0.9458 1.7246,-0.7067 2.7766,-1.1933 3.1558,-1.4598"
           style="fill:none;stroke:#000000;stroke-width:1.03937;stroke-linecap:round;stroke-linejoin:round;stroke-miterlimit:10;stroke-dasharray:none;stroke-opacity:1"
           id="path1666" />
      </g>
      <g
         id="g1668"
         transform="matrix(0.5454546,0,0,-0.5454546,0,841.89)">
        <path
           d="m 484.0826,101.5814 c -0.2235,-0.2797 -0.3668,-0.4504 -0.4299,-0.5121 -0.0439,-0.043 -0.0729,-0.0713 -0.0869,-0.085 -0.014,-0.0137 -0.0172,-0.003 -0.009,0.0331 0.008,0.0359 0.0239,0.1099 0.0484,0.2221 0.0244,0.1122 0.0783,0.403 0.1616,0.8725 0.0834,0.4694 0.1423,1.1323 0.1769,1.9886 0.0346,0.8562 0.004,1.8192 -0.0921,2.8888 -0.096,1.0696 -0.2151,1.9235 -0.3573,2.5616 -0.1423,0.6381 -0.2571,1.0733 -0.3445,1.3055 -0.0874,0.2321 -0.1587,0.3751 -0.2137,0.4289 -0.055,0.0539 -0.1401,0.0866 -0.255,0.0983 -0.115,0.0117 -0.2793,0.008 -0.4929,-0.0104 -0.31,-0.0271 -0.7042,-0.2252 -1.1827,-0.5945"
           style="fill:none;stroke:#000000;stroke-width:1.03937;stroke-linecap:round;stroke-linejoin:round;stroke-miterlimit:10;stroke-dasharray:none;stroke-opacity:1"
           id="path1670" />
      </g>
      <g
         id="g1672"
         transform="matrix(0.5454546,0,0,-0.5454546,0,841.89)">
        <path
           d="m 480.2398,108.6717 c 0.0204,-0.0715 0.007,-0.1214 -0.0405,-0.1496 -0.0331,-0.0197 -0.0507,-0.0302 -0.0527,-0.0314 -0.002,-0.001 0.039,0.0129 0.1232,0.0425 0.0842,0.0295 0.1066,0.0257 0.0671,-0.0113 -0.0559,-0.0524 0.6529,-0.1902 2.1263,-0.4136"
           style="fill:none;stroke:#000000;stroke-width:1.03937;stroke-linecap:round;stroke-linejoin:round;stroke-miterlimit:10;stroke-dasharray:none;stroke-opacity:1"
           id="path1674" />
      </g>
    </g>
  </g>
</svg>
