<?xml version="1.0" encoding="UTF-8" standalone="no"?>
<!-- Created with Inkscape (http://www.inkscape.org/) -->

<svg
   version="1.1"
   id="svg2"
   width="15.003571"
   height="15.089485"
   viewBox="0 0 15.003571 15.089485"
   sodipodi:docname="E24136542_宋昱宣_預報2.svg"
   inkscape:version="1.2.1 (9c6d41e410, 2022-07-14)"
   xmlns:inkscape="http://www.inkscape.org/namespaces/inkscape"
   xmlns:sodipodi="http://sodipodi.sourceforge.net/DTD/sodipodi-0.dtd"
   xmlns="http://www.w3.org/2000/svg"
   xmlns:svg="http://www.w3.org/2000/svg">
  <defs
     id="defs6" />
  <sodipodi:namedview
     id="namedview4"
     pagecolor="#ffffff"
     bordercolor="#000000"
     borderopacity="0.25"
     inkscape:showpageshadow="2"
     inkscape:pageopacity="0.0"
     inkscape:pagecheckerboard="0"
     inkscape:deskcolor="#d1d1d1"
     showgrid="false"
     inkscape:zoom="2.3786081"
     inkscape:cx="203.48035"
     inkscape:cy="340.32508"
     inkscape:window-width="1600"
     inkscape:window-height="930"
     inkscape:window-x="-6"
     inkscape:window-y="-6"
     inkscape:window-maximized="1"
     inkscape:current-layer="g10" />
  <g
     id="g10"
     inkscape:groupmode="layer"
     inkscape:label="Page 1"
     transform="matrix(1.3333333,0,0,-1.3333333,-321.56201,1054.6929)">
    <g
       id="g720063">
      <g
         id="g1612"
         transform="matrix(0.5454546,0,0,-0.5454546,0,841.89)">
        <path
           d="m 442.6674,95.43436 c 0.1378,0.0379 0.3378,0.0046 0.6,-0.09998 0.2621,-0.10456 0.6093,-0.2259 1.0414,-0.36402 0.4321,-0.13812 0.9235,-0.28025 1.474,-0.42641 0.5506,-0.14615 1.1903,-0.305 1.9192,-0.47655 0.7288,-0.17156 1.118,-0.26192 1.1676,-0.27108 0.0495,-0.0092 0.0756,-0.014 0.0783,-0.01449 l 0.003,-4.9e-4 -8e-4,1.5e-4 c -0.001,2.7e-4 -0.0156,0.0029 -0.0426,0.0078 -0.0269,0.005 -0.0616,0.04918 -0.104,0.13263 -0.0424,0.08344 -0.1554,0.38367 -0.339,0.90069 -0.1837,0.51703 -0.3492,0.97468 -0.4966,1.37296 -0.2155,0.58236 -0.6329,1.31758 -1.2523,2.20567"
           style="fill:none;stroke:#000000;stroke-width:1.03937;stroke-linecap:round;stroke-linejoin:round;stroke-miterlimit:10;stroke-dasharray:none;stroke-opacity:1"
           id="path1614" />
      </g>
      <g
         id="g1616"
         transform="matrix(0.5454546,0,0,-0.5454546,0,841.89)">
        <path
           d="m 443.4915,100.0073 c 0.5842,-0.31033 1.3225,-0.6677 2.2147,-1.07213 0.5799,-0.26286 1.1093,-0.46415 1.5884,-0.60387 0.479,-0.13972 0.8164,-0.11732 1.0123,0.0672"
           style="fill:none;stroke:#000000;stroke-width:1.03937;stroke-linecap:round;stroke-linejoin:round;stroke-miterlimit:10;stroke-dasharray:none;stroke-opacity:1"
           id="path1618" />
      </g>
      <g
         id="g1620"
         transform="matrix(0.5454546,0,0,-0.5454546,0,841.89)">
        <path
           d="m 444.1013,100.7295 c -0.0588,-0.0165 -0.1282,-0.002 -0.2082,0.0443 -0.0532,0.0307 -0.1122,0.1101 -0.1769,0.2383 -0.0648,0.1282 -0.142,0.358 -0.2317,0.6895 -0.0897,0.3315 -0.1922,0.7295 -0.3075,1.1939 -0.1153,0.4644 -0.2169,0.8953 -0.3047,1.2929 -0.0879,0.3975 -0.1393,0.6625 -0.1544,0.795 -0.015,0.1325 -2e-4,0.204 0.0446,0.2145 0.0448,0.0106 0.1292,-0.0151 0.2532,-0.0771 0.1239,-0.062 0.2831,-0.1343 0.4776,-0.217 0.1944,-0.0827 0.4209,-0.1615 0.6793,-0.2364 0.2584,-0.0749 0.5432,-0.144 0.8543,-0.2073 0.3112,-0.0633 0.6365,-0.1247 0.976,-0.1842 0.3396,-0.0594 0.674,-0.1205 1.0032,-0.1831 0.3292,-0.0627 0.5917,-0.1003 0.7872,-0.1129 0.1956,-0.0125 0.3163,-0.005 0.3622,0.0239 0.0458,0.0284 0.0726,0.1071 0.0803,0.236 0.008,0.1288 0.002,0.3357 -0.0164,0.6204 -0.0186,0.2848 -0.0655,0.6634 -0.1405,1.1357 -0.0751,0.4723 -0.1711,0.9976 -0.2881,1.576 -0.117,0.5784 -0.2676,1.1666 -0.452,1.7646 -0.1844,0.598 -0.4068,1.1574 -0.6674,1.6781 -0.2605,0.5207 -0.543,0.9877 -0.8475,1.4007 -0.3044,0.4131 -0.5648,0.6984 -0.7811,0.8558 -0.2162,0.1575 -0.3667,0.2292 -0.4516,0.2152 -0.0848,-0.0139 -0.1411,-0.1229 -0.169,-0.3268 -0.0399,-0.2926 0.0991,-0.9928 0.417,-2.1006"
           style="fill:none;stroke:#000000;stroke-width:1.03937;stroke-linecap:round;stroke-linejoin:round;stroke-miterlimit:10;stroke-dasharray:none;stroke-opacity:1"
           id="path1622" />
      </g>
      <g
         id="g1624"
         transform="matrix(0.5454546,0,0,-0.5454546,0,841.89)">
        <path
           d="m 449.7152,100.7379 c -0.0948,-0.0477 -0.2209,-0.0723 -0.3782,-0.0739 -0.1031,-0.001 -0.1616,-0.002 -0.1757,-0.002 -0.0141,-1e-4 -0.0144,-0.003 -10e-4,-0.008 0.0134,-0.005 0.0691,-0.0268 0.1671,-0.0648 0.098,-0.038 0.4163,-0.1834 0.9548,-0.4362 0.5386,-0.25281 1.2889,-0.58585 2.2512,-0.99915 0.9622,-0.4133 1.8912,-0.74324 2.787,-0.98983 0.8957,-0.24659 1.6834,-0.41688 2.3629,-0.51086 0.6795,-0.09398 1.2691,-0.18393 1.7687,-0.26985 0.4996,-0.08592 0.8673,-0.16963 1.1031,-0.25115 0.2358,-0.08151 0.4062,-0.15021 0.5114,-0.20608 0.1051,-0.05587 0.1194,0.06593 0.0427,0.36538 -0.0766,0.29947 -0.1826,0.6254 -0.3179,0.97779 -0.1354,0.35239 -0.2927,0.73211 -0.472,1.13916 -0.2624,0.59569 -0.5898,1.43039 -0.9822,2.50419"
           style="fill:none;stroke:#000000;stroke-width:1.03937;stroke-linecap:round;stroke-linejoin:round;stroke-miterlimit:10;stroke-dasharray:none;stroke-opacity:1"
           id="path1626" />
      </g>
      <g
         id="g1628"
         transform="matrix(0.5454546,0,0,-0.5454546,0,841.89)">
        <path
           d="m 456.4825,95.05814 c -0.2583,-0.33128 -0.4055,-0.37827 -0.4414,-0.14098 -0.0261,0.17182 -0.0492,0.56358 -0.0695,1.17528 -0.0202,0.6117 -0.0845,1.3627 -0.1929,2.25302 -0.1084,0.89032 -0.2077,1.70814 -0.298,2.45344 -0.0903,0.7454 -0.1345,1.2691 -0.1325,1.5712"
           style="fill:none;stroke:#000000;stroke-width:1.03937;stroke-linecap:round;stroke-linejoin:round;stroke-miterlimit:10;stroke-dasharray:none;stroke-opacity:1"
           id="path1630" />
      </g>
      <g
         id="g1632"
         transform="matrix(0.5454546,0,0,-0.5454546,0,841.89)">
        <path
           d="m 452.914,94.29818 c -0.0823,-0.20927 -0.1405,-0.33323 -0.1746,-0.37186 -0.0237,-0.02696 -0.0369,0.13066 -0.0395,0.47285 -0.003,0.3422 -0.0289,0.85851 -0.079,1.54893 -0.0501,0.69043 -0.1655,1.63869 -0.3463,2.84477 -0.1808,1.20608 -0.3716,2.44473 -0.5724,3.71583 -0.2007,1.2712 -0.3609,2.2989 -0.4804,3.0832 -0.1196,0.7843 -0.2282,1.4358 -0.3258,1.9545 -0.0977,0.5186 -0.183,0.9781 -0.256,1.3784 -0.0729,0.4002 -0.1265,0.7595 -0.1607,1.0777 -0.0342,0.3182 -0.0545,0.631 -0.0611,0.9383 -0.007,0.3073 0.0315,0.551 0.114,0.7312 0.0825,0.1802 0.214,0.3058 0.3943,0.3769 0.1803,0.0712 0.4121,0.1184 0.6954,0.1417 0.2832,0.0233 0.6314,0.0213 1.0445,-0.006 0.4131,-0.0273 0.904,-0.0973 1.4726,-0.2099 0.5687,-0.1126 1.2115,-0.2654 1.9284,-0.4585 0.7169,-0.1931 1.4463,-0.4285 2.188,-0.7062 0.7417,-0.2777 1.3686,-0.5317 1.8807,-0.762 0.5121,-0.2304 0.9182,-0.4133 1.2185,-0.5489 0.3001,-0.1355 0.5233,-0.2205 0.6695,-0.2547 0.1461,-0.0343 0.2244,-0.0527 0.2348,-0.0551 0.0103,-0.002 -0.0578,-0.034 -0.2043,-0.0947 -0.1465,-0.0606 -0.1586,-0.073 -0.0362,-0.0371 0.1715,0.0503 -0.1111,-0.278 -0.8479,-0.9848"
           style="fill:none;stroke:#000000;stroke-width:1.03937;stroke-linecap:round;stroke-linejoin:round;stroke-miterlimit:10;stroke-dasharray:none;stroke-opacity:1"
           id="path1634" />
      </g>
    </g>
  </g>
</svg>
