<svg xmlns="http://www.w3.org/2000/svg" width="3.755" height="3.506"><path d="M188.842 188.335q-.184-.107-.358.107-.12.15-.239.605a5.3 5.3 0 0 0-.148 1.052q-.03.598.19 1.056.22.457.807.514.587.058 1.297-.47a5.5 5.5 0 0 0 1.203-1.213q.493-.684.598-1.157.105-.472-.226-.675t-1.046-.248a7 7 0 0 0-1.532.087q-.816.131-1.253.235" style="fill:none;stroke:#000;stroke-width:1.03937;stroke-linecap:round;stroke-linejoin:round;stroke-miterlimit:10;stroke-dasharray:none;stroke-opacity:1" transform="matrix(.72727 0 0 .72727 -136.418 -136.272)"/></svg>