<?xml version="1.0" encoding="UTF-8" standalone="no"?>
<!-- Created with Inkscape (http://www.inkscape.org/) -->

<svg
   version="1.1"
   id="svg2"
   width="3.7553101"
   height="3.505661"
   viewBox="0 0 3.7553101 3.5056609"
   sodipodi:docname="E24136542_宋昱宣_預報2.svg"
   inkscape:version="1.2.1 (9c6d41e410, 2022-07-14)"
   xmlns:inkscape="http://www.inkscape.org/namespaces/inkscape"
   xmlns:sodipodi="http://sodipodi.sourceforge.net/DTD/sodipodi-0.dtd"
   xmlns="http://www.w3.org/2000/svg"
   xmlns:svg="http://www.w3.org/2000/svg">
  <defs
     id="defs6" />
  <sodipodi:namedview
     id="namedview4"
     pagecolor="#ffffff"
     bordercolor="#000000"
     borderopacity="0.25"
     inkscape:showpageshadow="2"
     inkscape:pageopacity="0.0"
     inkscape:pagecheckerboard="0"
     inkscape:deskcolor="#d1d1d1"
     showgrid="false"
     inkscape:zoom="2.3786081"
     inkscape:cx="203.48035"
     inkscape:cy="340.32508"
     inkscape:window-width="1600"
     inkscape:window-height="930"
     inkscape:window-x="-6"
     inkscape:window-y="-6"
     inkscape:window-maximized="1"
     inkscape:current-layer="g10" />
  <g
     id="g10"
     inkscape:groupmode="layer"
     inkscape:label="Page 1"
     transform="matrix(1.3333333,0,0,-1.3333333,-136.41754,986.24749)">
    <g
       id="g3112"
       transform="matrix(0.5454546,0,0,-0.5454546,0,841.89)">
      <path
         d="m 188.8423,188.3354 c -0.1228,-0.0718 -0.2422,-0.0362 -0.358,0.1068 -0.0809,0.0999 -0.1606,0.3014 -0.2389,0.6045 -0.0783,0.3031 -0.1277,0.654 -0.148,1.0526 -0.0203,0.3987 0.0431,0.7504 0.1901,1.0553 0.147,0.3049 0.4159,0.4765 0.8068,0.5149 0.3909,0.0383 0.8232,-0.1186 1.2969,-0.4707 0.4738,-0.3522 0.8748,-0.7564 1.2032,-1.2128 0.3283,-0.4563 0.5276,-0.8421 0.5979,-1.1572 0.0703,-0.3152 -0.005,-0.5402 -0.2259,-0.675 -0.2208,-0.1348 -0.5698,-0.2174 -1.0468,-0.2477 -0.4771,-0.0304 -0.9876,-0.002 -1.5317,0.0864 -0.544,0.0879 -0.9617,0.1665 -1.2531,0.2357"
         style="fill:none;stroke:#000000;stroke-width:1.03937;stroke-linecap:round;stroke-linejoin:round;stroke-miterlimit:10;stroke-dasharray:none;stroke-opacity:1"
         id="path3114" />
    </g>
  </g>
</svg>
