<?xml version="1.0" encoding="UTF-8" standalone="no"?>
<!-- Created with Inkscape (http://www.inkscape.org/) -->

<svg
   version="1.1"
   id="svg2"
   width="793.70667"
   height="1122.52"
   viewBox="0 0 793.70667 1122.52"
   sodipodi:docname="GoodnoteBackground.svg"
   inkscape:version="1.2.1 (9c6d41e410, 2022-07-14)"
   xmlns:inkscape="http://www.inkscape.org/namespaces/inkscape"
   xmlns:sodipodi="http://sodipodi.sourceforge.net/DTD/sodipodi-0.dtd"
   xmlns="http://www.w3.org/2000/svg"
   xmlns:svg="http://www.w3.org/2000/svg">
  <defs
     id="defs6">
    <clipPath
       clipPathUnits="userSpaceOnUse"
       id="clipPath20">
      <path
         d="M 0,-2.868931e-5 H 595.28 V 841.88997 H 0 Z"
         id="path18" />
    </clipPath>
    <clipPath
       clipPathUnits="userSpaceOnUse"
       id="clipPath30">
      <path
         d="M 0,-2.868931e-5 H 595.28 V 841.88997 H 0 Z"
         id="path28" />
    </clipPath>
    <clipPath
       clipPathUnits="userSpaceOnUse"
       id="clipPath36">
      <path
         d="M 0,9.889972 H 595.28 V 826.39 L 0,826.39 Z"
         id="path34" />
    </clipPath>
    <clipPath
       clipPathUnits="userSpaceOnUse"
       id="clipPath40">
      <path
         d="M 0,0 H 595.28 V 841.89 H 0 Z"
         id="path38" />
    </clipPath>
    <clipPath
       clipPathUnits="userSpaceOnUse"
       id="clipPath162">
      <path
         d="M 0,-2.868931e-5 H 595.28 V 841.88997 H 0 Z"
         id="path160" />
    </clipPath>
    <clipPath
       clipPathUnits="userSpaceOnUse"
       id="clipPath168">
      <path
         d="M 15.5,-2.868931e-5 H 592 V 841.89 H 15.5 Z"
         id="path166" />
    </clipPath>
    <clipPath
       clipPathUnits="userSpaceOnUse"
       id="clipPath172">
      <path
         d="M 0,0 H 595.28 V 841.89 H 0 Z"
         id="path170" />
    </clipPath>
  </defs>
  <sodipodi:namedview
     id="namedview4"
     pagecolor="#ffffff"
     bordercolor="#000000"
     borderopacity="0.25"
     inkscape:showpageshadow="2"
     inkscape:pageopacity="0.0"
     inkscape:pagecheckerboard="0"
     inkscape:deskcolor="#d1d1d1"
     showgrid="false"
     inkscape:zoom="1.1893041"
     inkscape:cx="281.25691"
     inkscape:cy="131.58956"
     inkscape:window-width="1600"
     inkscape:window-height="930"
     inkscape:window-x="-6"
     inkscape:window-y="-6"
     inkscape:window-maximized="1"
     inkscape:current-layer="g10">
    <inkscape:page
       x="0"
       y="0"
       id="page8"
       width="793.70667"
       height="1122.52" />
  </sodipodi:namedview>
  <g
     id="g10"
     inkscape:groupmode="layer"
     inkscape:label="Page 1"
     transform="matrix(1.3333333,0,0,-1.3333333,0,1122.52)">
    <g
       id="g12" />
    <g
       id="g14">
      <g
         id="g16"
         clip-path="url(#clipPath20)">
        <path
           d="M 0,-2.868931e-5 H 595.28 V 841.88997 H 0 Z"
           style="fill:#f8f7ea;fill-opacity:1;fill-rule:nonzero;stroke:none"
           id="path22" />
      </g>
    </g>
    <g
       id="g24">
      <g
         id="g26"
         clip-path="url(#clipPath30)">
        <g
           id="g32" />
        <g
           id="g154">
          <g
             clip-path="url(#clipPath36)"
             id="g152">
            <g
               id="g42" />
            <g
               id="g150">
              <g
                 clip-path="url(#clipPath40)"
                 id="g148">
                <path
                   d="m 0,825.89 h 595.28 v 0.5 H 0 Z"
                   style="fill:#d1d3d4;fill-opacity:1;fill-rule:nonzero;stroke:none"
                   id="path44" />
                <path
                   d="m 0,809.89 h 595.28 v 0.5 H 0 Z"
                   style="fill:#d1d3d4;fill-opacity:1;fill-rule:nonzero;stroke:none"
                   id="path46" />
                <path
                   d="m 0,793.89 h 595.28 v 0.5 H 0 Z"
                   style="fill:#d1d3d4;fill-opacity:1;fill-rule:nonzero;stroke:none"
                   id="path48" />
                <path
                   d="m 0,777.89 h 595.28 v 0.5 H 0 Z"
                   style="fill:#d1d3d4;fill-opacity:1;fill-rule:nonzero;stroke:none"
                   id="path50" />
                <path
                   d="m 0,761.89 h 595.28 v 0.5 H 0 Z"
                   style="fill:#d1d3d4;fill-opacity:1;fill-rule:nonzero;stroke:none"
                   id="path52" />
                <path
                   d="m 0,745.89 h 595.28 v 0.5 H 0 Z"
                   style="fill:#d1d3d4;fill-opacity:1;fill-rule:nonzero;stroke:none"
                   id="path54" />
                <path
                   d="m 0,729.89 h 595.28 v 0.5 H 0 Z"
                   style="fill:#d1d3d4;fill-opacity:1;fill-rule:nonzero;stroke:none"
                   id="path56" />
                <path
                   d="m 0,713.89 h 595.28 v 0.5 H 0 Z"
                   style="fill:#d1d3d4;fill-opacity:1;fill-rule:nonzero;stroke:none"
                   id="path58" />
                <path
                   d="m 0,697.89 h 595.28 v 0.5 H 0 Z"
                   style="fill:#d1d3d4;fill-opacity:1;fill-rule:nonzero;stroke:none"
                   id="path60" />
                <path
                   d="m 0,681.89 h 595.28 v 0.5 H 0 Z"
                   style="fill:#d1d3d4;fill-opacity:1;fill-rule:nonzero;stroke:none"
                   id="path62" />
                <path
                   d="m 0,665.89 h 595.28 v 0.5 H 0 Z"
                   style="fill:#d1d3d4;fill-opacity:1;fill-rule:nonzero;stroke:none"
                   id="path64" />
                <path
                   d="m 0,649.89 h 595.28 v 0.5 H 0 Z"
                   style="fill:#d1d3d4;fill-opacity:1;fill-rule:nonzero;stroke:none"
                   id="path66" />
                <path
                   d="m 0,633.89 h 595.28 v 0.5 H 0 Z"
                   style="fill:#d1d3d4;fill-opacity:1;fill-rule:nonzero;stroke:none"
                   id="path68" />
                <path
                   d="m 0,617.89 h 595.28 v 0.5 H 0 Z"
                   style="fill:#d1d3d4;fill-opacity:1;fill-rule:nonzero;stroke:none"
                   id="path70" />
                <path
                   d="m 0,601.89 h 595.28 v 0.5 H 0 Z"
                   style="fill:#d1d3d4;fill-opacity:1;fill-rule:nonzero;stroke:none"
                   id="path72" />
                <path
                   d="m 0,585.89 h 595.28 v 0.5 H 0 Z"
                   style="fill:#d1d3d4;fill-opacity:1;fill-rule:nonzero;stroke:none"
                   id="path74" />
                <path
                   d="m 0,569.89 h 595.28 v 0.5 H 0 Z"
                   style="fill:#d1d3d4;fill-opacity:1;fill-rule:nonzero;stroke:none"
                   id="path76" />
                <path
                   d="m 0,553.89 h 595.28 v 0.5 H 0 Z"
                   style="fill:#d1d3d4;fill-opacity:1;fill-rule:nonzero;stroke:none"
                   id="path78" />
                <path
                   d="m 0,537.89 h 595.28 v 0.5 H 0 Z"
                   style="fill:#d1d3d4;fill-opacity:1;fill-rule:nonzero;stroke:none"
                   id="path80" />
                <path
                   d="m 0,521.89 h 595.28 v 0.5 H 0 Z"
                   style="fill:#d1d3d4;fill-opacity:1;fill-rule:nonzero;stroke:none"
                   id="path82" />
                <path
                   d="m 0,505.89 h 595.28 v 0.5 H 0 Z"
                   style="fill:#d1d3d4;fill-opacity:1;fill-rule:nonzero;stroke:none"
                   id="path84" />
                <path
                   d="m 0,489.89 h 595.28 v 0.5 H 0 Z"
                   style="fill:#d1d3d4;fill-opacity:1;fill-rule:nonzero;stroke:none"
                   id="path86" />
                <path
                   d="m 0,473.89 h 595.28 v 0.5 H 0 Z"
                   style="fill:#d1d3d4;fill-opacity:1;fill-rule:nonzero;stroke:none"
                   id="path88" />
                <path
                   d="m 0,457.89 h 595.28 v 0.5 H 0 Z"
                   style="fill:#d1d3d4;fill-opacity:1;fill-rule:nonzero;stroke:none"
                   id="path90" />
                <path
                   d="m 0,441.89 h 595.28 v 0.5 H 0 Z"
                   style="fill:#d1d3d4;fill-opacity:1;fill-rule:nonzero;stroke:none"
                   id="path92" />
                <path
                   d="m 0,425.89 h 595.28 v 0.5 H 0 Z"
                   style="fill:#d1d3d4;fill-opacity:1;fill-rule:nonzero;stroke:none"
                   id="path94" />
                <path
                   d="m 0,409.89 h 595.28 v 0.5 H 0 Z"
                   style="fill:#d1d3d4;fill-opacity:1;fill-rule:nonzero;stroke:none"
                   id="path96" />
                <path
                   d="m 0,393.89 h 595.28 v 0.5 H 0 Z"
                   style="fill:#d1d3d4;fill-opacity:1;fill-rule:nonzero;stroke:none"
                   id="path98" />
                <path
                   d="m 0,377.89 h 595.28 v 0.5 H 0 Z"
                   style="fill:#d1d3d4;fill-opacity:1;fill-rule:nonzero;stroke:none"
                   id="path100" />
                <path
                   d="m 0,361.89 h 595.28 v 0.5 H 0 Z"
                   style="fill:#d1d3d4;fill-opacity:1;fill-rule:nonzero;stroke:none"
                   id="path102" />
                <path
                   d="m 0,345.89 h 595.28 v 0.5 H 0 Z"
                   style="fill:#d1d3d4;fill-opacity:1;fill-rule:nonzero;stroke:none"
                   id="path104" />
                <path
                   d="m 0,329.89 h 595.28 v 0.5 H 0 Z"
                   style="fill:#d1d3d4;fill-opacity:1;fill-rule:nonzero;stroke:none"
                   id="path106" />
                <path
                   d="m 0,313.89 h 595.28 v 0.5 H 0 Z"
                   style="fill:#d1d3d4;fill-opacity:1;fill-rule:nonzero;stroke:none"
                   id="path108" />
                <path
                   d="m 0,297.89 h 595.28 v 0.5 H 0 Z"
                   style="fill:#d1d3d4;fill-opacity:1;fill-rule:nonzero;stroke:none"
                   id="path110" />
                <path
                   d="m 0,281.89 h 595.28 v 0.5 H 0 Z"
                   style="fill:#d1d3d4;fill-opacity:1;fill-rule:nonzero;stroke:none"
                   id="path112" />
                <path
                   d="m 0,265.89 h 595.28 v 0.5 H 0 Z"
                   style="fill:#d1d3d4;fill-opacity:1;fill-rule:nonzero;stroke:none"
                   id="path114" />
                <path
                   d="m 0,249.89 h 595.28 v 0.5 H 0 Z"
                   style="fill:#d1d3d4;fill-opacity:1;fill-rule:nonzero;stroke:none"
                   id="path116" />
                <path
                   d="m 0,233.89 h 595.28 v 0.5 H 0 Z"
                   style="fill:#d1d3d4;fill-opacity:1;fill-rule:nonzero;stroke:none"
                   id="path118" />
                <path
                   d="m 0,217.89 h 595.28 v 0.5 H 0 Z"
                   style="fill:#d1d3d4;fill-opacity:1;fill-rule:nonzero;stroke:none"
                   id="path120" />
                <path
                   d="m 0,201.89 h 595.28 v 0.5 H 0 Z"
                   style="fill:#d1d3d4;fill-opacity:1;fill-rule:nonzero;stroke:none"
                   id="path122" />
                <path
                   d="m 0,185.89 h 595.28 v 0.5 H 0 Z"
                   style="fill:#d1d3d4;fill-opacity:1;fill-rule:nonzero;stroke:none"
                   id="path124" />
                <path
                   d="m 0,169.89 h 595.28 v 0.5 H 0 Z"
                   style="fill:#d1d3d4;fill-opacity:1;fill-rule:nonzero;stroke:none"
                   id="path126" />
                <path
                   d="m 0,153.89 h 595.28 v 0.5 H 0 Z"
                   style="fill:#d1d3d4;fill-opacity:1;fill-rule:nonzero;stroke:none"
                   id="path128" />
                <path
                   d="m 0,137.89 h 595.28 v 0.5 H 0 Z"
                   style="fill:#d1d3d4;fill-opacity:1;fill-rule:nonzero;stroke:none"
                   id="path130" />
                <path
                   d="m 0,121.89 h 595.28 v 0.5 H 0 Z"
                   style="fill:#d1d3d4;fill-opacity:1;fill-rule:nonzero;stroke:none"
                   id="path132" />
                <path
                   d="m 0,105.89 h 595.28 v 0.5 H 0 Z"
                   style="fill:#d1d3d4;fill-opacity:1;fill-rule:nonzero;stroke:none"
                   id="path134" />
                <path
                   d="m 0,89.88998 h 595.28 v 0.5 H 0 Z"
                   style="fill:#d1d3d4;fill-opacity:1;fill-rule:nonzero;stroke:none"
                   id="path136" />
                <path
                   d="m 0,73.88998 h 595.28 v 0.5 H 0 Z"
                   style="fill:#d1d3d4;fill-opacity:1;fill-rule:nonzero;stroke:none"
                   id="path138" />
                <path
                   d="m 0,57.88997 h 595.28 v 0.5 H 0 Z"
                   style="fill:#d1d3d4;fill-opacity:1;fill-rule:nonzero;stroke:none"
                   id="path140" />
                <path
                   d="m 0,41.88997 h 595.28 v 0.5 H 0 Z"
                   style="fill:#d1d3d4;fill-opacity:1;fill-rule:nonzero;stroke:none"
                   id="path142" />
                <path
                   d="m 0,25.88997 h 595.28 v 0.5 H 0 Z"
                   style="fill:#d1d3d4;fill-opacity:1;fill-rule:nonzero;stroke:none"
                   id="path144" />
                <path
                   d="m 0,9.889972 h 595.28 v 0.5 H 0 Z"
                   style="fill:#d1d3d4;fill-opacity:1;fill-rule:nonzero;stroke:none"
                   id="path146" />
              </g>
            </g>
          </g>
        </g>
      </g>
    </g>
    <g
       id="g156">
      <g
         id="g158"
         clip-path="url(#clipPath162)">
        <g
           id="g164" />
        <g
           id="g256">
          <g
             clip-path="url(#clipPath168)"
             id="g254">
            <g
               id="g174" />
            <g
               id="g252">
              <g
                 clip-path="url(#clipPath172)"
                 id="g250">
                <path
                   d="M 15.5,-2.868931e-5 H 16 V 841.88997 h -0.5 z"
                   style="fill:#d1d3d4;fill-opacity:1;fill-rule:nonzero;stroke:none"
                   id="path176" />
                <path
                   d="M 31.5,-2.868931e-5 H 32 V 841.88997 h -0.5 z"
                   style="fill:#d1d3d4;fill-opacity:1;fill-rule:nonzero;stroke:none"
                   id="path178" />
                <path
                   d="M 47.5,-2.868931e-5 H 48 V 841.88997 h -0.5 z"
                   style="fill:#d1d3d4;fill-opacity:1;fill-rule:nonzero;stroke:none"
                   id="path180" />
                <path
                   d="M 63.5,-2.868931e-5 H 64 V 841.88997 h -0.5 z"
                   style="fill:#d1d3d4;fill-opacity:1;fill-rule:nonzero;stroke:none"
                   id="path182" />
                <path
                   d="M 79.5,-2.868931e-5 H 80 V 841.88997 h -0.5 z"
                   style="fill:#d1d3d4;fill-opacity:1;fill-rule:nonzero;stroke:none"
                   id="path184" />
                <path
                   d="M 95.5,-2.868931e-5 H 96 V 841.88997 h -0.5 z"
                   style="fill:#d1d3d4;fill-opacity:1;fill-rule:nonzero;stroke:none"
                   id="path186" />
                <path
                   d="M 111.5,-2.868931e-5 H 112 V 841.88997 h -0.5 z"
                   style="fill:#d1d3d4;fill-opacity:1;fill-rule:nonzero;stroke:none"
                   id="path188" />
                <path
                   d="M 127.5,-2.868931e-5 H 128 V 841.88997 h -0.5 z"
                   style="fill:#d1d3d4;fill-opacity:1;fill-rule:nonzero;stroke:none"
                   id="path190" />
                <path
                   d="M 143.5,-2.868931e-5 H 144 V 841.88997 h -0.5 z"
                   style="fill:#d1d3d4;fill-opacity:1;fill-rule:nonzero;stroke:none"
                   id="path192" />
                <path
                   d="M 159.5,-2.868931e-5 H 160 V 841.88997 h -0.5 z"
                   style="fill:#d1d3d4;fill-opacity:1;fill-rule:nonzero;stroke:none"
                   id="path194" />
                <path
                   d="M 175.5,-2.868931e-5 H 176 V 841.88997 h -0.5 z"
                   style="fill:#d1d3d4;fill-opacity:1;fill-rule:nonzero;stroke:none"
                   id="path196" />
                <path
                   d="M 191.5,-2.868931e-5 H 192 V 841.88997 h -0.5 z"
                   style="fill:#d1d3d4;fill-opacity:1;fill-rule:nonzero;stroke:none"
                   id="path198" />
                <path
                   d="M 207.5,-2.868931e-5 H 208 V 841.88997 h -0.5 z"
                   style="fill:#d1d3d4;fill-opacity:1;fill-rule:nonzero;stroke:none"
                   id="path200" />
                <path
                   d="M 223.5,-2.868931e-5 H 224 V 841.88997 h -0.5 z"
                   style="fill:#d1d3d4;fill-opacity:1;fill-rule:nonzero;stroke:none"
                   id="path202" />
                <path
                   d="M 239.5,-2.868931e-5 H 240 V 841.88997 h -0.5 z"
                   style="fill:#d1d3d4;fill-opacity:1;fill-rule:nonzero;stroke:none"
                   id="path204" />
                <path
                   d="M 255.5,-2.868931e-5 H 256 V 841.88997 h -0.5 z"
                   style="fill:#d1d3d4;fill-opacity:1;fill-rule:nonzero;stroke:none"
                   id="path206" />
                <path
                   d="M 271.5,-2.868931e-5 H 272 V 841.88997 h -0.5 z"
                   style="fill:#d1d3d4;fill-opacity:1;fill-rule:nonzero;stroke:none"
                   id="path208" />
                <path
                   d="M 287.5,-2.868931e-5 H 288 V 841.88997 h -0.5 z"
                   style="fill:#d1d3d4;fill-opacity:1;fill-rule:nonzero;stroke:none"
                   id="path210" />
                <path
                   d="M 303.5,-2.868931e-5 H 304 V 841.88997 h -0.5 z"
                   style="fill:#d1d3d4;fill-opacity:1;fill-rule:nonzero;stroke:none"
                   id="path212" />
                <path
                   d="M 319.5,-2.868931e-5 H 320 V 841.88997 h -0.5 z"
                   style="fill:#d1d3d4;fill-opacity:1;fill-rule:nonzero;stroke:none"
                   id="path214" />
                <path
                   d="M 335.5,-2.868931e-5 H 336 V 841.88997 h -0.5 z"
                   style="fill:#d1d3d4;fill-opacity:1;fill-rule:nonzero;stroke:none"
                   id="path216" />
                <path
                   d="M 351.5,-2.868931e-5 H 352 V 841.88997 h -0.5 z"
                   style="fill:#d1d3d4;fill-opacity:1;fill-rule:nonzero;stroke:none"
                   id="path218" />
                <path
                   d="M 367.5,-2.868931e-5 H 368 V 841.88997 h -0.5 z"
                   style="fill:#d1d3d4;fill-opacity:1;fill-rule:nonzero;stroke:none"
                   id="path220" />
                <path
                   d="M 383.5,-2.868931e-5 H 384 V 841.88997 h -0.5 z"
                   style="fill:#d1d3d4;fill-opacity:1;fill-rule:nonzero;stroke:none"
                   id="path222" />
                <path
                   d="M 399.5,-2.868931e-5 H 400 V 841.88997 h -0.5 z"
                   style="fill:#d1d3d4;fill-opacity:1;fill-rule:nonzero;stroke:none"
                   id="path224" />
                <path
                   d="M 415.5,-2.868931e-5 H 416 V 841.88997 h -0.5 z"
                   style="fill:#d1d3d4;fill-opacity:1;fill-rule:nonzero;stroke:none"
                   id="path226" />
                <path
                   d="M 431.5,-2.868931e-5 H 432 V 841.88997 h -0.5 z"
                   style="fill:#d1d3d4;fill-opacity:1;fill-rule:nonzero;stroke:none"
                   id="path228" />
                <path
                   d="M 447.5,-2.868931e-5 H 448 V 841.88997 h -0.5 z"
                   style="fill:#d1d3d4;fill-opacity:1;fill-rule:nonzero;stroke:none"
                   id="path230" />
                <path
                   d="M 463.5,-2.868931e-5 H 464 V 841.88997 h -0.5 z"
                   style="fill:#d1d3d4;fill-opacity:1;fill-rule:nonzero;stroke:none"
                   id="path232" />
                <path
                   d="M 479.5,-2.868931e-5 H 480 V 841.88997 h -0.5 z"
                   style="fill:#d1d3d4;fill-opacity:1;fill-rule:nonzero;stroke:none"
                   id="path234" />
                <path
                   d="M 495.5,-2.868931e-5 H 496 V 841.88997 h -0.5 z"
                   style="fill:#d1d3d4;fill-opacity:1;fill-rule:nonzero;stroke:none"
                   id="path236" />
                <path
                   d="M 511.5,-2.868931e-5 H 512 V 841.88997 h -0.5 z"
                   style="fill:#d1d3d4;fill-opacity:1;fill-rule:nonzero;stroke:none"
                   id="path238" />
                <path
                   d="M 527.5,-2.868931e-5 H 528 V 841.88997 h -0.5 z"
                   style="fill:#d1d3d4;fill-opacity:1;fill-rule:nonzero;stroke:none"
                   id="path240" />
                <path
                   d="M 543.5,-2.868931e-5 H 544 V 841.88997 h -0.5 z"
                   style="fill:#d1d3d4;fill-opacity:1;fill-rule:nonzero;stroke:none"
                   id="path242" />
                <path
                   d="M 559.5,-2.868931e-5 H 560 V 841.88997 h -0.5 z"
                   style="fill:#d1d3d4;fill-opacity:1;fill-rule:nonzero;stroke:none"
                   id="path244" />
                <path
                   d="M 575.5,-2.868931e-5 H 576 V 841.88997 h -0.5 z"
                   style="fill:#d1d3d4;fill-opacity:1;fill-rule:nonzero;stroke:none"
                   id="path246" />
                <path
                   d="M 591.5,-2.868931e-5 H 592 V 841.88997 h -0.5 z"
                   style="fill:#d1d3d4;fill-opacity:1;fill-rule:nonzero;stroke:none"
                   id="path248" />
              </g>
            </g>
          </g>
        </g>
      </g>
    </g>
    <g
       id="g25188"
       transform="matrix(0.7061972,0,0,-0.5454546,97.90777,839.9317)" />
    <g
       id="g25190"
       transform="matrix(0.5140693,0,0,1.189686,309.1413,798.7058)" />
    <g
       id="g25192"
       transform="matrix(2.099817,0,0,0.5454546,312.4222,796.3644)" />
    <g
       id="g25194"
       transform="matrix(0.8737197,0,0,-0.5454546,323.4527,804.477)" />
    <g
       id="g25196"
       transform="matrix(1.371016,0,0,0.5454546,341.7473,799.6249)" />
    <g
       id="g25198"
       transform="matrix(0.9732479,0,0,-0.5454546,356.7899,807.7051)" />
    <g
       id="g25200"
       transform="matrix(0.9021921,0,0,-0.5454546,306.7273,773.9651)" />
    <g
       id="g25202"
       transform="matrix(3.085853,0,0,-0.5454546,306.7273,773.9651)" />
    <g
       id="g25204"
       transform="matrix(3.472432,0,0,0.5454546,363.0772,756.7185)" />
    <g
       id="g25206"
       transform="matrix(0.551902,0,0,-0.6446524,309.554,727.56)" />
    <g
       id="g25208"
       transform="matrix(1.640749,0,0,-0.5454546,309.554,727.56)" />
    <g
       id="g25210"
       transform="matrix(0.6721842,0,0,-0.5454546,323.8936,726.8737)" />
    <g
       id="g25212"
       transform="matrix(1.240255,0,0,0.5454546,353.1096,719.6271)" />
    <g
       id="g25214"
       transform="matrix(0.5947043,0,0,-0.560223,373.3603,743.6135)" />
    <g
       id="g25216"
       transform="matrix(0.8529001,0,0,0.5454546,444.3349,732.8411)" />
    <g
       id="g25218"
       transform="matrix(0.9518796,0,0,-0.5454546,453.6338,744.6936)" />
    <g
       id="g25220"
       transform="matrix(0.5699723,0,0,-1.93839,362.1141,742.9322)" />
    <g
       id="g25222"
       transform="matrix(0.5592591,0,0,-0.7116106,374.0994,712.4399)" />
    <g
       id="g25224"
       transform="matrix(1.953505,0,0,0.5454546,382.4821,699.815)" />
    <g
       id="g25226"
       transform="matrix(1.03455,0,0,-0.5454546,389.1485,717.9237)" />
    <g
       id="g25228"
       transform="matrix(0.8171795,0,0,-0.5454546,439.548,708.0922)" />
    <g
       id="g25230"
       transform="matrix(0.9539463,0,0,-0.5454546,450.4042,713.9104)" />
    <g
       id="g25232"
       transform="matrix(0.6323391,0,0,-0.5454546,307.7684,696.2213)" />
    <g
       id="g25234"
       transform="matrix(2.243273,0,0,0.5454546,315.2632,685.6622)" />
    <g
       id="g25236"
       transform="matrix(0.5652724,0,0,-0.7732142,308.4399,676.8536)" />
    <g
       id="g25238"
       transform="matrix(0.5967298,0,0,-0.5454546,310.3735,648.1211)" />
    <g
       id="g25240"
       transform="matrix(2.469954,0,0,0.5454546,316.9936,637.191)" />
    <g
       id="g25242"
       transform="matrix(0.6058799,0,0,-0.5454546,309.3259,633.0133)" />
    <g
       id="g25244"
       transform="matrix(1.323113,0,0,-0.5454546,309.3259,633.0133)" />
    <g
       id="g25246"
       transform="matrix(1.44179,0,0,-0.5454546,403.9464,599.9733)" />
    <g
       id="g25248"
       transform="matrix(2.115752,0,0,-0.5454546,305.4159,586.074)" />
    <g
       id="g25250"
       transform="matrix(5.326062,0,0,-0.5454546,386.2358,585.6896)" />
    <g
       id="g25252"
       transform="matrix(1.775975,0,0,-0.5454546,562.157,583.9053)" />
    <g
       id="g25254"
       transform="matrix(1.908146,0,0,-0.5454546,367.5223,569.642)" />
    <g
       id="g25256"
       transform="matrix(5.253856,0,0,-0.5454546,538.2991,569.6349)" />
    <g
       id="g25258"
       transform="matrix(0.6209836,0,0,-0.5454546,504.8432,569.702)" />
    <g
       id="g25260"
       transform="matrix(0.5866576,0,0,-0.5454546,311.1762,552.3661)" />
    <g
       id="g25262"
       transform="matrix(0.9160607,0,0,-0.5454546,313.4538,521.6137)" />
    <g
       id="g25264"
       transform="matrix(0.6542077,0,0,-0.5454546,307.0009,503.6648)" />
    <g
       id="g25266"
       transform="matrix(0.6172045,0,0,-0.5454546,306.4842,488.9718)" />
    <g
       id="g25268"
       transform="matrix(0.6637273,0,0,-0.5454546,306.959,474.0742)" />
    <g
       id="g25270"
       transform="matrix(2.115749,0,0,-0.5454546,305.1837,441.9864)" />
    <g
       id="g25272"
       transform="matrix(16.37447,0,0,-0.5454546,386.0037,441.8827)" />
    <g
       id="g25274"
       transform="matrix(1.583326,0,0,-0.5454546,481.475,441.602)" />
    <g
       id="g25276"
       transform="matrix(1.775984,0,0,-0.5454546,561.9248,439.8177)" />
    <g
       id="g25278"
       transform="matrix(3.68912,0,0,-0.5454546,538.0669,425.5474)" />
    <g
       id="g25280"
       transform="matrix(1.908144,0,0,-0.5454546,367.2901,425.5544)" />
    <g
       id="g25282"
       transform="matrix(2.176535,0,0,0.5454546,496.6639,409.587)" />
    <g
       id="g25284"
       transform="matrix(0.6214685,0,0,-0.5454546,504.6111,425.6145)" />
    <g
       id="g25286"
       transform="matrix(0.5866576,0,0,-0.5454546,310.9441,408.2785)" />
    <g
       id="g25288"
       transform="matrix(0.9160582,0,0,-0.5454546,313.2216,377.5262)" />
    <g
       id="g25290"
       transform="matrix(0.6542058,0,0,-0.5454546,306.7688,359.5772)" />
    <g
       id="g25292"
       transform="matrix(0.6172045,0,0,-0.5454546,306.252,344.8842)" />
    <g
       id="g25294"
       transform="matrix(1.613114,0,0,-0.5454546,220.1339,328.3931)" />
    <g
       id="g25296"
       transform="matrix(0.6637273,0,0,-0.5454546,306.7268,329.9866)" />
    <g
       id="g25298"
       transform="matrix(5.503957,0,0,0.5454546,219.4407,321.7938)" />
    <g
       id="g25300"
       transform="matrix(6.373065,0,0,-0.5454546,305.9322,314.4467)" />
    <g
       id="g25302"
       transform="matrix(0.5377176,0,0,-0.8262966,480.696,294.276)" />
    <g
       id="g25304"
       transform="matrix(0.5652977,0,0,-0.6746328,503.972,295.9456)" />
    <g
       id="g25306"
       transform="matrix(0.8071979,0,0,-0.5454546,524.5306,293.9949)" />
    <g
       id="g25308"
       transform="matrix(0.5524476,0,0,-0.8576015,550.4509,295.6079)" />
    <g
       id="g25310"
       transform="matrix(0.6752543,0,0,-0.5454546,566.5714,293.8067)" />
    <g
       id="g25312"
       transform="matrix(0.8293146,0,0,-0.5454546,317.3645,279.4232)" />
    <g
       id="g25314"
       transform="matrix(0.6924254,0,0,-0.5454546,461.0015,280.1978)" />
    <g
       id="g25316"
       transform="matrix(0.8319526,0,0,-0.5454546,314.4635,262.1261)" />
    <g
       id="g25318"
       transform="matrix(0.8379493,0,0,-0.5454546,460.3141,264.3196)" />
    <g
       id="g25320"
       transform="matrix(0.7280227,0,0,-0.5454546,314.2697,246.6277)" />
    <g
       id="g25322"
       transform="matrix(0.7347926,0,0,-0.5454546,461.6475,247.7542)" />
    <g
       id="g25324"
       transform="matrix(0.69985,0,0,-0.5454546,314.2105,231.2833)" />
    <g
       id="g25326"
       transform="matrix(0.6653686,0,0,-0.5454546,458.5127,232.6182)" />
    <g
       id="g25328"
       transform="matrix(0.7566171,0,0,-0.5454546,316.1184,216.654)" />
    <g
       id="g25330"
       transform="matrix(0.7172291,0,0,-0.5454546,457.4222,217.1524)" />
    <g
       id="g25332"
       transform="matrix(3.550055,0,0,-0.5454546,499.731,185.87)" />
    <g
       id="g25334"
       transform="matrix(2.464582,0,0,-0.5454546,562.3002,184.0857)" />
    <g
       id="g25336"
       transform="matrix(11.54474,0,0,-0.5454546,386.9906,177.9491)" />
    <g
       id="g25338"
       transform="matrix(0.6209828,0,0,-0.5454546,504.9864,169.8824)" />
    <g
       id="g25340"
       transform="matrix(3.689101,0,0,-0.5454546,538.4423,169.8154)" />
    <g
       id="g25342"
       transform="matrix(0.947693,0,0,-0.5454546,305.9427,152.8351)" />
    <g
       id="g25344"
       transform="matrix(0.7386111,0,0,-1.382916,307.6917,154.3482)" />
    <g
       id="g25346"
       transform="matrix(0.7429019,0,0,0.5454546,367.6655,153.6427)" />
    <g
       id="g25348"
       transform="matrix(2.356971,0,0,-0.5454546,306.6313,104.3462)" />
    <g
       id="g25350"
       transform="matrix(2.256651,0,0,-0.5454546,306.574,89.61988)" />
    <g
       id="g25352"
       transform="matrix(0.6029162,0,0,-0.5454546,310.8544,71.60637)" />
  </g>
</svg>
