<svg xmlns="http://www.w3.org/2000/svg" width="11.3" height="14.642"><path d="M242.053 357.431h-.219 0l.02-.001.49-.028q.466-.027 1.39-.149.926-.121 2.374-.466 1.449-.345 2.878-.775t2.325-.592l.713-.13-.046.008-.114.021.34-.062m-11.185 5.973q-.12 0-.329.562t-.537 1.54l-.286.86.005-.017.022-.068-.067.203m1.635-3.225q.25-.299.582-.472.222-.116 1.364-.48 1.142-.366 2.187-.689 1.046-.323 2.158-.611a20 20 0 0 1 2.1-.435 17 17 0 0 1 1.691-.176q.704-.03 1.352-.025.65.004.841.119a.52.52 0 0 1 .242.36q.051.243.062.72.012.475-.126 1.177t-.374 1.418q-.358 1.08-1.003 1.407" style="fill:none;stroke:#000;stroke-width:1.03937;stroke-linecap:round;stroke-linejoin:round;stroke-miterlimit:10;stroke-dasharray:none;stroke-opacity:1" transform="translate(-174.041 -257.991)scale(.72727)"/><path d="M247.158 357.343q-.444-.495-.512-.181-.05.226.027 1.002.076.776.117 1.91a15 15 0 0 1-.058 2.09q-.099.954-.885 1.436" style="fill:none;stroke:#000;stroke-width:1.03937;stroke-linecap:round;stroke-linejoin:round;stroke-miterlimit:10;stroke-dasharray:none;stroke-opacity:1" transform="translate(-174.041 -257.991)scale(.72727)"/><path d="M243.228 361.26q-.294-.03-.302.418-.007.447.014.892.02.445.023.76.001.317.016.456.013.14.196.056.181-.084.408-.152t.68-.283q.658-.314 2.136-1.398m3.964-2.914q-.264-.015-.491.079a.84.84 0 0 0-.314.264 3.3 3.3 0 0 0-.337.541 7 7 0 0 0-.32.715q-.143.373-.206.605a1.5 1.5 0 0 0-.063.331q0 .1.746.677.746.576.435 1.104m-5.59 1.899q-.336-.161-.551-.042-.15.083-.255.57-.106.488-.178 1.202-.075.716-.088 1.281l-.013.519v-.004l.001-.026-.002.077" style="fill:none;stroke:#000;stroke-width:1.03937;stroke-linecap:round;stroke-linejoin:round;stroke-miterlimit:10;stroke-dasharray:none;stroke-opacity:1" transform="translate(-174.041 -257.991)scale(.72727)"/><path d="M243.877 366.326q.023-.502.177-.658.108-.108.854-.193.747-.084 1.364-.192t1.223-.272q.605-.164 1.151-.353.547-.19.97-.3a5 5 0 0 1 .611-.128q.188-.018.249.057.06.076.067.34.006.264-.098.764t-.444 1.833-.496 1.802q-.222.669-1.544.564" style="fill:none;stroke:#000;stroke-width:1.03937;stroke-linecap:round;stroke-linejoin:round;stroke-miterlimit:10;stroke-dasharray:none;stroke-opacity:1" transform="translate(-174.041 -257.991)scale(.72727)"/><path d="M244.355 367.839q-.2-.12 1.043-.39 1.243-.267 2.196-.396.952-.129 1.486-.135l.427-.004h-.026l-.066.001.198-.002m-5.366 3.102h-.627l.026.001.534.016q.493.015 1.365-.083a15 15 0 0 0 1.808-.322 3.54 3.54 0 0 0 1.623-.87" style="fill:none;stroke:#000;stroke-width:1.03937;stroke-linecap:round;stroke-linejoin:round;stroke-miterlimit:10;stroke-dasharray:none;stroke-opacity:1" transform="translate(-174.041 -257.991)scale(.72727)"/><path d="M246.962 366.094q-.506-.118-.741-.029-.163.062-.283.408-.12.345-.153 1.048a26 26 0 0 0-.009 1.731q.025 1.029.111 1.875.087.847.148 1.557.06.709.084.803.022.092.15.177.126.085.41.197.285.113.717.243.433.13 1.003.205.57.076 1.316.013a5.3 5.3 0 0 0 1.535-.38 8 8 0 0 0 1.44-.746 6.7 6.7 0 0 0 1.09-.874q.44-.446.526-.699.085-.252-.066-.396-.218-.208-1.049-.48" style="fill:none;stroke:#000;stroke-width:1.03937;stroke-linecap:round;stroke-linejoin:round;stroke-miterlimit:10;stroke-dasharray:none;stroke-opacity:1" transform="translate(-174.041 -257.991)scale(.72727)"/></svg>