<?xml version="1.0" encoding="UTF-8" standalone="no"?>
<!-- Created with Inkscape (http://www.inkscape.org/) -->

<svg
   version="1.1"
   id="svg2"
   width="11.299881"
   height="14.641754"
   viewBox="0 0 11.299881 14.641754"
   xmlns="http://www.w3.org/2000/svg"
   xmlns:svg="http://www.w3.org/2000/svg">
  <defs
     id="defs6" />
  <g
     id="g10"
     transform="matrix(1.3333333,0,0,-1.3333333,-174.04133,864.52897)">
    <g
       id="g4952"
       transform="matrix(0.5454546,0,0,-0.5454546,0,841.89)">
      <path
         d="m 242.0532,357.431 c -0.1407,0 -0.2137,0 -0.219,1e-4 l -0.001,-1e-4 0.02,-10e-4 c 0.0163,-9e-4 0.1799,-0.0103 0.4907,-0.0283 0.3107,-0.0179 0.7744,-0.0674 1.391,-0.1486 0.6165,-0.0811 1.4076,-0.2364 2.3732,-0.4659 0.9655,-0.2295 1.9249,-0.4879 2.8782,-0.775 0.9532,-0.2871 1.728,-0.4847 2.3242,-0.5926 l 0.7133,-0.1292 -0.0459,0.008 -0.1135,0.0206 0.3404,-0.0617"
         style="fill:none;stroke:#000000;stroke-width:1.03937;stroke-linecap:round;stroke-linejoin:round;stroke-miterlimit:10;stroke-dasharray:none;stroke-opacity:1"
         id="path4954" />
    </g>
    <g
       id="g4956"
       transform="matrix(0.5454546,0,0,-0.5454546,0,841.89)">
      <path
         d="m 241.0188,361.2301 c -0.079,0 -0.1885,0.1875 -0.3286,0.5623 -0.1402,0.3749 -0.3191,0.8883 -0.5368,1.5401 l -0.2868,0.859 0.005,-0.0164 0.0226,-0.0676 -0.0677,0.2029"
         style="fill:none;stroke:#000000;stroke-width:1.03937;stroke-linecap:round;stroke-linejoin:round;stroke-miterlimit:10;stroke-dasharray:none;stroke-opacity:1"
         id="path4958" />
    </g>
    <g
       id="g4960"
       transform="matrix(0.5454546,0,0,-0.5454546,0,841.89)">
      <path
         d="m 241.4623,361.0853 c 0.1669,-0.1994 0.3607,-0.3568 0.5816,-0.4722 0.1481,-0.0774 0.6028,-0.2378 1.3641,-0.481 0.7612,-0.2433 1.4903,-0.4725 2.1872,-0.6878 0.6969,-0.2153 1.4163,-0.4192 2.1582,-0.6118 0.742,-0.1926 1.442,-0.3375 2.1001,-0.4348 0.6582,-0.0973 1.2217,-0.1558 1.6905,-0.1756 0.4688,-0.0198 0.9196,-0.0282 1.3524,-0.0254 0.4328,0.003 0.713,0.0426 0.8407,0.1192 0.1277,0.0767 0.2084,0.1965 0.2421,0.3595 0.0338,0.163 0.0545,0.4029 0.0623,0.7199 0.008,0.3169 -0.0344,0.7095 -0.1262,1.1777 -0.0919,0.4682 -0.2168,0.9409 -0.3746,1.4179 -0.2382,0.7201 -0.5725,1.1889 -1.003,1.4066"
         style="fill:none;stroke:#000000;stroke-width:1.03937;stroke-linecap:round;stroke-linejoin:round;stroke-miterlimit:10;stroke-dasharray:none;stroke-opacity:1"
         id="path4962" />
    </g>
    <g
       id="g4964"
       transform="matrix(0.5454546,0,0,-0.5454546,0,841.89)">
      <path
         d="m 247.1578,357.3434 c -0.2963,-0.3309 -0.467,-0.3914 -0.5121,-0.1814 -0.0325,0.1512 -0.0235,0.4853 0.0269,1.0024 0.0504,0.5172 0.0895,1.1538 0.1173,1.91 0.0277,0.7562 0.008,1.4526 -0.0578,2.0893 -0.0663,0.6367 -0.3613,1.1155 -0.8851,1.4366"
         style="fill:none;stroke:#000000;stroke-width:1.03937;stroke-linecap:round;stroke-linejoin:round;stroke-miterlimit:10;stroke-dasharray:none;stroke-opacity:1"
         id="path4966" />
    </g>
    <g
       id="g4968"
       transform="matrix(0.5454546,0,0,-0.5454546,0,841.89)">
      <path
         d="m 243.2275,361.2595 c -0.1955,-0.0194 -0.2958,0.12 -0.301,0.4182 -0.005,0.2981 -7e-4,0.5954 0.0132,0.8918 0.0139,0.2964 0.0216,0.55 0.023,0.7608 10e-4,0.2108 0.007,0.3628 0.0161,0.456 0.009,0.0933 0.0747,0.1118 0.1961,0.0556 0.1215,-0.0562 0.2576,-0.1067 0.4084,-0.1517 0.1508,-0.045 0.3776,-0.1396 0.6803,-0.2837 0.4383,-0.2087 1.15,-0.6744 2.1351,-1.3971"
         style="fill:none;stroke:#000000;stroke-width:1.03937;stroke-linecap:round;stroke-linejoin:round;stroke-miterlimit:10;stroke-dasharray:none;stroke-opacity:1"
         id="path4970" />
    </g>
    <g
       id="g4972"
       transform="matrix(0.5454546,0,0,-0.5454546,0,841.89)">
      <path
         d="m 250.363,359.0952 c -0.1756,-0.0101 -0.3392,0.0161 -0.491,0.0786 -0.1021,0.0421 -0.2068,0.13 -0.314,0.2638 -0.1073,0.1338 -0.2196,0.3143 -0.337,0.5415 -0.1174,0.2272 -0.2239,0.4654 -0.3195,0.7146 -0.0957,0.2491 -0.1645,0.4509 -0.2064,0.6054 -0.0419,0.1545 -0.063,0.2649 -0.0632,0.3312 -2e-4,0.0663 0.2483,0.2918 0.7457,0.6765 0.4974,0.3847 0.6424,0.7527 0.435,1.104"
         style="fill:none;stroke:#000000;stroke-width:1.03937;stroke-linecap:round;stroke-linejoin:round;stroke-miterlimit:10;stroke-dasharray:none;stroke-opacity:1"
         id="path4974" />
    </g>
    <g
       id="g4976"
       transform="matrix(0.5454546,0,0,-0.5454546,0,841.89)">
      <path
         d="m 244.2225,365.3105 c -0.2236,-0.1079 -0.4072,-0.1221 -0.5508,-0.0425 -0.0992,0.055 -0.184,0.245 -0.2542,0.57 -0.0703,0.325 -0.1299,0.7258 -0.1789,1.2024 -0.0489,0.4766 -0.0781,0.9035 -0.0873,1.2807 l -0.0128,0.5189 1e-4,-0.004 6e-4,-0.0256 -0.002,0.0768"
         style="fill:none;stroke:#000000;stroke-width:1.03937;stroke-linecap:round;stroke-linejoin:round;stroke-miterlimit:10;stroke-dasharray:none;stroke-opacity:1"
         id="path4978" />
    </g>
    <g
       id="g4980"
       transform="matrix(0.5454546,0,0,-0.5454546,0,841.89)">
      <path
         d="m 243.8774,366.3256 c 0.0145,-0.3347 0.0736,-0.5539 0.1771,-0.6574 0.0718,-0.0718 0.3565,-0.1361 0.854,-0.1928 0.4976,-0.0567 0.9522,-0.121 1.3639,-0.1928 0.4118,-0.0719 0.8192,-0.1624 1.2223,-0.2715 0.403,-0.1091 0.7869,-0.2269 1.1515,-0.3536 0.3647,-0.1266 0.688,-0.2265 0.9701,-0.2995 0.2821,-0.0731 0.4858,-0.1158 0.6111,-0.1281 0.1252,-0.0123 0.2081,0.007 0.2486,0.057 0.0405,0.0504 0.0627,0.1636 0.0668,0.3397 0.004,0.1761 -0.0287,0.4309 -0.0982,0.7642 -0.0696,0.3334 -0.2175,0.9443 -0.4439,1.8327 -0.2264,0.8885 -0.3915,1.4892 -0.4954,1.8023 -0.1481,0.4462 -0.6629,0.6343 -1.5443,0.5644"
         style="fill:none;stroke:#000000;stroke-width:1.03937;stroke-linecap:round;stroke-linejoin:round;stroke-miterlimit:10;stroke-dasharray:none;stroke-opacity:1"
         id="path4982" />
    </g>
    <g
       id="g4984"
       transform="matrix(0.5454546,0,0,-0.5454546,0,841.89)">
      <path
         d="m 244.3552,367.8386 c -0.1332,-0.0805 0.2145,-0.2101 1.0431,-0.3888 0.8285,-0.1786 1.5604,-0.3109 2.1955,-0.3969 0.6351,-0.0861 1.1304,-0.1309 1.4859,-0.1344 l 0.4275,-0.004 -0.0261,2e-4 -0.066,7e-4 0.1978,-0.002"
         style="fill:none;stroke:#000000;stroke-width:1.03937;stroke-linecap:round;stroke-linejoin:round;stroke-miterlimit:10;stroke-dasharray:none;stroke-opacity:1"
         id="path4986" />
    </g>
    <g
       id="g4988"
       transform="matrix(0.5454546,0,0,-0.5454546,0,841.89)">
      <path
         d="m 244.2474,370.0149 c -0.3891,0 -0.5951,0 -0.618,0 l -0.009,2e-4 0.0251,10e-4 c 0.0268,8e-4 0.2048,0.006 0.534,0.0159 0.3292,0.01 0.7844,-0.0178 1.3656,-0.0827 0.5812,-0.0648 1.1837,-0.1722 1.8074,-0.3221 0.6237,-0.1499 1.1649,-0.4399 1.6236,-0.8699"
         style="fill:none;stroke:#000000;stroke-width:1.03937;stroke-linecap:round;stroke-linejoin:round;stroke-miterlimit:10;stroke-dasharray:none;stroke-opacity:1"
         id="path4990" />
    </g>
    <g
       id="g4992"
       transform="matrix(0.5454546,0,0,-0.5454546,0,841.89)">
      <path
         d="m 246.9624,366.0936 c -0.3376,-0.0784 -0.5849,-0.0878 -0.7418,-0.0284 -0.1084,0.041 -0.2025,0.1768 -0.2824,0.4073 -0.0799,0.2305 -0.1308,0.58 -0.1528,1.0484 -0.0219,0.4683 -0.0249,1.0455 -0.009,1.7314 0.0162,0.6858 0.053,1.3109 0.1106,1.8751 0.0576,0.5642 0.1068,1.0831 0.1478,1.5565 0.0409,0.4734 0.069,0.741 0.0842,0.8029 0.0153,0.0618 0.0652,0.1209 0.1497,0.1774 0.0846,0.0565 0.2216,0.1222 0.411,0.1971 0.1894,0.0748 0.4282,0.1556 0.7164,0.2423 0.2882,0.0868 0.6224,0.1552 1.0026,0.2054 0.3803,0.0502 0.8189,0.0545 1.3159,0.013 0.4969,-0.0415 1.0089,-0.1682 1.5359,-0.3799 0.527,-0.2117 1.007,-0.4602 1.44,-0.7456 0.4329,-0.2853 0.7961,-0.5769 1.0894,-0.8746 0.2933,-0.2977 0.4686,-0.5307 0.5259,-0.6988 0.0573,-0.1682 0.0355,-0.3003 -0.0654,-0.3964 -0.1454,-0.1384 -0.4952,-0.2981 -1.0492,-0.479"
         style="fill:none;stroke:#000000;stroke-width:1.03937;stroke-linecap:round;stroke-linejoin:round;stroke-miterlimit:10;stroke-dasharray:none;stroke-opacity:1"
         id="path4994" />
    </g>
  </g>
</svg>
