<?xml version="1.0" encoding="UTF-8" standalone="no"?>
<!-- Created with Inkscape (http://www.inkscape.org/) -->

<svg
   version="1.1"
   id="svg2"
   width="11.885147"
   height="14.398041"
   viewBox="0 0 11.885147 14.398041"
   sodipodi:docname="E24136542_宋昱宣_預報2.svg"
   inkscape:version="1.2.1 (9c6d41e410, 2022-07-14)"
   xmlns:inkscape="http://www.inkscape.org/namespaces/inkscape"
   xmlns:sodipodi="http://sodipodi.sourceforge.net/DTD/sodipodi-0.dtd"
   xmlns="http://www.w3.org/2000/svg"
   xmlns:svg="http://www.w3.org/2000/svg">
  <defs
     id="defs6" />
  <sodipodi:namedview
     id="namedview4"
     pagecolor="#ffffff"
     bordercolor="#000000"
     borderopacity="0.25"
     inkscape:showpageshadow="2"
     inkscape:pageopacity="0.0"
     inkscape:pagecheckerboard="0"
     inkscape:deskcolor="#d1d1d1"
     showgrid="false"
     inkscape:zoom="2.3786081"
     inkscape:cx="169.84723"
     inkscape:cy="474.85754"
     inkscape:window-width="1600"
     inkscape:window-height="930"
     inkscape:window-x="-6"
     inkscape:window-y="-6"
     inkscape:window-maximized="1"
     inkscape:current-layer="g10" />
  <g
     id="g10"
     inkscape:groupmode="layer"
     inkscape:label="Page 1"
     transform="matrix(1.3333333,0,0,-1.3333333,-236.97093,864.01215)">
    <g
       id="g12981">
      <g
         id="g5060"
         transform="matrix(0.5454546,0,0,-0.5454546,0,841.89)">
        <path
           d="m 328.57,357.7433 c 0.1032,0.0438 0.3039,0.0175 0.6022,-0.079 0.1881,-0.0609 0.4931,-0.1265 0.9149,-0.1967 0.4218,-0.0703 1.0083,-0.1441 1.7595,-0.2216 0.7511,-0.0774 1.614,-0.1918 2.5886,-0.3429 0.9746,-0.1512 1.8695,-0.3129 2.6847,-0.4853 0.8152,-0.1723 1.4584,-0.2904 1.9298,-0.3542 0.4715,-0.0638 0.7072,-0.0957 0.7072,-0.0957"
           style="fill:none;stroke:#000000;stroke-width:1.03937;stroke-linecap:round;stroke-linejoin:round;stroke-miterlimit:10;stroke-dasharray:none;stroke-opacity:1"
           id="path5062" />
      </g>
      <g
         id="g5064"
         transform="matrix(0.5454546,0,0,-0.5454546,0,841.89)">
        <path
           d="m 328.6343,359.6443 c -0.1397,-0.0188 -0.2724,0.0239 -0.3982,0.1279 -0.0848,0.0702 -0.201,0.2503 -0.3485,0.5404 -0.1475,0.29 -0.3401,0.7062 -0.5777,1.2484 -0.2377,0.5423 -0.4562,1.0468 -0.6557,1.5137 l -0.2836,0.6636 9e-4,-0.002 0.008,-0.0193 -0.0248,0.058"
           style="fill:none;stroke:#000000;stroke-width:1.03937;stroke-linecap:round;stroke-linejoin:round;stroke-miterlimit:10;stroke-dasharray:none;stroke-opacity:1"
           id="path5066" />
      </g>
      <g
         id="g5068"
         transform="matrix(0.5454546,0,0,-0.5454546,0,841.89)">
        <path
           d="m 329.1688,360.9902 c 0.2048,-0.1975 0.4139,-0.3569 0.6272,-0.4783 0.1435,-0.0817 0.4913,-0.1462 1.0435,-0.1934 0.5522,-0.0472 1.1176,-0.1116 1.6963,-0.193 0.5786,-0.0813 1.2417,-0.2022 1.9893,-0.3626 0.7476,-0.1603 1.5251,-0.3391 2.3324,-0.5363 0.8073,-0.1971 1.5411,-0.3704 2.2014,-0.5196 0.6603,-0.1493 1.1765,-0.2522 1.5485,-0.3086 0.372,-0.0565 0.6273,-0.0875 0.7659,-0.0932 0.1386,-0.006 0.2232,0.048 0.2538,0.1608 0.0307,0.1129 0.037,0.2686 0.0189,0.4671 -0.0181,0.1985 -0.0814,0.4744 -0.1898,0.8276 -0.1085,0.3532 -0.3243,1.0046 -0.6474,1.9542 -0.3232,0.9497 -0.5624,1.5991 -0.7178,1.9484 -0.2172,0.4884 -0.5242,0.6007 -0.921,0.3368"
           style="fill:none;stroke:#000000;stroke-width:1.03937;stroke-linecap:round;stroke-linejoin:round;stroke-miterlimit:10;stroke-dasharray:none;stroke-opacity:1"
           id="path5070" />
      </g>
      <g
         id="g5072"
         transform="matrix(0.5454546,0,0,-0.5454546,0,841.89)">
        <path
           d="m 334.8467,358.0307 c 0.009,-0.1479 0.0138,-0.2248 0.0141,-0.2305 l 1e-4,-0.001 -0.002,0.0225 c -0.002,0.0183 -0.0202,0.1982 -0.0551,0.5395 -0.0348,0.3414 -0.1301,1.1988 -0.2858,2.5722 -0.1557,1.3734 -0.2671,2.261 -0.3344,2.6629 -0.0672,0.4019 -0.1008,0.6028 -0.1008,0.6028"
           style="fill:none;stroke:#000000;stroke-width:1.03937;stroke-linecap:round;stroke-linejoin:round;stroke-miterlimit:10;stroke-dasharray:none;stroke-opacity:1"
           id="path5074" />
      </g>
      <g
         id="g5076"
         transform="matrix(0.5454546,0,0,-0.5454546,0,841.89)">
        <path
           d="m 331.4315,361.6452 c -0.1706,0.0554 -0.3124,0.1656 -0.4253,0.3306 -0.1129,0.1651 -0.2191,0.3603 -0.3187,0.5856 -0.0996,0.2253 -0.1705,0.4184 -0.2128,0.5793 -0.0423,0.161 -0.0805,0.38 -0.1147,0.6572 -0.0341,0.2772 -0.0519,0.4431 -0.0534,0.4978 -0.002,0.0547 0.0348,0.0892 0.109,0.1035 0.0741,0.0143 0.2469,-0.0125 0.5184,-0.0802 0.3905,-0.0976 1.2006,-0.4484 2.4304,-1.0526"
           style="fill:none;stroke:#000000;stroke-width:1.03937;stroke-linecap:round;stroke-linejoin:round;stroke-miterlimit:10;stroke-dasharray:none;stroke-opacity:1"
           id="path5078" />
      </g>
      <g
         id="g5080"
         transform="matrix(0.5454546,0,0,-0.5454546,0,841.89)">
        <path
           d="m 338.585,360.4258 c -0.1543,0.1257 -0.351,0.3884 -0.5899,0.7882 -0.1501,0.2512 -0.3887,0.625 -0.7158,1.1212 -0.327,0.4962 -0.5086,0.7745 -0.5449,0.8348 -0.0363,0.0603 2e-4,0.1129 0.1095,0.1578 0.1093,0.0449 0.2406,0.1061 0.3939,0.1837 0.1533,0.0776 0.307,0.1826 0.4614,0.3149 0.1543,0.1323 0.2946,0.2793 0.4211,0.4409 0.1822,0.2329 0.1982,0.4493 0.048,0.6492"
           style="fill:none;stroke:#000000;stroke-width:1.03937;stroke-linecap:round;stroke-linejoin:round;stroke-miterlimit:10;stroke-dasharray:none;stroke-opacity:1"
           id="path5082" />
      </g>
      <g
         id="g5084"
         transform="matrix(0.5454546,0,0,-0.5454546,0,841.89)">
        <path
           d="m 331.9859,366.6219 c -0.2553,-0.1296 -0.4664,-0.1207 -0.6332,0.0267 -0.1159,0.1025 -0.2378,0.3117 -0.3657,0.6276 -0.1278,0.3159 -0.2423,0.6935 -0.3434,1.1326 -0.1011,0.4392 -0.154,0.8216 -0.1589,1.1474 -0.005,0.3257 -0.007,0.4885 -0.007,0.4885"
           style="fill:none;stroke:#000000;stroke-width:1.03937;stroke-linecap:round;stroke-linejoin:round;stroke-miterlimit:10;stroke-dasharray:none;stroke-opacity:1"
           id="path5086" />
      </g>
      <g
         id="g5088"
         transform="matrix(0.5454546,0,0,-0.5454546,0,841.89)">
        <path
           d="m 331.8003,367.3693 c -0.0621,-0.4438 -0.0202,-0.7059 0.1256,-0.7861 0.1023,-0.0563 0.5611,-0.1934 1.3765,-0.4113 0.8154,-0.2179 1.6878,-0.4594 2.6172,-0.7245 0.9293,-0.2651 1.4965,-0.4171 1.7014,-0.4559 0.2049,-0.0389 0.3294,0.0383 0.3735,0.2318 0.0442,0.1935 -0.0429,0.6335 -0.261,1.3199 -0.2182,0.6863 -0.3848,1.2109 -0.4996,1.5737 -0.1148,0.3629 -0.2147,0.7222 -0.2996,1.078 -0.1259,0.5273 -0.3618,0.8494 -0.7077,0.9663"
           style="fill:none;stroke:#000000;stroke-width:1.03937;stroke-linecap:round;stroke-linejoin:round;stroke-miterlimit:10;stroke-dasharray:none;stroke-opacity:1"
           id="path5090" />
      </g>
      <g
         id="g5092"
         transform="matrix(0.5454546,0,0,-0.5454546,0,841.89)">
        <path
           d="m 332.0536,368.862 c -0.272,-0.2058 -0.2875,-0.323 -0.0466,-0.3518 0.1756,-0.0209 0.4856,-0.0652 0.9297,-0.1327 0.4442,-0.0675 0.9617,-0.1625 1.5524,-0.285 0.9091,-0.1884 1.6607,-0.3775 2.2547,-0.5672"
           style="fill:none;stroke:#000000;stroke-width:1.03937;stroke-linecap:round;stroke-linejoin:round;stroke-miterlimit:10;stroke-dasharray:none;stroke-opacity:1"
           id="path5094" />
      </g>
      <g
         id="g5096"
         transform="matrix(0.5454546,0,0,-0.5454546,0,841.89)">
        <path
           d="m 331.1402,371.839 c -0.2286,0.0351 -0.3485,0.0535 -0.3597,0.0552 -0.008,10e-4 10e-4,-0.003 0.0275,-0.0138 0.0263,-0.0105 0.2313,-0.0918 0.6149,-0.2441 0.3837,-0.1523 0.8267,-0.3123 1.3288,-0.4798 0.5022,-0.1675 1.031,-0.3339 1.5865,-0.4991 0.8553,-0.2543 1.3263,-0.5352 1.413,-0.8427"
           style="fill:none;stroke:#000000;stroke-width:1.03937;stroke-linecap:round;stroke-linejoin:round;stroke-miterlimit:10;stroke-dasharray:none;stroke-opacity:1"
           id="path5098" />
      </g>
      <g
         id="g5100"
         transform="matrix(0.5454546,0,0,-0.5454546,0,841.89)">
        <path
           d="m 333.9604,367.1165 c -0.096,-0.1802 -0.1927,-0.3182 -0.2901,-0.4137 -0.0663,-0.0651 -0.1195,0.2015 -0.1596,0.7997 -0.0401,0.5983 -0.1056,1.251 -0.1964,1.9581 -0.0908,0.7072 -0.1918,1.4251 -0.3032,2.1537 -0.1114,0.7287 -0.191,1.3099 -0.2388,1.7438 -0.0479,0.4339 -0.0698,0.726 -0.0659,0.8763 0.004,0.1504 0.0713,0.2494 0.2019,0.2972 0.1307,0.0477 0.3324,0.0897 0.6051,0.1259 0.2727,0.0362 0.6285,0.0586 1.0675,0.0673 0.439,0.009 0.9288,-0.042 1.4692,-0.1518 0.5404,-0.1098 1.0925,-0.2816 1.6561,-0.5152 0.5637,-0.2336 1.0823,-0.4898 1.5556,-0.7686 0.4734,-0.2787 0.8081,-0.6308 1.0042,-1.0564"
           style="fill:none;stroke:#000000;stroke-width:1.03937;stroke-linecap:round;stroke-linejoin:round;stroke-miterlimit:10;stroke-dasharray:none;stroke-opacity:1"
           id="path5102" />
      </g>
    </g>
  </g>
</svg>
