<?xml version="1.0" encoding="UTF-8" standalone="no"?>
<!-- Created with Inkscape (http://www.inkscape.org/) -->

<svg
   version="1.1"
   id="svg2"
   width="12.130592"
   height="16.066071"
   viewBox="0 0 12.130592 16.06607"
   sodipodi:docname="E24136542_宋昱宣_預報2.svg"
   inkscape:version="1.2.1 (9c6d41e410, 2022-07-14)"
   xmlns:inkscape="http://www.inkscape.org/namespaces/inkscape"
   xmlns:sodipodi="http://sodipodi.sourceforge.net/DTD/sodipodi-0.dtd"
   xmlns="http://www.w3.org/2000/svg"
   xmlns:svg="http://www.w3.org/2000/svg">
  <defs
     id="defs6" />
  <sodipodi:namedview
     id="namedview4"
     pagecolor="#ffffff"
     bordercolor="#000000"
     borderopacity="0.25"
     inkscape:showpageshadow="2"
     inkscape:pageopacity="0.0"
     inkscape:pagecheckerboard="0"
     inkscape:deskcolor="#d1d1d1"
     showgrid="false"
     inkscape:zoom="2.3786081"
     inkscape:cx="169.84723"
     inkscape:cy="474.85754"
     inkscape:window-width="1600"
     inkscape:window-height="930"
     inkscape:window-x="-6"
     inkscape:window-y="-6"
     inkscape:window-maximized="1"
     inkscape:current-layer="g10" />
  <g
     id="g10"
     inkscape:groupmode="layer"
     inkscape:label="Page 1"
     transform="matrix(1.3333333,0,0,-1.3333333,-88.416381,864.84534)">
    <g
       id="g342354">
      <g
         id="g4848"
         transform="matrix(0.5454546,0,0,-0.5454546,0,841.89)">
        <path
           d="m 123.0086,358.2004 c 0.0647,-0.154 0.1983,-0.2724 0.4009,-0.3553 0.2025,-0.083 0.6172,-0.2236 1.2442,-0.4218 0.6269,-0.1983 1.5325,-0.479 2.7168,-0.8422 1.1842,-0.3633 2.3199,-0.709 3.4069,-1.0372 1.087,-0.3281 1.9677,-0.5458 2.642,-0.6528 0.6743,-0.107 1.2222,-0.087 1.6438,0.0602"
           style="fill:none;stroke:#000000;stroke-width:1.03937;stroke-linecap:round;stroke-linejoin:round;stroke-miterlimit:10;stroke-dasharray:none;stroke-opacity:1"
           id="path4850" />
      </g>
      <g
         id="g4852"
         transform="matrix(0.5454546,0,0,-0.5454546,0,841.89)">
        <path
           d="m 124.6068,360.1268 c -0.1146,-0.0718 -0.3185,-0.03 -0.6118,0.1253 -0.1931,0.1022 -0.385,0.2837 -0.5757,0.5442 -0.1906,0.2606 -0.3602,0.5756 -0.5086,0.9451 -0.1485,0.3695 -0.2673,0.7645 -0.3564,1.1851 -0.1436,0.6774 -0.2976,1.0695 -0.4621,1.1761"
           style="fill:none;stroke:#000000;stroke-width:1.03937;stroke-linecap:round;stroke-linejoin:round;stroke-miterlimit:10;stroke-dasharray:none;stroke-opacity:1"
           id="path4854" />
      </g>
      <g
         id="g4856"
         transform="matrix(0.5454546,0,0,-0.5454546,0,841.89)">
        <path
           d="m 124.8749,361.0308 c 0.2054,-0.337 0.4993,-0.6316 0.8817,-0.8836 0.2542,-0.1676 0.6069,-0.334 1.058,-0.4992 0.4512,-0.1652 1.0031,-0.3328 1.6558,-0.5028 0.6526,-0.1699 1.3871,-0.3534 2.2032,-0.5503 0.8162,-0.1969 1.6358,-0.4052 2.4587,-0.6249 0.8229,-0.2197 1.5186,-0.3845 2.0869,-0.4946 0.5683,-0.11 1.0155,-0.1774 1.3416,-0.2023 0.3261,-0.0248 0.561,-0.036 0.7046,-0.0334 0.1436,0.002 0.2414,0.0247 0.2933,0.0665 0.052,0.0417 0.092,0.1131 0.1199,0.2142 0.0279,0.101 0.0454,0.261 0.0526,0.4799 0.007,0.2189 -0.0191,0.5111 -0.0787,0.8764 -0.0596,0.3653 -0.171,0.809 -0.3343,1.3311 -0.2434,0.7779 -0.6321,1.5076 -1.1663,2.1891"
           style="fill:none;stroke:#000000;stroke-width:1.03937;stroke-linecap:round;stroke-linejoin:round;stroke-miterlimit:10;stroke-dasharray:none;stroke-opacity:1"
           id="path4858" />
      </g>
      <g
         id="g4860"
         transform="matrix(0.5454546,0,0,-0.5454546,0,841.89)">
        <path
           d="m 130.678,357.0594 c 0.01,-0.1806 -0.008,-0.3163 -0.0538,-0.4071 -0.0312,-0.0624 -0.0512,-0.1024 -0.06,-0.12 -0.009,-0.0175 -0.0174,0.0536 -0.026,0.2133 -0.008,0.1597 -0.0281,0.5238 -0.0585,1.0923 -0.0305,0.5685 -0.0821,1.2403 -0.1549,2.0153 -0.0727,0.775 -0.1709,1.4912 -0.2944,2.1486 -0.1236,0.6574 -0.4014,1.2368 -0.8335,1.7381"
           style="fill:none;stroke:#000000;stroke-width:1.03937;stroke-linecap:round;stroke-linejoin:round;stroke-miterlimit:10;stroke-dasharray:none;stroke-opacity:1"
           id="path4862" />
      </g>
      <g
         id="g4864"
         transform="matrix(0.5454546,0,0,-0.5454546,0,841.89)">
        <path
           d="m 126.855,361.2615 c 0.1127,-0.1319 0.172,-0.2012 0.1778,-0.208 0.004,-0.005 4e-4,0.004 -0.0111,0.0247 -0.0114,0.0213 -0.097,0.1806 -0.2569,0.4779 -0.1598,0.2973 -0.3061,0.594 -0.4388,0.8901 -0.1326,0.2961 -0.245,0.5722 -0.3369,0.8282 -0.0919,0.2561 -0.1517,0.4573 -0.1792,0.6037 -0.0276,0.1463 -0.013,0.2318 0.0437,0.2565 0.0566,0.0247 0.1853,-0.0107 0.3859,-0.1064 0.2006,-0.0956 0.4639,-0.2338 0.79,-0.4144 0.4688,-0.2598 1.5734,-0.8158 3.3137,-1.6681"
           style="fill:none;stroke:#000000;stroke-width:1.03937;stroke-linecap:round;stroke-linejoin:round;stroke-miterlimit:10;stroke-dasharray:none;stroke-opacity:1"
           id="path4866" />
      </g>
      <g
         id="g4868"
         transform="matrix(0.5454546,0,0,-0.5454546,0,841.89)">
        <path
           d="m 134.2937,359.5486 c -0.3854,-0.0687 -0.6535,-0.0131 -0.8042,0.1669 -0.1046,0.1251 -0.2225,0.2964 -0.3536,0.5139 -0.1311,0.2176 -0.2635,0.453 -0.3973,0.7062 -0.1337,0.2532 -0.2466,0.4755 -0.3387,0.6669 -0.092,0.1914 -0.1588,0.357 -0.2003,0.4969 -0.0416,0.1399 -0.0553,0.2722 -0.0411,0.3969 0.0142,0.1247 0.1007,0.2562 0.2595,0.3944 0.1588,0.1383 0.3479,0.2766 0.5675,0.415 0.3287,0.2071 0.6651,0.4157 1.0094,0.6256"
           style="fill:none;stroke:#000000;stroke-width:1.03937;stroke-linecap:round;stroke-linejoin:round;stroke-miterlimit:10;stroke-dasharray:none;stroke-opacity:1"
           id="path4870" />
      </g>
      <g
         id="g4872"
         transform="matrix(0.5454546,0,0,-0.5454546,0,841.89)">
        <path
           d="m 126.8258,366.8455 c 0.03,-0.0798 0.0139,-0.1673 -0.0483,-0.2626 -0.042,-0.0642 -0.086,-0.1045 -0.1322,-0.121 -0.0462,-0.0165 -0.0947,0.0279 -0.1457,0.1332 -0.0509,0.1053 -0.1183,0.3626 -0.202,0.7718 -0.0838,0.4093 -0.1714,0.8823 -0.2628,1.4189 -0.0915,0.5365 -0.1627,1.0235 -0.2138,1.4608 l -0.073,0.6247 2e-4,-0.002 0.002,-0.0165 -0.006,0.0493"
           style="fill:none;stroke:#000000;stroke-width:1.03937;stroke-linecap:round;stroke-linejoin:round;stroke-miterlimit:10;stroke-dasharray:none;stroke-opacity:1"
           id="path4874" />
      </g>
      <g
         id="g4876"
         transform="matrix(0.5454546,0,0,-0.5454546,0,841.89)">
        <path
           d="m 127.1639,366.9894 c 0.2274,-0.1896 0.6108,-0.3599 1.1501,-0.511 0.5393,-0.1511 1.3592,-0.3839 2.4597,-0.6986 1.1006,-0.3146 1.8072,-0.5002 2.1198,-0.5568 0.3127,-0.0566 0.5056,-0.0852 0.5788,-0.0859 0.0732,-6e-4 0.1109,0.0431 0.113,0.1311 0.002,0.088 -0.0546,0.3843 -0.17,0.8888 -0.1155,0.5046 -0.23,0.9676 -0.3436,1.389 -0.1642,0.6095 -0.7253,1.5393 -1.6832,2.7895"
           style="fill:none;stroke:#000000;stroke-width:1.03937;stroke-linecap:round;stroke-linejoin:round;stroke-miterlimit:10;stroke-dasharray:none;stroke-opacity:1"
           id="path4878" />
      </g>
      <g
         id="g4880"
         transform="matrix(0.5454546,0,0,-0.5454546,0,841.89)">
        <path
           d="m 128.0293,368.9979 c 0.0194,-0.4339 0.5205,-0.651 1.5032,-0.6513 0.9827,-2e-4 1.7644,-0.0397 2.3451,-0.1184 0.5807,-0.0788 1.0078,-0.2921 1.2813,-0.6399"
           style="fill:none;stroke:#000000;stroke-width:1.03937;stroke-linecap:round;stroke-linejoin:round;stroke-miterlimit:10;stroke-dasharray:none;stroke-opacity:1"
           id="path4882" />
      </g>
      <g
         id="g4884"
         transform="matrix(0.5454546,0,0,-0.5454546,0,841.89)">
        <path
           d="m 126.9628,371.2498 c -0.2348,0.0272 -0.3587,0.0416 -0.3719,0.0431 -0.009,0.001 0.002,0.002 0.0347,0.001 0.0325,-2e-4 0.2572,-0.002 0.6744,-0.004 0.4171,-0.003 0.9445,-0.0414 1.5823,-0.1165 0.9639,-0.1134 1.8704,-0.2086 2.7193,-0.2856"
           style="fill:none;stroke:#000000;stroke-width:1.03937;stroke-linecap:round;stroke-linejoin:round;stroke-miterlimit:10;stroke-dasharray:none;stroke-opacity:1"
           id="path4886" />
      </g>
      <g
         id="g4888"
         transform="matrix(0.5454546,0,0,-0.5454546,0,841.89)">
        <path
           d="m 130.0489,366.7637 c -0.1503,-0.0783 -0.2708,-0.123 -0.3613,-0.1338 -0.0622,-0.007 -0.1313,0.0488 -0.2074,0.1688 -0.0762,0.12 -0.1688,0.4087 -0.2778,0.866 -0.109,0.4573 -0.2363,1.0957 -0.3818,1.9151 -0.1455,0.8193 -0.2719,1.6405 -0.3791,2.4634 -0.1072,0.8228 -0.1732,1.4911 -0.1979,2.0049 -0.0247,0.5138 -0.0151,0.8725 0.0287,1.076 0.0439,0.2036 0.1331,0.3433 0.2678,0.419 0.1346,0.0757 0.3245,0.1406 0.5696,0.1948 0.2451,0.0541 0.5697,0.0952 0.9736,0.1232 0.4039,0.0281 0.8717,0.009 1.4033,-0.0575 0.5317,-0.0664 1.079,-0.2211 1.6418,-0.4642 0.5628,-0.2432 1.0974,-0.5272 1.6039,-0.8522 0.5065,-0.325 0.9241,-0.6012 1.2527,-0.8287 0.3286,-0.2275 0.5278,-0.3708 0.5973,-0.43 0.0976,-0.0831 -0.0986,-0.2004 -0.5887,-0.3518"
           style="fill:none;stroke:#000000;stroke-width:1.03937;stroke-linecap:round;stroke-linejoin:round;stroke-miterlimit:10;stroke-dasharray:none;stroke-opacity:1"
           id="path4890" />
      </g>
    </g>
  </g>
</svg>
