<?xml version="1.0" encoding="UTF-8" standalone="no"?>
<!-- Created with Inkscape (http://www.inkscape.org/) -->

<svg
   version="1.1"
   id="svg2"
   width="12.34433"
   height="16.74144"
   viewBox="0 0 12.34433 16.74144"
   sodipodi:docname="E24136542_宋昱宣_預報2.svg"
   inkscape:version="1.2.1 (9c6d41e410, 2022-07-14)"
   xmlns:inkscape="http://www.inkscape.org/namespaces/inkscape"
   xmlns:sodipodi="http://sodipodi.sourceforge.net/DTD/sodipodi-0.dtd"
   xmlns="http://www.w3.org/2000/svg"
   xmlns:svg="http://www.w3.org/2000/svg">
  <defs
     id="defs6" />
  <sodipodi:namedview
     id="namedview4"
     pagecolor="#ffffff"
     bordercolor="#000000"
     borderopacity="0.25"
     inkscape:showpageshadow="2"
     inkscape:pageopacity="0.0"
     inkscape:pagecheckerboard="0"
     inkscape:deskcolor="#d1d1d1"
     showgrid="false"
     inkscape:zoom="2.3786081"
     inkscape:cx="169.84723"
     inkscape:cy="474.85754"
     inkscape:window-width="1600"
     inkscape:window-height="930"
     inkscape:window-x="-6"
     inkscape:window-y="-6"
     inkscape:window-maximized="1"
     inkscape:current-layer="g10" />
  <g
     id="g10"
     inkscape:groupmode="layer"
     inkscape:label="Page 1"
     transform="matrix(1.3333333,0,0,-1.3333333,-280.9313,907.93734)">
    <g
       id="g365940">
      <g
         id="g4508"
         transform="matrix(0.5454546,0,0,-0.5454546,0,841.89)">
        <path
           d="m 389.1233,298.7332 c -0.2708,-0.1394 -0.4266,-0.2196 -0.4675,-0.2406 -0.0287,-0.0147 -0.0312,-0.0222 -0.008,-0.0225 0.0236,-2e-4 0.0934,-10e-4 0.2096,-0.002 0.1163,-10e-4 0.5181,-0.0698 1.2055,-0.2057 0.6873,-0.136 1.5465,-0.398 2.5774,-0.7861 1.0309,-0.3881 2.004,-0.7555 2.9191,-1.1022 0.9152,-0.3467 1.6806,-0.5725 2.2964,-0.6774 0.6158,-0.1049 1.1202,-0.1441 1.5134,-0.1177 0.3932,0.0264 0.6823,0.0657 0.8673,0.1179 l 0.2495,0.0702 -0.003,-8e-4 -0.0156,-0.004 0.047,0.0132"
           style="fill:none;stroke:#000000;stroke-width:1.03937;stroke-linecap:round;stroke-linejoin:round;stroke-miterlimit:10;stroke-dasharray:none;stroke-opacity:1"
           id="path4510" />
      </g>
      <g
         id="g4512"
         transform="matrix(0.5454546,0,0,-0.5454546,0,841.89)">
        <path
           d="m 387.8514,301.3934 c -0.207,-0.0503 -0.3361,-0.0594 -0.3872,-0.0274 -0.0357,0.0223 -0.09,0.2817 -0.1629,0.7782 -0.0728,0.4964 -0.1427,0.9617 -0.2096,1.3958 -0.0669,0.4341 -0.1321,0.802 -0.1957,1.1038 l -0.0737,0.3498 0.006,-0.0303 0.014,-0.0667 -0.0421,0.1999"
           style="fill:none;stroke:#000000;stroke-width:1.03937;stroke-linecap:round;stroke-linejoin:round;stroke-miterlimit:10;stroke-dasharray:none;stroke-opacity:1"
           id="path4514" />
      </g>
      <g
         id="g4516"
         transform="matrix(0.5454546,0,0,-0.5454546,0,841.89)">
        <path
           d="m 388.7526,301.5831 c 0.0851,-0.1164 0.2604,-0.2497 0.526,-0.4 0.169,-0.0956 0.4242,-0.2008 0.7658,-0.3157 0.3416,-0.1149 0.8082,-0.2627 1.3998,-0.4435 0.5915,-0.1807 1.2932,-0.3913 2.105,-0.6318 0.8117,-0.2404 1.6664,-0.4654 2.564,-0.6749 0.8976,-0.2095 1.6797,-0.3661 2.3463,-0.4699 0.6665,-0.1038 1.2355,-0.1744 1.707,-0.2118 0.4714,-0.0373 0.8433,-0.0628 1.1157,-0.0765 0.2723,-0.0136 0.4853,-0.0278 0.6389,-0.0427 0.1536,-0.0149 0.2983,-0.0213 0.4341,-0.0194 0.1357,0.002 0.2246,0.0329 0.2667,0.0926 0.0421,0.0598 0.0737,0.1723 0.0948,0.3376 0.0211,0.1654 0.0227,0.3841 0.005,0.6564 -0.0179,0.2722 -0.0775,0.6141 -0.1788,1.0257 -0.1013,0.4117 -0.2248,0.8271 -0.3707,1.2464 -0.2142,0.6155 -0.6658,1.1319 -1.3547,1.5492"
           style="fill:none;stroke:#000000;stroke-width:1.03937;stroke-linecap:round;stroke-linejoin:round;stroke-miterlimit:10;stroke-dasharray:none;stroke-opacity:1"
           id="path4518" />
      </g>
      <g
         id="g4520"
         transform="matrix(0.5454546,0,0,-0.5454546,0,841.89)">
        <path
           d="m 394.948,297.3951 c -0.033,-0.202 -0.0591,-0.3291 -0.0781,-0.3815 -0.0133,-0.0364 -0.0209,-0.0572 -0.0227,-0.0624 -0.002,-0.005 -0.003,0.0145 -0.003,0.0591 -2e-4,0.0445 -10e-4,0.2232 -0.002,0.5361 -0.002,0.3129 -0.0104,0.7926 -0.0267,1.439 -0.0162,0.6465 -0.0536,1.3698 -0.1122,2.1699 -0.0586,0.8002 -0.1139,1.4262 -0.1661,1.878 -0.0521,0.4519 -0.186,0.7923 -0.4017,1.0213"
           style="fill:none;stroke:#000000;stroke-width:1.03937;stroke-linecap:round;stroke-linejoin:round;stroke-miterlimit:10;stroke-dasharray:none;stroke-opacity:1"
           id="path4522" />
      </g>
      <g
         id="g4524"
         transform="matrix(0.5454546,0,0,-0.5454546,0,841.89)">
        <path
           d="m 390.7444,301.9635 c -0.2256,-0.0758 -0.3343,-0.0628 -0.3262,0.0392 0.006,0.0728 0.0321,0.1975 0.0789,0.374 0.0469,0.1765 0.0858,0.3799 0.1168,0.61 0.0445,0.3312 -0.1731,0.8489 -0.6529,1.5531"
           style="fill:none;stroke:#000000;stroke-width:1.03937;stroke-linecap:round;stroke-linejoin:round;stroke-miterlimit:10;stroke-dasharray:none;stroke-opacity:1"
           id="path4526" />
      </g>
      <g
         id="g4528"
         transform="matrix(0.5454546,0,0,-0.5454546,0,841.89)">
        <path
           d="m 389.555,305.1881 c -0.0737,0.005 -0.112,0.008 -0.115,0.008 l -10e-4,10e-5 0.003,1e-4 c 0.004,0 0.0362,10e-5 0.0982,4e-4 0.062,3e-4 0.2686,-0.0725 0.6199,-0.2183 0.505,-0.2097 1.5608,-0.87 3.1673,-1.9809"
           style="fill:none;stroke:#000000;stroke-width:1.03937;stroke-linecap:round;stroke-linejoin:round;stroke-miterlimit:10;stroke-dasharray:none;stroke-opacity:1"
           id="path4530" />
      </g>
      <g
         id="g4532"
         transform="matrix(0.5454546,0,0,-0.5454546,0,841.89)">
        <path
           d="m 399.1956,299.3183 c -0.2062,-0.0304 -0.4963,0.2229 -0.8703,0.7601 -0.374,0.5371 -0.6913,0.9935 -0.952,1.3691 -0.2606,0.3756 -0.4356,0.652 -0.5248,0.8291 -0.0893,0.1771 -0.0424,0.2789 0.1406,0.3053 0.183,0.0264 0.3885,0.0397 0.6165,0.04 0.228,2e-4 0.4132,0.0138 0.5555,0.0409 0.1423,0.027 0.3135,0.0883 0.5135,0.1837 0.2,0.0954 0.3598,0.1992 0.4793,0.3114 0.1194,0.1122 0.2143,0.2128 0.2845,0.3018"
           style="fill:none;stroke:#000000;stroke-width:1.03937;stroke-linecap:round;stroke-linejoin:round;stroke-miterlimit:10;stroke-dasharray:none;stroke-opacity:1"
           id="path4534" />
      </g>
      <g
         id="g4536"
         transform="matrix(0.5454546,0,0,-0.5454546,0,841.89)">
        <path
           d="m 391.6178,306.7279 c -0.3825,-0.095 -0.6067,-0.1057 -0.6726,-0.0321 -0.0463,0.0517 -0.0964,0.4043 -0.1504,1.0578 -0.054,0.6535 -0.1087,1.2389 -0.1642,1.756 -0.0555,0.5171 -0.0945,0.8862 -0.1169,1.1071 l -0.0298,0.2937 4e-4,-0.005 0.002,-0.0213 -0.006,0.0639"
           style="fill:none;stroke:#000000;stroke-width:1.03937;stroke-linecap:round;stroke-linejoin:round;stroke-miterlimit:10;stroke-dasharray:none;stroke-opacity:1"
           id="path4538" />
      </g>
      <g
         id="g4540"
         transform="matrix(0.5454546,0,0,-0.5454546,0,841.89)">
        <path
           d="m 391.6111,307.3427 c 0,-0.1276 0.0614,-0.2225 0.184,-0.2848 0.1226,-0.0624 0.3924,-0.1763 0.8095,-0.3419 0.417,-0.1656 0.9466,-0.3561 1.5889,-0.5717 0.6423,-0.2155 1.2408,-0.397 1.7955,-0.5446 0.5548,-0.1476 0.9909,-0.2499 1.3085,-0.307 0.3176,-0.0571 0.5289,-0.0885 0.6338,-0.0942 0.105,-0.006 0.1684,0.0318 0.1903,0.1124 0.0218,0.0805 0.0232,0.1968 0.004,0.3488 -0.0192,0.1519 -0.0868,0.5392 -0.2027,1.1618 -0.1159,0.6226 -0.2205,1.157 -0.314,1.603 -0.0934,0.4461 -0.2011,0.8458 -0.323,1.1992 -0.1793,0.5196 -0.4482,0.7986 -0.8068,0.8369"
           style="fill:none;stroke:#000000;stroke-width:1.03937;stroke-linecap:round;stroke-linejoin:round;stroke-miterlimit:10;stroke-dasharray:none;stroke-opacity:1"
           id="path4542" />
      </g>
      <g
         id="g4544"
         transform="matrix(0.5454546,0,0,-0.5454546,0,841.89)">
        <path
           d="m 392.4287,309.3084 c -0.3279,-0.0206 -0.4985,-0.0313 -0.5118,-0.0322 l -0.006,-7e-4 0.009,-5e-4 c 0.011,-2e-4 0.1149,-0.002 0.3116,-0.005 0.1967,-0.003 0.5506,-0.058 1.0619,-0.1636 0.5112,-0.1057 1.1012,-0.2435 1.7698,-0.4134 0.6686,-0.17 1.3312,-0.226 1.9879,-0.1682"
           style="fill:none;stroke:#000000;stroke-width:1.03937;stroke-linecap:round;stroke-linejoin:round;stroke-miterlimit:10;stroke-dasharray:none;stroke-opacity:1"
           id="path4546" />
      </g>
      <g
         id="g4548"
         transform="matrix(0.5454546,0,0,-0.5454546,0,841.89)">
        <path
           d="m 391.6677,311.8842 c -0.458,0.0889 -0.7365,0.146 -0.8356,0.1711 -0.0692,0.0176 -0.1071,0.0272 -0.1137,0.0289 -0.007,0.002 0.007,0.002 0.0411,10e-4 0.0341,-7e-4 0.2284,-0.005 0.5829,-0.0117 0.3546,-0.007 0.7943,-0.0507 1.319,-0.1309 0.5248,-0.0802 1.0124,-0.1608 1.4627,-0.2417 0.4504,-0.081 0.9202,-0.1705 1.4094,-0.2686 0.4893,-0.0981 0.8529,-0.2659 1.0908,-0.5034"
           style="fill:none;stroke:#000000;stroke-width:1.03937;stroke-linecap:round;stroke-linejoin:round;stroke-miterlimit:10;stroke-dasharray:none;stroke-opacity:1"
           id="path4550" />
      </g>
      <g
         id="g4552"
         transform="matrix(0.5454546,0,0,-0.5454546,0,841.89)">
        <path
           d="m 393.5568,307.8496 c 0.002,-0.0814 -0.0275,-0.1812 -0.0901,-0.2996 -0.0407,-0.077 -0.0967,-0.1451 -0.1681,-0.2041 -0.0714,-0.0589 -0.117,-0.0509 -0.1369,0.0242 -0.02,0.0751 -0.0359,0.2807 -0.0479,0.6168 -0.012,0.3361 -0.0333,0.7843 -0.0639,1.3446 -0.0307,0.5602 -0.0875,1.2249 -0.1707,1.9939 -0.0831,0.7691 -0.1751,1.5233 -0.276,2.2629 -0.1009,0.7395 -0.1746,1.342 -0.2209,1.8076 -0.0464,0.4655 -0.0669,0.8593 -0.0616,1.1814 0.005,0.322 0.0497,0.532 0.1328,0.6299 0.0831,0.0979 0.1936,0.1684 0.3314,0.2115 0.1378,0.0431 0.3246,0.0754 0.5605,0.0968 0.2359,0.0214 0.5233,0.0332 0.8622,0.0353 0.3389,0.002 0.7342,-0.0299 1.186,-0.0963 0.4518,-0.0665 0.8811,-0.1692 1.2879,-0.3081 0.4068,-0.139 0.8823,-0.373 1.4266,-0.702 0.5443,-0.329 0.9416,-0.5977 1.1918,-0.8062 0.2503,-0.2084 0.4079,-0.3897 0.473,-0.5438 0.065,-0.1541 0.0511,-0.2883 -0.0419,-0.4027 -0.1335,-0.1644 -0.4269,-0.6056 -0.8804,-1.3238"
           style="fill:none;stroke:#000000;stroke-width:1.03937;stroke-linecap:round;stroke-linejoin:round;stroke-miterlimit:10;stroke-dasharray:none;stroke-opacity:1"
           id="path4554" />
      </g>
    </g>
  </g>
</svg>
