<svg xmlns="http://www.w3.org/2000/svg" width="12.36" height="18.108"><path d="M124.689 62.1a.8.8 0 0 1-.242.231l-.082.042q-.012.006.041-.005l.38-.08q.328-.07 1.057-.178a27 27 0 0 1 1.877-.192q1.146-.085 2.563-.218a30 30 0 0 0 2.794-.394q1.377-.26 2.37-.53.995-.268 1.335-.337l.315-.064h-.002l-.014.004.043-.01" style="fill:none;stroke:#000;stroke-width:1.03937;stroke-linecap:round;stroke-linejoin:round;stroke-miterlimit:10;stroke-dasharray:none;stroke-opacity:1" transform="matrix(.72727 0 0 .72727 -89.552 -43.527)"/><path d="M124.293 64.959a9 9 0 0 0-.275 1.07q-.135.656-.266 1.49-.132.837-.083 1.202" style="fill:none;stroke:#000;stroke-width:1.03937;stroke-linecap:round;stroke-linejoin:round;stroke-miterlimit:10;stroke-dasharray:none;stroke-opacity:1" transform="matrix(.72727 0 0 .72727 -89.552 -43.527)"/><path d="M124.956 66.33q.149-.265.455-.481.203-.144.608-.257t1.128-.262 1.807-.385a44 44 0 0 0 2.37-.596q1.288-.358 2.49-.718a30 30 0 0 1 2.036-.543 12 12 0 0 1 1.203-.221q.369-.038.597-.036.227 0 .299.21.072.211.063.63t-.184 1.144-.447 1.522q-.415 1.221-.94 1.967" style="fill:none;stroke:#000;stroke-width:1.03937;stroke-linecap:round;stroke-linejoin:round;stroke-miterlimit:10;stroke-dasharray:none;stroke-opacity:1" transform="matrix(.72727 0 0 .72727 -89.552 -43.527)"/><path d="m131.256 62.144-.202-.3q-.027-.04-.027.463l-.003 2.138q-.002 1.635-.033 2.717-.03 1.082-.065 1.618l-.034.536" style="fill:none;stroke:#000;stroke-width:1.03937;stroke-linecap:round;stroke-linejoin:round;stroke-miterlimit:10;stroke-dasharray:none;stroke-opacity:1" transform="matrix(.72727 0 0 .72727 -89.552 -43.527)"/><path d="m126.845 66.198-.16-.188q-.012-.014.177.562l.1.338-.074-.165q-.227-.56.204 1.927" style="fill:none;stroke:#000;stroke-width:1.03937;stroke-linecap:round;stroke-linejoin:round;stroke-miterlimit:10;stroke-dasharray:none;stroke-opacity:1" transform="matrix(.72727 0 0 .72727 -89.552 -43.527)"/><path d="M126.223 70.195q.468-.375 3.185-2.706" style="fill:none;stroke:#000;stroke-width:1.03937;stroke-linecap:round;stroke-linejoin:round;stroke-miterlimit:10;stroke-dasharray:none;stroke-opacity:1" transform="matrix(.72727 0 0 .72727 -89.552 -43.527)"/><path d="M135.163 64.707q.027-.203-.08-.05l-.393.564q-.315.452-.539.794a8 8 0 0 0-.34.562 1.3 1.3 0 0 0-.132.315q-.018.097.357.313t.712.373q.338.158.656.32.457.236.376.489" style="fill:none;stroke:#000;stroke-width:1.03937;stroke-linecap:round;stroke-linejoin:round;stroke-miterlimit:10;stroke-dasharray:none;stroke-opacity:1" transform="matrix(.72727 0 0 .72727 -89.552 -43.527)"/><path d="M128 71.632q-.162-.166-.257.038-.069.147-.132.714-.064.567-.082 1.3-.02.732.035 1.21l.054.477" style="fill:none;stroke:#000;stroke-width:1.03937;stroke-linecap:round;stroke-linejoin:round;stroke-miterlimit:10;stroke-dasharray:none;stroke-opacity:1" transform="matrix(.72727 0 0 .72727 -89.552 -43.527)"/><path d="M129.01 71.678q.222-.38.476-.538.174-.109.589-.274t1.115-.405 1.414-.487 1.245-.409q.53-.16.82-.2.288-.037.287.55a6.6 6.6 0 0 1-.108 1.17q-.106.58-.272 1.382-.167.803-.338 1.542-.258 1.114-.802 1.321" style="fill:none;stroke:#000;stroke-width:1.03937;stroke-linecap:round;stroke-linejoin:round;stroke-miterlimit:10;stroke-dasharray:none;stroke-opacity:1" transform="matrix(.72727 0 0 .72727 -89.552 -43.527)"/><path d="m129.188 74.346-.307-.028q-.017-.001.079-.029l.897-.252q.8-.225 1.808-.474 1.488-.369 2 .306" style="fill:none;stroke:#000;stroke-width:1.03937;stroke-linecap:round;stroke-linejoin:round;stroke-miterlimit:10;stroke-dasharray:none;stroke-opacity:1" transform="matrix(.72727 0 0 .72727 -89.552 -43.527)"/><path d="m128.749 77.158-.484.174q-.03.01-.014.01l.131.003q.117.002.788-.175.67-.18 1.618-.501a26 26 0 0 0 2.916-1.211" style="fill:none;stroke:#000;stroke-width:1.03937;stroke-linecap:round;stroke-linejoin:round;stroke-miterlimit:10;stroke-dasharray:none;stroke-opacity:1" transform="matrix(.72727 0 0 .72727 -89.552 -43.527)"/><path d="M131.024 71.445q-.442-.213-.594-.33l-.145-.11q-.04-.03-.03.02l.04.184q.028.13.064.8t-.01 1.84a30 30 0 0 1-.25 2.71 80 80 0 0 1-.397 2.703 30 30 0 0 0-.263 1.859q-.069.692-.076 1.185a4.7 4.7 0 0 0 .048.819q.054.327.172.533a.9.9 0 0 0 .291.321q.174.115.476.175.303.06.792.074.489.012 1.227-.136.737-.15 1.71-.46a25.5 25.5 0 0 0 3.743-1.538q.81-.42 1.24-.708.428-.29.514-.37t-.037-.2a2 2 0 0 1-.263-.341 2.5 2.5 0 0 1-.254-.597q-.165-.545-.115-1.879" style="fill:none;stroke:#000;stroke-width:1.03937;stroke-linecap:round;stroke-linejoin:round;stroke-miterlimit:10;stroke-dasharray:none;stroke-opacity:1" transform="matrix(.72727 0 0 .72727 -89.552 -43.527)"/></svg>