<?xml version="1.0" encoding="UTF-8" standalone="no"?>
<!-- Created with Inkscape (http://www.inkscape.org/) -->

<svg
   version="1.1"
   id="svg2"
   width="12.359856"
   height="18.107727"
   viewBox="0 0 12.359856 18.107727"
   sodipodi:docname="E24136542_宋昱宣_預報2.svg"
   inkscape:version="1.2.1 (9c6d41e410, 2022-07-14)"
   xmlns:inkscape="http://www.inkscape.org/namespaces/inkscape"
   xmlns:sodipodi="http://sodipodi.sourceforge.net/DTD/sodipodi-0.dtd"
   xmlns="http://www.w3.org/2000/svg"
   xmlns:svg="http://www.w3.org/2000/svg">
  <defs
     id="defs6" />
  <sodipodi:namedview
     id="namedview4"
     pagecolor="#ffffff"
     bordercolor="#000000"
     borderopacity="0.25"
     inkscape:showpageshadow="2"
     inkscape:pageopacity="0.0"
     inkscape:pagecheckerboard="0"
     inkscape:deskcolor="#d1d1d1"
     showgrid="false"
     inkscape:zoom="2.3786081"
     inkscape:cx="203.48035"
     inkscape:cy="340.32508"
     inkscape:window-width="1600"
     inkscape:window-height="930"
     inkscape:window-x="-6"
     inkscape:window-y="-6"
     inkscape:window-maximized="1"
     inkscape:current-layer="g10" />
  <g
     id="g10"
     inkscape:groupmode="layer"
     inkscape:label="Page 1"
     transform="matrix(1.3333333,0,0,-1.3333333,-89.551742,1078.9925)">
    <g
       id="g82698">
      <g
         id="g620"
         transform="matrix(0.5454546,0,0,-0.5454546,0,841.89)">
        <path
           d="m 124.689,62.09914 c -0.0927,0.11969 -0.1734,0.19699 -0.242,0.23191 -0.0472,0.02402 -0.0747,0.03798 -0.0824,0.04189 -0.008,0.0039 0.006,0.0021 0.0418,-0.0054 0.0355,-0.0075 0.1623,-0.03432 0.3803,-0.08043 0.218,-0.04611 0.5703,-0.10498 1.0568,-0.17662 0.4865,-0.07164 1.1119,-0.13575 1.8762,-0.19232 0.7642,-0.05658 1.6188,-0.12924 2.5637,-0.218 0.945,-0.08875 1.8763,-0.2201 2.7941,-0.39405 0.9177,-0.17394 1.7077,-0.35046 2.3699,-0.52956 0.6623,-0.1791 1.1072,-0.29164 1.335,-0.33763 l 0.3149,-0.06356 -0.002,4.5e-4 -0.0145,0.0029 0.0435,-0.0088"
           style="fill:none;stroke:#000000;stroke-width:1.03937;stroke-linecap:round;stroke-linejoin:round;stroke-miterlimit:10;stroke-dasharray:none;stroke-opacity:1"
           id="path622" />
      </g>
      <g
         id="g624"
         transform="matrix(0.5454546,0,0,-0.5454546,0,841.89)">
        <path
           d="m 124.293,64.95867 c -0.0931,0.277 -0.1846,0.63392 -0.2746,1.07073 -0.09,0.43682 -0.1789,0.93366 -0.2667,1.49052 -0.0878,0.55686 -0.1155,0.95724 -0.0832,1.20111"
           style="fill:none;stroke:#000000;stroke-width:1.03937;stroke-linecap:round;stroke-linejoin:round;stroke-miterlimit:10;stroke-dasharray:none;stroke-opacity:1"
           id="path626" />
      </g>
      <g
         id="g628"
         transform="matrix(0.5454546,0,0,-0.5454546,0,841.89)">
        <path
           d="m 124.9561,66.32983 c 0.0991,-0.17681 0.2507,-0.33724 0.4547,-0.48127 0.1352,-0.09543 0.3379,-0.18104 0.6081,-0.25684 0.2703,-0.07579 0.6464,-0.16296 1.1284,-0.2615 0.4819,-0.09854 1.0841,-0.22685 1.8065,-0.38492 0.7225,-0.15808 1.5127,-0.35676 2.3707,-0.59603 0.8581,-0.23928 1.6878,-0.47868 2.4892,-0.71821 0.8014,-0.23953 1.4801,-0.42069 2.0363,-0.54346 0.5561,-0.12277 0.9572,-0.19647 1.2032,-0.2211 0.2461,-0.02463 0.4449,-0.03662 0.5965,-0.03599 0.1517,6.4e-4 0.2514,0.0711 0.2992,0.21138 0.0479,0.14029 0.0689,0.35016 0.063,0.62961 -0.006,0.27946 -0.0673,0.66056 -0.1841,1.14329 -0.1169,0.48274 -0.2658,0.99023 -0.4469,1.52249 -0.2767,0.81384 -0.5902,1.46939 -0.9404,1.96664"
           style="fill:none;stroke:#000000;stroke-width:1.03937;stroke-linecap:round;stroke-linejoin:round;stroke-miterlimit:10;stroke-dasharray:none;stroke-opacity:1"
           id="path630" />
      </g>
      <g
         id="g632"
         transform="matrix(0.5454546,0,0,-0.5454546,0,841.89)">
        <path
           d="m 131.2563,62.14384 c -0.109,-0.16133 -0.1764,-0.26102 -0.2021,-0.29908 -0.018,-0.02653 -0.0271,0.12754 -0.0275,0.46222 -4e-4,0.33469 -0.001,1.0472 -0.003,2.13755 -0.001,1.09036 -0.012,1.99623 -0.0323,2.71761 -0.0203,0.72139 -0.042,1.26077 -0.0651,1.61813 -0.0231,0.35736 -0.0347,0.53604 -0.0347,0.53604"
           style="fill:none;stroke:#000000;stroke-width:1.03937;stroke-linecap:round;stroke-linejoin:round;stroke-miterlimit:10;stroke-dasharray:none;stroke-opacity:1"
           id="path634" />
      </g>
      <g
         id="g636"
         transform="matrix(0.5454546,0,0,-0.5454546,0,841.89)">
        <path
           d="m 126.8447,66.19763 c -0.0964,-0.11298 -0.1498,-0.17565 -0.1603,-0.18799 -0.007,-0.0087 0.0518,0.17866 0.1778,0.56198 l 0.1007,0.33844 -0.0747,-0.16522 c -0.1513,-0.37345 -0.0836,0.26881 0.2034,1.92678"
           style="fill:none;stroke:#000000;stroke-width:1.03937;stroke-linecap:round;stroke-linejoin:round;stroke-miterlimit:10;stroke-dasharray:none;stroke-opacity:1"
           id="path638" />
      </g>
      <g
         id="g640"
         transform="matrix(0.5454546,0,0,-0.5454546,0,841.89)">
        <path
           d="m 126.2231,70.1953 c 0.3114,-0.25073 1.3729,-1.1528 3.1846,-2.70623"
           style="fill:none;stroke:#000000;stroke-width:1.03937;stroke-linecap:round;stroke-linejoin:round;stroke-miterlimit:10;stroke-dasharray:none;stroke-opacity:1"
           id="path642" />
      </g>
      <g
         id="g644"
         transform="matrix(0.5454546,0,0,-0.5454546,0,841.89)">
        <path
           d="m 135.163,64.7065 c 0.0176,-0.13487 -0.009,-0.15155 -0.0798,-0.05004 -0.0525,0.07531 -0.1837,0.26357 -0.3936,0.56479 -0.2099,0.30123 -0.3893,0.56589 -0.5383,0.79401 -0.1489,0.22811 -0.262,0.41533 -0.3394,0.56166 -0.0773,0.14634 -0.1218,0.25153 -0.1334,0.31557 -0.0116,0.06404 0.1075,0.16814 0.3575,0.3123 0.25,0.14415 0.4875,0.26854 0.7124,0.37316 0.2248,0.10462 0.4433,0.21157 0.6554,0.32085 0.3056,0.15745 0.4309,0.32005 0.3759,0.4878"
           style="fill:none;stroke:#000000;stroke-width:1.03937;stroke-linecap:round;stroke-linejoin:round;stroke-miterlimit:10;stroke-dasharray:none;stroke-opacity:1"
           id="path646" />
      </g>
      <g
         id="g648"
         transform="matrix(0.5454546,0,0,-0.5454546,0,841.89)">
        <path
           d="m 127.9992,71.632 c -0.1076,-0.11101 -0.1931,-0.09848 -0.2564,0.0376 -0.0458,0.09827 -0.0897,0.33648 -0.1317,0.71462 -0.042,0.37815 -0.0694,0.81128 -0.0822,1.2994 -0.0128,0.48811 -10e-4,0.89133 0.0351,1.20964 0.0361,0.31832 0.0542,0.47748 0.0542,0.47748"
           style="fill:none;stroke:#000000;stroke-width:1.03937;stroke-linecap:round;stroke-linejoin:round;stroke-miterlimit:10;stroke-dasharray:none;stroke-opacity:1"
           id="path650" />
      </g>
      <g
         id="g652"
         transform="matrix(0.5454546,0,0,-0.5454546,0,841.89)">
        <path
           d="m 129.0099,71.67823 c 0.1478,-0.25314 0.3066,-0.4326 0.4762,-0.5384 0.1157,-0.07215 0.312,-0.16349 0.5889,-0.27402 0.2769,-0.11052 0.6484,-0.24542 1.1147,-0.4047 0.4662,-0.15929 0.9376,-0.32157 1.4142,-0.48684 0.4766,-0.16528 0.8917,-0.30166 1.2453,-0.40915 0.3535,-0.10748 0.6266,-0.17393 0.8192,-0.19934 0.1926,-0.02541 0.2884,0.15793 0.2872,0.55004 -0.001,0.39211 -0.0371,0.78161 -0.1077,1.1685 -0.0706,0.38689 -0.1614,0.84784 -0.2722,1.38287 -0.1109,0.53502 -0.2233,1.04882 -0.3374,1.54139 -0.1721,0.74277 -0.4394,1.18325 -0.802,1.32141"
           style="fill:none;stroke:#000000;stroke-width:1.03937;stroke-linecap:round;stroke-linejoin:round;stroke-miterlimit:10;stroke-dasharray:none;stroke-opacity:1"
           id="path654" />
      </g>
      <g
         id="g656"
         transform="matrix(0.5454546,0,0,-0.5454546,0,841.89)">
        <path
           d="m 129.1884,74.34643 c -0.1883,-0.01736 -0.2907,-0.0268 -0.3072,-0.02832 -0.0116,-0.0011 0.0147,-0.01061 0.0788,-0.02862 0.064,-0.01802 0.3629,-0.10202 0.8965,-0.25201 0.5336,-0.14999 1.1366,-0.30828 1.8088,-0.47487 0.992,-0.24587 1.6583,-0.14381 1.999,0.30619"
           style="fill:none;stroke:#000000;stroke-width:1.03937;stroke-linecap:round;stroke-linejoin:round;stroke-miterlimit:10;stroke-dasharray:none;stroke-opacity:1"
           id="path658" />
      </g>
      <g
         id="g660"
         transform="matrix(0.5454546,0,0,-0.5454546,0,841.89)">
        <path
           d="m 128.7488,77.1575 c -0.2946,0.10621 -0.4557,0.16432 -0.4835,0.17433 -0.0195,0.007 -0.0243,0.01066 -0.0143,0.01087 0.01,2.1e-4 0.0537,0.0011 0.1313,0.0027 0.0775,0.0016 0.3399,-0.05703 0.7872,-0.17587 0.4473,-0.11886 0.9867,-0.28585 1.6183,-0.50098 0.9412,-0.32064 1.9133,-0.7243 2.9163,-1.21098"
           style="fill:none;stroke:#000000;stroke-width:1.03937;stroke-linecap:round;stroke-linejoin:round;stroke-miterlimit:10;stroke-dasharray:none;stroke-opacity:1"
           id="path662" />
      </g>
      <g
         id="g664"
         transform="matrix(0.5454546,0,0,-0.5454546,0,841.89)">
        <path
           d="m 131.0242,71.44518 c -0.2952,-0.14266 -0.4932,-0.25246 -0.5938,-0.3294 -0.0696,-0.05317 -0.1179,-0.09015 -0.1451,-0.11091 -0.0272,-0.02076 -0.0371,-0.01398 -0.0297,0.02034 0.007,0.03432 0.0205,0.09543 0.0394,0.18333 0.0189,0.0879 0.0403,0.3548 0.0642,0.80069 0.024,0.4459 0.0204,1.05947 -0.0108,1.8407 -0.0312,0.78123 -0.1142,1.68423 -0.2492,2.70899 -0.135,1.02476 -0.2674,1.92582 -0.3972,2.70318 -0.1297,0.77736 -0.2175,1.39694 -0.2632,1.85872 -0.0458,0.46178 -0.071,0.85668 -0.0755,1.18471 -0.005,0.32804 0.0112,0.6011 0.0474,0.81919 0.0362,0.21809 0.0936,0.39587 0.1721,0.53334 0.0786,0.13747 0.1756,0.24452 0.2912,0.32116 0.1155,0.07663 0.2742,0.13506 0.4762,0.17528 0.202,0.04023 0.466,0.0646 0.7921,0.07312 0.3261,0.0085 0.7348,-0.03678 1.2263,-0.13587 0.4914,-0.09909 1.0618,-0.25241 1.711,-0.45995 0.6493,-0.20755 1.3001,-0.44578 1.9527,-0.7147 0.6525,-0.26893 1.249,-0.54317 1.7894,-0.82272 0.5405,-0.27955 0.9537,-0.51584 1.2395,-0.70887 0.2858,-0.19302 0.4574,-0.31603 0.5149,-0.36902 0.0575,-0.053 0.0452,-0.11963 -0.0367,-0.19992 -0.082,-0.08027 -0.1698,-0.19417 -0.2636,-0.3417 -0.0937,-0.14753 -0.1784,-0.34658 -0.2541,-0.59715 -0.1097,-0.36308 -0.1479,-0.98927 -0.1145,-1.87858"
           style="fill:none;stroke:#000000;stroke-width:1.03937;stroke-linecap:round;stroke-linejoin:round;stroke-miterlimit:10;stroke-dasharray:none;stroke-opacity:1"
           id="path666" />
      </g>
    </g>
  </g>
</svg>
