<?xml version="1.0" encoding="UTF-8" standalone="no"?>
<!-- Created with Inkscape (http://www.inkscape.org/) -->

<svg
   version="1.1"
   id="svg2"
   width="12.258331"
   height="16.297173"
   viewBox="0 0 12.258331 16.297172"
   sodipodi:docname="E24136542_宋昱宣_預報2.svg"
   inkscape:version="1.2.1 (9c6d41e410, 2022-07-14)"
   xmlns:inkscape="http://www.inkscape.org/namespaces/inkscape"
   xmlns:sodipodi="http://sodipodi.sourceforge.net/DTD/sodipodi-0.dtd"
   xmlns="http://www.w3.org/2000/svg"
   xmlns:svg="http://www.w3.org/2000/svg">
  <defs
     id="defs6" />
  <sodipodi:namedview
     id="namedview4"
     pagecolor="#ffffff"
     bordercolor="#000000"
     borderopacity="0.25"
     inkscape:showpageshadow="2"
     inkscape:pageopacity="0.0"
     inkscape:pagecheckerboard="0"
     inkscape:deskcolor="#d1d1d1"
     showgrid="false"
     inkscape:zoom="2.3786081"
     inkscape:cx="203.48035"
     inkscape:cy="340.32508"
     inkscape:window-width="1600"
     inkscape:window-height="930"
     inkscape:window-x="-6"
     inkscape:window-y="-6"
     inkscape:window-maximized="1"
     inkscape:current-layer="g10" />
  <g
     id="g10"
     inkscape:groupmode="layer"
     inkscape:label="Page 1"
     transform="matrix(1.3333333,0,0,-1.3333333,-195.47085,1077.7463)">
    <g
       id="g200614">
      <g
         id="g788"
         transform="matrix(0.5454546,0,0,-0.5454546,0,841.89)">
        <path
           d="m 270.7307,64.57648 c -0.5225,-0.3092 -0.4967,-0.47063 0.0776,-0.4843 0.4259,-0.01014 0.9964,-0.04635 1.7115,-0.10861 0.7151,-0.06226 1.5903,-0.18971 2.6255,-0.38234 1.0353,-0.19264 2.0455,-0.41649 3.0308,-0.67157 0.9854,-0.25508 1.8,-0.44928 2.444,-0.58259 0.644,-0.13331 1.1367,-0.21056 1.4782,-0.23175 0.3414,-0.02119 0.5121,-0.03179 0.5121,-0.03179"
           style="fill:none;stroke:#000000;stroke-width:1.03937;stroke-linecap:round;stroke-linejoin:round;stroke-miterlimit:10;stroke-dasharray:none;stroke-opacity:1"
           id="path790" />
      </g>
      <g
         id="g792"
         transform="matrix(0.5454546,0,0,-0.5454546,0,841.89)">
        <path
           d="m 270.673,67.43661 c 0.0742,-0.01639 0.0782,0.03132 0.0121,0.14313 -0.0662,0.11181 -0.1896,0.39004 -0.3702,0.83467 -0.1806,0.44463 -0.3709,0.96823 -0.5708,1.5708 -0.1998,0.60256 -0.3266,1.08725 -0.3801,1.45407 -0.0536,0.36681 -0.0771,0.63182 -0.0706,0.79502"
           style="fill:none;stroke:#000000;stroke-width:1.03937;stroke-linecap:round;stroke-linejoin:round;stroke-miterlimit:10;stroke-dasharray:none;stroke-opacity:1"
           id="path794" />
      </g>
      <g
         id="g796"
         transform="matrix(0.5454546,0,0,-0.5454546,0,841.89)">
        <path
           d="m 271.4019,68.55111 c 0.2693,-0.28567 0.5269,-0.49551 0.7728,-0.62951 0.167,-0.09099 0.393,-0.1781 0.6782,-0.26131 0.2851,-0.08321 0.6405,-0.18905 1.0662,-0.31753 0.4257,-0.12848 0.9576,-0.3002 1.5956,-0.51518 0.638,-0.21498 1.324,-0.43877 2.0581,-0.67138 0.7341,-0.23261 1.4192,-0.41669 2.0553,-0.55224 0.636,-0.13556 1.2156,-0.21798 1.7388,-0.24726 0.5233,-0.02927 0.9702,-0.03302 1.341,-0.01124 0.3707,0.02178 0.7599,0.05363 1.1678,0.09555 0.4078,0.04193 0.6742,0.06589 0.7992,0.07188 0.1249,0.006 0.2163,0.02557 0.274,0.05873 0.0578,0.03317 0.0981,0.09072 0.121,0.17264 0.023,0.08192 0.0356,0.19941 0.0379,0.35246 0.002,0.15305 -0.0276,0.37984 -0.0899,0.68037 -0.0622,0.30053 -0.1709,0.72635 -0.3261,1.27744 -0.1553,0.5511 -0.3296,1.14167 -0.5231,1.77172 -0.3018,0.983 -0.6282,1.5533 -0.9791,1.7109"
           style="fill:none;stroke:#000000;stroke-width:1.03937;stroke-linecap:round;stroke-linejoin:round;stroke-miterlimit:10;stroke-dasharray:none;stroke-opacity:1"
           id="path798" />
      </g>
      <g
         id="g800"
         transform="matrix(0.5454546,0,0,-0.5454546,0,841.89)">
        <path
           d="m 276.9886,64.51698 c 0.0258,-0.33954 0.0393,-0.51635 0.0404,-0.53043 7e-4,-0.0099 0.002,0.0037 0.003,0.04092 0.001,0.03721 0.0119,0.37762 0.0322,1.02121 0.0204,0.6436 0.0353,1.295 0.0449,1.95421 0.01,0.65921 0.007,1.32946 -0.009,2.01075 -0.0227,1.00196 -0.3477,1.65413 -0.975,1.9565"
           style="fill:none;stroke:#000000;stroke-width:1.03937;stroke-linecap:round;stroke-linejoin:round;stroke-miterlimit:10;stroke-dasharray:none;stroke-opacity:1"
           id="path802" />
      </g>
      <g
         id="g804"
         transform="matrix(0.5454546,0,0,-0.5454546,0,841.89)">
        <path
           d="m 273.2508,68.73548 c -0.0663,0 -0.1298,0.06176 -0.1905,0.18528 -0.0607,0.12353 -0.1522,0.35261 -0.2745,0.68724 -0.1224,0.33464 -0.2373,0.69667 -0.3447,1.08611 -0.1074,0.38943 -0.1747,0.69064 -0.2018,0.90364 -0.0272,0.213 -0.009,0.34475 0.0547,0.39525 0.0636,0.05049 0.2623,-0.02586 0.596,-0.22905 0.3337,-0.2032 0.6759,-0.40172 1.0266,-0.59555 0.5067,-0.28007 1.4618,-0.83058 2.8654,-1.65152"
           style="fill:none;stroke:#000000;stroke-width:1.03937;stroke-linecap:round;stroke-linejoin:round;stroke-miterlimit:10;stroke-dasharray:none;stroke-opacity:1"
           id="path806" />
      </g>
      <g
         id="g808"
         transform="matrix(0.5454546,0,0,-0.5454546,0,841.89)">
        <path
           d="m 280.7109,67.09225 c -0.1923,0.0257 -0.4047,0.20445 -0.637,0.53624 -0.2323,0.3318 -0.4051,0.60313 -0.5184,0.81398 -0.1132,0.21087 -0.1923,0.40151 -0.2372,0.57195 -0.0449,0.17044 -0.0696,0.34503 -0.074,0.52378 -0.005,0.17875 0.0425,0.35735 0.1412,0.53581 0.0987,0.17845 0.238,0.34509 0.418,0.49993 0.1799,0.15485 0.3823,0.2956 0.6071,0.42225 0.2248,0.12666 0.4312,0.23393 0.6191,0.32183 l 0.2378,0.11128 -0.008,-0.0038 -0.0261,-0.01219 0.0783,0.03657"
           style="fill:none;stroke:#000000;stroke-width:1.03937;stroke-linecap:round;stroke-linejoin:round;stroke-miterlimit:10;stroke-dasharray:none;stroke-opacity:1"
           id="path810" />
      </g>
      <g
         id="g812"
         transform="matrix(0.5454546,0,0,-0.5454546,0,841.89)">
        <path
           d="m 273.8178,72.41494 c -0.0154,-0.14598 -0.0237,-0.22365 -0.0246,-0.23303 -8e-4,-0.0066 -0.002,-0.0036 -0.004,0.0092 -0.002,0.01272 -0.0123,0.09071 -0.0317,0.23397 -0.0195,0.14327 -0.0427,0.4355 -0.0698,0.87669 -0.0271,0.44119 -0.0482,0.92135 -0.0634,1.44047 -0.0152,0.51912 -0.0235,0.95791 -0.0251,1.31639 l -0.002,0.49186 1e-4,-0.0043 10e-5,-0.02507 -3e-4,0.0752"
           style="fill:none;stroke:#000000;stroke-width:1.03937;stroke-linecap:round;stroke-linejoin:round;stroke-miterlimit:10;stroke-dasharray:none;stroke-opacity:1"
           id="path814" />
      </g>
      <g
         id="g816"
         transform="matrix(0.5454546,0,0,-0.5454546,0,841.89)">
        <path
           d="m 274.279,73.83443 c 0.0459,-0.33693 0.0977,-0.5911 0.1555,-0.76248 0.0396,-0.11743 0.1215,-0.23593 0.2456,-0.35547 0.1242,-0.11955 0.3122,-0.23077 0.5642,-0.33368 0.252,-0.10292 0.7961,-0.25925 1.6323,-0.469 0.8363,-0.20974 1.4432,-0.36181 1.8207,-0.4562 0.3776,-0.0944 0.7175,-0.16708 1.0198,-0.21807 0.3023,-0.05099 0.5513,-0.08128 0.7469,-0.09087 0.1957,-0.0096 0.3259,0.0081 0.3907,0.05323 0.0649,0.04508 0.1068,0.12378 0.1258,0.23609 0.0189,0.11231 0.0255,0.26279 0.0196,0.45145 -0.006,0.18865 -0.0869,0.60974 -0.2428,1.26326 -0.156,0.65353 -0.2944,1.18581 -0.4153,1.59682 -0.1208,0.41102 -0.2435,0.77969 -0.368,1.10602 -0.1818,0.47674 -0.5131,0.75869 -0.9938,0.84587"
           style="fill:none;stroke:#000000;stroke-width:1.03937;stroke-linecap:round;stroke-linejoin:round;stroke-miterlimit:10;stroke-dasharray:none;stroke-opacity:1"
           id="path818" />
      </g>
      <g
         id="g820"
         transform="matrix(0.5454546,0,0,-0.5454546,0,841.89)">
        <path
           d="m 275.3629,75.25599 c -0.1622,0 -0.2465,1e-5 -0.253,1e-5 l -0.002,-9e-5 0.013,-0.0013 c 0.0119,-8.9e-4 0.1251,-0.0093 0.3393,-0.02526 0.2143,-0.01596 0.6266,-0.10338 1.2368,-0.26227 0.6102,-0.1589 1.279,-0.33107 2.0065,-0.51652 0.7274,-0.18545 1.2703,-0.28352 1.6286,-0.29421 0.3584,-0.01068 0.5376,-0.01602 0.5376,-0.01602"
           style="fill:none;stroke:#000000;stroke-width:1.03937;stroke-linecap:round;stroke-linejoin:round;stroke-miterlimit:10;stroke-dasharray:none;stroke-opacity:1"
           id="path822" />
      </g>
      <g
         id="g824"
         transform="matrix(0.5454546,0,0,-0.5454546,0,841.89)">
        <path
           d="m 274.5202,78.24677 c -0.1961,0.03003 -0.306,0.04686 -0.3298,0.05049 -0.0167,0.0026 10e-5,0.003 0.0504,0.0013 0.0504,-0.0017 0.2289,-0.0078 0.5355,-0.01814 0.3066,-0.0104 0.7517,-0.07838 1.3352,-0.20395 0.856,-0.18424 1.8818,-0.60702 3.0774,-1.26834"
           style="fill:none;stroke:#000000;stroke-width:1.03937;stroke-linecap:round;stroke-linejoin:round;stroke-miterlimit:10;stroke-dasharray:none;stroke-opacity:1"
           id="path826" />
      </g>
      <g
         id="g828"
         transform="matrix(0.5454546,0,0,-0.5454546,0,841.89)">
        <path
           d="m 276.8551,73.04625 c -0.319,-0.477 -0.4744,-0.49382 -0.4663,-0.05048 0.006,0.32595 0.0211,0.78774 0.0454,1.38538 0.0243,0.59765 0.0128,1.34184 -0.0348,2.23257 -0.0475,0.89075 -0.1251,1.77368 -0.2328,2.64881 -0.1078,0.87513 -0.1733,1.60406 -0.1966,2.18678 -0.0232,0.58273 0.0155,1.00261 0.1161,1.25964 0.1007,0.25704 0.2287,0.43153 0.3839,0.52349 0.1552,0.09195 0.3358,0.15095 0.5417,0.17698 0.2059,0.02605 0.4413,0.04037 0.7061,0.04297 0.2649,0.0026 0.5842,-0.0083 0.9579,-0.03276 0.3738,-0.02444 0.813,-0.08954 1.3178,-0.1953 0.5048,-0.10575 1.006,-0.25487 1.5036,-0.44736 0.4977,-0.19249 0.943,-0.42076 1.3362,-0.68481 0.3931,-0.26405 0.6982,-0.53336 0.9154,-0.80793 0.2173,-0.27458 0.3488,-0.51431 0.3948,-0.71919 0.0459,-0.20488 0.0321,-0.39392 -0.0413,-0.56713 -0.1069,-0.25195 -0.3585,-0.47442 -0.7548,-0.6674"
           style="fill:none;stroke:#000000;stroke-width:1.03937;stroke-linecap:round;stroke-linejoin:round;stroke-miterlimit:10;stroke-dasharray:none;stroke-opacity:1"
           id="path830" />
      </g>
    </g>
  </g>
</svg>
