<svg xmlns="http://www.w3.org/2000/svg" width="12.258" height="16.297"><path d="M270.73 64.576q-.783-.463.078-.484.64-.015 1.712-.108 1.072-.094 2.625-.383a45 45 0 0 0 3.031-.671q1.478-.383 2.444-.583t1.478-.232l.512-.031" style="fill:none;stroke:#000;stroke-width:1.03937;stroke-linecap:round;stroke-linejoin:round;stroke-miterlimit:10;stroke-dasharray:none;stroke-opacity:1" transform="matrix(.72727 0 0 .72727 -195.47 -44.774)"/><path d="M270.673 67.437q.111-.026.012.143-.1.168-.37.834-.27.668-.57 1.571-.3.904-.381 1.454-.08.55-.07.795" style="fill:none;stroke:#000;stroke-width:1.03937;stroke-linecap:round;stroke-linejoin:round;stroke-miterlimit:10;stroke-dasharray:none;stroke-opacity:1" transform="matrix(.72727 0 0 .72727 -195.47 -44.774)"/><path d="M271.402 68.551q.404-.428.773-.63.25-.136.678-.26l1.066-.318q.639-.193 1.596-.515.957-.323 2.058-.672 1.101-.348 2.055-.552a11.5 11.5 0 0 1 1.739-.247q.785-.044 1.34-.012.557.033 1.169.096t.799.072a.6.6 0 0 1 .274.059q.087.05.12.172.036.123.039.353t-.09.68q-.093.45-.326 1.278a80 80 0 0 1-.523 1.771q-.452 1.475-.98 1.711" style="fill:none;stroke:#000;stroke-width:1.03937;stroke-linecap:round;stroke-linejoin:round;stroke-miterlimit:10;stroke-dasharray:none;stroke-opacity:1" transform="matrix(.72727 0 0 .72727 -195.47 -44.774)"/><path d="m276.989 64.517.04-.53q0-.015.003.04l.032 1.022q.03.965.045 1.954.015.99-.009 2.01-.035 1.504-.975 1.957" style="fill:none;stroke:#000;stroke-width:1.03937;stroke-linecap:round;stroke-linejoin:round;stroke-miterlimit:10;stroke-dasharray:none;stroke-opacity:1" transform="matrix(.72727 0 0 .72727 -195.47 -44.774)"/><path d="M273.25 68.735q-.098 0-.19.186-.09.185-.274.687a14 14 0 0 0-.345 1.086q-.161.584-.202.904-.04.32.055.395.096.075.596-.229.5-.305 1.027-.596.759-.42 2.865-1.651" style="fill:none;stroke:#000;stroke-width:1.03937;stroke-linecap:round;stroke-linejoin:round;stroke-miterlimit:10;stroke-dasharray:none;stroke-opacity:1" transform="matrix(.72727 0 0 .72727 -195.47 -44.774)"/><path d="M280.71 67.092q-.287.04-.636.536a9 9 0 0 0-.519.814q-.17.317-.237.572-.068.255-.074.524-.007.269.141.536.15.267.419.5.27.233.607.422.336.19.619.322l.238.111-.008-.003-.027-.013.079.037" style="fill:none;stroke:#000;stroke-width:1.03937;stroke-linecap:round;stroke-linejoin:round;stroke-miterlimit:10;stroke-dasharray:none;stroke-opacity:1" transform="matrix(.72727 0 0 .72727 -195.47 -44.774)"/><path d="m273.818 72.415-.025-.233q0-.01-.004.01l-.032.233q-.028.215-.07.877-.04.662-.063 1.44-.022.78-.025 1.317l-.002.491v-.029.075" style="fill:none;stroke:#000;stroke-width:1.03937;stroke-linecap:round;stroke-linejoin:round;stroke-miterlimit:10;stroke-dasharray:none;stroke-opacity:1" transform="matrix(.72727 0 0 .72727 -195.47 -44.774)"/><path d="M274.279 73.834q.069-.505.156-.762a.9.9 0 0 1 .245-.356q.186-.18.564-.333.378-.155 1.633-.47l1.82-.455q.567-.142 1.02-.218t.747-.091.39.053q.098.068.126.236.03.169.02.451-.009.284-.243 1.264a33 33 0 0 1-.415 1.597q-.18.616-.368 1.106-.273.714-.994.845" style="fill:none;stroke:#000;stroke-width:1.03937;stroke-linecap:round;stroke-linejoin:round;stroke-miterlimit:10;stroke-dasharray:none;stroke-opacity:1" transform="matrix(.72727 0 0 .72727 -195.47 -44.774)"/><path d="M275.363 75.256h-.255l.013-.001.34-.026q.32-.024 1.236-.262t2.007-.516 1.628-.295l.538-.016" style="fill:none;stroke:#000;stroke-width:1.03937;stroke-linecap:round;stroke-linejoin:round;stroke-miterlimit:10;stroke-dasharray:none;stroke-opacity:1" transform="matrix(.72727 0 0 .72727 -195.47 -44.774)"/><path d="m274.52 78.247-.33.05q-.025.004.05.002l.536-.019q.46-.015 1.336-.204 1.284-.276 3.077-1.268" style="fill:none;stroke:#000;stroke-width:1.03937;stroke-linecap:round;stroke-linejoin:round;stroke-miterlimit:10;stroke-dasharray:none;stroke-opacity:1" transform="matrix(.72727 0 0 .72727 -195.47 -44.774)"/><path d="M276.855 73.046q-.478-.716-.466-.05.008.49.045 1.385.036.897-.035 2.233-.071 1.335-.232 2.649a27 27 0 0 0-.197 2.186q-.035.874.116 1.26.15.385.384.523.233.138.542.177t.706.043.958-.032a10 10 0 0 0 1.317-.196 9.6 9.6 0 0 0 1.504-.447q.747-.288 1.336-.685.59-.396.916-.808.325-.411.394-.719a.9.9 0 0 0-.04-.567q-.162-.378-.756-.667" style="fill:none;stroke:#000;stroke-width:1.03937;stroke-linecap:round;stroke-linejoin:round;stroke-miterlimit:10;stroke-dasharray:none;stroke-opacity:1" transform="matrix(.72727 0 0 .72727 -195.47 -44.774)"/></svg>