<svg xmlns="http://www.w3.org/2000/svg" width="10.656" height="16.37"><path d="M417.984 61.964h-.248q-.009 0 .15-.029l2.198-.402q2.04-.372 3.44-.642 1.403-.27 2.182-.404a47 47 0 0 1 1.459-.227q.68-.094.928-.423" style="fill:none;stroke:#000;stroke-width:1.03937;stroke-linecap:round;stroke-linejoin:round;stroke-miterlimit:10;stroke-dasharray:none;stroke-opacity:1" transform="matrix(.72727 0 0 .72727 -302.33 -43.14)"/><path d="M417.641 64.279q-.177-.185-.4-.002-.159.129-.349.799t-.345 1.375q-.154.706-.24 1.167l-.079.434v-.002l.004-.014-.008.043" style="fill:none;stroke:#000;stroke-width:1.03937;stroke-linecap:round;stroke-linejoin:round;stroke-miterlimit:10;stroke-dasharray:none;stroke-opacity:1" transform="matrix(.72727 0 0 .72727 -302.33 -43.14)"/><path d="M418.122 65.647a5.4 5.4 0 0 1 1.274-.724q.765-.32 1.578-.594.815-.274 1.839-.532a43 43 0 0 1 1.928-.438q.903-.182 1.608-.386.704-.204 1.203-.367a8 8 0 0 1 .816-.229q.317-.065.54-.09a5 5 0 0 1 .519-.028q.295-.003.349.065.054.066.06.235t-.062.602a12 12 0 0 1-.266 1.183q-.2.75-.43 1.513-.339 1.124-1.159 1.31" style="fill:none;stroke:#000;stroke-width:1.03937;stroke-linecap:round;stroke-linejoin:round;stroke-miterlimit:10;stroke-dasharray:none;stroke-opacity:1" transform="matrix(.72727 0 0 .72727 -302.33 -43.14)"/><path d="M423.063 62.117a.9.9 0 0 0-.032-.403l-.047-.124q-.006-.016-.002.064l.03.613a82 82 0 0 1 .085 2.913q.005 1.023-.354 1.65" style="fill:none;stroke:#000;stroke-width:1.03937;stroke-linecap:round;stroke-linejoin:round;stroke-miterlimit:10;stroke-dasharray:none;stroke-opacity:1" transform="matrix(.72727 0 0 .72727 -302.33 -43.14)"/><path d="M419.914 65.936q-.21 0-.293.221-.082.222-.106.513a8 8 0 0 0-.02.712q.005.422.06.506.058.084.181.03.125-.054.347-.24a4.4 4.4 0 0 1 .569-.389q.505-.298 1.396-.778" style="fill:none;stroke:#000;stroke-width:1.03937;stroke-linecap:round;stroke-linejoin:round;stroke-miterlimit:10;stroke-dasharray:none;stroke-opacity:1" transform="matrix(.72727 0 0 .72727 -302.33 -43.14)"/><path d="M426.768 63.81a.62.62 0 0 0-.338.09 1.4 1.4 0 0 0-.273.244q-.166.18-.356.459a5 5 0 0 0-.333.568 2.7 2.7 0 0 0-.2.51 2 2 0 0 0-.064.323q-.006.105.45.434.458.33.672.534.32.301.432.708" style="fill:none;stroke:#000;stroke-width:1.03937;stroke-linecap:round;stroke-linejoin:round;stroke-miterlimit:10;stroke-dasharray:none;stroke-opacity:1" transform="matrix(.72727 0 0 .72727 -302.33 -43.14)"/><path d="M421.065 70.375q-.517-.18-.808-.03-.2.105-.344.487-.144.383-.22 1.004-.077.62-.092 1.228-.014.609.115.93.177.44.413.061" style="fill:none;stroke:#000;stroke-width:1.03937;stroke-linecap:round;stroke-linejoin:round;stroke-miterlimit:10;stroke-dasharray:none;stroke-opacity:1" transform="matrix(.72727 0 0 .72727 -302.33 -43.14)"/><path d="M420.644 71.669q-.039-.353.044-.572.056-.15.248-.333t.583-.4a9 9 0 0 1 .964-.45q.573-.233 1.195-.392.621-.16 1.124-.224.504-.066.908-.085t.705-.022.449.067q.147.069.193.224t.051.406-.1.637-.41 1.34q-.453 1.41-1.668 2.007" style="fill:none;stroke:#000;stroke-width:1.03937;stroke-linecap:round;stroke-linejoin:round;stroke-miterlimit:10;stroke-dasharray:none;stroke-opacity:1" transform="matrix(.72727 0 0 .72727 -302.33 -43.14)"/><path d="M421.678 72.972q-.387-.11-.596-.105-.143.004-.182.083-.04.08.1.145.14.066.662-.041.524-.105 1.153-.353a63 63 0 0 1 1.647-.611q1.019-.365 1.718.094" style="fill:none;stroke:#000;stroke-width:1.03937;stroke-linecap:round;stroke-linejoin:round;stroke-miterlimit:10;stroke-dasharray:none;stroke-opacity:1" transform="matrix(.72727 0 0 .72727 -302.33 -43.14)"/><path d="M421.31 75.027a1 1 0 0 0-.34.16q-.086.066-.081.134.005.07.29.095.287.025.911-.109t1.45-.438a9.5 9.5 0 0 0 2.21-1.141" style="fill:none;stroke:#000;stroke-width:1.03937;stroke-linecap:round;stroke-linejoin:round;stroke-miterlimit:10;stroke-dasharray:none;stroke-opacity:1" transform="matrix(.72727 0 0 .72727 -302.33 -43.14)"/><path d="M423.321 70.319q0-.128-.145-.226-.144-.096-.179.3-.034.396-.034 1.22 0 .825-.044 2.068-.044 1.242-.128 2.465a198 198 0 0 0-.137 2.108 43 43 0 0 0-.063 1.34 14 14 0 0 0 0 .746q.01.293.142.515.133.221.394.337.26.117.709.115.447-.002 1.05-.275t1.203-.647 1.107-.729 1.151-.789q.644-.435.798-.588a.67.67 0 0 0 .193-.334q.04-.181-.018-.51-.083-.472-1.01-1.119" style="fill:none;stroke:#000;stroke-width:1.03937;stroke-linecap:round;stroke-linejoin:round;stroke-miterlimit:10;stroke-dasharray:none;stroke-opacity:1" transform="matrix(.72727 0 0 .72727 -302.33 -43.14)"/></svg>