<?xml version="1.0" encoding="UTF-8" standalone="no"?>
<!-- Created with Inkscape (http://www.inkscape.org/) -->

<svg
   version="1.1"
   id="svg2"
   width="10.65625"
   height="16.370426"
   viewBox="0 0 10.65625 16.370426"
   sodipodi:docname="E24136542_宋昱宣_預報2.svg"
   inkscape:version="1.2.1 (9c6d41e410, 2022-07-14)"
   xmlns:inkscape="http://www.inkscape.org/namespaces/inkscape"
   xmlns:sodipodi="http://sodipodi.sourceforge.net/DTD/sodipodi-0.dtd"
   xmlns="http://www.w3.org/2000/svg"
   xmlns:svg="http://www.w3.org/2000/svg">
  <defs
     id="defs6" />
  <sodipodi:namedview
     id="namedview4"
     pagecolor="#ffffff"
     bordercolor="#000000"
     borderopacity="0.25"
     inkscape:showpageshadow="2"
     inkscape:pageopacity="0.0"
     inkscape:pagecheckerboard="0"
     inkscape:deskcolor="#d1d1d1"
     showgrid="false"
     inkscape:zoom="2.3786081"
     inkscape:cx="203.48035"
     inkscape:cy="340.32508"
     inkscape:window-width="1600"
     inkscape:window-height="930"
     inkscape:window-x="-6"
     inkscape:window-y="-6"
     inkscape:window-maximized="1"
     inkscape:current-layer="g10" />
  <g
     id="g10"
     inkscape:groupmode="layer"
     inkscape:label="Page 1"
     transform="matrix(1.3333333,0,0,-1.3333333,-302.33014,1079.38)">
    <g
       id="g330369">
      <g
         id="g964"
         transform="matrix(0.5454546,0,0,-0.5454546,0,841.89)">
        <path
           d="m 417.9838,61.96417 c -0.1563,0 -0.2388,0 -0.2475,0 -0.006,0 0.0436,-0.0097 0.1493,-0.02898 0.1057,-0.01932 0.8383,-0.15326 2.198,-0.40182 1.3596,-0.24855 2.5067,-0.46283 3.4413,-0.64284 0.9346,-0.18001 1.6617,-0.31439 2.1812,-0.40314 0.5195,-0.08875 1.0058,-0.16451 1.4589,-0.22728 0.453,-0.06278 0.7623,-0.20376 0.9279,-0.42293"
           style="fill:none;stroke:#000000;stroke-width:1.03937;stroke-linecap:round;stroke-linejoin:round;stroke-miterlimit:10;stroke-dasharray:none;stroke-opacity:1"
           id="path966" />
      </g>
      <g
         id="g968"
         transform="matrix(0.5454546,0,0,-0.5454546,0,841.89)">
        <path
           d="m 417.6413,64.27901 c -0.118,-0.12299 -0.2517,-0.12363 -0.4012,-0.0019 -0.1051,0.0856 -0.2211,0.35174 -0.3479,0.79842 -0.1268,0.44669 -0.2418,0.90516 -0.345,1.37542 -0.1032,0.47027 -0.183,0.85917 -0.2393,1.16672 l -0.0796,0.43448 3e-4,-0.0017 0.003,-0.01425 -0.008,0.04275"
           style="fill:none;stroke:#000000;stroke-width:1.03937;stroke-linecap:round;stroke-linejoin:round;stroke-miterlimit:10;stroke-dasharray:none;stroke-opacity:1"
           id="path970" />
      </g>
      <g
         id="g972"
         transform="matrix(0.5454546,0,0,-0.5454546,0,841.89)">
        <path
           d="m 418.1216,65.64741 c 0.3395,-0.26978 0.7643,-0.51122 1.2742,-0.72433 0.51,-0.21311 1.0362,-0.41124 1.5786,-0.59438 0.5423,-0.18314 1.1551,-0.36022 1.8383,-0.53126 0.6832,-0.17103 1.3259,-0.31732 1.9279,-0.43885 0.6021,-0.12154 1.1381,-0.25015 1.608,-0.38582 0.4699,-0.13568 0.8711,-0.25803 1.2037,-0.36704 0.3326,-0.10902 0.6045,-0.18526 0.8157,-0.22873 0.2111,-0.04347 0.3913,-0.07355 0.5404,-0.09025 0.1491,-0.0167 0.3219,-0.02596 0.5184,-0.0278 0.1965,-0.0018 0.3129,0.0197 0.3491,0.0646 0.0363,0.0449 0.0562,0.12349 0.0599,0.23578 0.004,0.1123 -0.0171,0.31274 -0.062,0.60133 -0.0449,0.28859 -0.1335,0.68314 -0.266,1.18363 -0.1325,0.5005 -0.2755,1.00485 -0.4292,1.51306 -0.2266,0.74898 -0.613,1.18539 -1.1594,1.30921"
           style="fill:none;stroke:#000000;stroke-width:1.03937;stroke-linecap:round;stroke-linejoin:round;stroke-miterlimit:10;stroke-dasharray:none;stroke-opacity:1"
           id="path974" />
      </g>
      <g
         id="g976"
         transform="matrix(0.5454546,0,0,-0.5454546,0,841.89)">
        <path
           d="m 423.0627,62.11663 c 0.0186,-0.16239 0.008,-0.29645 -0.0319,-0.40218 -0.0272,-0.07204 -0.0428,-0.11352 -0.0469,-0.12443 -0.004,-0.01091 -0.005,0.01048 -0.002,0.06415 0.003,0.05368 0.0128,0.25781 0.0304,0.61239 0.0177,0.35458 0.0358,0.8166 0.0542,1.38607 0.0185,0.56947 0.0287,1.07863 0.0305,1.52748 0.003,0.68163 -0.1151,1.23153 -0.3537,1.64969"
           style="fill:none;stroke:#000000;stroke-width:1.03937;stroke-linecap:round;stroke-linejoin:round;stroke-miterlimit:10;stroke-dasharray:none;stroke-opacity:1"
           id="path978" />
      </g>
      <g
         id="g980"
         transform="matrix(0.5454546,0,0,-0.5454546,0,841.89)">
        <path
           d="m 419.9138,65.93562 c -0.1397,0 -0.2372,0.07389 -0.2926,0.22167 -0.0554,0.14778 -0.0907,0.31856 -0.106,0.51233 -0.0153,0.19377 -0.0218,0.43124 -0.0196,0.7124 0.002,0.28116 0.0223,0.44977 0.0601,0.50582 0.0379,0.05605 0.0981,0.0661 0.1807,0.03016 0.0826,-0.03595 0.1982,-0.11579 0.3469,-0.23953 0.1488,-0.12375 0.3382,-0.25358 0.5685,-0.38948 0.3372,-0.199 0.8027,-0.45829 1.3966,-0.77787"
           style="fill:none;stroke:#000000;stroke-width:1.03937;stroke-linecap:round;stroke-linejoin:round;stroke-miterlimit:10;stroke-dasharray:none;stroke-opacity:1"
           id="path982" />
      </g>
      <g
         id="g984"
         transform="matrix(0.5454546,0,0,-0.5454546,0,841.89)">
        <path
           d="m 426.7677,63.80932 c -0.1191,-0.0024 -0.2316,0.02795 -0.3376,0.09103 -0.0712,0.04234 -0.1622,0.12346 -0.2731,0.24336 -0.1109,0.1199 -0.2297,0.27287 -0.3562,0.45891 -0.1266,0.18604 -0.2376,0.37539 -0.333,0.56805 -0.0953,0.19266 -0.1622,0.36263 -0.2006,0.50992 -0.0384,0.14728 -0.0596,0.25523 -0.0634,0.32386 -0.004,0.06863 0.1464,0.21318 0.4508,0.43366 0.3043,0.22048 0.5281,0.39833 0.6713,0.53353 0.2135,0.20161 0.3574,0.43772 0.4319,0.70832"
           style="fill:none;stroke:#000000;stroke-width:1.03937;stroke-linecap:round;stroke-linejoin:round;stroke-miterlimit:10;stroke-dasharray:none;stroke-opacity:1"
           id="path986" />
      </g>
      <g
         id="g988"
         transform="matrix(0.5454546,0,0,-0.5454546,0,841.89)">
        <path
           d="m 421.0648,70.3751 c -0.345,-0.1195 -0.6142,-0.12925 -0.8076,-0.02926 -0.1334,0.06897 -0.2481,0.23099 -0.3442,0.48605 -0.096,0.25507 -0.1695,0.58962 -0.2205,1.00367 -0.051,0.41404 -0.0813,0.82368 -0.0911,1.22891 -0.01,0.40524 0.0285,0.71514 0.115,0.92972 0.1177,0.29231 0.2552,0.3127 0.4125,0.0612"
           style="fill:none;stroke:#000000;stroke-width:1.03937;stroke-linecap:round;stroke-linejoin:round;stroke-miterlimit:10;stroke-dasharray:none;stroke-opacity:1"
           id="path990" />
      </g>
      <g
         id="g992"
         transform="matrix(0.5454546,0,0,-0.5454546,0,841.89)">
        <path
           d="m 420.6438,71.66876 c -0.0255,-0.23488 -0.0108,-0.42546 0.0441,-0.57174 0.0375,-0.09984 0.1201,-0.2109 0.248,-0.33318 0.1278,-0.12228 0.3221,-0.25578 0.5831,-0.40051 0.2609,-0.14474 0.5823,-0.29453 0.9642,-0.44937 0.382,-0.15485 0.7801,-0.28549 1.1944,-0.39193 0.4143,-0.10644 0.7893,-0.18127 1.1249,-0.22448 0.3357,-0.0432 0.6381,-0.07146 0.9073,-0.08477 0.2692,-0.0133 0.5043,-0.02062 0.7052,-0.02195 0.201,-0.0013 0.3505,0.02096 0.4486,0.06687 0.0982,0.04591 0.1627,0.12057 0.1936,0.22397 0.0309,0.10341 0.0479,0.2389 0.051,0.40645 0.003,0.16755 -0.0304,0.37986 -0.1003,0.63692 -0.0699,0.25706 -0.2067,0.70355 -0.4105,1.33945 -0.3014,0.9409 -0.8573,1.61009 -1.6678,2.00757"
           style="fill:none;stroke:#000000;stroke-width:1.03937;stroke-linecap:round;stroke-linejoin:round;stroke-miterlimit:10;stroke-dasharray:none;stroke-opacity:1"
           id="path994" />
      </g>
      <g
         id="g996"
         transform="matrix(0.5454546,0,0,-0.5454546,0,841.89)">
        <path
           d="m 421.678,72.97218 c -0.2582,-0.07333 -0.4568,-0.10828 -0.5957,-0.10486 -0.0954,0.0023 -0.156,0.03003 -0.182,0.08304 -0.0259,0.05302 0.007,0.10127 0.1001,0.14475 0.0926,0.04348 0.3132,0.02977 0.662,-0.04112 0.3487,-0.07088 0.7328,-0.18848 1.1524,-0.35278 0.4196,-0.1643 0.9687,-0.36809 1.6475,-0.61135 0.6787,-0.24326 1.2514,-0.21179 1.718,0.09441"
           style="fill:none;stroke:#000000;stroke-width:1.03937;stroke-linecap:round;stroke-linejoin:round;stroke-miterlimit:10;stroke-dasharray:none;stroke-opacity:1"
           id="path998" />
      </g>
      <g
         id="g1000"
         transform="matrix(0.5454546,0,0,-0.5454546,0,841.89)">
        <path
           d="m 421.3099,75.02673 c -0.1444,0.04161 -0.258,0.09482 -0.3408,0.15965 -0.0564,0.0441 -0.083,0.08912 -0.0801,0.13508 0.003,0.04596 0.0998,0.07741 0.2905,0.09436 0.1907,0.01694 0.4942,-0.01921 0.9105,-0.10848 0.4162,-0.08926 0.8996,-0.23548 1.45,-0.43867 0.8294,-0.30621 1.566,-0.68655 2.2098,-1.14103"
           style="fill:none;stroke:#000000;stroke-width:1.03937;stroke-linecap:round;stroke-linejoin:round;stroke-miterlimit:10;stroke-dasharray:none;stroke-opacity:1"
           id="path1002" />
      </g>
      <g
         id="g1004"
         transform="matrix(0.5454546,0,0,-0.5454546,0,841.89)">
        <path
           d="m 423.3213,70.31882 c 0,-0.08557 -0.0483,-0.16068 -0.145,-0.22534 -0.0967,-0.06466 -0.1564,0.03519 -0.1792,0.29956 -0.0227,0.26436 -0.0342,0.67124 -0.0344,1.22061 -2e-4,0.54937 -0.0147,1.23838 -0.0436,2.06702 -0.0289,0.82864 -0.0717,1.65047 -0.1285,2.46549 -0.0567,0.81502 -0.1023,1.51763 -0.1369,2.10782 -0.0345,0.59019 -0.0555,1.03663 -0.0628,1.33933 -0.007,0.3027 -0.007,0.55171 -4e-4,0.74705 0.007,0.19535 0.0546,0.36679 0.1427,0.51434 0.0881,0.14755 0.2193,0.26014 0.3935,0.33778 0.1743,0.07764 0.4106,0.11585 0.7089,0.11463 0.2984,-0.0012 0.6486,-0.09285 1.0506,-0.27488 0.4021,-0.18204 0.8031,-0.39783 1.203,-0.64736 0.4,-0.24952 0.769,-0.49232 1.1071,-0.72838 0.3381,-0.23607 0.7216,-0.4992 1.1507,-0.78939 0.4291,-0.2902 0.695,-0.48607 0.7975,-0.58764 0.1026,-0.10155 0.1672,-0.21299 0.1939,-0.33432 0.0266,-0.12132 0.0206,-0.29136 -0.0181,-0.51012 -0.0557,-0.31503 -0.3925,-0.6879 -1.0104,-1.11861"
           style="fill:none;stroke:#000000;stroke-width:1.03937;stroke-linecap:round;stroke-linejoin:round;stroke-miterlimit:10;stroke-dasharray:none;stroke-opacity:1"
           id="path1006" />
      </g>
    </g>
  </g>
</svg>
