<?xml version="1.0" encoding="UTF-8" standalone="no"?>
<!-- Created with Inkscape (http://www.inkscape.org/) -->

<svg
   version="1.1"
   id="svg2"
   width="13.531372"
   height="16.068207"
   viewBox="0 0 13.531372 16.068207"
   sodipodi:docname="E24136542_宋昱宣_預報2.svg"
   inkscape:version="1.2.1 (9c6d41e410, 2022-07-14)"
   xmlns:inkscape="http://www.inkscape.org/namespaces/inkscape"
   xmlns:sodipodi="http://sodipodi.sourceforge.net/DTD/sodipodi-0.dtd"
   xmlns="http://www.w3.org/2000/svg"
   xmlns:svg="http://www.w3.org/2000/svg">
  <defs
     id="defs6" />
  <sodipodi:namedview
     id="namedview4"
     pagecolor="#ffffff"
     bordercolor="#000000"
     borderopacity="0.25"
     inkscape:showpageshadow="2"
     inkscape:pageopacity="0.0"
     inkscape:pagecheckerboard="0"
     inkscape:deskcolor="#d1d1d1"
     showgrid="false"
     inkscape:zoom="2.3786081"
     inkscape:cx="203.48035"
     inkscape:cy="340.32508"
     inkscape:window-width="1600"
     inkscape:window-height="930"
     inkscape:window-x="-6"
     inkscape:window-y="-6"
     inkscape:window-maximized="1"
     inkscape:current-layer="g10" />
  <g
     id="g10"
     inkscape:groupmode="layer"
     inkscape:label="Page 1"
     transform="matrix(1.3333333,0,0,-1.3333333,-366.51648,1078.88)">
    <g
       id="g1096"
       transform="matrix(0.5454546,0,0,-0.5454546,0,841.89)">
      <path
         d="m 505.3703,64.21363 c -0.1007,-0.21198 -0.1162,-0.34632 -0.0467,-0.40301 0.0489,-0.03986 0.2245,-0.07863 0.5267,-0.11631 0.3022,-0.03767 0.8016,-0.11005 1.4983,-0.21712 0.6966,-0.10708 1.6256,-0.33947 2.787,-0.69716 1.1614,-0.3577 2.3112,-0.7633 3.4496,-1.2168 1.1384,-0.4535 2.0252,-0.7484 2.6603,-0.88471 0.6351,-0.13631 1.0546,-0.17198 1.2586,-0.107 0.2853,0.09089 0.2658,0.35536 -0.0585,0.79341"
         style="fill:none;stroke:#000000;stroke-width:1.03937;stroke-linecap:round;stroke-linejoin:round;stroke-miterlimit:10;stroke-dasharray:none;stroke-opacity:1"
         id="path1098" />
    </g>
    <g
       id="g1100"
       transform="matrix(0.5454546,0,0,-0.5454546,0,841.89)">
      <path
         d="m 506.3542,66.08685 c -0.3711,-0.06622 -0.6311,0.02402 -0.7798,0.27072 -0.1035,0.17158 -0.1974,0.43552 -0.2819,0.79181 -0.0845,0.35628 -0.1704,0.71394 -0.2576,1.07298 -0.0873,0.35903 -0.2016,0.74459 -0.343,1.15668 -0.1414,0.41209 -0.2121,0.61813 -0.2121,0.61813"
         style="fill:none;stroke:#000000;stroke-width:1.03937;stroke-linecap:round;stroke-linejoin:round;stroke-miterlimit:10;stroke-dasharray:none;stroke-opacity:1"
         id="path1102" />
    </g>
    <g
       id="g1104"
       transform="matrix(0.5454546,0,0,-0.5454546,0,841.89)">
      <path
         d="m 506.8413,67.39658 c 0.1094,-0.14764 0.2568,-0.29644 0.4423,-0.44638 0.122,-0.09859 0.2843,-0.20053 0.4869,-0.30584 0.2026,-0.1053 0.6121,-0.27046 1.2286,-0.49547 0.6164,-0.22501 1.1993,-0.41278 1.7487,-0.5633 0.5493,-0.15051 1.2818,-0.35514 2.1975,-0.61386 0.9156,-0.25873 1.7337,-0.50659 2.4542,-0.74357 0.7206,-0.23699 1.3237,-0.42516 1.8093,-0.56452 0.4856,-0.13936 0.8768,-0.22443 1.1735,-0.25521 0.2967,-0.03078 0.5114,-0.02525 0.6441,0.01659 0.1327,0.04184 0.2179,0.12783 0.2557,0.25797 0.0378,0.13015 0.0424,0.26901 0.0139,0.41658 -0.0286,0.14757 -0.0794,0.34047 -0.1524,0.5787 -0.0732,0.23822 -0.2438,0.74336 -0.512,1.51542 -0.2682,0.77206 -0.6193,1.40112 -1.0532,1.8872"
         style="fill:none;stroke:#000000;stroke-width:1.03937;stroke-linecap:round;stroke-linejoin:round;stroke-miterlimit:10;stroke-dasharray:none;stroke-opacity:1"
         id="path1106" />
    </g>
    <g
       id="g1108"
       transform="matrix(0.5454546,0,0,-0.5454546,0,841.89)">
      <path
         d="m 512.2307,63.06153 c -0.0935,-0.31489 -0.1459,-0.5718 -0.1573,-0.77073 -0.008,-0.13576 -0.008,-0.22896 -10e-4,-0.27959 0.007,-0.05064 0.0257,-0.07848 0.056,-0.08355 0.0304,-0.0051 0.0717,0.15554 0.1239,0.48181 0.0522,0.32627 0.0828,0.67528 0.0919,1.04703 0.009,0.37176 -0.0104,0.91535 -0.0587,1.63078 -0.0482,0.71542 -0.1036,1.35483 -0.1661,1.91822 -0.0959,0.86279 -0.3004,1.37856 -0.6137,1.5473"
         style="fill:none;stroke:#000000;stroke-width:1.03937;stroke-linecap:round;stroke-linejoin:round;stroke-miterlimit:10;stroke-dasharray:none;stroke-opacity:1"
         id="path1110" />
    </g>
    <g
       id="g1112"
       transform="matrix(0.5454546,0,0,-0.5454546,0,841.89)">
      <path
         d="m 508.9947,67.17128 c -0.2164,-0.0239 -0.4056,0.03588 -0.5676,0.17934 -0.1102,0.09747 -0.2039,0.24597 -0.2812,0.44549 -0.0774,0.19953 -0.1281,0.41875 -0.1522,0.65767 -0.0242,0.23893 -0.0397,0.5806 -0.0467,1.02501 -0.007,0.44441 0.063,0.67391 0.2101,0.68852 0.1471,0.01461 0.322,-0.04495 0.5248,-0.17866 0.2907,-0.19169 1.1209,-0.63193 2.4905,-1.32072"
         style="fill:none;stroke:#000000;stroke-width:1.03937;stroke-linecap:round;stroke-linejoin:round;stroke-miterlimit:10;stroke-dasharray:none;stroke-opacity:1"
         id="path1114" />
    </g>
    <g
       id="g1116"
       transform="matrix(0.5454546,0,0,-0.5454546,0,841.89)">
      <path
         d="m 515.9012,65.46689 c -0.1755,-0.04878 -0.3168,-0.0308 -0.424,0.05395 -0.0738,0.05835 -0.185,0.17916 -0.3336,0.36242 -0.1486,0.18325 -0.3108,0.39128 -0.4864,0.62409 -0.1756,0.23281 -0.3241,0.43777 -0.4454,0.61489 -0.1213,0.17712 -0.1986,0.31385 -0.2318,0.41017 -0.0333,0.09632 -0.039,0.17568 -0.0174,0.23809 0.0217,0.06241 0.1827,0.18166 0.4831,0.35775 0.3004,0.17609 0.5295,0.30424 0.6874,0.38445 0.2266,0.11511 0.3117,0.2831 0.2553,0.50395"
         style="fill:none;stroke:#000000;stroke-width:1.03937;stroke-linecap:round;stroke-linejoin:round;stroke-miterlimit:10;stroke-dasharray:none;stroke-opacity:1"
         id="path1118" />
    </g>
    <g
       id="g1120"
       transform="matrix(0.5454546,0,0,-0.5454546,0,841.89)">
      <path
         d="m 509.6548,71.53504 c -0.2231,-0.09833 -0.4031,-0.15004 -0.5399,-0.15513 -0.0937,-0.0035 -0.1745,0.04849 -0.2424,0.15593 -0.0679,0.10746 -0.1217,0.31927 -0.1612,0.63546 -0.0396,0.31618 -0.0738,0.71804 -0.1028,1.20558 -0.0289,0.48753 -0.0448,0.95836 -0.0477,1.41249 l -0.004,0.56634 2e-4,-0.0233 4e-4,-0.06908 -10e-4,0.20725"
         style="fill:none;stroke:#000000;stroke-width:1.03937;stroke-linecap:round;stroke-linejoin:round;stroke-miterlimit:10;stroke-dasharray:none;stroke-opacity:1"
         id="path1122" />
    </g>
    <g
       id="g1124"
       transform="matrix(0.5454546,0,0,-0.5454546,0,841.89)">
      <path
         d="m 509.7209,72.30907 c -0.0982,-0.30419 -0.0208,-0.50726 0.2323,-0.60923 0.1783,-0.07183 0.4582,-0.16917 0.8396,-0.29202 0.3815,-0.12285 0.8418,-0.28586 1.381,-0.48904 0.5391,-0.20319 1.0795,-0.41825 1.6211,-0.64519 0.5416,-0.22694 0.9991,-0.39723 1.3724,-0.51089 0.3733,-0.11365 0.6653,-0.18233 0.8759,-0.20604 0.2105,-0.02372 0.3657,-0.01599 0.4656,0.02318 0.0999,0.03918 0.1654,0.11238 0.1964,0.21961 0.031,0.10722 0.0481,0.25716 0.0513,0.4498 0.003,0.19264 -0.0754,0.67686 -0.2354,1.45267 -0.1601,0.7758 -0.2963,1.39074 -0.4087,1.84483 -0.1124,0.45408 -0.2405,0.86496 -0.3844,1.23265 -0.2096,0.53551 -0.5582,0.81652 -1.0458,0.84305"
         style="fill:none;stroke:#000000;stroke-width:1.03937;stroke-linecap:round;stroke-linejoin:round;stroke-miterlimit:10;stroke-dasharray:none;stroke-opacity:1"
         id="path1126" />
    </g>
    <g
       id="g1128"
       transform="matrix(0.5454546,0,0,-0.5454546,0,841.89)">
      <path
         d="m 510.5688,74.19956 c -0.2117,-0.11646 0.1949,-0.28075 1.2199,-0.49285 1.0249,-0.21211 1.8499,-0.37225 2.475,-0.48042 0.625,-0.10818 0.9375,-0.16227 0.9375,-0.16227"
         style="fill:none;stroke:#000000;stroke-width:1.03937;stroke-linecap:round;stroke-linejoin:round;stroke-miterlimit:10;stroke-dasharray:none;stroke-opacity:1"
         id="path1130" />
    </g>
    <g
       id="g1132"
       transform="matrix(0.5454546,0,0,-0.5454546,0,841.89)">
      <path
         d="m 509.2036,76.64349 c -0.27,0.03654 -0.4741,0.07413 -0.6123,0.11276 -0.0947,0.02647 -0.1179,0.05562 -0.0697,0.08747 0.0483,0.03184 0.2633,0.05553 0.6451,0.07106 0.3817,0.01554 0.8936,-0.02364 1.5358,-0.11754 0.6422,-0.0939 1.343,-0.24885 2.1025,-0.46486 1.1658,-0.33158 2.0624,-0.73575 2.6898,-1.21251"
         style="fill:none;stroke:#000000;stroke-width:1.03937;stroke-linecap:round;stroke-linejoin:round;stroke-miterlimit:10;stroke-dasharray:none;stroke-opacity:1"
         id="path1134" />
    </g>
    <g
       id="g1136"
       transform="matrix(0.5454546,0,0,-0.5454546,0,841.89)">
      <path
         d="m 512.9537,71.86215 c -0.1887,-0.01191 -0.3543,-0.0054 -0.4967,0.01949 -0.0964,0.01684 -0.1845,0.13334 -0.2644,0.34951 -0.0798,0.21616 -0.1444,0.57087 -0.1938,1.06412 -0.0493,0.49325 -0.087,1.03966 -0.113,1.63922 -0.026,0.59957 -0.0567,1.26003 -0.092,1.9814 -0.0354,0.72136 -0.0592,1.30003 -0.0713,1.736 -0.0121,0.43596 -1e-4,0.84362 0.0362,1.22297 0.0363,0.37936 0.087,0.68514 0.1523,0.91735 0.0653,0.2322 0.1406,0.40707 0.2259,0.52462 0.0853,0.11755 0.2005,0.19286 0.3456,0.22596 0.1451,0.03309 0.3592,0.04286 0.6421,0.02932 0.283,-0.01353 0.6641,-0.04961 1.1435,-0.10823 0.4793,-0.05862 1.0203,-0.12848 1.6231,-0.20958 0.6027,-0.08111 1.207,-0.19589 1.8127,-0.34437 0.6058,-0.14848 1.2058,-0.36882 1.8001,-0.66103 0.5943,-0.29221 1.1097,-0.62025 1.546,-0.98411 0.4364,-0.36385 0.7197,-0.65269 0.8499,-0.8665 0.1303,-0.21381 0.1731,-0.36902 0.1283,-0.46564 -0.0447,-0.09662 -0.1458,-0.21151 -0.3032,-0.3447 -0.2283,-0.19316 -0.5735,-0.55672 -1.0356,-1.09067"
         style="fill:none;stroke:#000000;stroke-width:1.03937;stroke-linecap:round;stroke-linejoin:round;stroke-miterlimit:10;stroke-dasharray:none;stroke-opacity:1"
         id="path1138" />
    </g>
  </g>
</svg>
