<?xml version="1.0" encoding="UTF-8" standalone="no"?>
<!-- Created with Inkscape (http://www.inkscape.org/) -->

<svg
   version="1.1"
   id="svg2"
   width="11.740234"
   height="15.274544"
   viewBox="0 0 11.740234 15.274543"
   sodipodi:docname="E24136542_宋昱宣_預報2.svg"
   inkscape:version="1.2.1 (9c6d41e410, 2022-07-14)"
   xmlns:inkscape="http://www.inkscape.org/namespaces/inkscape"
   xmlns:sodipodi="http://sodipodi.sourceforge.net/DTD/sodipodi-0.dtd"
   xmlns="http://www.w3.org/2000/svg"
   xmlns:svg="http://www.w3.org/2000/svg">
  <defs
     id="defs6" />
  <sodipodi:namedview
     id="namedview4"
     pagecolor="#ffffff"
     bordercolor="#000000"
     borderopacity="0.25"
     inkscape:showpageshadow="2"
     inkscape:pageopacity="0.0"
     inkscape:pagecheckerboard="0"
     inkscape:deskcolor="#d1d1d1"
     showgrid="false"
     inkscape:zoom="2.3786081"
     inkscape:cx="203.48035"
     inkscape:cy="340.32508"
     inkscape:window-width="1600"
     inkscape:window-height="930"
     inkscape:window-x="-6"
     inkscape:window-y="-6"
     inkscape:window-maximized="1"
     inkscape:current-layer="g10" />
  <g
     id="g10"
     inkscape:groupmode="layer"
     inkscape:label="Page 1"
     transform="matrix(1.3333333,0,0,-1.3333333,-215.56994,1055.8666)">
    <g
       id="g590137">
      <g
         id="g1408"
         transform="matrix(0.5454546,0,0,-0.5454546,0,841.89)">
        <path
           d="m 299.622,94.65709 c -0.1256,-0.14921 -0.2492,-0.25462 -0.3708,-0.31624 -0.0828,-0.04192 -0.1452,-0.06774 -0.1871,-0.07748 -0.042,-0.0097 -0.0646,-0.01499 -0.0678,-0.01574 -0.003,-7.6e-4 4e-4,9.7e-4 0.0111,0.0052 0.0106,0.0042 0.0846,0.03347 0.222,0.08781 0.1375,0.05433 0.3728,0.08929 0.7061,0.10488 0.3334,0.01559 0.7935,-0.04696 1.3805,-0.18764 0.587,-0.14068 1.2915,-0.35265 2.1134,-0.6359 0.822,-0.28325 1.6222,-0.53671 2.4007,-0.76039 0.7785,-0.22369 1.4407,-0.38813 1.9865,-0.49332 0.5458,-0.10519 0.9551,-0.16485 1.228,-0.17897 0.273,-0.01412 0.4094,-0.02118 0.4094,-0.02118"
           style="fill:none;stroke:#000000;stroke-width:1.03937;stroke-linecap:round;stroke-linejoin:round;stroke-miterlimit:10;stroke-dasharray:none;stroke-opacity:1"
           id="path1410" />
      </g>
      <g
         id="g1412"
         transform="matrix(0.5454546,0,0,-0.5454546,0,841.89)">
        <path
           d="m 298.7913,96.84885 c -0.2102,-0.20772 -0.3444,-0.28556 -0.4027,-0.23352 -0.0411,0.03677 -0.1135,0.21318 -0.2171,0.52925 -0.1036,0.31607 -0.2484,0.74018 -0.4346,1.27234 -0.1861,0.53216 -0.3529,1.03191 -0.5004,1.49925 -0.1475,0.46733 -0.2421,0.81893 -0.2837,1.05473 l -0.0246,0.1663 0.0545,-0.2109 c 0.0956,-0.4117 0.2133,-0.647 0.3529,-0.7058"
           style="fill:none;stroke:#000000;stroke-width:1.03937;stroke-linecap:round;stroke-linejoin:round;stroke-miterlimit:10;stroke-dasharray:none;stroke-opacity:1"
           id="path1414" />
      </g>
      <g
         id="g1416"
         transform="matrix(0.5454546,0,0,-0.5454546,0,841.89)">
        <path
           d="m 298.6853,98.53856 c 0.183,-0.31426 0.403,-0.57258 0.66,-0.77495 0.173,-0.13616 0.3942,-0.26777 0.6636,-0.39482 0.2694,-0.12705 0.6065,-0.25815 1.0114,-0.39329 0.4048,-0.13514 0.9293,-0.29049 1.5735,-0.46605 0.6442,-0.17557 1.3385,-0.3617 2.083,-0.55842 0.7444,-0.19671 1.4326,-0.38277 2.0644,-0.55818 0.6319,-0.17542 1.1884,-0.33672 1.6694,-0.4839 0.4811,-0.14718 0.8784,-0.26774 1.1918,-0.36169 0.3133,-0.09394 0.5586,-0.15731 0.7357,-0.19011 0.1771,-0.0328 0.3755,-0.05118 0.5951,-0.05515 0.2197,-0.004 0.3506,0.02571 0.3927,0.08901 0.0421,0.06331 0.0702,0.1661 0.0845,0.30838 0.0142,0.14226 0.0154,0.32674 0.004,0.55343 -0.0117,0.2267 -0.0497,0.48057 -0.1141,0.76161 -0.0644,0.28105 -0.146,0.59137 -0.2451,0.93097 -0.099,0.3396 -0.2182,0.69203 -0.3576,1.05729 -0.2094,0.54869 -0.5017,0.9144 -0.877,1.09711"
           style="fill:none;stroke:#000000;stroke-width:1.03937;stroke-linecap:round;stroke-linejoin:round;stroke-miterlimit:10;stroke-dasharray:none;stroke-opacity:1"
           id="path1418" />
      </g>
      <g
         id="g1420"
         transform="matrix(0.5454546,0,0,-0.5454546,0,841.89)">
        <path
           d="m 305.1656,92.94943 c 0.0124,-0.14469 0.0115,-0.20366 -0.002,-0.17692 -0.0101,0.01913 -0.0353,0.06695 -0.0755,0.14346 -0.0403,0.07651 -0.0941,0.32812 -0.1614,0.75481 -0.0672,0.4267 -0.1274,0.92291 -0.1804,1.48864 -0.0531,0.56573 -0.0988,1.17036 -0.1373,1.81391 -0.0384,0.64355 -0.0777,1.17845 -0.1178,1.60472 -0.0402,0.42626 -0.2107,0.76124 -0.5115,1.00493"
           style="fill:none;stroke:#000000;stroke-width:1.03937;stroke-linecap:round;stroke-linejoin:round;stroke-miterlimit:10;stroke-dasharray:none;stroke-opacity:1"
           id="path1422" />
      </g>
      <g
         id="g1424"
         transform="matrix(0.5454546,0,0,-0.5454546,0,841.89)">
        <path
           d="m 300.9309,98.51319 c -0.0712,-0.04421 -0.1472,-0.06735 -0.2281,-0.0694 -0.0545,-0.0014 -0.111,0.03927 -0.1697,0.12195 -0.0586,0.08269 -0.1174,0.2245 -0.1764,0.42543 -0.0591,0.20092 -0.1065,0.42576 -0.1425,0.67453 -0.0359,0.24875 -0.0558,0.4728 -0.0598,0.6721 -0.004,0.1993 0.0389,0.2964 0.1286,0.2911 0.0897,-0.005 0.1887,-0.0233 0.2968,-0.0543 0.1082,-0.0309 0.264,-0.1006 0.4675,-0.209 0.2934,-0.1564 0.8892,-0.50128 1.7876,-1.03482"
           style="fill:none;stroke:#000000;stroke-width:1.03937;stroke-linecap:round;stroke-linejoin:round;stroke-miterlimit:10;stroke-dasharray:none;stroke-opacity:1"
           id="path1426" />
      </g>
      <g
         id="g1428"
         transform="matrix(0.5454546,0,0,-0.5454546,0,841.89)">
        <path
           d="m 307.468,96.69473 c 0,-0.13557 0,-0.20825 0,-0.21806 0,-0.0069 -8e-4,-0.0077 -0.002,-0.0024 -0.002,0.0053 -0.01,0.03463 -0.0254,0.08794 -0.0153,0.0533 -0.0836,0.19227 -0.2048,0.4169 -0.1211,0.22462 -0.2772,0.49086 -0.4683,0.7987 -0.191,0.30785 -0.3655,0.59466 -0.5235,0.86041 -0.158,0.26576 -0.2549,0.46369 -0.2908,0.59379 -0.0358,0.13011 0.0519,0.2282 0.2632,0.29428 0.2113,0.06608 0.4106,0.1155 0.5978,0.14827 0.1873,0.03276 0.3685,0.06879 0.5436,0.10807 0.1752,0.03929 0.3243,0.08746 0.4476,0.1445 0.1232,0.05705 0.1849,0.08555 0.1849,0.08555"
           style="fill:none;stroke:#000000;stroke-width:1.03937;stroke-linecap:round;stroke-linejoin:round;stroke-miterlimit:10;stroke-dasharray:none;stroke-opacity:1"
           id="path1430" />
      </g>
      <g
         id="g1432"
         transform="matrix(0.5454546,0,0,-0.5454546,0,841.89)">
        <path
           d="m 301.8813,102.8477 c -0.1848,-0.1063 -0.3467,-0.1722 -0.4855,-0.1975 -0.0947,-0.0173 -0.1633,-0.0101 -0.2059,0.0214 -0.0426,0.0316 -0.0876,0.1917 -0.1351,0.4802 -0.0474,0.2886 -0.1066,0.7191 -0.1777,1.2918 -0.0711,0.5726 -0.1252,1.1076 -0.1623,1.6051 -0.0371,0.4975 -0.0425,0.8558 -0.0162,1.0748 0.0263,0.219 0.0395,0.3285 0.0395,0.3285"
           style="fill:none;stroke:#000000;stroke-width:1.03937;stroke-linecap:round;stroke-linejoin:round;stroke-miterlimit:10;stroke-dasharray:none;stroke-opacity:1"
           id="path1434" />
      </g>
      <g
         id="g1436"
         transform="matrix(0.5454546,0,0,-0.5454546,0,841.89)">
        <path
           d="m 301.9657,103.2108 c 1.2496,-0.5389 2.326,-0.9785 3.229,-1.3188 0.6121,-0.2306 1.118,-0.4007 1.5176,-0.5102 0.3997,-0.1095 0.7108,-0.1747 0.9335,-0.1955 0.2226,-0.0209 0.3964,-0.0274 0.5213,-0.0196 0.1248,0.008 0.2185,0.0356 0.2811,0.0832 0.0625,0.0476 0.1085,0.1151 0.1379,0.2027 0.0294,0.0876 0.0455,0.2321 0.0485,0.4335 0.003,0.2014 -0.0735,0.6766 -0.2294,1.4254 -0.1558,0.7489 -0.2845,1.3235 -0.3861,1.7239 -0.1545,0.6089 -0.3877,1.0385 -0.6997,1.2887"
           style="fill:none;stroke:#000000;stroke-width:1.03937;stroke-linecap:round;stroke-linejoin:round;stroke-miterlimit:10;stroke-dasharray:none;stroke-opacity:1"
           id="path1438" />
      </g>
      <g
         id="g1440"
         transform="matrix(0.5454546,0,0,-0.5454546,0,841.89)">
        <path
           d="m 302.6257,105.5804 c -0.3404,0 -0.5224,0 -0.5459,0 -0.0166,0 -0.0204,-10e-4 -0.0112,-0.004 0.009,-0.003 0.0616,-0.0175 0.1574,-0.0446 0.0958,-0.0271 0.3545,-0.1286 0.776,-0.3044 0.4215,-0.1758 0.9321,-0.3666 1.5316,-0.5723 0.5996,-0.2058 1.1746,-0.3522 1.7251,-0.4394 0.5504,-0.0872 0.8675,0.1225 0.9513,0.629"
           style="fill:none;stroke:#000000;stroke-width:1.03937;stroke-linecap:round;stroke-linejoin:round;stroke-miterlimit:10;stroke-dasharray:none;stroke-opacity:1"
           id="path1442" />
      </g>
      <g
         id="g1444"
         transform="matrix(0.5454546,0,0,-0.5454546,0,841.89)">
        <path
           d="m 302.2745,107.9551 c -0.5158,0.1723 -0.8401,0.3118 -0.9728,0.4184 -0.0922,0.074 -0.0998,0.1247 -0.0226,0.1519 0.0771,0.0272 0.3134,0.0323 0.709,0.0152 0.3956,-0.0171 0.8903,-0.1044 1.4842,-0.2618 0.5938,-0.1575 1.2154,-0.3535 1.8647,-0.588 1.0382,-0.3749 1.6773,-0.7217 1.9172,-1.0404"
           style="fill:none;stroke:#000000;stroke-width:1.03937;stroke-linecap:round;stroke-linejoin:round;stroke-miterlimit:10;stroke-dasharray:none;stroke-opacity:1"
           id="path1446" />
      </g>
      <g
         id="g1448"
         transform="matrix(0.5454546,0,0,-0.5454546,0,841.89)">
        <path
           d="m 304.889,103.2448 c -0.0714,-0.0321 -0.173,-0.0468 -0.3048,-0.0442 -0.0855,0.002 -0.1772,0.0773 -0.2752,0.2269 -0.098,0.1496 -0.1935,0.4426 -0.2865,0.8789 -0.093,0.4363 -0.1639,0.9648 -0.2126,1.5855 -0.0487,0.6207 -0.0774,1.2636 -0.086,1.9289 -0.009,0.6652 -0.0115,1.2382 -0.009,1.7188 0.003,0.4807 0.0357,0.8427 0.0986,1.0861 0.0628,0.2435 0.1324,0.4372 0.2088,0.5813 0.0763,0.1441 0.1631,0.2616 0.2601,0.3525 0.0971,0.0909 0.2234,0.1738 0.3789,0.2486 0.1555,0.0748 0.3737,0.1425 0.6545,0.2031 0.2808,0.0606 0.6094,0.0989 0.986,0.1149 0.3765,0.0159 0.7644,-0.005 1.1637,-0.0628 0.3992,-0.0578 0.7946,-0.1545 1.1861,-0.2899 0.3916,-0.1354 0.7592,-0.2977 1.1031,-0.4867 0.3438,-0.1891 0.6408,-0.3778 0.891,-0.5659 0.2502,-0.1882 0.4742,-0.3677 0.6719,-0.5387 0.1977,-0.171 0.3562,-0.3312 0.4754,-0.4806 0.1192,-0.1494 0.1945,-0.2897 0.2258,-0.4208 0.0447,-0.1872 -0.1619,-0.5818 -0.6199,-1.1839"
           style="fill:none;stroke:#000000;stroke-width:1.03937;stroke-linecap:round;stroke-linejoin:round;stroke-miterlimit:10;stroke-dasharray:none;stroke-opacity:1"
           id="path1450" />
      </g>
    </g>
  </g>
</svg>
