<svg xmlns="http://www.w3.org/2000/svg" width="11.74" height="15.275"><path d="M299.622 94.657a1.2 1.2 0 0 0-.37-.316 1 1 0 0 0-.256-.093l.011.005.222.088q.207.081.707.105t1.38-.188q.881-.21 2.113-.636a48 48 0 0 1 2.401-.76q1.168-.336 1.987-.494.818-.158 1.228-.179l.409-.02" style="fill:none;stroke:#000;stroke-width:1.03937;stroke-linecap:round;stroke-linejoin:round;stroke-miterlimit:10;stroke-dasharray:none;stroke-opacity:1" transform="matrix(.72727 0 0 .72727 -215.57 -66.653)"/><path d="M298.791 96.849q-.315-.312-.402-.234-.062.056-.218.53-.155.474-.434 1.272a52 52 0 0 0-.5 1.5 9 9 0 0 0-.284 1.054l-.025.166.055-.21q.143-.619.353-.706" style="fill:none;stroke:#000;stroke-width:1.03937;stroke-linecap:round;stroke-linejoin:round;stroke-miterlimit:10;stroke-dasharray:none;stroke-opacity:1" transform="matrix(.72727 0 0 .72727 -215.57 -66.653)"/><path d="M298.685 98.539q.274-.472.66-.775a3.5 3.5 0 0 1 .664-.395q.404-.19 1.011-.393.608-.204 1.574-.467t2.083-.558q1.116-.295 2.064-.558a67 67 0 0 0 1.67-.484q.72-.22 1.191-.362.47-.14.736-.19t.595-.055.393.089.084.308.004.554-.114.761-.245.931q-.149.51-.357 1.058-.315.822-.877 1.097" style="fill:none;stroke:#000;stroke-width:1.03937;stroke-linecap:round;stroke-linejoin:round;stroke-miterlimit:10;stroke-dasharray:none;stroke-opacity:1" transform="matrix(.72727 0 0 .72727 -215.57 -66.653)"/><path d="M305.166 92.95q.018-.217-.002-.177l-.076.143q-.06.114-.161.755a24 24 0 0 0-.18 1.488q-.081.849-.138 1.814a49 49 0 0 1-.118 1.605q-.06.639-.511 1.005" style="fill:none;stroke:#000;stroke-width:1.03937;stroke-linecap:round;stroke-linejoin:round;stroke-miterlimit:10;stroke-dasharray:none;stroke-opacity:1" transform="matrix(.72727 0 0 .72727 -215.57 -66.653)"/><path d="M300.93 98.513a.45.45 0 0 0-.227-.07q-.082 0-.17.123a1.5 1.5 0 0 0-.176.425q-.09.301-.143.675a6 6 0 0 0-.06.672q-.005.3.129.29.135-.006.297-.053t.467-.21q.441-.233 1.788-1.034" style="fill:none;stroke:#000;stroke-width:1.03937;stroke-linecap:round;stroke-linejoin:round;stroke-miterlimit:10;stroke-dasharray:none;stroke-opacity:1" transform="matrix(.72727 0 0 .72727 -215.57 -66.653)"/><path d="M307.468 96.695v-.218q0-.01-.002-.003l-.025.088a3 3 0 0 1-.205.417q-.182.337-.468.799a54 54 0 0 0-.524.86q-.237.399-.29.594-.055.195.262.294.318.1.598.149.282.048.544.108.262.058.447.144l.185.086" style="fill:none;stroke:#000;stroke-width:1.03937;stroke-linecap:round;stroke-linejoin:round;stroke-miterlimit:10;stroke-dasharray:none;stroke-opacity:1" transform="matrix(.72727 0 0 .72727 -215.57 -66.653)"/><path d="M301.881 102.848a1.6 1.6 0 0 0-.485-.198q-.143-.026-.206.022-.065.046-.135.48-.072.432-.178 1.292a33 33 0 0 0-.162 1.605q-.056.746-.016 1.074l.04.329" style="fill:none;stroke:#000;stroke-width:1.03937;stroke-linecap:round;stroke-linejoin:round;stroke-miterlimit:10;stroke-dasharray:none;stroke-opacity:1" transform="matrix(.72727 0 0 .72727 -215.57 -66.653)"/><path d="M301.966 103.21a76 76 0 0 1 3.229-1.318q.918-.345 1.517-.51.6-.165.934-.196.333-.03.521-.02a.5.5 0 0 1 .281.084.4.4 0 0 1 .138.203q.045.131.049.433.004.303-.23 1.426a44 44 0 0 1-.386 1.723q-.231.914-.7 1.29" style="fill:none;stroke:#000;stroke-width:1.03937;stroke-linecap:round;stroke-linejoin:round;stroke-miterlimit:10;stroke-dasharray:none;stroke-opacity:1" transform="matrix(.72727 0 0 .72727 -215.57 -66.653)"/><path d="M302.626 105.58h-.546q-.025.001-.011-.004l.157-.044q.144-.04.776-.305.633-.263 1.532-.572.9-.309 1.725-.44.825-.13.951.63" style="fill:none;stroke:#000;stroke-width:1.03937;stroke-linecap:round;stroke-linejoin:round;stroke-miterlimit:10;stroke-dasharray:none;stroke-opacity:1" transform="matrix(.72727 0 0 .72727 -215.57 -66.653)"/><path d="M302.275 107.955q-.774.258-.973.419-.139.11-.023.151.115.042.71.016.593-.026 1.483-.262a23 23 0 0 0 1.865-.588q1.557-.563 1.917-1.04" style="fill:none;stroke:#000;stroke-width:1.03937;stroke-linecap:round;stroke-linejoin:round;stroke-miterlimit:10;stroke-dasharray:none;stroke-opacity:1" transform="matrix(.72727 0 0 .72727 -215.57 -66.653)"/><path d="M304.889 103.245a.7.7 0 0 0-.305-.044q-.128.002-.275.227-.147.224-.286.878-.14.655-.213 1.586-.073.93-.086 1.929-.014.998-.01 1.719.006.72.1 1.086.093.365.208.581t.26.353q.147.135.38.248.232.113.654.203.421.091.986.115.564.024 1.163-.063a6.5 6.5 0 0 0 1.187-.29q.587-.202 1.103-.486.515-.284.89-.566t.673-.539.475-.48q.179-.225.226-.421.067-.28-.62-1.184" style="fill:none;stroke:#000;stroke-width:1.03937;stroke-linecap:round;stroke-linejoin:round;stroke-miterlimit:10;stroke-dasharray:none;stroke-opacity:1" transform="matrix(.72727 0 0 .72727 -215.57 -66.653)"/></svg>