<?xml version="1.0" encoding="UTF-8" standalone="no"?>
<!-- Created with Inkscape (http://www.inkscape.org/) -->

<svg
   version="1.1"
   id="svg2"
   width="10.609222"
   height="15.685516"
   viewBox="0 0 10.609222 15.685516"
   sodipodi:docname="E24136542_宋昱宣_預報2.svg"
   inkscape:version="1.2.1 (9c6d41e410, 2022-07-14)"
   xmlns:inkscape="http://www.inkscape.org/namespaces/inkscape"
   xmlns:sodipodi="http://sodipodi.sourceforge.net/DTD/sodipodi-0.dtd"
   xmlns="http://www.w3.org/2000/svg"
   xmlns:svg="http://www.w3.org/2000/svg">
  <defs
     id="defs6" />
  <sodipodi:namedview
     id="namedview4"
     pagecolor="#ffffff"
     bordercolor="#000000"
     borderopacity="0.25"
     inkscape:showpageshadow="2"
     inkscape:pageopacity="0.0"
     inkscape:pagecheckerboard="0"
     inkscape:deskcolor="#d1d1d1"
     showgrid="false"
     inkscape:zoom="2.3786081"
     inkscape:cx="203.48035"
     inkscape:cy="340.32508"
     inkscape:window-width="1600"
     inkscape:window-height="930"
     inkscape:window-x="-6"
     inkscape:window-y="-6"
     inkscape:window-maximized="1"
     inkscape:current-layer="g10" />
  <g
     id="g10"
     inkscape:groupmode="layer"
     inkscape:label="Page 1"
     transform="matrix(1.3333333,0,0,-1.3333333,-323.54049,1079.1398)">
    <g
       id="g353977">
      <g
         id="g1008"
         transform="matrix(0.5454546,0,0,-0.5454546,0,841.89)">
        <path
           d="m 445.6054,64.98487 c -0.1115,-0.04857 -0.183,-0.07972 -0.2145,-0.09345 -0.0219,-0.0095 0.0723,-0.03938 0.2827,-0.0895 0.2103,-0.05013 0.6062,-0.14447 1.1877,-0.28303 0.5814,-0.13856 1.219,-0.29262 1.9126,-0.46216 0.6936,-0.16954 1.28,-0.31501 1.759,-0.4364 l 0.6837,-0.17324 -0.002,4.5e-4 -0.0183,0.0047 0.055,-0.01393"
           style="fill:none;stroke:#000000;stroke-width:1.03937;stroke-linecap:round;stroke-linejoin:round;stroke-miterlimit:10;stroke-dasharray:none;stroke-opacity:1"
           id="path1010" />
      </g>
      <g
         id="g1012"
         transform="matrix(0.5454546,0,0,-0.5454546,0,841.89)">
        <path
           d="m 448.7346,62.48821 c -0.0593,-0.06208 -0.1107,0.01405 -0.1543,0.2284 -0.0435,0.21434 -0.1069,0.61128 -0.1901,1.19081 -0.0832,0.57954 -0.1391,1.16105 -0.1677,1.74453 -0.0286,0.58349 0.003,1.04927 0.0956,1.39734 0.0924,0.34806 0.1386,0.5221 0.1386,0.5221"
           style="fill:none;stroke:#000000;stroke-width:1.03937;stroke-linecap:round;stroke-linejoin:round;stroke-miterlimit:10;stroke-dasharray:none;stroke-opacity:1"
           id="path1014" />
      </g>
      <g
         id="g1016"
         transform="matrix(0.5454546,0,0,-0.5454546,0,841.89)">
        <path
           d="m 452.8768,64.10933 c 0.1045,0.0186 0.3539,-0.03148 0.7481,-0.15027 0.2369,-0.07135 0.5634,-0.18752 0.9796,-0.34849 0.4162,-0.16098 1.1052,-0.45285 2.0671,-0.8756 0.9619,-0.42275 1.5478,-0.66248 1.7577,-0.71921 0.2098,-0.05672 0.342,-0.06321 0.3966,-0.01948 0.0776,0.06231 0.0929,0.13026 0.0457,0.20384"
           style="fill:none;stroke:#000000;stroke-width:1.03937;stroke-linecap:round;stroke-linejoin:round;stroke-miterlimit:10;stroke-dasharray:none;stroke-opacity:1"
           id="path1018" />
      </g>
      <g
         id="g1020"
         transform="matrix(0.5454546,0,0,-0.5454546,0,841.89)">
        <path
           d="m 456.5215,60.21892 c -0.3764,-0.07316 -0.6158,-0.06827 -0.7184,0.01466 -0.0716,0.05786 -0.134,0.23455 -0.1872,0.53005 -0.0532,0.2955 -0.1008,0.74101 -0.1428,1.33652 -0.042,0.59551 -0.0674,1.19816 -0.0763,1.80795 -0.009,0.60979 0.0857,1.16544 0.2837,1.66694"
           style="fill:none;stroke:#000000;stroke-width:1.03937;stroke-linecap:round;stroke-linejoin:round;stroke-miterlimit:10;stroke-dasharray:none;stroke-opacity:1"
           id="path1022" />
      </g>
      <g
         id="g1024"
         transform="matrix(0.5454546,0,0,-0.5454546,0,841.89)">
        <path
           d="m 450.2094,67.60506 c 0.0775,-0.25574 0.1178,-0.38895 0.121,-0.39965 l 0.002,-0.0071 -3e-4,0.0025 c -9e-4,0.0045 -0.009,0.04529 -0.0244,0.1224 -0.0153,0.07711 -0.0921,0.28937 -0.2303,0.6368 -0.1382,0.34742 -0.3652,0.82766 -0.681,1.44072 -0.3158,0.61305 -0.7337,1.34101 -1.2538,2.18388 -0.5201,0.84287 -1.0149,1.57371 -1.4844,2.19251 -0.4695,0.61881 -0.7941,1.00631 -0.9737,1.16252 l -0.2296,0.19973 0.007,-0.006 0.0233,-0.02028 -0.0699,0.06084"
           style="fill:none;stroke:#000000;stroke-width:1.03937;stroke-linecap:round;stroke-linejoin:round;stroke-miterlimit:10;stroke-dasharray:none;stroke-opacity:1"
           id="path1026" />
      </g>
      <g
         id="g1028"
         transform="matrix(0.5454546,0,0,-0.5454546,0,841.89)">
        <path
           d="m 448.1831,71.78238 c 0.0652,-0.23261 0.1002,-0.35718 0.1049,-0.37373 0.003,-0.01166 0.003,0.006 -0.002,0.05288 -0.005,0.04692 -0.0291,0.30939 -0.0739,0.78742 -0.0448,0.47801 -0.1049,1.08748 -0.1801,1.82838 -0.0752,0.74091 -0.158,1.60095 -0.2482,2.58013 -0.0902,0.97918 -0.1523,1.81138 -0.1863,2.49659 -0.034,0.68521 -0.0215,1.14069 0.0375,1.36642 0.0811,0.31 0.2327,0.24524 0.455,-0.1943"
           style="fill:none;stroke:#000000;stroke-width:1.03937;stroke-linecap:round;stroke-linejoin:round;stroke-miterlimit:10;stroke-dasharray:none;stroke-opacity:1"
           id="path1030" />
      </g>
      <g
         id="g1032"
         transform="matrix(0.5454546,0,0,-0.5454546,0,841.89)">
        <path
           d="m 450.594,70.51679 c 0.0314,-0.06365 0.0164,-0.15561 -0.0451,-0.2759 -0.0407,-0.0796 0.1438,-0.18628 0.5535,-0.32004 0.4097,-0.13375 0.9222,-0.31745 1.5375,-0.55111 0.6152,-0.23367 1.3075,-0.50311 2.0768,-0.80834 0.7693,-0.30523 1.6134,-0.63105 2.5325,-0.97748 0.919,-0.34642 1.4283,-0.53468 1.5277,-0.56479 0.0995,-0.03011 0.1524,-0.04613 0.1588,-0.04806 0.006,-0.0019 9e-4,0.0015 -0.0163,0.01034 -0.0173,0.0088 -0.0252,0.01498 -0.0239,0.01845 0.002,0.0049 -0.246,0.19838 -0.7435,0.58047"
           style="fill:none;stroke:#000000;stroke-width:1.03937;stroke-linecap:round;stroke-linejoin:round;stroke-miterlimit:10;stroke-dasharray:none;stroke-opacity:1"
           id="path1034" />
      </g>
      <g
         id="g1036"
         transform="matrix(0.5454546,0,0,-0.5454546,0,841.89)">
        <path
           d="m 452.2097,72.9128 c -0.2898,-0.01087 -0.4512,0.16313 -0.4842,0.52201 -0.0545,0.59284 -0.1053,0.97751 -0.1525,1.154"
           style="fill:none;stroke:#000000;stroke-width:1.03937;stroke-linecap:round;stroke-linejoin:round;stroke-miterlimit:10;stroke-dasharray:none;stroke-opacity:1"
           id="path1038" />
      </g>
      <g
         id="g1040"
         transform="matrix(0.5454546,0,0,-0.5454546,0,841.89)">
        <path
           d="m 452.1946,72.41869 c 0.0665,-0.19379 0.155,-0.34892 0.2655,-0.4654 0.0748,-0.07893 0.1842,-0.15154 0.3283,-0.21783 0.1441,-0.06629 0.3267,-0.12745 0.5479,-0.18349 0.2212,-0.05603 0.4626,-0.10145 0.7243,-0.13625 0.2617,-0.0348 0.4864,-0.05563 0.6741,-0.06248 0.1877,-0.0069 0.3053,0.04273 0.353,0.14873 0.0476,0.10599 0.0137,0.29904 -0.1017,0.57915 -0.1154,0.2801 -0.2862,0.59136 -0.5123,0.9338 -0.2261,0.34243 -0.4356,0.63183 -0.6283,0.86821 -0.1927,0.23637 -0.3526,0.40568 -0.4795,0.50792 -0.127,0.10224 -0.2155,0.14686 -0.2655,0.13384 -0.05,-0.01301 0.008,-0.03648 0.1733,-0.07041 0.1656,-0.03393 0.3434,-0.08473 0.5334,-0.15242 0.2739,-0.09759 0.6321,-0.44937 1.0746,-1.05533"
           style="fill:none;stroke:#000000;stroke-width:1.03937;stroke-linecap:round;stroke-linejoin:round;stroke-miterlimit:10;stroke-dasharray:none;stroke-opacity:1"
           id="path1042" />
      </g>
      <g
         id="g1044"
         transform="matrix(0.5454546,0,0,-0.5454546,0,841.89)">
        <path
           d="m 456.8423,69.12102 c -0.1172,-0.03821 -0.1741,0.36476 -0.1706,1.20892 0.004,0.84416 0.003,1.83374 -10e-4,2.96874 -0.004,1.135 -0.0479,2.21011 -0.131,3.22533 -0.0832,1.01522 -0.166,1.78021 -0.2484,2.29497 -0.0824,0.51477 -0.1672,0.85964 -0.2543,1.03464 -0.087,0.175 -0.1802,0.28192 -0.2794,0.32076 -0.0992,0.03883 -0.2096,0.06187 -0.3311,0.06913 -0.1215,0.0072 -0.2547,-0.03817 -0.3995,-0.13626 -0.2083,-0.14114 -0.4061,-0.53728 -0.5935,-1.18841"
           style="fill:none;stroke:#000000;stroke-width:1.03937;stroke-linecap:round;stroke-linejoin:round;stroke-miterlimit:10;stroke-dasharray:none;stroke-opacity:1"
           id="path1046" />
      </g>
    </g>
  </g>
</svg>
