<?xml version="1.0" encoding="UTF-8" standalone="no"?>
<!-- Created with Inkscape (http://www.inkscape.org/) -->

<svg
   version="1.1"
   id="svg2"
   width="18.541138"
   height="15.076462"
   viewBox="0 0 18.541138 15.076462"
   sodipodi:docname="E24136542_宋昱宣_預報2.svg"
   inkscape:version="1.2.1 (9c6d41e410, 2022-07-14)"
   xmlns:inkscape="http://www.inkscape.org/namespaces/inkscape"
   xmlns:sodipodi="http://sodipodi.sourceforge.net/DTD/sodipodi-0.dtd"
   xmlns="http://www.w3.org/2000/svg"
   xmlns:svg="http://www.w3.org/2000/svg">
  <defs
     id="defs6" />
  <sodipodi:namedview
     id="namedview4"
     pagecolor="#ffffff"
     bordercolor="#000000"
     borderopacity="0.25"
     inkscape:showpageshadow="2"
     inkscape:pageopacity="0.0"
     inkscape:pagecheckerboard="0"
     inkscape:deskcolor="#d1d1d1"
     showgrid="false"
     inkscape:zoom="2.3786081"
     inkscape:cx="203.48035"
     inkscape:cy="340.32508"
     inkscape:window-width="1600"
     inkscape:window-height="930"
     inkscape:window-x="-6"
     inkscape:window-y="-6"
     inkscape:window-maximized="1"
     inkscape:current-layer="g10" />
  <g
     id="g10"
     inkscape:groupmode="layer"
     inkscape:label="Page 1"
     transform="matrix(1.3333333,0,0,-1.3333333,-236.33174,1078.4087)">
    <g
       id="g247814">
      <g
         id="g872"
         transform="matrix(0.5454546,0,0,-0.5454546,0,841.89)">
        <path
           d="m 331.9941,62.55181 c 0.0646,-0.25121 0.0249,-0.43769 -0.119,-0.55945 -0.0999,-0.08446 -0.1999,-0.12595 -0.3001,-0.12447 -0.1002,0.0015 -0.2549,0.10728 -0.4639,0.31742 -0.209,0.21014 -0.4874,0.55142 -0.8353,1.02386 -0.3478,0.47243 -0.719,0.99672 -1.1136,1.57287 -0.3945,0.57614 -0.7375,1.09403 -1.029,1.55365 -0.2915,0.45963 -0.5289,0.82973 -0.712,1.11031"
           style="fill:none;stroke:#000000;stroke-width:1.03937;stroke-linecap:round;stroke-linejoin:round;stroke-miterlimit:10;stroke-dasharray:none;stroke-opacity:1"
           id="path874" />
      </g>
      <g
         id="g876"
         transform="matrix(0.5454546,0,0,-0.5454546,0,841.89)">
        <path
           d="m 326.3656,70.59127 c -0.1716,0.12486 -0.2824,0.25128 -0.3324,0.37926 -0.0342,0.08757 -0.0425,0.18121 -0.0249,0.28092 0.0176,0.09972 0.1698,0.1714 0.4564,0.21506 0.2866,0.04367 0.7649,-8.2e-4 1.435,-0.13345 0.6701,-0.13263 1.4484,-0.34819 2.3347,-0.64667 0.8864,-0.2985 1.6408,-0.5205 2.2632,-0.66601 0.6224,-0.14551 1.0863,-0.12951 1.3918,0.04801"
           style="fill:none;stroke:#000000;stroke-width:1.03937;stroke-linecap:round;stroke-linejoin:round;stroke-miterlimit:10;stroke-dasharray:none;stroke-opacity:1"
           id="path878" />
      </g>
      <g
         id="g880"
         transform="matrix(0.5454546,0,0,-0.5454546,0,841.89)">
        <path
           d="m 330.7521,65.63328 c -0.0624,-0.31922 -0.0967,-0.43137 -0.1029,-0.33645 -0.005,0.06827 -0.0156,0.23895 -0.0334,0.51204 -0.0179,0.27308 -0.0266,0.81806 -0.0263,1.63492 3e-4,0.81685 -0.0303,1.9382 -0.0919,3.36404 -0.0617,1.42584 -0.1123,2.93547 -0.152,4.52889 -0.0398,1.59341 -0.0616,2.78421 -0.0656,3.5724 -0.004,0.78819 -0.1179,1.43965 -0.3419,1.95437"
           style="fill:none;stroke:#000000;stroke-width:1.03937;stroke-linecap:round;stroke-linejoin:round;stroke-miterlimit:10;stroke-dasharray:none;stroke-opacity:1"
           id="path882" />
      </g>
      <g
         id="g884"
         transform="matrix(0.5454546,0,0,-0.5454546,0,841.89)">
        <path
           d="m 329.9836,72.81424 c 0.04,-0.42857 0.0211,-0.61948 -0.0568,-0.57274 -0.0555,0.03331 -0.316,0.41098 -0.7815,1.13303 -0.4654,0.72204 -0.9269,1.41337 -1.3843,2.07399 -0.4574,0.66063 -0.8869,1.28449 -1.2885,1.87159 -0.4015,0.58711 -0.6926,1.00322 -0.8733,1.24834 l -0.1237,0.15214 0.1721,-0.30438 c 0.3167,-0.51585 0.5405,-1.09744 0.6713,-1.74474"
           style="fill:none;stroke:#000000;stroke-width:1.03937;stroke-linecap:round;stroke-linejoin:round;stroke-miterlimit:10;stroke-dasharray:none;stroke-opacity:1"
           id="path886" />
      </g>
      <g
         id="g888"
         transform="matrix(0.5454546,0,0,-0.5454546,0,841.89)">
        <path
           d="m 328.3619,74.74825 c 0.4229,-0.51621 0.7354,-0.86194 0.9373,-1.03718 0.1394,-0.121 0.2867,-0.19541 0.4419,-0.22323 0.1552,-0.02782 0.3479,-0.0083 0.578,0.05853 0.2301,0.06685 0.5139,0.2131 0.8514,0.43875 0.3375,0.22565 0.7322,0.48452 1.1842,0.77658 0.452,0.29208 0.8426,0.53694 1.1718,0.7346"
           style="fill:none;stroke:#000000;stroke-width:1.03937;stroke-linecap:round;stroke-linejoin:round;stroke-miterlimit:10;stroke-dasharray:none;stroke-opacity:1"
           id="path890" />
      </g>
      <g
         id="g892"
         transform="matrix(0.5454546,0,0,-0.5454546,0,841.89)">
        <path
           d="m 336.5935,63.81685 c -0.0548,-0.11964 -0.1287,-0.22017 -0.2218,-0.30161 -0.0626,-0.05474 -0.0844,0.14092 -0.0656,0.58696 0.0188,0.44605 0.0456,0.83137 0.0804,1.15598 0.0513,0.47682 0.0417,1.08429 -0.0287,1.82242"
           style="fill:none;stroke:#000000;stroke-width:1.03937;stroke-linecap:round;stroke-linejoin:round;stroke-miterlimit:10;stroke-dasharray:none;stroke-opacity:1"
           id="path894" />
      </g>
      <g
         id="g896"
         transform="matrix(0.5454546,0,0,-0.5454546,0,841.89)">
        <path
           d="m 337.5891,63.35632 c -0.008,-0.18598 0.007,-0.33088 0.0433,-0.4347 0.025,-0.07103 0.0844,-0.13031 0.1782,-0.17783 0.0938,-0.04753 0.3229,-0.12757 0.6873,-0.24013 0.3645,-0.11255 0.7678,-0.23229 1.21,-0.35921 0.4423,-0.12692 1.0406,-0.2937 1.795,-0.50036 0.7543,-0.20666 1.2527,-0.33507 1.4951,-0.38523 0.2424,-0.05017 0.4272,-0.07776 0.5544,-0.08277 0.1273,-0.005 0.2097,0.01468 0.2474,0.05909 0.0377,0.04442 0.0628,0.13959 0.0751,0.28553 0.0124,0.14593 -0.01,0.3688 -0.0662,0.66862 -0.0565,0.29982 -0.2309,0.86452 -0.5231,1.69412 -0.2922,0.82959 -0.5375,1.43405 -0.7359,1.81339 -0.2888,0.55236 -0.7698,0.8523 -1.4429,0.89982"
           style="fill:none;stroke:#000000;stroke-width:1.03937;stroke-linecap:round;stroke-linejoin:round;stroke-miterlimit:10;stroke-dasharray:none;stroke-opacity:1"
           id="path898" />
      </g>
      <g
         id="g900"
         transform="matrix(0.5454546,0,0,-0.5454546,0,841.89)">
        <path
           d="m 338.0632,67.79596 c -0.5409,-10e-6 -0.8215,-10e-6 -0.8419,-10e-6 h -0.0161 0.002 c 0.005,0 0.054,0 0.1474,0 0.0934,0 0.69,-0.18051 1.7899,-0.54153 1.0999,-0.36103 1.9643,-0.60198 2.5933,-0.72286 0.629,-0.12088 1.1141,-0.08224 1.4553,0.11592"
           style="fill:none;stroke:#000000;stroke-width:1.03937;stroke-linecap:round;stroke-linejoin:round;stroke-miterlimit:10;stroke-dasharray:none;stroke-opacity:1"
           id="path902" />
      </g>
      <g
         id="g904"
         transform="matrix(0.5454546,0,0,-0.5454546,0,841.89)">
        <path
           d="m 342.7192,68.74468 c -0.2316,-0.13132 -0.4057,-0.19566 -0.5222,-0.19303 -0.0806,0.0018 -0.1579,0.06471 -0.2318,0.18866 -0.0739,0.12395 -0.2016,0.32239 -0.383,0.5953 -0.1814,0.27291 -0.4447,0.6156 -0.7898,1.02806 -0.3451,0.41246 -0.7542,0.86053 -1.2273,1.34422 -0.7073,0.72326 -1.47,1.42687 -2.288,2.11083"
           style="fill:none;stroke:#000000;stroke-width:1.03937;stroke-linecap:round;stroke-linejoin:round;stroke-miterlimit:10;stroke-dasharray:none;stroke-opacity:1"
           id="path906" />
      </g>
      <g
         id="g908"
         transform="matrix(0.5454546,0,0,-0.5454546,0,841.89)">
        <path
           d="m 335.8725,75.04106 c -0.3373,0.11705 -0.4549,0.17582 -0.3529,0.17632 0.0732,3.6e-4 0.2564,0.0013 0.5494,0.0027 0.2931,0.0014 0.88,-0.12304 1.7607,-0.37344 0.8807,-0.2504 1.8509,-0.5515 2.9105,-0.90332 1.0596,-0.35181 1.8991,-0.59697 2.5186,-0.73546 0.6194,-0.13849 1.0035,-0.13961 1.1524,-0.0034"
           style="fill:none;stroke:#000000;stroke-width:1.03937;stroke-linecap:round;stroke-linejoin:round;stroke-miterlimit:10;stroke-dasharray:none;stroke-opacity:1"
           id="path910" />
      </g>
      <g
         id="g912"
         transform="matrix(0.5454546,0,0,-0.5454546,0,841.89)">
        <path
           d="m 341.3589,70.72903 c -0.1963,-5e-5 -0.3665,0.02822 -0.5106,0.0848 -0.0975,0.03829 -0.1757,0.12561 -0.2347,0.26195 -0.0589,0.13633 -0.0912,0.38705 -0.0971,0.75216 -0.006,0.36511 0.0197,0.8635 0.0769,1.49517 0.0571,0.63167 0.105,1.27723 0.1434,1.93667 0.0385,0.65945 0.0246,1.21641 -0.0418,1.67088 -0.0963,0.65907 -0.5383,1.1667 -1.3261,1.52291"
           style="fill:none;stroke:#000000;stroke-width:1.03937;stroke-linecap:round;stroke-linejoin:round;stroke-miterlimit:10;stroke-dasharray:none;stroke-opacity:1"
           id="path914" />
      </g>
      <g
         id="g916"
         transform="matrix(0.5454546,0,0,-0.5454546,0,841.89)">
        <path
           d="m 335.7754,79.44942 c -0.5907,0.13962 -1.0664,0.26694 -1.4273,0.38196 -0.2459,0.07834 -0.3829,0.122 -0.4111,0.13098 -0.0281,0.009 -0.0392,0.01357 -0.033,0.01381 0.006,2.3e-4 0.036,0.0014 0.0895,0.0035 0.0536,0.0021 0.3955,-0.0922 1.0258,-0.28287 0.6302,-0.19067 1.5582,-0.48138 2.784,-0.87214 1.2257,-0.39076 2.6424,-0.78141 4.25,-1.17197 1.6075,-0.39055 3.0231,-0.64241 4.2467,-0.75558 1.2236,-0.11317 2.4337,-0.0699 3.6305,0.1298"
           style="fill:none;stroke:#000000;stroke-width:1.03937;stroke-linecap:round;stroke-linejoin:round;stroke-miterlimit:10;stroke-dasharray:none;stroke-opacity:1"
           id="path918" />
      </g>
    </g>
  </g>
</svg>
