<svg xmlns="http://www.w3.org/2000/svg" width="17.241" height="17.48"><path d="M94.43 62.436q.198.064.165.622-.032.558-.254 1.373a16 16 0 0 1-.54 1.634 13 13 0 0 1-.626 1.384q-.306.565-.552.642" style="fill:none;stroke:#000;stroke-width:1.03937;stroke-linecap:round;stroke-linejoin:round;stroke-miterlimit:10;stroke-dasharray:none;stroke-opacity:1" transform="matrix(.72727 0 0 .72727 -65.556 -43.518)"/><path d="M95.226 62.957q.108-.206.504-.405.255-.129.753-.292.497-.162 1.1-.315.6-.153 1.071-.249.47-.096.73-.125l.273-.031q.015-.002.013.007 0 .01-.029.17a2 2 0 0 0-.027.355q0 .197-.055.693-.056.495-.279 1.49a20 20 0 0 1-.604 2.109q-.382 1.117-.675 1.792-.294.677-.34.825" style="fill:none;stroke:#000;stroke-width:1.03937;stroke-linecap:round;stroke-linejoin:round;stroke-miterlimit:10;stroke-dasharray:none;stroke-opacity:1" transform="matrix(.72727 0 0 .72727 -65.556 -43.518)"/><path d="M93.808 70.828q-.354-.054-.286 1.213.069 1.267-.1 3.092a16 16 0 0 1-.689 3.434q-.52 1.61-1.01 2.447-.493.838-.778 1.176l-.286.339" style="fill:none;stroke:#000;stroke-width:1.03937;stroke-linecap:round;stroke-linejoin:round;stroke-miterlimit:10;stroke-dasharray:none;stroke-opacity:1" transform="matrix(.72727 0 0 .72727 -65.556 -43.518)"/><path d="M94.232 70.743q.229-.457.294-.694a.6.6 0 0 1 .148-.266q.105-.104.351-.207.247-.102.7-.25.45-.146 1.062-.397.61-.25 1.23-.548.619-.298 1.083-.538.465-.24.723-.339.259-.097.477-.117t.245.088q.028.105.037.427.01.32.004 1.06t-.258 4.272-.36 5.085a52 52 0 0 0-.126 2.37q-.016.82.048 1.618.065.798.048.901-.015.103-.173.132-.226.04-.852-.243" style="fill:none;stroke:#000;stroke-width:1.03937;stroke-linecap:round;stroke-linejoin:round;stroke-miterlimit:10;stroke-dasharray:none;stroke-opacity:1" transform="matrix(.72727 0 0 .72727 -65.556 -43.518)"/><path d="M94.173 73.83q-.09-.406.06-.496.103-.063.592-.175.489-.113 1.32-.341a59 59 0 0 0 1.615-.469q.785-.24 1.115-.298" style="fill:none;stroke:#000;stroke-width:1.03937;stroke-linecap:round;stroke-linejoin:round;stroke-miterlimit:10;stroke-dasharray:none;stroke-opacity:1" transform="matrix(.72727 0 0 .72727 -65.556 -43.518)"/><path d="M94.663 76.141q-.27.385-.494.459l-.164.054q-.01.004.009.001l.314-.036q.294-.033 1.027-.204a56 56 0 0 0 1.618-.405q1.367-.36 2.138-.799" style="fill:none;stroke:#000;stroke-width:1.03937;stroke-linecap:round;stroke-linejoin:round;stroke-miterlimit:10;stroke-dasharray:none;stroke-opacity:1" transform="matrix(.72727 0 0 .72727 -65.556 -43.518)"/><path d="M97.503 70.615q-.37-.12-.504-.127-.093-.003-.121.382-.029.385-.031 1.342-.004 1.436.472 2.652" style="fill:none;stroke:#000;stroke-width:1.03937;stroke-linecap:round;stroke-linejoin:round;stroke-miterlimit:10;stroke-dasharray:none;stroke-opacity:1" transform="matrix(.72727 0 0 .72727 -65.556 -43.518)"/><path d="M104.109 62.56q.15.04.635-.165.484-.206 1.57-.603a27 27 0 0 1 2.193-.7q1.107-.3 2.091-.452a43 43 0 0 0 1.316-.217q.332-.065.425-.066t.22.102q.126.105.232.376t.13.727-.124 1.076a6.4 6.4 0 0 1-.429 1.225q-.426.911-1.05 1.333" style="fill:none;stroke:#000;stroke-width:1.03937;stroke-linecap:round;stroke-linejoin:round;stroke-miterlimit:10;stroke-dasharray:none;stroke-opacity:1" transform="matrix(.72727 0 0 .72727 -65.556 -43.518)"/><path d="M108.026 62.076q-.142.162-.364.864-.222.703-.895 2.386a32 32 0 0 1-1.61 3.402q-.936 1.718-1.44 2.43l-.471.668.002-.003.017-.024-.051.072" style="fill:none;stroke:#000;stroke-width:1.03937;stroke-linecap:round;stroke-linejoin:round;stroke-miterlimit:10;stroke-dasharray:none;stroke-opacity:1" transform="matrix(.72727 0 0 .72727 -65.556 -43.518)"/><path d="M106.883 68.696q.378-.518.37-.472l-.025.164q-.02.13-.34.7-.321.57-.912 1.468-.592.9-1.228 1.964-.637 1.065-.91 1.872" style="fill:none;stroke:#000;stroke-width:1.03937;stroke-linecap:round;stroke-linejoin:round;stroke-miterlimit:10;stroke-dasharray:none;stroke-opacity:1" transform="matrix(.72727 0 0 .72727 -65.556 -43.518)"/><path d="M105.435 72.297q.845-.314 2.656-.917a36 36 0 0 1 2.082-.632q.94-.25 1.313-.268l.374-.019" style="fill:none;stroke:#000;stroke-width:1.03937;stroke-linecap:round;stroke-linejoin:round;stroke-miterlimit:10;stroke-dasharray:none;stroke-opacity:1" transform="matrix(.72727 0 0 .72727 -65.556 -43.518)"/><path d="m103.365 77.708-.701.029h-.011q.009-.003.163-.026.153-.025 1.083-.25.93-.227 2.43-.53 1.5-.3 3.01-.468a39 39 0 0 1 2.393-.207 3 3 0 0 0 1.594-.533" style="fill:none;stroke:#000;stroke-width:1.03937;stroke-linecap:round;stroke-linejoin:round;stroke-miterlimit:10;stroke-dasharray:none;stroke-opacity:1" transform="matrix(.72727 0 0 .72727 -65.556 -43.518)"/><path d="M109.17 68.991q-.25-.028-.353.035-.074.044-.092.402t.029 1.629q.047 1.27.003 3.363a43 43 0 0 1-.254 3.928q-.21 1.835-.413 2.76" style="fill:none;stroke:#000;stroke-width:1.03937;stroke-linecap:round;stroke-linejoin:round;stroke-miterlimit:10;stroke-dasharray:none;stroke-opacity:1" transform="matrix(.72727 0 0 .72727 -65.556 -43.518)"/></svg>