<?xml version="1.0" encoding="UTF-8" standalone="no"?>
<!-- Created with Inkscape (http://www.inkscape.org/) -->

<svg
   version="1.1"
   id="svg2"
   width="17.241089"
   height="17.480293"
   viewBox="0 0 17.241089 17.480293"
   sodipodi:docname="E24136542_宋昱宣_預報2.svg"
   inkscape:version="1.2.1 (9c6d41e410, 2022-07-14)"
   xmlns:inkscape="http://www.inkscape.org/namespaces/inkscape"
   xmlns:sodipodi="http://sodipodi.sourceforge.net/DTD/sodipodi-0.dtd"
   xmlns="http://www.w3.org/2000/svg"
   xmlns:svg="http://www.w3.org/2000/svg">
  <defs
     id="defs6" />
  <sodipodi:namedview
     id="namedview4"
     pagecolor="#ffffff"
     bordercolor="#000000"
     borderopacity="0.25"
     inkscape:showpageshadow="2"
     inkscape:pageopacity="0.0"
     inkscape:pagecheckerboard="0"
     inkscape:deskcolor="#d1d1d1"
     showgrid="false"
     inkscape:zoom="2.3786081"
     inkscape:cx="203.48035"
     inkscape:cy="340.32508"
     inkscape:window-width="1600"
     inkscape:window-height="930"
     inkscape:window-x="-6"
     inkscape:window-y="-6"
     inkscape:window-maximized="1"
     inkscape:current-layer="g10" />
  <g
     id="g10"
     inkscape:groupmode="layer"
     inkscape:label="Page 1"
     transform="matrix(1.3333333,0,0,-1.3333333,-65.555854,1079.0022)">
    <g
       id="g47335">
      <g
         id="g568"
         transform="matrix(0.5454546,0,0,-0.5454546,0,841.89)">
        <path
           d="m 94.4296,62.43581 c 0.1326,0.04289 0.1879,0.2503 0.1659,0.62221 -0.02199,0.37192 -0.10677,0.82948 -0.25433,1.37267 -0.14756,0.5432 -0.32782,1.08789 -0.54079,1.63405 -0.21296,0.54617 -0.42139,1.0077 -0.62529,1.3846 -0.20389,0.3769 -0.38788,0.59069 -0.55196,0.64137"
           style="fill:none;stroke:#000000;stroke-width:1.03937;stroke-linecap:round;stroke-linejoin:round;stroke-miterlimit:10;stroke-dasharray:none;stroke-opacity:1"
           id="path570" />
      </g>
      <g
         id="g572"
         transform="matrix(0.5454546,0,0,-0.5454546,0,841.89)">
        <path
           d="m 95.22569,62.95732 c 0.07271,-0.1375 0.2407,-0.27256 0.50397,-0.40518 0.17054,-0.08591 0.42157,-0.18313 0.75311,-0.29166 0.33154,-0.10854 0.69804,-0.21371 1.09951,-0.31553 0.40148,-0.10181 0.75885,-0.18475 1.07212,-0.24884 0.31327,-0.06408 0.55623,-0.10588 0.72888,-0.12539 0.17265,-0.01952 0.26393,-0.02983 0.27386,-0.03096 0.0099,-0.0011 0.01434,0.0014 0.01329,0.0075 -0.0011,0.0061 -0.01077,0.06246 -0.02915,0.169 -0.01837,0.10653 -0.02756,0.22523 -0.02757,0.3561 -1e-5,0.13087 -0.01835,0.36174 -0.05502,0.69262 -0.03669,0.33087 -0.12943,0.82728 -0.27824,1.48922 -0.14881,0.66193 -0.35044,1.36512 -0.60488,2.10956 -0.25445,0.74445 -0.47946,1.34198 -0.67502,1.79261 -0.19556,0.45063 -0.309,0.7255 -0.3403,0.82461"
           style="fill:none;stroke:#000000;stroke-width:1.03937;stroke-linecap:round;stroke-linejoin:round;stroke-miterlimit:10;stroke-dasharray:none;stroke-opacity:1"
           id="path574" />
      </g>
      <g
         id="g576"
         transform="matrix(0.5454546,0,0,-0.5454546,0,841.89)">
        <path
           d="m 93.80793,70.82788 c -0.23607,-0.03582 -0.33126,0.3686 -0.28558,1.21326 0.04569,0.84466 0.01213,1.87528 -0.10067,3.09186 -0.11281,1.21656 -0.34223,2.36124 -0.68828,3.43402 -0.34606,1.07278 -0.68309,1.88852 -1.0111,2.44722 -0.32802,0.5587 -0.58724,0.95077 -0.77767,1.1762 -0.19043,0.22544 -0.28565,0.33815 -0.28565,0.33815"
           style="fill:none;stroke:#000000;stroke-width:1.03937;stroke-linecap:round;stroke-linejoin:round;stroke-miterlimit:10;stroke-dasharray:none;stroke-opacity:1"
           id="path578" />
      </g>
      <g
         id="g580"
         transform="matrix(0.5454546,0,0,-0.5454546,0,841.89)">
        <path
           d="m 94.23216,70.74306 c 0.15236,-0.30483 0.25024,-0.53603 0.29363,-0.69359 0.02982,-0.1083 0.07939,-0.19706 0.14871,-0.26628 0.06931,-0.06922 0.18624,-0.13817 0.3508,-0.20685 0.16456,-0.06869 0.39748,-0.15194 0.69877,-0.24977 0.30128,-0.09783 0.65544,-0.23024 1.06247,-0.39723 0.40704,-0.167 0.81702,-0.3498 1.22995,-0.54841 0.41293,-0.19862 0.77426,-0.37804 1.08399,-0.53826 0.30973,-0.16023 0.55071,-0.27306 0.72292,-0.3385 0.17222,-0.06543 0.331,-0.10453 0.4765,-0.11728 0.1454,-0.01276 0.2272,0.01645 0.2454,0.08764 0.0183,0.0712 0.0306,0.21367 0.0371,0.42741 0.006,0.21374 0.008,0.56711 0.004,1.06011 -0.004,0.49301 -0.0901,1.91713 -0.2584,4.27237 -0.1682,2.35524 -0.2884,4.05011 -0.36057,5.08462 -0.07218,1.0345 -0.11383,1.8247 -0.12495,2.37059 -0.01112,0.54589 0.0048,1.08495 0.04785,1.61719 0.04302,0.53225 0.05905,0.83264 0.0481,0.90117 -0.01097,0.06855 -0.06889,0.11242 -0.17377,0.13162 -0.15081,0.02762 -0.43477,-0.05318 -0.85188,-0.24241"
           style="fill:none;stroke:#000000;stroke-width:1.03937;stroke-linecap:round;stroke-linejoin:round;stroke-miterlimit:10;stroke-dasharray:none;stroke-opacity:1"
           id="path582" />
      </g>
      <g
         id="g584"
         transform="matrix(0.5454546,0,0,-0.5454546,0,841.89)">
        <path
           d="m 94.17318,73.82936 c -0.05958,-0.27032 -0.0399,-0.4354 0.05901,-0.49524 0.06937,-0.04197 0.26711,-0.10043 0.5932,-0.17537 0.3261,-0.07494 0.7661,-0.18859 1.31998,-0.34095 0.55388,-0.15235 1.09222,-0.30857 1.61504,-0.46866 0.52281,-0.1601 0.89425,-0.25953 1.1143,-0.29828"
           style="fill:none;stroke:#000000;stroke-width:1.03937;stroke-linecap:round;stroke-linejoin:round;stroke-miterlimit:10;stroke-dasharray:none;stroke-opacity:1"
           id="path586" />
      </g>
      <g
         id="g588"
         transform="matrix(0.5454546,0,0,-0.5454546,0,841.89)">
        <path
           d="m 94.66328,76.14112 c -0.18072,0.25624 -0.34553,0.40908 -0.49441,0.45852 -0.10274,0.03412 -0.15748,0.0523 -0.16423,0.05454 -0.0068,0.0023 -0.0037,0.0026 0.0092,0.0011 0.01291,-0.0015 0.11759,-0.01352 0.31403,-0.0361 0.19643,-0.02259 0.53882,-0.09067 1.02719,-0.20424 0.48835,-0.11358 1.02773,-0.24848 1.61813,-0.4047 0.91139,-0.24116 1.62388,-0.50746 2.13748,-0.79891"
           style="fill:none;stroke:#000000;stroke-width:1.03937;stroke-linecap:round;stroke-linejoin:round;stroke-miterlimit:10;stroke-dasharray:none;stroke-opacity:1"
           id="path590" />
      </g>
      <g
         id="g592"
         transform="matrix(0.5454546,0,0,-0.5454546,0,841.89)">
        <path
           d="m 97.50281,70.61489 c -0.24638,-0.08075 -0.41435,-0.12297 -0.50392,-0.12667 -0.06208,-0.0026 -0.10246,0.1246 -0.12115,0.38149 -0.01869,0.2569 -0.02897,0.70419 -0.03085,1.34188 -0.0028,0.95776 0.15471,1.84194 0.47254,2.65255"
           style="fill:none;stroke:#000000;stroke-width:1.03937;stroke-linecap:round;stroke-linejoin:round;stroke-miterlimit:10;stroke-dasharray:none;stroke-opacity:1"
           id="path594" />
      </g>
      <g
         id="g596"
         transform="matrix(0.5454546,0,0,-0.5454546,0,841.89)">
        <path
           d="m 104.1085,62.55933 c 0.1009,0.02734 0.3128,-0.02746 0.6357,-0.16441 0.3229,-0.13695 0.8462,-0.33804 1.5699,-0.60327 0.7237,-0.26524 1.4545,-0.49814 2.1925,-0.69872 0.738,-0.20058 1.4353,-0.35165 2.0918,-0.45322 0.6566,-0.10157 1.0952,-0.17386 1.316,-0.21687 0.2207,-0.04302 0.3622,-0.06507 0.4245,-0.06618 0.0622,-0.0011 0.1355,0.0331 0.2197,0.10261 0.0843,0.06951 0.1618,0.19477 0.2327,0.37577 0.0708,0.18101 0.1141,0.42318 0.1298,0.7265 0.0156,0.30333 -0.0257,0.66218 -0.124,1.07656 -0.0983,0.41437 -0.2413,0.82251 -0.4291,1.22441 -0.2839,0.60764 -0.6341,1.05214 -1.0508,1.3335"
           style="fill:none;stroke:#000000;stroke-width:1.03937;stroke-linecap:round;stroke-linejoin:round;stroke-miterlimit:10;stroke-dasharray:none;stroke-opacity:1"
           id="path598" />
      </g>
      <g
         id="g600"
         transform="matrix(0.5454546,0,0,-0.5454546,0,841.89)">
        <path
           d="m 108.0258,62.07647 c -0.0947,0.1078 -0.216,0.39572 -0.3638,0.86376 -0.1477,0.46804 -0.4459,1.26335 -0.8946,2.38593 -0.4486,1.12257 -0.9853,2.25654 -1.6099,3.4019 -0.6247,1.14535 -1.1048,1.95553 -1.4404,2.43053 l -0.4715,0.66738 0.002,-0.0031 0.0171,-0.0241 -0.0511,0.07227"
           style="fill:none;stroke:#000000;stroke-width:1.03937;stroke-linecap:round;stroke-linejoin:round;stroke-miterlimit:10;stroke-dasharray:none;stroke-opacity:1"
           id="path602" />
      </g>
      <g
         id="g604"
         transform="matrix(0.5454546,0,0,-0.5454546,0,841.89)">
        <path
           d="m 106.8834,68.69585 c 0.2513,-0.34527 0.3746,-0.50254 0.3699,-0.47182 -0.003,0.02181 -0.0118,0.07634 -0.0252,0.16358 -0.0135,0.08725 -0.1269,0.32063 -0.3404,0.70015 -0.2135,0.37952 -0.5174,0.86899 -0.9117,1.46842 -0.3944,0.59942 -0.8036,1.25419 -1.2278,1.96431 -0.4241,0.71012 -0.7278,1.33383 -0.9109,1.87113"
           style="fill:none;stroke:#000000;stroke-width:1.03937;stroke-linecap:round;stroke-linejoin:round;stroke-miterlimit:10;stroke-dasharray:none;stroke-opacity:1"
           id="path606" />
      </g>
      <g
         id="g608"
         transform="matrix(0.5454546,0,0,-0.5454546,0,841.89)">
        <path
           d="m 105.4347,72.29726 c 0.5633,-0.20912 1.4489,-0.51502 2.6565,-0.91768 0.7617,-0.25396 1.4557,-0.46439 2.082,-0.63127 0.6264,-0.16689 1.0641,-0.25644 1.3132,-0.26863 0.2491,-0.0122 0.3737,-0.0183 0.3737,-0.0183"
           style="fill:none;stroke:#000000;stroke-width:1.03937;stroke-linecap:round;stroke-linejoin:round;stroke-miterlimit:10;stroke-dasharray:none;stroke-opacity:1"
           id="path610" />
      </g>
      <g
         id="g612"
         transform="matrix(0.5454546,0,0,-0.5454546,0,841.89)">
        <path
           d="m 103.3645,77.70773 c -0.4481,0.01861 -0.6817,0.02831 -0.7007,0.0291 -0.0134,5.6e-4 -0.0171,3.7e-4 -0.011,-5.7e-4 0.006,-9.4e-4 0.0603,-0.0094 0.1628,-0.02526 0.1026,-0.0159 0.4636,-0.09937 1.0831,-0.2504 0.6195,-0.15103 1.4296,-0.32731 2.4303,-0.52882 1.0008,-0.20151 2.0041,-0.35783 3.0102,-0.46894 1.006,-0.1111 1.8036,-0.18007 2.3927,-0.2069 0.5891,-0.02683 1.1205,-0.20463 1.5942,-0.53341"
           style="fill:none;stroke:#000000;stroke-width:1.03937;stroke-linecap:round;stroke-linejoin:round;stroke-miterlimit:10;stroke-dasharray:none;stroke-opacity:1"
           id="path614" />
      </g>
      <g
         id="g616"
         transform="matrix(0.5454546,0,0,-0.5454546,0,841.89)">
        <path
           d="m 109.1693,68.99129 c -0.1653,-0.01892 -0.2829,-0.0072 -0.3527,0.03503 -0.0483,0.0292 -0.0787,0.16316 -0.0913,0.4019 -0.0127,0.23873 -0.003,0.78159 0.0283,1.62858 0.0315,0.84699 0.0325,1.96807 0.003,3.36323 -0.0296,1.39516 -0.1142,2.70432 -0.2537,3.92747 -0.1395,1.22315 -0.2771,2.14345 -0.4127,2.76089"
           style="fill:none;stroke:#000000;stroke-width:1.03937;stroke-linecap:round;stroke-linejoin:round;stroke-miterlimit:10;stroke-dasharray:none;stroke-opacity:1"
           id="path618" />
      </g>
    </g>
  </g>
</svg>
